<?xml version="1.0" encoding="utf-8" standalone="no"?>
<!DOCTYPE svg PUBLIC "-//W3C//DTD SVG 1.1//EN"
  "http://www.w3.org/Graphics/SVG/1.1/DTD/svg11.dtd">
<svg xmlns:xlink="http://www.w3.org/1999/xlink" width="293.4pt" height="208.700859pt" viewBox="0 0 293.4 208.700859" xmlns="http://www.w3.org/2000/svg" version="1.1">
 <metadata>
  <rdf:RDF xmlns:dc="http://purl.org/dc/elements/1.1/" xmlns:cc="http://creativecommons.org/ns#" xmlns:rdf="http://www.w3.org/1999/02/22-rdf-syntax-ns#">
   <cc:Work>
    <dc:type rdf:resource="http://purl.org/dc/dcmitype/StillImage"/>
    <dc:date>2024-08-06T14:07:33.279592</dc:date>
    <dc:format>image/svg+xml</dc:format>
    <dc:creator>
     <cc:Agent>
      <dc:title>Matplotlib v3.9.1, https://matplotlib.org/</dc:title>
     </cc:Agent>
    </dc:creator>
   </cc:Work>
  </rdf:RDF>
 </metadata>
 <defs>
  <style type="text/css">*{stroke-linejoin: round; stroke-linecap: butt}</style>
 </defs>
 <g id="figure_1">
  <g id="patch_1">
   <path d="M 0 208.700859 
L 293.4 208.700859 
L 293.4 0 
L 0 0 
z
" style="fill: #ffffff"/>
  </g>
  <g id="axes_1">
   <g id="PatchCollection_1">
    <defs>
     <path id="mdb2bc9219f" d="M 272.797731 -101.19056 
L 272.501417 -98.542543 
L 272.298064 -97.802969 
L 271.966889 -97.280166 
L 270.740961 -95.796767 
L 270.845543 -94.572643 
L 271.246439 -93.376148 
L 271.385881 -92.243409 
L 270.706101 -91.204179 
L 269.753247 -90.589993 
L 269.526653 -89.837667 
L 269.578944 -88.900448 
L 269.456932 -87.733705 
L 268.916594 -86.762482 
L 268.306535 -86.178049 
L 268.039272 -85.39597 
L 268.509888 -83.823312 
L 269.526653 -82.633192 
L 271.920408 -82.373916 
L 273.094046 -81.379316 
L 273.518182 -79.793906 
L 273.477511 -77.670817 
L 273.030135 -75.632737 
L 272.686514 -75.057358 
L 272.245773 -74.319355 
L 271.229008 -74.12171 
L 267.202619 -75.190693 
L 265.24462 -75.003674 
L 264.52417 -75.122686 
L 263.890871 -75.418091 
L 263.536455 -75.796379 
L 263.240141 -76.210795 
L 262.798575 -76.606085 
L 260.480351 -77.409416 
L 260.230517 -78.302006 
L 260.538451 -79.991551 
L 260.42806 -80.92027 
L 259.533307 -81.659844 
L 258.086596 -81.647093 
L 252.764558 -80.102062 
L 252.22422 -79.802407 
L 251.980196 -79.194596 
L 251.288796 -76.512576 
L 250.823989 -75.883513 
L 249.609681 -74.659389 
L 249.127444 -73.928316 
L 249.051913 -73.337506 
L 249.040293 -71.531075 
L 248.796269 -70.655486 
L 248.86599 -69.89466 
L 248.999622 -69.297475 
L 249.272696 -68.836303 
L 249.760744 -68.500519 
L 248.767219 -66.796098 
L 249.650352 -65.682486 
L 251.300416 -65.03217 
L 253.816183 -64.539121 
L 254.786467 -64.143831 
L 255.198983 -63.229989 
L 254.774847 -61.436308 
L 254.368141 -60.883753 
L 253.188694 -59.812645 
L 252.764558 -59.013565 
L 252.479863 -57.899953 
L 252.445003 -57.147627 
L 252.671596 -56.454807 
L 253.182884 -55.536715 
L 255.501108 -53.143724 
L 256.221558 -51.677326 
L 255.483677 -50.104668 
L 253.914954 -49.101567 
L 251.54444 -48.187725 
L 249.685212 -48.225979 
L 249.638732 -50.083416 
L 249.069343 -51.481807 
L 246.849891 -53.479508 
L 246.024859 -54.610121 
L 245.658823 -56.412303 
L 245.635583 -58.040217 
L 245.263738 -59.379102 
L 243.857697 -60.314196 
L 242.70149 -60.618101 
L 241.609194 -60.700985 
L 239.157338 -60.273816 
L 235.415643 -58.327121 
L 234.247816 -57.942457 
L 233.527365 -58.099723 
L 232.156185 -58.937057 
L 231.551937 -58.951933 
L 230.941878 -58.252738 
L 230.831486 -57.313394 
L 230.918637 -56.380425 
L 230.895397 -55.732234 
L 230.035504 -54.525113 
L 228.978069 -54.091569 
L 222.534684 -54.168077 
L 221.227415 -54.652626 
L 220.036348 -55.472958 
L 219.321707 -56.471809 
L 218.200361 -59.438607 
L 217.700693 -59.855149 
L 216.457335 -60.554345 
L 216.050629 -60.958135 
L 215.940238 -61.419307 
L 216.021579 -62.673183 
L 215.684594 -70.561977 
L 215.504481 -71.078404 
L 215.062915 -70.978519 
L 214.156542 -70.302701 
L 213.773076 -69.777773 
L 213.575533 -69.193339 
L 213.302459 -68.70029 
L 212.6924 -68.453765 
L 212.268264 -68.640784 
L 210.833173 -70.022173 
L 210.792502 -71.04015 
L 209.676966 -71.339805 
L 206.940416 -70.999771 
L 205.86555 -69.99242 
L 204.889456 -68.01172 
L 204.447889 -65.997018 
L 204.988227 -64.885531 
L 205.737728 -64.360603 
L 205.84812 -63.53602 
L 205.702868 -62.498915 
L 205.708678 -61.323672 
L 206.463989 -58.405753 
L 206.53952 -57.347397 
L 206.190915 -55.536715 
L 204.546661 -52.051364 
L 203.710008 -49.105817 
L 203.198721 -48.272734 
L 202.547991 -47.656422 
L 201.874021 -47.333389 
L 201.263962 -46.874343 
L 200.950218 -46.058261 
L 200.688764 -45.110415 
L 200.277789 -44.319222 
L 200.247198 -44.26033 
L 196.162708 -41.455047 
L 195.122702 -39.869638 
L 194.901919 -38.807031 
L 195.023931 -36.953844 
L 194.843818 -35.942243 
L 194.396442 -35.172915 
L 193.861914 -34.854133 
L 192.630176 -34.458843 
L 191.189275 -33.323979 
L 190.945251 -32.388885 
L 191.944586 -29.524097 
L 190.096979 -27.785672 
L 189.974967 -27.581651 
L 189.934296 -27.36913 
L 189.974967 -27.160859 
L 190.096979 -26.952588 
L 190.701228 -26.327775 
L 191.166034 -24.831625 
L 191.677322 -24.058047 
L 192.22347 -23.739265 
L 193.449398 -23.488489 
L 193.978116 -23.144205 
L 194.617225 -21.779817 
L 194.402252 -20.381427 
L 193.002021 -17.597396 
L 191.206705 -15.34467 
L 189.51597 -15.667702 
L 187.674173 -16.505036 
L 185.448911 -15.812217 
L 185.658074 -17.078844 
L 185.995059 -18.056443 
L 186.221652 -19.076545 
L 186.128691 -20.500439 
L 185.814946 -21.575797 
L 185.344329 -22.651155 
L 184.368235 -24.423583 
L 183.816277 -25.736966 
L 183.450241 -26.259768 
L 183.072586 -26.561549 
L 179.847988 -28.325476 
L 178.988096 -28.635757 
L 178.023622 -28.699514 
L 178.116583 -28.920536 
L 178.331556 -29.315826 
L 179.319271 -31.628059 
L 180.928664 -33.621509 
L 181.759507 -35.551203 
L 180.330226 -37.472397 
L 179.481953 -37.774177 
L 177.756358 -37.731673 
L 176.855795 -37.859186 
L 176.425848 -38.156716 
L 176.013332 -38.926043 
L 175.834808 -38.992976 
L 175.548525 -39.100311 
L 175.19992 -38.934544 
L 174.328408 -38.148215 
L 173.927512 -37.918692 
L 172.939797 -37.969697 
L 170.319449 -39.525353 
L 169.232963 -39.907892 
L 168.686815 -40.19267 
L 165.136853 -45.522707 
L 163.539079 -47.188875 
L 161.987787 -47.983705 
L 160.517835 -48.583015 
L 159.48364 -49.450102 
L 158.867771 -50.771985 
L 158.646988 -52.778187 
L 158.83872 -54.8949 
L 159.750904 -59.155954 
L 159.942637 -61.525568 
L 159.913586 -64.007817 
L 159.681183 -65.865254 
L 158.908441 -66.995868 
L 157.293238 -67.282772 
L 156.548421 -67.120521 
L 154.161602 -66.600578 
L 152.633549 -65.758994 
L 151.436672 -64.475364 
L 150.966055 -63.431884 
L 151.181028 -63.083349 
L 151.552874 -62.796445 
L 151.576114 -61.963362 
L 151.239129 -61.211036 
L 150.681361 -60.533093 
L 150.036441 -60.033667 
L 148.444478 -59.217585 
L 145.678878 -55.519713 
L 144.51686 -54.699381 
L 142.076625 -54.146825 
L 140.862317 -53.577268 
L 139.764211 -52.446654 
L 139.200633 -51.643323 
L 138.962419 -50.950503 
L 139.159962 -50.631721 
L 140.473041 -49.471354 
L 142.134726 -46.215527 
L 142.291598 -43.197723 
L 141.07148 -40.532705 
L 138.613814 -38.364987 
L 138.003755 -38.156716 
L 136.841738 -38.029203 
L 136.27816 -37.587158 
L 135.877264 -36.741323 
L 135.755252 -35.797728 
L 135.749442 -34.875385 
L 135.453128 -32.5334 
L 135.348546 -32.367633 
L 134.802398 -31.14351 
L 134.761727 -30.964992 
L 134.058707 -30.034148 
L 133.657811 -29.694114 
L 133.117473 -29.524097 
L 129.131755 -28.606004 
L 128.320962 -27.941395 
L 127.7102 -26.749904 
L 127.55751 -25.186072 
L 126.400518 -25.131986 
L 126.331294 -24.997391 
L 126.156991 -24.151556 
L 126.203472 -23.722263 
L 126.06984 -23.445985 
L 125.36682 -23.054946 
L 125.041455 -23.071947 
L 124.03631 -23.386479 
L 122.490828 -23.356726 
L 119.789138 -24.364077 
L 119.23718 -24.300321 
L 118.813044 -24.0963 
L 118.342427 -23.981539 
L 117.651027 -24.223813 
L 117.569685 -24.432084 
L 116.51225 -26.004743 
L 115.669788 -26.803823 
L 114.786655 -27.322375 
L 109.057911 -28.784522 
L 108.116677 -28.287222 
L 107.570529 -27.352128 
L 106.95466 -26.531796 
L 105.775213 -26.37878 
L 104.101908 -25.639206 
L 100.778539 -23.156956 
L 98.977413 -22.510891 
L 94.753481 -22.969937 
L 94.0156 -22.710661 
L 92.435257 -21.711811 
L 88.966636 -20.258164 
L 87.270091 -19.935132 
L 85.434104 -19.901128 
L 83.708509 -20.262415 
L 82.40124 -21.061495 
L 79.879663 -23.943285 
L 79.490387 -24.606352 
L 79.188263 -25.435185 
L 78.793177 -26.939837 
L 78.148257 -28.648509 
L 77.944904 -29.524097 
L 77.67183 -29.711116 
L 73.866225 -34.089056 
L 72.588006 -34.662864 
L 72.117389 -34.467344 
L 71.716493 -34.046552 
L 71.286547 -33.715019 
L 70.752019 -33.791526 
L 70.258162 -34.174065 
L 70.223301 -34.42909 
L 70.339503 -34.773375 
L 70.316263 -35.410939 
L 70.397604 -35.491697 
L 70.380174 -36.350284 
L 70.281402 -37.166366 
L 70.12453 -37.085608 
L 70.380174 -37.510651 
L 70.83336 -38.071707 
L 71.228446 -38.70077 
L 71.286547 -39.329834 
L 70.426654 -40.175669 
L 65.952889 -41.17877 
L 65.464841 -42.560159 
L 65.981939 -45.378192 
L 66.958033 -48.323739 
L 68.950893 -52.255385 
L 67.672674 -54.486859 
L 65.679815 -56.6312 
L 64.604949 -58.509889 
L 64.907073 -59.45986 
L 66.388645 -61.219537 
L 66.789541 -62.596675 
L 66.726476 -63.402947 
L 66.667529 -64.156582 
L 66.142326 -64.973815 
L 65.296349 -65.397707 
L 56.921111 -67.588803 
L 53.173606 -67.70994 
L 49.571353 -66.987367 
L 44.778033 -63.663533 
L 42.953666 -63.191735 
L 41.106059 -63.104601 
L 39.374654 -62.537169 
L 37.550287 -60.936883 
L 35.946704 -58.792542 
L 34.761446 -57.160378 
L 34.459322 -56.038265 
L 34.691725 -55.217933 
L 35.208823 -53.819542 
L 35.237873 -53.488009 
L 35.778211 -52.127872 
L 36.016425 -51.779337 
L 36.603243 -51.469055 
L 37.544477 -51.906849 
L 37.939563 -51.732582 
L 38.230067 -49.836891 
L 36.777546 -48.276984 
L 33.181103 -45.858491 
L 30.310921 -42.445397 
L 28.486554 -41.493301 
L 26.575036 -42.360389 
L 24.012789 -42.258378 
L 21.462161 -41.642066 
L 20.108412 -40.821734 
L 20.857912 -42.606913 
L 21.287859 -43.435747 
L 21.462161 -44.141318 
L 20.468637 -45.407945 
L 19.881818 -46.534309 
L 20.090981 -47.524658 
L 21.462161 -48.408747 
L 24.832011 -50.083416 
L 24.924972 -50.113169 
L 25.017933 -50.12167 
L 25.122515 -50.113169 
L 25.564081 -49.968654 
L 25.901066 -49.92615 
L 26.226431 -49.964404 
L 27.463979 -50.355443 
L 27.708003 -50.903748 
L 27.655712 -51.664575 
L 27.684763 -52.552914 
L 28.085658 -54.882149 
L 28.271581 -55.523963 
L 29.089878 -57.379154 
L 30.090138 -59.646878 
L 30.014607 -60.55647 
L 29.329017 -61.801845 
L 28.503985 -62.702936 
L 25.740097 -64.420819 
L 25.47112 -64.588001 
L 26.11604 -65.212814 
L 26.220621 -65.754743 
L 26.104419 -66.311549 
L 26.104419 -66.938487 
L 26.063749 -67.191388 
L 25.930117 -67.531422 
L 25.808105 -67.918211 
L 25.808105 -68.339003 
L 26.028888 -68.840554 
L 26.667998 -69.537624 
L 28.625996 -72.929465 
L 30.613046 -75.46272 
L 29.253486 -76.997125 
L 29.079183 -78.080984 
L 29.834494 -79.079834 
L 37.393415 -86.050536 
L 41.419804 -88.275635 
L 41.977572 -88.749557 
L 43.459144 -90.430602 
L 45.324181 -91.425202 
L 45.91681 -91.869371 
L 46.550109 -92.668452 
L 46.765082 -93.350646 
L 46.741842 -94.73841 
L 46.323516 -95.201707 
L 46.027202 -95.605497 
L 45.870329 -96.068794 
L 45.95167 -96.468334 
L 46.834803 -99.143979 
L 47.224079 -99.851675 
L 47.332569 -100.12358 
L 47.537824 -100.638004 
L 47.630785 -101.777119 
L 47.450672 -102.68671 
L 46.701171 -104.119104 
L 46.468768 -104.862929 
L 47.30542 -107.74897 
L 50.03035 -109.330129 
L 56.078649 -111.23432 
L 59.829059 -114.092733 
L 61.113088 -115.948045 
L 60.439118 -117.473948 
L 61.194429 -118.780955 
L 61.723147 -119.301632 
L 63.134997 -119.807433 
L 63.34416 -120.330236 
L 63.553323 -120.47475 
L 64.360925 -120.891292 
L 64.291204 -122.298184 
L 65.976129 -122.884743 
L 69.535563 -126.170473 
L 69.659723 -126.285085 
L 70.728779 -128.044762 
L 72.361413 -129.721556 
L 76.178639 -132.511962 
L 75.952045 -134.552167 
L 76.312271 -136.239587 
L 77.369706 -137.323446 
L 77.880993 -137.387203 
L 78.183118 -137.506215 
L 79.00234 -138.6092 
L 79.589159 -138.95136 
L 80.164357 -139.108626 
L 80.693075 -139.444409 
L 81.128831 -140.347625 
L 80.542013 -141.182834 
L 79.69955 -141.943661 
L 78.862898 -142.621604 
L 77.828703 -142.126429 
L 71.141295 -141.471864 
L 71.420179 -142.523844 
L 72.117389 -143.809599 
L 72.948231 -144.889208 
L 74.394942 -145.735043 
L 74.482094 -147.286449 
L 75.957855 -147.613732 
L 76.870039 -148.136534 
L 77.706691 -148.844231 
L 78.130827 -149.53705 
L 77.857753 -150.516774 
L 77.276745 -151.653763 
L 77.137303 -152.569731 
L 78.183118 -152.886387 
L 78.682785 -153.275301 
L 79.188263 -153.40494 
L 79.69955 -153.275301 
L 80.210838 -152.886387 
L 81.669169 -152.675991 
L 84.46963 -153.16054 
L 85.79433 -152.886387 
L 86.5264 -152.46772 
L 86.630465 -152.451196 
L 87.275901 -152.348708 
L 88.803954 -152.501724 
L 87.781379 -150.168239 
L 88.100933 -148.825104 
L 89.321051 -148.098281 
L 90.971115 -147.583979 
L 91.203519 -147.399085 
L 91.360391 -147.10368 
L 91.586985 -146.80615 
L 92.022741 -146.623382 
L 92.400396 -146.69989 
L 94.526888 -147.617982 
L 96.014269 -147.928263 
L 97.579131 -147.861825 
L 99.918647 -147.762497 
L 100.462385 -147.979869 
L 101.48156 -148.38731 
L 102.280648 -149.424865 
L 102.591286 -149.828205 
L 102.771398 -150.597532 
L 102.678437 -151.060829 
L 102.405363 -151.445492 
L 102.21944 -151.645262 
L 101.934746 -152.153189 
L 101.928936 -152.658989 
L 102.585476 -152.850259 
L 103.456989 -152.548478 
L 103.710372 -152.388123 
L 104.189059 -152.085182 
L 104.91532 -151.978921 
L 105.775213 -152.748248 
L 105.873984 -152.886387 
L 105.949515 -153.120161 
L 105.955325 -153.334807 
L 105.946663 -153.365541 
L 105.897224 -153.540953 
L 105.496328 -154.099884 
L 105.374317 -154.431418 
L 105.449848 -154.690694 
L 105.775213 -154.864962 
L 106.356221 -154.741699 
L 106.809408 -154.890464 
L 107.053431 -155.360136 
L 107.036001 -156.182594 
L 106.844268 -156.178344 
L 105.908844 -156.888165 
L 105.775213 -156.943421 
L 107.919309 -158.682934 
L 108.227068 -158.932621 
L 109.575008 -159.676446 
L 111.551776 -160.41539 
L 111.58245 -160.426857 
L 114.44967 -161.278857 
L 115.722078 -161.41062 
L 114.984198 -159.351288 
L 114.385759 -158.779605 
L 113.061425 -158.791094 
L 112.915807 -158.792357 
L 115.004462 -157.698325 
L 115.82085 -157.270704 
L 117.058398 -157.107062 
L 119.52532 -157.614215 
L 121.741327 -158.069784 
L 122.798762 -158.664844 
L 123.693515 -159.725326 
L 124.71609 -161.30861 
L 125.506262 -160.90907 
L 129.131755 -160.692298 
L 129.47455 -160.339513 
L 129.654663 -159.56806 
L 129.765054 -158.796607 
L 129.916116 -158.448072 
L 137.231014 -158.448072 
L 139.758401 -159.009129 
L 140.304549 -159.376791 
L 140.554382 -159.733827 
L 140.780976 -160.150368 
L 141.257403 -160.692298 
L 141.716399 -161.045083 
L 142.936517 -161.697524 
L 143.964902 -162.00143 
L 144.348368 -162.403095 
L 144.627252 -162.804761 
L 144.917756 -162.991779 
L 147.950621 -163.49758 
L 148.967386 -163.501831 
L 150.425717 -163.059786 
L 151.076447 -162.991779 
L 151.378571 -162.634743 
L 151.680695 -161.842039 
L 152.075781 -161.049334 
L 152.627739 -160.692298 
L 154.760041 -160.131241 
L 158.356483 -160.109989 
L 158.526853 -160.13843 
L 160.087889 -160.399018 
L 160.15761 -160.790058 
L 160.814149 -162.196949 
L 162.533935 -163.323313 
L 164.218859 -163.49333 
L 165.084562 -162.689999 
L 165.752722 -161.576387 
L 165.869721 -161.434 
L 166.374401 -160.819811 
L 167.129712 -161.070586 
L 167.25186 -161.282636 
L 167.495747 -161.706025 
L 167.559658 -162.322337 
L 167.530608 -162.906771 
L 167.600329 -163.467827 
L 167.577089 -163.750481 
L 167.443457 -164.071388 
L 167.350495 -164.445426 
L 167.478317 -164.900221 
L 167.68167 -165.074489 
L 167.977984 -165.185 
L 168.222008 -165.193501 
L 168.274299 -165.061738 
L 168.309159 -164.555937 
L 168.675195 -164.373168 
L 168.994749 -166.32199 
L 168.483462 -166.370869 
L 168.223459 -166.476404 
L 167.582899 -166.736406 
L 166.798537 -166.86817 
L 164.067797 -166.409123 
L 163.225335 -165.990456 
L 162.446783 -165.440026 
L 161.615941 -165.014983 
L 160.616607 -164.972479 
L 159.45459 -165.627045 
L 158.013688 -166.713029 
L 157.734804 -166.755533 
L 156.851671 -167.07644 
L 157.211897 -167.966905 
L 157.072455 -168.668226 
L 156.834241 -169.269661 
L 156.898152 -169.877472 
L 157.45011 -170.50016 
L 158.873581 -171.271613 
L 159.47202 -171.824168 
L 159.896156 -173.469084 
L 160.15761 -174.068394 
L 160.918731 -175.173505 
L 161.360297 -175.432782 
L 161.987787 -175.41578 
L 165.014841 -176.01084 
L 165.863113 -176.435882 
L 165.340206 -177.732263 
L 166.234959 -178.238064 
L 167.635189 -178.161556 
L 168.675195 -177.69826 
L 168.762346 -177.098949 
L 168.814637 -176.036342 
L 169.01218 -175.037492 
L 169.564138 -174.631576 
L 170.261348 -175.082121 
L 170.551852 -176.875802 
L 171.06314 -177.402855 
L 171.7894 -177.164831 
L 172.329738 -176.355124 
L 172.771305 -175.403029 
L 173.189631 -174.748463 
L 173.770639 -174.618825 
L 174.392318 -174.746337 
L 174.944277 -174.640077 
L 175.316122 -173.809118 
L 175.16506 -173.498837 
L 174.415559 -172.38735 
L 174.229636 -171.849671 
L 174.46785 -171.178103 
L 174.915226 -170.631923 
L 175.054668 -170.004985 
L 175.16506 -169.469431 
L 178.134013 -169.511936 
L 177.675017 -170.019862 
L 178.180494 -171.632899 
L 179.691116 -171.564892 
L 181.527103 -170.508661 
L 182.979624 -169.150649 
L 181.945429 -168.912625 
L 181.951239 -168.340943 
L 182.746664 -167.554972 
L 182.787892 -167.514235 
L 184.420525 -166.309238 
L 185.797516 -165.952202 
L 187.999538 -166.158348 
L 190.044688 -166.804413 
L 190.939441 -167.76501 
L 192.002687 -168.181552 
L 198.271769 -167.484482 
L 201.380164 -167.484482 
L 202.141285 -166.309238 
L 204.244536 -166.311363 
L 206.429128 -165.811938 
L 221.847513 -156.30844 
L 222.161025 -154.85624 
L 222.26742 -154.363411 
L 223.929105 -151.881161 
L 226.020735 -150.933316 
L 227.630129 -149.526424 
L 227.583648 -146.041073 
L 227.0375 -144.791448 
L 224.858718 -142.056297 
L 224.597265 -141.318848 
L 224.30676 -139.869452 
L 224.091787 -139.304145 
L 222.174459 -137.004664 
L 220.367523 -133.957107 
L 219.437909 -132.388699 
L 218.467625 -129.615295 
L 218.333993 -126.846142 
L 218.763939 -125.486005 
L 219.373998 -124.300135 
L 219.844615 -122.982503 
L 219.873665 -121.227076 
L 219.339137 -120.130466 
L 218.479245 -119.246377 
L 217.822705 -118.364413 
L 217.886616 -117.597211 
L 219.153215 -117.223173 
L 222.586975 -116.651491 
L 223.743182 -117.019153 
L 224.794807 -116.74075 
L 227.740521 -117.106286 
L 228.681754 -116.963897 
L 239.30259 -113.61456 
L 239.209629 -112.677341 
L 239.447842 -112.47332 
L 239.796447 -112.500948 
L 240.011421 -112.245922 
L 240.011421 -111.761373 
L 239.779017 -110.975044 
L 239.639575 -109.04535 
L 239.459462 -108.159136 
L 239.552424 -107.387683 
L 240.267064 -106.371831 
L 241.661485 -105.300723 
L 247.674923 -103.356152 
L 249.847895 -101.284069 
L 251.114493 -100.548745 
L 253.543109 -99.766666 
L 254.323827 -99.736681 
L 254.705126 -99.722037 
L 256.157647 -100.136453 
L 258.609503 -101.388204 
L 259.184702 -102.227664 
L 259.335764 -102.856727 
L 259.382245 -103.549547 
L 259.649508 -104.590902 
L 260.503591 -106.033922 
L 261.415774 -106.203939 
L 262.50807 -105.917035 
L 263.908301 -105.982917 
L 263.937351 -107.519447 
L 264.919256 -109.406636 
L 266.336917 -111.03455 
L 267.969551 -111.97177 
L 268.277485 -112.033401 
L 268.59123 -111.97177 
L 268.887544 -111.778375 
L 268.893354 -111.778375 
L 268.893354 -111.765624 
L 269.474363 -111.140811 
L 270.648 -109.249371 
L 272.559518 -107.727717 
L 273.059185 -107.128407 
L 273.361309 -105.740642 
L 272.664099 -102.945986 
L 272.797731 -101.19056 
" style="stroke: #aaaaaa"/>
    </defs>
    <g clip-path="url(#p7261ad94ff)">
     <use xlink:href="#mdb2bc9219f" x="0" y="208.700859" style="fill: #aaaaaa; stroke: #aaaaaa"/>
    </g>
   </g>
   <g id="PathCollection_1">
    <defs>
     <path id="m338a8fefb3" d="M 0 1.581139 
C 0.419323 1.581139 0.821528 1.41454 1.118034 1.118034 
C 1.41454 0.821528 1.581139 0.419323 1.581139 0 
C 1.581139 -0.419323 1.41454 -0.821528 1.118034 -1.118034 
C 0.821528 -1.41454 0.419323 -1.581139 0 -1.581139 
C -0.419323 -1.581139 -0.821528 -1.41454 -1.118034 -1.118034 
C -1.41454 -0.821528 -1.581139 -0.419323 -1.581139 0 
C -1.581139 0.419323 -1.41454 0.821528 -1.118034 1.118034 
C -0.821528 1.41454 -0.419323 1.581139 0 1.581139 
z
" style="stroke: #1f77b4; stroke-opacity: 0.5"/>
    </defs>
    <g clip-path="url(#p7261ad94ff)">
     <use xlink:href="#m338a8fefb3" x="164.232913" y="74.467266" style="fill: #1f77b4; fill-opacity: 0.5; stroke: #1f77b4; stroke-opacity: 0.5"/>
     <use xlink:href="#m338a8fefb3" x="164.821924" y="75.904959" style="fill: #1f77b4; fill-opacity: 0.5; stroke: #1f77b4; stroke-opacity: 0.5"/>
     <use xlink:href="#m338a8fefb3" x="162.649447" y="77.232139" style="fill: #1f77b4; fill-opacity: 0.5; stroke: #1f77b4; stroke-opacity: 0.5"/>
     <use xlink:href="#m338a8fefb3" x="160.886249" y="77.911165" style="fill: #1f77b4; fill-opacity: 0.5; stroke: #1f77b4; stroke-opacity: 0.5"/>
     <use xlink:href="#m338a8fefb3" x="169.596903" y="44.73535" style="fill: #1f77b4; fill-opacity: 0.5; stroke: #1f77b4; stroke-opacity: 0.5"/>
     <use xlink:href="#m338a8fefb3" x="164.25796" y="49.283835" style="fill: #1f77b4; fill-opacity: 0.5; stroke: #1f77b4; stroke-opacity: 0.5"/>
     <use xlink:href="#m338a8fefb3" x="160.53978" y="54.34279" style="fill: #1f77b4; fill-opacity: 0.5; stroke: #1f77b4; stroke-opacity: 0.5"/>
     <use xlink:href="#m338a8fefb3" x="179.716411" y="75.102858" style="fill: #1f77b4; fill-opacity: 0.5; stroke: #1f77b4; stroke-opacity: 0.5"/>
     <use xlink:href="#m338a8fefb3" x="186.63712" y="66.774657" style="fill: #1f77b4; fill-opacity: 0.5; stroke: #1f77b4; stroke-opacity: 0.5"/>
     <use xlink:href="#m338a8fefb3" x="177.448242" y="71.346487" style="fill: #1f77b4; fill-opacity: 0.5; stroke: #1f77b4; stroke-opacity: 0.5"/>
     <use xlink:href="#m338a8fefb3" x="184.195556" y="72.458117" style="fill: #1f77b4; fill-opacity: 0.5; stroke: #1f77b4; stroke-opacity: 0.5"/>
     <use xlink:href="#m338a8fefb3" x="187.123075" y="74.411199" style="fill: #1f77b4; fill-opacity: 0.5; stroke: #1f77b4; stroke-opacity: 0.5"/>
     <use xlink:href="#m338a8fefb3" x="176.865452" y="63.106725" style="fill: #1f77b4; fill-opacity: 0.5; stroke: #1f77b4; stroke-opacity: 0.5"/>
     <use xlink:href="#m338a8fefb3" x="181.503346" y="66.154559" style="fill: #1f77b4; fill-opacity: 0.5; stroke: #1f77b4; stroke-opacity: 0.5"/>
     <use xlink:href="#m338a8fefb3" x="172.933618" y="59.870533" style="fill: #1f77b4; fill-opacity: 0.5; stroke: #1f77b4; stroke-opacity: 0.5"/>
     <use xlink:href="#m338a8fefb3" x="180.355471" y="67.867849" style="fill: #1f77b4; fill-opacity: 0.5; stroke: #1f77b4; stroke-opacity: 0.5"/>
     <use xlink:href="#m338a8fefb3" x="180.129638" y="63.598296" style="fill: #1f77b4; fill-opacity: 0.5; stroke: #1f77b4; stroke-opacity: 0.5"/>
     <use xlink:href="#m338a8fefb3" x="168.832667" y="65.230546" style="fill: #1f77b4; fill-opacity: 0.5; stroke: #1f77b4; stroke-opacity: 0.5"/>
     <use xlink:href="#m338a8fefb3" x="170.036169" y="66.249249" style="fill: #1f77b4; fill-opacity: 0.5; stroke: #1f77b4; stroke-opacity: 0.5"/>
     <use xlink:href="#m338a8fefb3" x="172.551168" y="69.009305" style="fill: #1f77b4; fill-opacity: 0.5; stroke: #1f77b4; stroke-opacity: 0.5"/>
     <use xlink:href="#m338a8fefb3" x="180.097585" y="55.049526" style="fill: #1f77b4; fill-opacity: 0.5; stroke: #1f77b4; stroke-opacity: 0.5"/>
     <use xlink:href="#m338a8fefb3" x="171.110128" y="76.296258" style="fill: #1f77b4; fill-opacity: 0.5; stroke: #1f77b4; stroke-opacity: 0.5"/>
     <use xlink:href="#m338a8fefb3" x="125.77767" y="85.187287" style="fill: #1f77b4; fill-opacity: 0.5; stroke: #1f77b4; stroke-opacity: 0.5"/>
     <use xlink:href="#m338a8fefb3" x="125.345634" y="80.928227" style="fill: #1f77b4; fill-opacity: 0.5; stroke: #1f77b4; stroke-opacity: 0.5"/>
     <use xlink:href="#m338a8fefb3" x="126.756605" y="81.756285" style="fill: #1f77b4; fill-opacity: 0.5; stroke: #1f77b4; stroke-opacity: 0.5"/>
     <use xlink:href="#m338a8fefb3" x="124.051142" y="75.314054" style="fill: #1f77b4; fill-opacity: 0.5; stroke: #1f77b4; stroke-opacity: 0.5"/>
     <use xlink:href="#m338a8fefb3" x="104.97437" y="98.62481" style="fill: #1f77b4; fill-opacity: 0.5; stroke: #1f77b4; stroke-opacity: 0.5"/>
     <use xlink:href="#m338a8fefb3" x="108.758665" y="96.639404" style="fill: #1f77b4; fill-opacity: 0.5; stroke: #1f77b4; stroke-opacity: 0.5"/>
     <use xlink:href="#m338a8fefb3" x="98.209567" y="104.546973" style="fill: #1f77b4; fill-opacity: 0.5; stroke: #1f77b4; stroke-opacity: 0.5"/>
     <use xlink:href="#m338a8fefb3" x="99.1592" y="81.336351" style="fill: #1f77b4; fill-opacity: 0.5; stroke: #1f77b4; stroke-opacity: 0.5"/>
     <use xlink:href="#m338a8fefb3" x="114.896512" y="97.09694" style="fill: #1f77b4; fill-opacity: 0.5; stroke: #1f77b4; stroke-opacity: 0.5"/>
     <use xlink:href="#m338a8fefb3" x="115.057753" y="93.935405" style="fill: #1f77b4; fill-opacity: 0.5; stroke: #1f77b4; stroke-opacity: 0.5"/>
     <use xlink:href="#m338a8fefb3" x="115.138888" y="84.597666" style="fill: #1f77b4; fill-opacity: 0.5; stroke: #1f77b4; stroke-opacity: 0.5"/>
     <use xlink:href="#m338a8fefb3" x="95.215086" y="81.369264" style="fill: #1f77b4; fill-opacity: 0.5; stroke: #1f77b4; stroke-opacity: 0.5"/>
     <use xlink:href="#m338a8fefb3" x="108.554516" y="90.567249" style="fill: #1f77b4; fill-opacity: 0.5; stroke: #1f77b4; stroke-opacity: 0.5"/>
     <use xlink:href="#m338a8fefb3" x="108.459703" y="89.127201" style="fill: #1f77b4; fill-opacity: 0.5; stroke: #1f77b4; stroke-opacity: 0.5"/>
     <use xlink:href="#m338a8fefb3" x="117.109793" y="135.219592" style="fill: #1f77b4; fill-opacity: 0.5; stroke: #1f77b4; stroke-opacity: 0.5"/>
     <use xlink:href="#m338a8fefb3" x="119.500487" y="123.91549" style="fill: #1f77b4; fill-opacity: 0.5; stroke: #1f77b4; stroke-opacity: 0.5"/>
     <use xlink:href="#m338a8fefb3" x="123.324886" y="122.035203" style="fill: #1f77b4; fill-opacity: 0.5; stroke: #1f77b4; stroke-opacity: 0.5"/>
     <use xlink:href="#m338a8fefb3" x="133.425511" y="126.707003" style="fill: #1f77b4; fill-opacity: 0.5; stroke: #1f77b4; stroke-opacity: 0.5"/>
     <use xlink:href="#m338a8fefb3" x="132.142851" y="113.4709" style="fill: #1f77b4; fill-opacity: 0.5; stroke: #1f77b4; stroke-opacity: 0.5"/>
     <use xlink:href="#m338a8fefb3" x="133.580205" y="133.586389" style="fill: #1f77b4; fill-opacity: 0.5; stroke: #1f77b4; stroke-opacity: 0.5"/>
     <use xlink:href="#m338a8fefb3" x="129.573764" y="129.367035" style="fill: #1f77b4; fill-opacity: 0.5; stroke: #1f77b4; stroke-opacity: 0.5"/>
     <use xlink:href="#m338a8fefb3" x="119.234225" y="104.423718" style="fill: #1f77b4; fill-opacity: 0.5; stroke: #1f77b4; stroke-opacity: 0.5"/>
     <use xlink:href="#m338a8fefb3" x="91.715097" y="103.020223" style="fill: #1f77b4; fill-opacity: 0.5; stroke: #1f77b4; stroke-opacity: 0.5"/>
     <use xlink:href="#m338a8fefb3" x="97.3119" y="100.115289" style="fill: #1f77b4; fill-opacity: 0.5; stroke: #1f77b4; stroke-opacity: 0.5"/>
     <use xlink:href="#m338a8fefb3" x="91.167128" y="75.59518" style="fill: #1f77b4; fill-opacity: 0.5; stroke: #1f77b4; stroke-opacity: 0.5"/>
     <use xlink:href="#m338a8fefb3" x="92.167812" y="86.175314" style="fill: #1f77b4; fill-opacity: 0.5; stroke: #1f77b4; stroke-opacity: 0.5"/>
     <use xlink:href="#m338a8fefb3" x="96.047607" y="86.138367" style="fill: #1f77b4; fill-opacity: 0.5; stroke: #1f77b4; stroke-opacity: 0.5"/>
     <use xlink:href="#m338a8fefb3" x="143.518958" y="122.786045" style="fill: #1f77b4; fill-opacity: 0.5; stroke: #1f77b4; stroke-opacity: 0.5"/>
     <use xlink:href="#m338a8fefb3" x="97.874334" y="146.245522" style="fill: #1f77b4; fill-opacity: 0.5; stroke: #1f77b4; stroke-opacity: 0.5"/>
     <use xlink:href="#m338a8fefb3" x="101.056951" y="112.301449" style="fill: #1f77b4; fill-opacity: 0.5; stroke: #1f77b4; stroke-opacity: 0.5"/>
     <use xlink:href="#m338a8fefb3" x="106.462798" y="109.545028" style="fill: #1f77b4; fill-opacity: 0.5; stroke: #1f77b4; stroke-opacity: 0.5"/>
     <use xlink:href="#m338a8fefb3" x="122.707624" y="104.072316" style="fill: #1f77b4; fill-opacity: 0.5; stroke: #1f77b4; stroke-opacity: 0.5"/>
     <use xlink:href="#m338a8fefb3" x="123.282548" y="103.664739" style="fill: #1f77b4; fill-opacity: 0.5; stroke: #1f77b4; stroke-opacity: 0.5"/>
     <use xlink:href="#m338a8fefb3" x="125.004773" y="101.628829" style="fill: #1f77b4; fill-opacity: 0.5; stroke: #1f77b4; stroke-opacity: 0.5"/>
     <use xlink:href="#m338a8fefb3" x="119.553748" y="99.542925" style="fill: #1f77b4; fill-opacity: 0.5; stroke: #1f77b4; stroke-opacity: 0.5"/>
     <use xlink:href="#m338a8fefb3" x="130.585965" y="97.884797" style="fill: #1f77b4; fill-opacity: 0.5; stroke: #1f77b4; stroke-opacity: 0.5"/>
     <use xlink:href="#m338a8fefb3" x="116.93432" y="94.078758" style="fill: #1f77b4; fill-opacity: 0.5; stroke: #1f77b4; stroke-opacity: 0.5"/>
     <use xlink:href="#m338a8fefb3" x="118.529174" y="82.046053" style="fill: #1f77b4; fill-opacity: 0.5; stroke: #1f77b4; stroke-opacity: 0.5"/>
     <use xlink:href="#m338a8fefb3" x="117.740245" y="78.720076" style="fill: #1f77b4; fill-opacity: 0.5; stroke: #1f77b4; stroke-opacity: 0.5"/>
     <use xlink:href="#m338a8fefb3" x="151.338962" y="75.732773" style="fill: #1f77b4; fill-opacity: 0.5; stroke: #1f77b4; stroke-opacity: 0.5"/>
     <use xlink:href="#m338a8fefb3" x="157.796479" y="85.458018" style="fill: #1f77b4; fill-opacity: 0.5; stroke: #1f77b4; stroke-opacity: 0.5"/>
     <use xlink:href="#m338a8fefb3" x="153.653666" y="94.096992" style="fill: #1f77b4; fill-opacity: 0.5; stroke: #1f77b4; stroke-opacity: 0.5"/>
     <use xlink:href="#m338a8fefb3" x="153.461828" y="95.587684" style="fill: #1f77b4; fill-opacity: 0.5; stroke: #1f77b4; stroke-opacity: 0.5"/>
     <use xlink:href="#m338a8fefb3" x="148.200937" y="94.083529" style="fill: #1f77b4; fill-opacity: 0.5; stroke: #1f77b4; stroke-opacity: 0.5"/>
     <use xlink:href="#m338a8fefb3" x="162.460201" y="95.148848" style="fill: #1f77b4; fill-opacity: 0.5; stroke: #1f77b4; stroke-opacity: 0.5"/>
     <use xlink:href="#m338a8fefb3" x="138.843334" y="82.930183" style="fill: #1f77b4; fill-opacity: 0.5; stroke: #1f77b4; stroke-opacity: 0.5"/>
     <use xlink:href="#m338a8fefb3" x="137.250088" y="81.239662" style="fill: #1f77b4; fill-opacity: 0.5; stroke: #1f77b4; stroke-opacity: 0.5"/>
     <use xlink:href="#m338a8fefb3" x="139.883398" y="75.514094" style="fill: #1f77b4; fill-opacity: 0.5; stroke: #1f77b4; stroke-opacity: 0.5"/>
     <use xlink:href="#m338a8fefb3" x="137.138701" y="91.77963" style="fill: #1f77b4; fill-opacity: 0.5; stroke: #1f77b4; stroke-opacity: 0.5"/>
     <use xlink:href="#m338a8fefb3" x="133.571436" y="89.189398" style="fill: #1f77b4; fill-opacity: 0.5; stroke: #1f77b4; stroke-opacity: 0.5"/>
     <use xlink:href="#m338a8fefb3" x="132.382418" y="91.294242" style="fill: #1f77b4; fill-opacity: 0.5; stroke: #1f77b4; stroke-opacity: 0.5"/>
     <use xlink:href="#m338a8fefb3" x="129.271976" y="77.494171" style="fill: #1f77b4; fill-opacity: 0.5; stroke: #1f77b4; stroke-opacity: 0.5"/>
     <use xlink:href="#m338a8fefb3" x="131.94039" y="77.42327" style="fill: #1f77b4; fill-opacity: 0.5; stroke: #1f77b4; stroke-opacity: 0.5"/>
     <use xlink:href="#m338a8fefb3" x="133.186686" y="84.980622" style="fill: #1f77b4; fill-opacity: 0.5; stroke: #1f77b4; stroke-opacity: 0.5"/>
     <use xlink:href="#m338a8fefb3" x="168.923144" y="108.140401" style="fill: #1f77b4; fill-opacity: 0.5; stroke: #1f77b4; stroke-opacity: 0.5"/>
     <use xlink:href="#m338a8fefb3" x="167.279352" y="102.019384" style="fill: #1f77b4; fill-opacity: 0.5; stroke: #1f77b4; stroke-opacity: 0.5"/>
     <use xlink:href="#m338a8fefb3" x="175.14948" y="84.054014" style="fill: #1f77b4; fill-opacity: 0.5; stroke: #1f77b4; stroke-opacity: 0.5"/>
     <use xlink:href="#m338a8fefb3" x="175.885643" y="88.02346" style="fill: #1f77b4; fill-opacity: 0.5; stroke: #1f77b4; stroke-opacity: 0.5"/>
     <use xlink:href="#m338a8fefb3" x="164.80973" y="95.757694" style="fill: #1f77b4; fill-opacity: 0.5; stroke: #1f77b4; stroke-opacity: 0.5"/>
     <use xlink:href="#m338a8fefb3" x="174.924175" y="81.053154" style="fill: #1f77b4; fill-opacity: 0.5; stroke: #1f77b4; stroke-opacity: 0.5"/>
     <use xlink:href="#m338a8fefb3" x="176.155998" y="80.322053" style="fill: #1f77b4; fill-opacity: 0.5; stroke: #1f77b4; stroke-opacity: 0.5"/>
     <use xlink:href="#m338a8fefb3" x="165.246475" y="92.44221" style="fill: #1f77b4; fill-opacity: 0.5; stroke: #1f77b4; stroke-opacity: 0.5"/>
     <use xlink:href="#m338a8fefb3" x="176.213062" y="96.57352" style="fill: #1f77b4; fill-opacity: 0.5; stroke: #1f77b4; stroke-opacity: 0.5"/>
     <use xlink:href="#m338a8fefb3" x="167.396764" y="94.183315" style="fill: #1f77b4; fill-opacity: 0.5; stroke: #1f77b4; stroke-opacity: 0.5"/>
     <use xlink:href="#m338a8fefb3" x="151.79247" y="106.791727" style="fill: #1f77b4; fill-opacity: 0.5; stroke: #1f77b4; stroke-opacity: 0.5"/>
     <use xlink:href="#m338a8fefb3" x="190.332341" y="101.114961" style="fill: #1f77b4; fill-opacity: 0.5; stroke: #1f77b4; stroke-opacity: 0.5"/>
     <use xlink:href="#m338a8fefb3" x="163.108256" y="80.55781" style="fill: #1f77b4; fill-opacity: 0.5; stroke: #1f77b4; stroke-opacity: 0.5"/>
     <use xlink:href="#m338a8fefb3" x="157.211392" y="77.515657" style="fill: #1f77b4; fill-opacity: 0.5; stroke: #1f77b4; stroke-opacity: 0.5"/>
     <use xlink:href="#m338a8fefb3" x="67.582745" y="118.432221" style="fill: #1f77b4; fill-opacity: 0.5; stroke: #1f77b4; stroke-opacity: 0.5"/>
     <use xlink:href="#m338a8fefb3" x="77.407053" y="105.277247" style="fill: #1f77b4; fill-opacity: 0.5; stroke: #1f77b4; stroke-opacity: 0.5"/>
     <use xlink:href="#m338a8fefb3" x="70.610226" y="113.143101" style="fill: #1f77b4; fill-opacity: 0.5; stroke: #1f77b4; stroke-opacity: 0.5"/>
     <use xlink:href="#m338a8fefb3" x="71.652828" y="107.446349" style="fill: #1f77b4; fill-opacity: 0.5; stroke: #1f77b4; stroke-opacity: 0.5"/>
     <use xlink:href="#m338a8fefb3" x="67.644651" y="130.524215" style="fill: #1f77b4; fill-opacity: 0.5; stroke: #1f77b4; stroke-opacity: 0.5"/>
     <use xlink:href="#m338a8fefb3" x="70.254624" y="127.368425" style="fill: #1f77b4; fill-opacity: 0.5; stroke: #1f77b4; stroke-opacity: 0.5"/>
     <use xlink:href="#m338a8fefb3" x="79.771367" y="121.927779" style="fill: #1f77b4; fill-opacity: 0.5; stroke: #1f77b4; stroke-opacity: 0.5"/>
     <use xlink:href="#m338a8fefb3" x="85.892265" y="123.566124" style="fill: #1f77b4; fill-opacity: 0.5; stroke: #1f77b4; stroke-opacity: 0.5"/>
     <use xlink:href="#m338a8fefb3" x="94.648657" y="128.693724" style="fill: #1f77b4; fill-opacity: 0.5; stroke: #1f77b4; stroke-opacity: 0.5"/>
     <use xlink:href="#m338a8fefb3" x="85.836504" y="119.816035" style="fill: #1f77b4; fill-opacity: 0.5; stroke: #1f77b4; stroke-opacity: 0.5"/>
     <use xlink:href="#m338a8fefb3" x="78.472668" y="125.77504" style="fill: #1f77b4; fill-opacity: 0.5; stroke: #1f77b4; stroke-opacity: 0.5"/>
     <use xlink:href="#m338a8fefb3" x="76.266283" y="128.788477" style="fill: #1f77b4; fill-opacity: 0.5; stroke: #1f77b4; stroke-opacity: 0.5"/>
     <use xlink:href="#m338a8fefb3" x="80.509908" y="117.681848" style="fill: #1f77b4; fill-opacity: 0.5; stroke: #1f77b4; stroke-opacity: 0.5"/>
     <use xlink:href="#m338a8fefb3" x="84.094383" y="110.773826" style="fill: #1f77b4; fill-opacity: 0.5; stroke: #1f77b4; stroke-opacity: 0.5"/>
     <use xlink:href="#m338a8fefb3" x="83.003262" y="111.461135" style="fill: #1f77b4; fill-opacity: 0.5; stroke: #1f77b4; stroke-opacity: 0.5"/>
     <use xlink:href="#m338a8fefb3" x="80.887786" y="111.379856" style="fill: #1f77b4; fill-opacity: 0.5; stroke: #1f77b4; stroke-opacity: 0.5"/>
     <use xlink:href="#m338a8fefb3" x="89.218837" y="119.436398" style="fill: #1f77b4; fill-opacity: 0.5; stroke: #1f77b4; stroke-opacity: 0.5"/>
     <use xlink:href="#m338a8fefb3" x="80.865344" y="119.524044" style="fill: #1f77b4; fill-opacity: 0.5; stroke: #1f77b4; stroke-opacity: 0.5"/>
     <use xlink:href="#m338a8fefb3" x="84.275517" y="117.341921" style="fill: #1f77b4; fill-opacity: 0.5; stroke: #1f77b4; stroke-opacity: 0.5"/>
     <use xlink:href="#m338a8fefb3" x="84.572942" y="104.341113" style="fill: #1f77b4; fill-opacity: 0.5; stroke: #1f77b4; stroke-opacity: 0.5"/>
     <use xlink:href="#m338a8fefb3" x="71.97732" y="134.830396" style="fill: #1f77b4; fill-opacity: 0.5; stroke: #1f77b4; stroke-opacity: 0.5"/>
     <use xlink:href="#m338a8fefb3" x="72.60224" y="130.152004" style="fill: #1f77b4; fill-opacity: 0.5; stroke: #1f77b4; stroke-opacity: 0.5"/>
     <use xlink:href="#m338a8fefb3" x="115.342331" y="70.967438" style="fill: #1f77b4; fill-opacity: 0.5; stroke: #1f77b4; stroke-opacity: 0.5"/>
     <use xlink:href="#m338a8fefb3" x="126.237751" y="65.776807" style="fill: #1f77b4; fill-opacity: 0.5; stroke: #1f77b4; stroke-opacity: 0.5"/>
     <use xlink:href="#m338a8fefb3" x="131.563268" y="66.783386" style="fill: #1f77b4; fill-opacity: 0.5; stroke: #1f77b4; stroke-opacity: 0.5"/>
     <use xlink:href="#m338a8fefb3" x="136.206386" y="64.638319" style="fill: #1f77b4; fill-opacity: 0.5; stroke: #1f77b4; stroke-opacity: 0.5"/>
     <use xlink:href="#m338a8fefb3" x="107.991424" y="59.151481" style="fill: #1f77b4; fill-opacity: 0.5; stroke: #1f77b4; stroke-opacity: 0.5"/>
     <use xlink:href="#m338a8fefb3" x="108.288363" y="62.291771" style="fill: #1f77b4; fill-opacity: 0.5; stroke: #1f77b4; stroke-opacity: 0.5"/>
     <use xlink:href="#m338a8fefb3" x="107.585834" y="62.604995" style="fill: #1f77b4; fill-opacity: 0.5; stroke: #1f77b4; stroke-opacity: 0.5"/>
     <use xlink:href="#m338a8fefb3" x="119.375682" y="52.672457" style="fill: #1f77b4; fill-opacity: 0.5; stroke: #1f77b4; stroke-opacity: 0.5"/>
     <use xlink:href="#m338a8fefb3" x="119.349875" y="52.259902" style="fill: #1f77b4; fill-opacity: 0.5; stroke: #1f77b4; stroke-opacity: 0.5"/>
     <use xlink:href="#m338a8fefb3" x="121.715266" y="57.75736" style="fill: #1f77b4; fill-opacity: 0.5; stroke: #1f77b4; stroke-opacity: 0.5"/>
     <use xlink:href="#m338a8fefb3" x="128.927462" y="59.914574" style="fill: #1f77b4; fill-opacity: 0.5; stroke: #1f77b4; stroke-opacity: 0.5"/>
     <use xlink:href="#m338a8fefb3" x="115.99523" y="65.048966" style="fill: #1f77b4; fill-opacity: 0.5; stroke: #1f77b4; stroke-opacity: 0.5"/>
     <use xlink:href="#m338a8fefb3" x="170.336734" y="35.080734" style="fill: #1f77b4; fill-opacity: 0.5; stroke: #1f77b4; stroke-opacity: 0.5"/>
     <use xlink:href="#m338a8fefb3" x="168.719085" y="33.606067" style="fill: #1f77b4; fill-opacity: 0.5; stroke: #1f77b4; stroke-opacity: 0.5"/>
     <use xlink:href="#m338a8fefb3" x="168.874953" y="40.528039" style="fill: #1f77b4; fill-opacity: 0.5; stroke: #1f77b4; stroke-opacity: 0.5"/>
     <use xlink:href="#m338a8fefb3" x="159.57656" y="38.662464" style="fill: #1f77b4; fill-opacity: 0.5; stroke: #1f77b4; stroke-opacity: 0.5"/>
     <use xlink:href="#m338a8fefb3" x="161.408073" y="37.61153" style="fill: #1f77b4; fill-opacity: 0.5; stroke: #1f77b4; stroke-opacity: 0.5"/>
     <use xlink:href="#m338a8fefb3" x="207.233189" y="65.163421" style="fill: #1f77b4; fill-opacity: 0.5; stroke: #1f77b4; stroke-opacity: 0.5"/>
     <use xlink:href="#m338a8fefb3" x="204.326755" y="65.13285" style="fill: #1f77b4; fill-opacity: 0.5; stroke: #1f77b4; stroke-opacity: 0.5"/>
     <use xlink:href="#m338a8fefb3" x="204.1314" y="63.710239" style="fill: #1f77b4; fill-opacity: 0.5; stroke: #1f77b4; stroke-opacity: 0.5"/>
     <use xlink:href="#m338a8fefb3" x="225.211888" y="59.753752" style="fill: #1f77b4; fill-opacity: 0.5; stroke: #1f77b4; stroke-opacity: 0.5"/>
     <use xlink:href="#m338a8fefb3" x="213.015839" y="74.806737" style="fill: #1f77b4; fill-opacity: 0.5; stroke: #1f77b4; stroke-opacity: 0.5"/>
     <use xlink:href="#m338a8fefb3" x="216.734042" y="73.689482" style="fill: #1f77b4; fill-opacity: 0.5; stroke: #1f77b4; stroke-opacity: 0.5"/>
     <use xlink:href="#m338a8fefb3" x="226.976874" y="60.903062" style="fill: #1f77b4; fill-opacity: 0.5; stroke: #1f77b4; stroke-opacity: 0.5"/>
     <use xlink:href="#m338a8fefb3" x="226.265045" y="64.096154" style="fill: #1f77b4; fill-opacity: 0.5; stroke: #1f77b4; stroke-opacity: 0.5"/>
     <use xlink:href="#m338a8fefb3" x="227.453461" y="65.043028" style="fill: #1f77b4; fill-opacity: 0.5; stroke: #1f77b4; stroke-opacity: 0.5"/>
     <use xlink:href="#m338a8fefb3" x="213.096944" y="79.809733" style="fill: #1f77b4; fill-opacity: 0.5; stroke: #1f77b4; stroke-opacity: 0.5"/>
     <use xlink:href="#m338a8fefb3" x="188.076974" y="76.299061" style="fill: #1f77b4; fill-opacity: 0.5; stroke: #1f77b4; stroke-opacity: 0.5"/>
     <use xlink:href="#m338a8fefb3" x="199.72942" y="76.465383" style="fill: #1f77b4; fill-opacity: 0.5; stroke: #1f77b4; stroke-opacity: 0.5"/>
     <use xlink:href="#m338a8fefb3" x="201.505281" y="78.970124" style="fill: #1f77b4; fill-opacity: 0.5; stroke: #1f77b4; stroke-opacity: 0.5"/>
     <use xlink:href="#m338a8fefb3" x="193.919846" y="70.39377" style="fill: #1f77b4; fill-opacity: 0.5; stroke: #1f77b4; stroke-opacity: 0.5"/>
     <use xlink:href="#m338a8fefb3" x="188.919056" y="64.923354" style="fill: #1f77b4; fill-opacity: 0.5; stroke: #1f77b4; stroke-opacity: 0.5"/>
     <use xlink:href="#m338a8fefb3" x="197.433853" y="58.845811" style="fill: #1f77b4; fill-opacity: 0.5; stroke: #1f77b4; stroke-opacity: 0.5"/>
     <use xlink:href="#m338a8fefb3" x="197.400057" y="59.924126" style="fill: #1f77b4; fill-opacity: 0.5; stroke: #1f77b4; stroke-opacity: 0.5"/>
     <use xlink:href="#m338a8fefb3" x="196.023579" y="56.530037" style="fill: #1f77b4; fill-opacity: 0.5; stroke: #1f77b4; stroke-opacity: 0.5"/>
     <use xlink:href="#m338a8fefb3" x="204.650771" y="57.135798" style="fill: #1f77b4; fill-opacity: 0.5; stroke: #1f77b4; stroke-opacity: 0.5"/>
     <use xlink:href="#m338a8fefb3" x="224.750096" y="122.112893" style="fill: #1f77b4; fill-opacity: 0.5; stroke: #1f77b4; stroke-opacity: 0.5"/>
     <use xlink:href="#m338a8fefb3" x="201.852518" y="122.017909" style="fill: #1f77b4; fill-opacity: 0.5; stroke: #1f77b4; stroke-opacity: 0.5"/>
     <use xlink:href="#m338a8fefb3" x="201.257829" y="110.957231" style="fill: #1f77b4; fill-opacity: 0.5; stroke: #1f77b4; stroke-opacity: 0.5"/>
     <use xlink:href="#m338a8fefb3" x="216.310728" y="119.797225" style="fill: #1f77b4; fill-opacity: 0.5; stroke: #1f77b4; stroke-opacity: 0.5"/>
     <use xlink:href="#m338a8fefb3" x="216.313878" y="119.169512" style="fill: #1f77b4; fill-opacity: 0.5; stroke: #1f77b4; stroke-opacity: 0.5"/>
     <use xlink:href="#m338a8fefb3" x="217.116962" y="133.108687" style="fill: #1f77b4; fill-opacity: 0.5; stroke: #1f77b4; stroke-opacity: 0.5"/>
     <use xlink:href="#m338a8fefb3" x="207.11826" y="110.807908" style="fill: #1f77b4; fill-opacity: 0.5; stroke: #1f77b4; stroke-opacity: 0.5"/>
     <use xlink:href="#m338a8fefb3" x="269.665877" y="99.478074" style="fill: #1f77b4; fill-opacity: 0.5; stroke: #1f77b4; stroke-opacity: 0.5"/>
     <use xlink:href="#m338a8fefb3" x="267.491945" y="100.704341" style="fill: #1f77b4; fill-opacity: 0.5; stroke: #1f77b4; stroke-opacity: 0.5"/>
     <use xlink:href="#m338a8fefb3" x="230.761096" y="143.411776" style="fill: #1f77b4; fill-opacity: 0.5; stroke: #1f77b4; stroke-opacity: 0.5"/>
     <use xlink:href="#m338a8fefb3" x="198.609548" y="148.964174" style="fill: #1f77b4; fill-opacity: 0.5; stroke: #1f77b4; stroke-opacity: 0.5"/>
     <use xlink:href="#m338a8fefb3" x="196.922849" y="161.329631" style="fill: #1f77b4; fill-opacity: 0.5; stroke: #1f77b4; stroke-opacity: 0.5"/>
     <use xlink:href="#m338a8fefb3" x="198.529464" y="151.333995" style="fill: #1f77b4; fill-opacity: 0.5; stroke: #1f77b4; stroke-opacity: 0.5"/>
     <use xlink:href="#m338a8fefb3" x="234.318343" y="114.428765" style="fill: #1f77b4; fill-opacity: 0.5; stroke: #1f77b4; stroke-opacity: 0.5"/>
     <use xlink:href="#m338a8fefb3" x="238.638876" y="103.265727" style="fill: #1f77b4; fill-opacity: 0.5; stroke: #1f77b4; stroke-opacity: 0.5"/>
     <use xlink:href="#m338a8fefb3" x="235.330487" y="105.852137" style="fill: #1f77b4; fill-opacity: 0.5; stroke: #1f77b4; stroke-opacity: 0.5"/>
     <use xlink:href="#m338a8fefb3" x="231.772936" y="101.470419" style="fill: #1f77b4; fill-opacity: 0.5; stroke: #1f77b4; stroke-opacity: 0.5"/>
     <use xlink:href="#m338a8fefb3" x="230.483238" y="98.833481" style="fill: #1f77b4; fill-opacity: 0.5; stroke: #1f77b4; stroke-opacity: 0.5"/>
     <use xlink:href="#m338a8fefb3" x="191.526529" y="118.390496" style="fill: #1f77b4; fill-opacity: 0.5; stroke: #1f77b4; stroke-opacity: 0.5"/>
     <use xlink:href="#m338a8fefb3" x="137.590182" y="64.362613" style="fill: #1f77b4; fill-opacity: 0.5; stroke: #1f77b4; stroke-opacity: 0.5"/>
     <use xlink:href="#m338a8fefb3" x="139.40671" y="63.092239" style="fill: #1f77b4; fill-opacity: 0.5; stroke: #1f77b4; stroke-opacity: 0.5"/>
     <use xlink:href="#m338a8fefb3" x="151.475539" y="55.6156" style="fill: #1f77b4; fill-opacity: 0.5; stroke: #1f77b4; stroke-opacity: 0.5"/>
     <use xlink:href="#m338a8fefb3" x="142.103701" y="61.931764" style="fill: #1f77b4; fill-opacity: 0.5; stroke: #1f77b4; stroke-opacity: 0.5"/>
     <use xlink:href="#m338a8fefb3" x="146.562588" y="58.309704" style="fill: #1f77b4; fill-opacity: 0.5; stroke: #1f77b4; stroke-opacity: 0.5"/>
     <use xlink:href="#m338a8fefb3" x="137.861392" y="50.92353" style="fill: #1f77b4; fill-opacity: 0.5; stroke: #1f77b4; stroke-opacity: 0.5"/>
     <use xlink:href="#m338a8fefb3" x="133.066844" y="57.106601" style="fill: #1f77b4; fill-opacity: 0.5; stroke: #1f77b4; stroke-opacity: 0.5"/>
     <use xlink:href="#m338a8fefb3" x="141.974682" y="49.515522" style="fill: #1f77b4; fill-opacity: 0.5; stroke: #1f77b4; stroke-opacity: 0.5"/>
     <use xlink:href="#m338a8fefb3" x="143.792741" y="65.437238" style="fill: #1f77b4; fill-opacity: 0.5; stroke: #1f77b4; stroke-opacity: 0.5"/>
     <use xlink:href="#m338a8fefb3" x="155.577653" y="72.453346" style="fill: #1f77b4; fill-opacity: 0.5; stroke: #1f77b4; stroke-opacity: 0.5"/>
     <use xlink:href="#m338a8fefb3" x="155.575803" y="78.510447" style="fill: #1f77b4; fill-opacity: 0.5; stroke: #1f77b4; stroke-opacity: 0.5"/>
     <use xlink:href="#m338a8fefb3" x="130.841586" y="75.292575" style="fill: #1f77b4; fill-opacity: 0.5; stroke: #1f77b4; stroke-opacity: 0.5"/>
     <use xlink:href="#m338a8fefb3" x="138.963951" y="73.589367" style="fill: #1f77b4; fill-opacity: 0.5; stroke: #1f77b4; stroke-opacity: 0.5"/>
     <use xlink:href="#m338a8fefb3" x="138.693176" y="74.51078" style="fill: #1f77b4; fill-opacity: 0.5; stroke: #1f77b4; stroke-opacity: 0.5"/>
     <use xlink:href="#m338a8fefb3" x="136.937541" y="75.63402" style="fill: #1f77b4; fill-opacity: 0.5; stroke: #1f77b4; stroke-opacity: 0.5"/>
     <use xlink:href="#m338a8fefb3" x="148.894084" y="47.92872" style="fill: #1f77b4; fill-opacity: 0.5; stroke: #1f77b4; stroke-opacity: 0.5"/>
     <use xlink:href="#m338a8fefb3" x="152.948583" y="53.050476" style="fill: #1f77b4; fill-opacity: 0.5; stroke: #1f77b4; stroke-opacity: 0.5"/>
     <use xlink:href="#m338a8fefb3" x="204.851036" y="49.814607" style="fill: #1f77b4; fill-opacity: 0.5; stroke: #1f77b4; stroke-opacity: 0.5"/>
     <use xlink:href="#m338a8fefb3" x="202.185562" y="50.740856" style="fill: #1f77b4; fill-opacity: 0.5; stroke: #1f77b4; stroke-opacity: 0.5"/>
     <use xlink:href="#m338a8fefb3" x="185.186887" y="57.394542" style="fill: #1f77b4; fill-opacity: 0.5; stroke: #1f77b4; stroke-opacity: 0.5"/>
     <use xlink:href="#m338a8fefb3" x="186.498678" y="57.637006" style="fill: #1f77b4; fill-opacity: 0.5; stroke: #1f77b4; stroke-opacity: 0.5"/>
     <use xlink:href="#m338a8fefb3" x="187.971507" y="49.87687" style="fill: #1f77b4; fill-opacity: 0.5; stroke: #1f77b4; stroke-opacity: 0.5"/>
     <use xlink:href="#m338a8fefb3" x="187.569108" y="48.963674" style="fill: #1f77b4; fill-opacity: 0.5; stroke: #1f77b4; stroke-opacity: 0.5"/>
     <use xlink:href="#m338a8fefb3" x="181.964755" y="47.113996" style="fill: #1f77b4; fill-opacity: 0.5; stroke: #1f77b4; stroke-opacity: 0.5"/>
     <use xlink:href="#m338a8fefb3" x="205.657826" y="46.773098" style="fill: #1f77b4; fill-opacity: 0.5; stroke: #1f77b4; stroke-opacity: 0.5"/>
     <use xlink:href="#m338a8fefb3" x="198.854997" y="46.052786" style="fill: #1f77b4; fill-opacity: 0.5; stroke: #1f77b4; stroke-opacity: 0.5"/>
     <use xlink:href="#m338a8fefb3" x="200.66361" y="45.421211" style="fill: #1f77b4; fill-opacity: 0.5; stroke: #1f77b4; stroke-opacity: 0.5"/>
     <use xlink:href="#m338a8fefb3" x="200.561473" y="47.171242" style="fill: #1f77b4; fill-opacity: 0.5; stroke: #1f77b4; stroke-opacity: 0.5"/>
     <use xlink:href="#m338a8fefb3" x="203.786952" y="45.996106" style="fill: #1f77b4; fill-opacity: 0.5; stroke: #1f77b4; stroke-opacity: 0.5"/>
     <use xlink:href="#m338a8fefb3" x="202.847959" y="46.856667" style="fill: #1f77b4; fill-opacity: 0.5; stroke: #1f77b4; stroke-opacity: 0.5"/>
     <use xlink:href="#m338a8fefb3" x="194.895389" y="45.66455" style="fill: #1f77b4; fill-opacity: 0.5; stroke: #1f77b4; stroke-opacity: 0.5"/>
     <use xlink:href="#m338a8fefb3" x="194.956078" y="44.745516" style="fill: #1f77b4; fill-opacity: 0.5; stroke: #1f77b4; stroke-opacity: 0.5"/>
     <use xlink:href="#m338a8fefb3" x="194.977997" y="54.901067" style="fill: #1f77b4; fill-opacity: 0.5; stroke: #1f77b4; stroke-opacity: 0.5"/>
     <use xlink:href="#m338a8fefb3" x="188.357183" y="43.849091" style="fill: #1f77b4; fill-opacity: 0.5; stroke: #1f77b4; stroke-opacity: 0.5"/>
     <use xlink:href="#m338a8fefb3" x="181.525808" y="44.978801" style="fill: #1f77b4; fill-opacity: 0.5; stroke: #1f77b4; stroke-opacity: 0.5"/>
     <use xlink:href="#m338a8fefb3" x="180.692941" y="46.369095" style="fill: #1f77b4; fill-opacity: 0.5; stroke: #1f77b4; stroke-opacity: 0.5"/>
     <use xlink:href="#m338a8fefb3" x="181.817359" y="41.783581" style="fill: #1f77b4; fill-opacity: 0.5; stroke: #1f77b4; stroke-opacity: 0.5"/>
     <use xlink:href="#m338a8fefb3" x="192.569546" y="48.809071" style="fill: #1f77b4; fill-opacity: 0.5; stroke: #1f77b4; stroke-opacity: 0.5"/>
     <use xlink:href="#m338a8fefb3" x="201.165705" y="48.85486" style="fill: #1f77b4; fill-opacity: 0.5; stroke: #1f77b4; stroke-opacity: 0.5"/>
     <use xlink:href="#m338a8fefb3" x="201.392412" y="47.16931" style="fill: #1f77b4; fill-opacity: 0.5; stroke: #1f77b4; stroke-opacity: 0.5"/>
     <use xlink:href="#m338a8fefb3" x="201.523659" y="49.188859" style="fill: #1f77b4; fill-opacity: 0.5; stroke: #1f77b4; stroke-opacity: 0.5"/>
     <use xlink:href="#m338a8fefb3" x="199.674518" y="49.848315" style="fill: #1f77b4; fill-opacity: 0.5; stroke: #1f77b4; stroke-opacity: 0.5"/>
     <use xlink:href="#m338a8fefb3" x="204.271402" y="49.385553" style="fill: #1f77b4; fill-opacity: 0.5; stroke: #1f77b4; stroke-opacity: 0.5"/>
     <use xlink:href="#m338a8fefb3" x="197.208705" y="51.251981" style="fill: #1f77b4; fill-opacity: 0.5; stroke: #1f77b4; stroke-opacity: 0.5"/>
     <use xlink:href="#m338a8fefb3" x="173.7919" y="161.922758" style="fill: #1f77b4; fill-opacity: 0.5; stroke: #1f77b4; stroke-opacity: 0.5"/>
     <use xlink:href="#m338a8fefb3" x="174.76838" y="160.203314" style="fill: #1f77b4; fill-opacity: 0.5; stroke: #1f77b4; stroke-opacity: 0.5"/>
     <use xlink:href="#m338a8fefb3" x="44.196487" y="138.554563" style="fill: #1f77b4; fill-opacity: 0.5; stroke: #1f77b4; stroke-opacity: 0.5"/>
     <use xlink:href="#m338a8fefb3" x="40.721428" y="135.918008" style="fill: #1f77b4; fill-opacity: 0.5; stroke: #1f77b4; stroke-opacity: 0.5"/>
     <use xlink:href="#m338a8fefb3" x="80.118776" y="103.553733" style="fill: #1f77b4; fill-opacity: 0.5; stroke: #1f77b4; stroke-opacity: 0.5"/>
     <use xlink:href="#m338a8fefb3" x="48.678286" y="127.561434" style="fill: #1f77b4; fill-opacity: 0.5; stroke: #1f77b4; stroke-opacity: 0.5"/>
     <use xlink:href="#m338a8fefb3" x="45.845224" y="129.030213" style="fill: #1f77b4; fill-opacity: 0.5; stroke: #1f77b4; stroke-opacity: 0.5"/>
     <use xlink:href="#m338a8fefb3" x="43.072976" y="124.132841" style="fill: #1f77b4; fill-opacity: 0.5; stroke: #1f77b4; stroke-opacity: 0.5"/>
     <use xlink:href="#m338a8fefb3" x="58.745241" y="118.100605" style="fill: #1f77b4; fill-opacity: 0.5; stroke: #1f77b4; stroke-opacity: 0.5"/>
     <use xlink:href="#m338a8fefb3" x="64.459998" y="107.0804" style="fill: #1f77b4; fill-opacity: 0.5; stroke: #1f77b4; stroke-opacity: 0.5"/>
     <use xlink:href="#m338a8fefb3" x="55.336653" y="106.869049" style="fill: #1f77b4; fill-opacity: 0.5; stroke: #1f77b4; stroke-opacity: 0.5"/>
     <use xlink:href="#m338a8fefb3" x="52.334827" y="111.376402" style="fill: #1f77b4; fill-opacity: 0.5; stroke: #1f77b4; stroke-opacity: 0.5"/>
     <use xlink:href="#m338a8fefb3" x="48.439155" y="111.659779" style="fill: #1f77b4; fill-opacity: 0.5; stroke: #1f77b4; stroke-opacity: 0.5"/>
     <use xlink:href="#m338a8fefb3" x="58.19754" y="109.017119" style="fill: #1f77b4; fill-opacity: 0.5; stroke: #1f77b4; stroke-opacity: 0.5"/>
     <use xlink:href="#m338a8fefb3" x="61.249635" y="135.120614" style="fill: #1f77b4; fill-opacity: 0.5; stroke: #1f77b4; stroke-opacity: 0.5"/>
     <use xlink:href="#m338a8fefb3" x="55.924541" y="130.695818" style="fill: #1f77b4; fill-opacity: 0.5; stroke: #1f77b4; stroke-opacity: 0.5"/>
     <use xlink:href="#m338a8fefb3" x="61.697673" y="131.42267" style="fill: #1f77b4; fill-opacity: 0.5; stroke: #1f77b4; stroke-opacity: 0.5"/>
     <use xlink:href="#m338a8fefb3" x="61.612398" y="133.087593" style="fill: #1f77b4; fill-opacity: 0.5; stroke: #1f77b4; stroke-opacity: 0.5"/>
     <use xlink:href="#m338a8fefb3" x="60.728374" y="134.054937" style="fill: #1f77b4; fill-opacity: 0.5; stroke: #1f77b4; stroke-opacity: 0.5"/>
     <use xlink:href="#m338a8fefb3" x="57.844232" y="135.839371" style="fill: #1f77b4; fill-opacity: 0.5; stroke: #1f77b4; stroke-opacity: 0.5"/>
     <use xlink:href="#m338a8fefb3" x="56.785513" y="131.657196" style="fill: #1f77b4; fill-opacity: 0.5; stroke: #1f77b4; stroke-opacity: 0.5"/>
     <use xlink:href="#m338a8fefb3" x="60.05977" y="131.668055" style="fill: #1f77b4; fill-opacity: 0.5; stroke: #1f77b4; stroke-opacity: 0.5"/>
     <use xlink:href="#m338a8fefb3" x="60.273048" y="136.796415" style="fill: #1f77b4; fill-opacity: 0.5; stroke: #1f77b4; stroke-opacity: 0.5"/>
     <use xlink:href="#m338a8fefb3" x="64.091429" y="136.434276" style="fill: #1f77b4; fill-opacity: 0.5; stroke: #1f77b4; stroke-opacity: 0.5"/>
     <use xlink:href="#m338a8fefb3" x="63.543472" y="137.833629" style="fill: #1f77b4; fill-opacity: 0.5; stroke: #1f77b4; stroke-opacity: 0.5"/>
     <use xlink:href="#m338a8fefb3" x="48.49577" y="134.386871" style="fill: #1f77b4; fill-opacity: 0.5; stroke: #1f77b4; stroke-opacity: 0.5"/>
     <use xlink:href="#m338a8fefb3" x="48.867929" y="135.547175" style="fill: #1f77b4; fill-opacity: 0.5; stroke: #1f77b4; stroke-opacity: 0.5"/>
     <use xlink:href="#m338a8fefb3" x="35.570993" y="139.131689" style="fill: #1f77b4; fill-opacity: 0.5; stroke: #1f77b4; stroke-opacity: 0.5"/>
     <use xlink:href="#m338a8fefb3" x="50.728886" y="113.844485" style="fill: #1f77b4; fill-opacity: 0.5; stroke: #1f77b4; stroke-opacity: 0.5"/>
     <use xlink:href="#m338a8fefb3" x="62.555334" y="125.504043" style="fill: #1f77b4; fill-opacity: 0.5; stroke: #1f77b4; stroke-opacity: 0.5"/>
     <use xlink:href="#m338a8fefb3" x="70.60678" y="133.295254" style="fill: #1f77b4; fill-opacity: 0.5; stroke: #1f77b4; stroke-opacity: 0.5"/>
     <use xlink:href="#m338a8fefb3" x="66.580171" y="116.196793" style="fill: #1f77b4; fill-opacity: 0.5; stroke: #1f77b4; stroke-opacity: 0.5"/>
     <use xlink:href="#m338a8fefb3" x="87.086598" y="139.550584" style="fill: #1f77b4; fill-opacity: 0.5; stroke: #1f77b4; stroke-opacity: 0.5"/>
     <use xlink:href="#m338a8fefb3" x="68.903998" y="139.898992" style="fill: #1f77b4; fill-opacity: 0.5; stroke: #1f77b4; stroke-opacity: 0.5"/>
     <use xlink:href="#m338a8fefb3" x="76.81684" y="142.133381" style="fill: #1f77b4; fill-opacity: 0.5; stroke: #1f77b4; stroke-opacity: 0.5"/>
     <use xlink:href="#m338a8fefb3" x="76.269229" y="143.427389" style="fill: #1f77b4; fill-opacity: 0.5; stroke: #1f77b4; stroke-opacity: 0.5"/>
     <use xlink:href="#m338a8fefb3" x="61.09054" y="113.670706" style="fill: #1f77b4; fill-opacity: 0.5; stroke: #1f77b4; stroke-opacity: 0.5"/>
     <use xlink:href="#m338a8fefb3" x="94.815842" y="164.917878" style="fill: #1f77b4; fill-opacity: 0.5; stroke: #1f77b4; stroke-opacity: 0.5"/>
     <use xlink:href="#m338a8fefb3" x="88.24402" y="178.104329" style="fill: #1f77b4; fill-opacity: 0.5; stroke: #1f77b4; stroke-opacity: 0.5"/>
     <use xlink:href="#m338a8fefb3" x="144.045492" y="147.397049" style="fill: #1f77b4; fill-opacity: 0.5; stroke: #1f77b4; stroke-opacity: 0.5"/>
     <use xlink:href="#m338a8fefb3" x="145.17558" y="143.887327" style="fill: #1f77b4; fill-opacity: 0.5; stroke: #1f77b4; stroke-opacity: 0.5"/>
     <use xlink:href="#m338a8fefb3" x="102.488902" y="153.492354" style="fill: #1f77b4; fill-opacity: 0.5; stroke: #1f77b4; stroke-opacity: 0.5"/>
     <use xlink:href="#m338a8fefb3" x="105.455437" y="172.12491" style="fill: #1f77b4; fill-opacity: 0.5; stroke: #1f77b4; stroke-opacity: 0.5"/>
     <use xlink:href="#m338a8fefb3" x="92.12653" y="165.879919" style="fill: #1f77b4; fill-opacity: 0.5; stroke: #1f77b4; stroke-opacity: 0.5"/>
     <use xlink:href="#m338a8fefb3" x="126.439646" y="151.606982" style="fill: #1f77b4; fill-opacity: 0.5; stroke: #1f77b4; stroke-opacity: 0.5"/>
     <use xlink:href="#m338a8fefb3" x="75.827486" y="172.683113" style="fill: #1f77b4; fill-opacity: 0.5; stroke: #1f77b4; stroke-opacity: 0.5"/>
     <use xlink:href="#m338a8fefb3" x="79.445147" y="162.645753" style="fill: #1f77b4; fill-opacity: 0.5; stroke: #1f77b4; stroke-opacity: 0.5"/>
     <use xlink:href="#m338a8fefb3" x="124.153891" y="165.34068" style="fill: #1f77b4; fill-opacity: 0.5; stroke: #1f77b4; stroke-opacity: 0.5"/>
     <use xlink:href="#m338a8fefb3" x="71.560005" y="98.328472" style="fill: #1f77b4; fill-opacity: 0.5; stroke: #1f77b4; stroke-opacity: 0.5"/>
     <use xlink:href="#m338a8fefb3" x="64.765026" y="103.583409" style="fill: #1f77b4; fill-opacity: 0.5; stroke: #1f77b4; stroke-opacity: 0.5"/>
     <use xlink:href="#m338a8fefb3" x="69.037545" y="86.927442" style="fill: #1f77b4; fill-opacity: 0.5; stroke: #1f77b4; stroke-opacity: 0.5"/>
     <use xlink:href="#m338a8fefb3" x="61.503996" y="95.043233" style="fill: #1f77b4; fill-opacity: 0.5; stroke: #1f77b4; stroke-opacity: 0.5"/>
     <use xlink:href="#m338a8fefb3" x="79.820602" y="93.597221" style="fill: #1f77b4; fill-opacity: 0.5; stroke: #1f77b4; stroke-opacity: 0.5"/>
     <use xlink:href="#m338a8fefb3" x="78.301183" y="90.744415" style="fill: #1f77b4; fill-opacity: 0.5; stroke: #1f77b4; stroke-opacity: 0.5"/>
     <use xlink:href="#m338a8fefb3" x="76.877525" y="94.992945" style="fill: #1f77b4; fill-opacity: 0.5; stroke: #1f77b4; stroke-opacity: 0.5"/>
     <use xlink:href="#m338a8fefb3" x="75.056874" y="93.165314" style="fill: #1f77b4; fill-opacity: 0.5; stroke: #1f77b4; stroke-opacity: 0.5"/>
     <use xlink:href="#m338a8fefb3" x="70.718875" y="92.849897" style="fill: #1f77b4; fill-opacity: 0.5; stroke: #1f77b4; stroke-opacity: 0.5"/>
     <use xlink:href="#m338a8fefb3" x="49.832838" y="107.523112" style="fill: #1f77b4; fill-opacity: 0.5; stroke: #1f77b4; stroke-opacity: 0.5"/>
     <use xlink:href="#m338a8fefb3" x="87.952712" y="71.358198" style="fill: #1f77b4; fill-opacity: 0.5; stroke: #1f77b4; stroke-opacity: 0.5"/>
     <use xlink:href="#m338a8fefb3" x="82.160309" y="76.091478" style="fill: #1f77b4; fill-opacity: 0.5; stroke: #1f77b4; stroke-opacity: 0.5"/>
     <use xlink:href="#m338a8fefb3" x="80.215393" y="77.972519" style="fill: #1f77b4; fill-opacity: 0.5; stroke: #1f77b4; stroke-opacity: 0.5"/>
     <use xlink:href="#m338a8fefb3" x="77.792243" y="76.251198" style="fill: #1f77b4; fill-opacity: 0.5; stroke: #1f77b4; stroke-opacity: 0.5"/>
     <use xlink:href="#m338a8fefb3" x="86.584743" y="64.90447" style="fill: #1f77b4; fill-opacity: 0.5; stroke: #1f77b4; stroke-opacity: 0.5"/>
     <use xlink:href="#m338a8fefb3" x="80.764148" y="64.836605" style="fill: #1f77b4; fill-opacity: 0.5; stroke: #1f77b4; stroke-opacity: 0.5"/>
     <use xlink:href="#m338a8fefb3" x="85.642553" y="68.734991" style="fill: #1f77b4; fill-opacity: 0.5; stroke: #1f77b4; stroke-opacity: 0.5"/>
     <use xlink:href="#m338a8fefb3" x="221.465879" y="77.812802" style="fill: #1f77b4; fill-opacity: 0.5; stroke: #1f77b4; stroke-opacity: 0.5"/>
    </g>
   </g>
   <g id="text_1">
    <text style="font: 12px 'DejaVu Sans', 'Bitstream Vera Sans', 'Computer Modern Sans Serif', 'Lucida Grande', 'Verdana', 'Geneva', 'Lucid', 'Arial', 'Helvetica', 'Avant Garde', sans-serif; text-anchor: middle" x="146.7" y="16.318125" transform="rotate(-0 146.7 16.318125)">-au 277x</text>
   </g>
  </g>
 </g>
 <defs>
  <clipPath id="p7261ad94ff">
   <rect x="7.2" y="22.318125" width="279" height="179.182734"/>
  </clipPath>
 </defs>
</svg>
