<?xml version="1.0" encoding="utf-8" standalone="no"?>
<!DOCTYPE svg PUBLIC "-//W3C//DTD SVG 1.1//EN"
  "http://www.w3.org/Graphics/SVG/1.1/DTD/svg11.dtd">
<svg xmlns:xlink="http://www.w3.org/1999/xlink" width="293.4pt" height="209.220442pt" viewBox="0 0 293.4 209.220442" xmlns="http://www.w3.org/2000/svg" version="1.1">
 <metadata>
  <rdf:RDF xmlns:dc="http://purl.org/dc/elements/1.1/" xmlns:cc="http://creativecommons.org/ns#" xmlns:rdf="http://www.w3.org/1999/02/22-rdf-syntax-ns#">
   <cc:Work>
    <dc:type rdf:resource="http://purl.org/dc/dcmitype/StillImage"/>
    <dc:date>2024-08-06T14:07:33.529665</dc:date>
    <dc:format>image/svg+xml</dc:format>
    <dc:creator>
     <cc:Agent>
      <dc:title>Matplotlib v3.9.1, https://matplotlib.org/</dc:title>
     </cc:Agent>
    </dc:creator>
   </cc:Work>
  </rdf:RDF>
 </metadata>
 <defs>
  <style type="text/css">*{stroke-linejoin: round; stroke-linecap: butt}</style>
 </defs>
 <g id="figure_1">
  <g id="patch_1">
   <path d="M 0 209.220442 
L 293.4 209.220442 
L 293.4 0 
L 0 0 
z
" style="fill: #ffffff"/>
  </g>
  <g id="axes_1">
   <g id="PatchCollection_1">
    <defs>
     <path id="m92a2525fd3" d="M 272.797731 -101.463108 
L 272.501417 -98.807413 
L 272.298064 -98.065694 
L 271.966889 -97.541375 
L 270.740961 -96.053674 
L 270.845543 -94.826001 
L 271.246439 -93.626037 
L 271.385881 -92.490013 
L 270.706101 -91.44777 
L 269.753247 -90.831802 
L 269.526653 -90.077295 
L 269.578944 -89.137358 
L 269.456932 -87.967232 
L 268.916594 -86.993193 
L 268.306535 -86.407064 
L 268.039272 -85.622718 
L 268.509888 -84.045499 
L 269.526653 -82.851929 
L 271.920408 -82.591901 
L 273.094046 -81.594416 
L 273.518182 -80.00441 
L 273.477511 -77.875165 
L 273.030135 -75.831174 
L 272.686514 -75.254126 
L 272.245773 -74.513984 
L 271.229008 -74.315766 
L 267.202619 -75.387848 
L 265.24462 -75.200287 
L 264.52417 -75.319644 
L 263.890871 -75.615905 
L 263.536455 -75.99529 
L 263.240141 -76.410909 
L 262.798575 -76.807345 
L 260.480351 -77.613005 
L 260.230517 -78.508183 
L 260.538451 -80.202628 
L 260.42806 -81.134039 
L 259.533307 -81.875758 
L 258.086596 -81.86297 
L 252.764558 -80.313459 
L 252.22422 -80.012935 
L 251.980196 -79.403361 
L 251.288796 -76.713564 
L 250.823989 -76.082677 
L 249.609681 -74.855004 
L 249.127444 -74.121811 
L 249.051913 -73.529288 
L 249.040293 -71.717618 
L 248.796269 -70.839491 
L 248.86599 -70.076458 
L 248.999622 -69.477541 
L 249.272696 -69.015033 
L 249.760744 -68.678275 
L 248.767219 -66.968911 
L 249.650352 -65.85207 
L 251.300416 -65.199869 
L 253.816183 -64.705389 
L 254.786467 -64.308953 
L 255.198983 -63.392461 
L 254.774847 -61.59358 
L 254.368141 -61.039422 
L 253.188694 -59.965208 
L 252.764558 -59.163811 
L 252.479863 -58.046969 
L 252.445003 -57.292462 
L 252.671596 -56.597633 
L 253.182884 -55.676879 
L 255.501108 -53.276949 
L 256.221558 -51.806299 
L 255.483677 -50.22908 
L 253.914954 -49.223071 
L 251.54444 -48.306579 
L 249.685212 -48.344944 
L 249.638732 -50.207767 
L 249.069343 -51.610212 
L 246.849891 -53.613706 
L 246.024859 -54.747599 
L 245.658823 -56.555006 
L 245.635583 -58.18764 
L 245.263738 -59.530407 
L 243.857697 -60.468213 
L 242.70149 -60.773 
L 241.609194 -60.856124 
L 239.157338 -60.427717 
L 235.415643 -58.475376 
L 234.247816 -58.089597 
L 233.527365 -58.247319 
L 232.156185 -59.087081 
L 231.551937 -59.102001 
L 230.941878 -58.400778 
L 230.831486 -57.458709 
L 230.918637 -56.523035 
L 230.895397 -55.872965 
L 230.035504 -54.662344 
L 228.978069 -54.227543 
L 222.534684 -54.304272 
L 221.227415 -54.790226 
L 220.036348 -55.612937 
L 219.321707 -56.614684 
L 218.200361 -59.590086 
L 217.700693 -60.007836 
L 216.457335 -60.709059 
L 216.050629 -61.11402 
L 215.940238 -61.576529 
L 216.021579 -62.834041 
L 215.684594 -70.74571 
L 215.504481 -71.263635 
L 215.062915 -71.16346 
L 214.156542 -70.485682 
L 213.773076 -69.959232 
L 213.575533 -69.373104 
L 213.302459 -68.878624 
L 212.6924 -68.631385 
L 212.268264 -68.818946 
L 210.833173 -70.204341 
L 210.792502 -71.22527 
L 209.676966 -71.525794 
L 206.940416 -71.184774 
L 205.86555 -70.174501 
L 204.889456 -68.188058 
L 204.447889 -66.167514 
L 204.988227 -65.052804 
L 205.737728 -64.526354 
L 205.84812 -63.69938 
L 205.702868 -62.659268 
L 205.708678 -61.480617 
L 206.463989 -58.554237 
L 206.53952 -57.492811 
L 206.190915 -55.676879 
L 204.546661 -52.181421 
L 203.710008 -49.227334 
L 203.198721 -48.391834 
L 202.547991 -47.773735 
L 201.874021 -47.449766 
L 201.263962 -46.989388 
L 200.950218 -46.17094 
L 200.688764 -45.220346 
L 200.277789 -44.426859 
L 200.247198 -44.367795 
L 196.162708 -41.554378 
L 195.122702 -39.964371 
L 194.901919 -38.898683 
L 195.023931 -37.040123 
L 194.843818 -36.025588 
L 194.396442 -35.25403 
L 193.861914 -34.934323 
L 192.630176 -34.537887 
L 191.189275 -33.399732 
L 190.945251 -32.461926 
L 191.944586 -29.588831 
L 190.096979 -27.845365 
L 189.974967 -27.640753 
L 189.934296 -27.427615 
L 189.974967 -27.21874 
L 190.096979 -27.009865 
L 190.701228 -26.383241 
L 191.166034 -24.882752 
L 191.677322 -24.106931 
L 192.22347 -23.787224 
L 193.449398 -23.535722 
L 193.978116 -23.190439 
L 194.617225 -21.822095 
L 194.402252 -20.419649 
L 193.002021 -17.627546 
L 191.206705 -15.368287 
L 189.51597 -15.692256 
L 187.674173 -16.532019 
L 185.448911 -15.83719 
L 185.658074 -17.10749 
L 185.995059 -18.087924 
L 186.221652 -19.110984 
L 186.128691 -20.539006 
L 185.814946 -21.617483 
L 185.344329 -22.695959 
L 184.368235 -24.473527 
L 183.816277 -25.790718 
L 183.450241 -26.315037 
L 183.072586 -26.617692 
L 179.847988 -28.386735 
L 178.988096 -28.697916 
L 178.023622 -28.761857 
L 178.116583 -28.98352 
L 178.331556 -29.379956 
L 179.319271 -31.698894 
L 180.928664 -33.698125 
L 181.759507 -35.633414 
L 180.330226 -37.560179 
L 179.481953 -37.862834 
L 177.756358 -37.820207 
L 176.855795 -37.948089 
L 176.425848 -38.246482 
L 176.013332 -39.01804 
L 175.834808 -39.085168 
L 175.548525 -39.192813 
L 175.19992 -39.026566 
L 174.328408 -38.237957 
L 173.927512 -38.007768 
L 172.939797 -38.058921 
L 170.319449 -39.619088 
L 169.232963 -40.002736 
L 168.686815 -40.288341 
L 165.136853 -45.633833 
L 163.539079 -47.304832 
L 161.987787 -48.101967 
L 160.517835 -48.703015 
L 159.48364 -49.572616 
L 158.867771 -50.898333 
L 158.646988 -52.910352 
L 158.83872 -55.033203 
L 159.750904 -59.306613 
L 159.942637 -61.683098 
L 159.913586 -64.172545 
L 159.681183 -66.035368 
L 158.908441 -67.169261 
L 157.293238 -67.456996 
L 156.548421 -67.294275 
L 154.161602 -66.772825 
L 152.633549 -65.928799 
L 151.436672 -64.641448 
L 150.966055 -63.594942 
L 151.181028 -63.245397 
L 151.552874 -62.957661 
L 151.576114 -62.122161 
L 151.239129 -61.367654 
L 150.681361 -60.687745 
L 150.036441 -60.186871 
L 148.444478 -59.368423 
L 145.678878 -55.659828 
L 144.51686 -54.837116 
L 142.076625 -54.282958 
L 140.862317 -53.71175 
L 139.764211 -52.577857 
L 139.200633 -51.772197 
L 138.962419 -51.077368 
L 139.159962 -50.757662 
L 140.473041 -49.59393 
L 142.134726 -46.328662 
L 142.291598 -43.302107 
L 141.07148 -40.629361 
L 138.613814 -38.455357 
L 138.003755 -38.246482 
L 136.841738 -38.118599 
L 136.27816 -37.675273 
L 135.877264 -36.826985 
L 135.755252 -35.880654 
L 135.749442 -34.955637 
L 135.453128 -32.60686 
L 135.348546 -32.440613 
L 134.802398 -31.21294 
L 134.761727 -31.033904 
L 134.058707 -30.100361 
L 133.657811 -29.759341 
L 133.117473 -29.588831 
L 129.131755 -28.668076 
L 128.320962 -28.00154 
L 127.7102 -26.806593 
L 127.55751 -25.238227 
L 126.400518 -25.183984 
L 126.331294 -25.048999 
L 126.156991 -24.200711 
L 126.203472 -23.770173 
L 126.06984 -23.493094 
L 125.36682 -23.100921 
L 125.041455 -23.117972 
L 124.03631 -23.433416 
L 122.490828 -23.403576 
L 119.789138 -24.413849 
L 119.23718 -24.349907 
L 118.813044 -24.145295 
L 118.342427 -24.030201 
L 117.651027 -24.273178 
L 117.569685 -24.482053 
L 116.51225 -26.059271 
L 115.669788 -26.860669 
L 114.786655 -27.380725 
L 109.057911 -28.847112 
L 108.116677 -28.34837 
L 107.570529 -27.410564 
L 106.95466 -26.587853 
L 105.775213 -26.434394 
L 104.101908 -25.692675 
L 100.778539 -23.203227 
L 98.977413 -22.555289 
L 94.753481 -23.015666 
L 94.0156 -22.755638 
L 92.435257 -21.753891 
L 88.966636 -20.29603 
L 87.270091 -19.97206 
L 85.434104 -19.937958 
L 83.708509 -20.300292 
L 82.40124 -21.10169 
L 79.879663 -23.991836 
L 79.490387 -24.656826 
L 79.188263 -25.488063 
L 78.793177 -26.997077 
L 78.148257 -28.710704 
L 77.944904 -29.588831 
L 77.67183 -29.776392 
L 73.866225 -34.167028 
L 72.588006 -34.742499 
L 72.117389 -34.546413 
L 71.716493 -34.1244 
L 71.286547 -33.791905 
L 70.752019 -33.868635 
L 70.258162 -34.252283 
L 70.223301 -34.508048 
L 70.339503 -34.853331 
L 70.316263 -35.492744 
L 70.397604 -35.573736 
L 70.380174 -36.434812 
L 70.281402 -37.253261 
L 70.12453 -37.172268 
L 70.380174 -37.598544 
L 70.83336 -38.161227 
L 71.228446 -38.792114 
L 71.286547 -39.423002 
L 70.426654 -40.27129 
L 65.952889 -41.277299 
L 65.464841 -42.662694 
L 65.981939 -45.488899 
L 66.958033 -48.442987 
L 68.950893 -52.386033 
L 67.672674 -54.623979 
L 65.679815 -56.774538 
L 64.604949 -58.658674 
L 64.907073 -59.6114 
L 66.388645 -61.376179 
L 66.789541 -62.757311 
L 66.726476 -63.56592 
L 66.667529 -64.321742 
L 66.142326 -65.141344 
L 65.296349 -65.566465 
L 56.921111 -67.763915 
L 53.173606 -67.885403 
L 49.571353 -67.160735 
L 44.778033 -63.827262 
L 42.953666 -63.354097 
L 41.106059 -63.26671 
L 39.374654 -62.697633 
L 37.550287 -61.092706 
L 35.946704 -58.942147 
L 34.761446 -57.30525 
L 34.459322 -56.179884 
L 34.691725 -55.357172 
L 35.208823 -53.954727 
L 35.237873 -53.622232 
L 35.778211 -52.258151 
L 36.016425 -51.908605 
L 36.603243 -51.597424 
L 37.544477 -52.036488 
L 37.939563 -51.861715 
L 38.230067 -49.960527 
L 36.777546 -48.396097 
L 33.181103 -45.97059 
L 30.310921 -42.5476 
L 28.486554 -41.592743 
L 26.575036 -42.462345 
L 24.012789 -42.360039 
L 21.462161 -41.741939 
L 20.108412 -40.919228 
L 20.857912 -42.709584 
L 21.287859 -43.540821 
L 21.462161 -44.248438 
L 20.468637 -45.518738 
L 19.881818 -46.648368 
L 20.090981 -47.641589 
L 21.462161 -48.528242 
L 24.832011 -50.207767 
L 24.924972 -50.237606 
L 25.017933 -50.246132 
L 25.122515 -50.237606 
L 25.564081 -50.092672 
L 25.901066 -50.050045 
L 26.226431 -50.08841 
L 27.463979 -50.480583 
L 27.708003 -51.030478 
L 27.655712 -51.793511 
L 27.684763 -52.684426 
L 28.085658 -55.020415 
L 28.271581 -55.66409 
L 29.089878 -57.52466 
L 30.090138 -59.798961 
L 30.014607 -60.71119 
L 29.329017 -61.960177 
L 28.503985 -62.86388 
L 25.740097 -64.586745 
L 25.47112 -64.754411 
L 26.11604 -65.381036 
L 26.220621 -65.924537 
L 26.104419 -66.482957 
L 26.104419 -67.111713 
L 26.063749 -67.365347 
L 25.930117 -67.706367 
L 25.808105 -68.094278 
L 25.808105 -68.516291 
L 26.028888 -69.019295 
L 26.667998 -69.718387 
L 28.625996 -73.120064 
L 30.613046 -75.660664 
L 29.253486 -77.199518 
L 29.079183 -78.28652 
L 29.834494 -79.288267 
L 37.393415 -86.279182 
L 41.419804 -88.510733 
L 41.977572 -88.98603 
L 43.459144 -90.671949 
L 45.324181 -91.669433 
L 45.91681 -92.114891 
L 46.550109 -92.916288 
L 46.765082 -93.60046 
L 46.741842 -94.992249 
L 46.323516 -95.456889 
L 46.027202 -95.86185 
L 45.870329 -96.326491 
L 45.95167 -96.727189 
L 46.834803 -99.410592 
L 47.224079 -100.120341 
L 47.332569 -100.393034 
L 47.537824 -100.90895 
L 47.630785 -102.051368 
L 47.450672 -102.963597 
L 46.701171 -104.400145 
L 46.468768 -105.146126 
L 47.30542 -108.040536 
L 50.03035 -109.62628 
L 56.078649 -111.535993 
L 59.829059 -114.402694 
L 61.113088 -116.263386 
L 60.439118 -117.793714 
L 61.194429 -119.104511 
L 61.723147 -119.626698 
L 63.134997 -120.133966 
L 63.34416 -120.658284 
L 63.553323 -120.803218 
L 64.360925 -121.220968 
L 64.291204 -122.631939 
L 65.976129 -123.220199 
L 69.535563 -126.515456 
L 69.659723 -126.630401 
L 70.728779 -128.395181 
L 72.361413 -130.076837 
L 76.178639 -132.875334 
L 75.952045 -134.921455 
L 76.312271 -136.613768 
L 77.369706 -137.70077 
L 77.880993 -137.764712 
L 78.183118 -137.884069 
L 79.00234 -138.990253 
L 79.589159 -139.333405 
L 80.164357 -139.491127 
L 80.693075 -139.827884 
L 81.128831 -140.733719 
L 80.542013 -141.57135 
L 79.69955 -142.334383 
L 78.862898 -143.014292 
L 77.828703 -142.517681 
L 71.141295 -141.861217 
L 71.420179 -142.916249 
L 72.117389 -144.205731 
L 72.948231 -145.288471 
L 74.394942 -146.136758 
L 74.482094 -147.692663 
L 75.957855 -148.020895 
L 76.870039 -148.545214 
L 77.706691 -149.254962 
L 78.130827 -149.949791 
L 77.857753 -150.932355 
L 77.276745 -152.072642 
L 77.137303 -152.991265 
L 78.183118 -153.30884 
L 78.682785 -153.698882 
L 79.188263 -153.828896 
L 79.69955 -153.698882 
L 80.210838 -153.30884 
L 81.669169 -153.097834 
L 84.46963 -153.583788 
L 85.79433 -153.30884 
L 86.5264 -152.888959 
L 86.630465 -152.872387 
L 87.275901 -152.769602 
L 88.803954 -152.923061 
L 87.781379 -150.58281 
L 88.100933 -149.23578 
L 89.321051 -148.506849 
L 90.971115 -147.991056 
L 91.203519 -147.805626 
L 91.360391 -147.509365 
L 91.586985 -147.210972 
L 92.022741 -147.027674 
L 92.400396 -147.104403 
L 94.526888 -148.025158 
L 96.014269 -148.336339 
L 97.579131 -148.269707 
L 99.918647 -148.170092 
L 100.462385 -148.388094 
L 101.48156 -148.796716 
L 102.280648 -149.83728 
L 102.591286 -150.241789 
L 102.771398 -151.013348 
L 102.678437 -151.477988 
L 102.405363 -151.863767 
L 102.21944 -152.064116 
L 101.934746 -152.573515 
L 101.928936 -153.080783 
L 102.585476 -153.272607 
L 103.456989 -152.969951 
L 103.710372 -152.809131 
L 104.189059 -152.505311 
L 104.91532 -152.398742 
L 105.775213 -153.170301 
L 105.873984 -153.30884 
L 105.949515 -153.543292 
L 105.955325 -153.758561 
L 105.946663 -153.789383 
L 105.897224 -153.965304 
L 105.496328 -154.525856 
L 105.374317 -154.858351 
L 105.449848 -155.118379 
L 105.775213 -155.293152 
L 106.356221 -155.169532 
L 106.809408 -155.318728 
L 107.053431 -155.789762 
L 107.036001 -156.614605 
L 106.844268 -156.610342 
L 105.908844 -157.322222 
L 105.775213 -157.377638 
L 107.919309 -159.122196 
L 108.227068 -159.372606 
L 109.575008 -160.118588 
L 111.551776 -160.859675 
L 111.58245 -160.871175 
L 114.44967 -161.725646 
L 115.722078 -161.857791 
L 114.984198 -159.792487 
L 114.385759 -159.219147 
L 113.061425 -159.230668 
L 112.915807 -159.231935 
L 115.004462 -158.134732 
L 115.82085 -157.70587 
L 117.058398 -157.541754 
L 119.52532 -158.050377 
L 121.741327 -158.507267 
L 122.798762 -159.104053 
L 123.693515 -160.16761 
L 124.71609 -161.755485 
L 125.506262 -161.354786 
L 129.131755 -161.137386 
L 129.47455 -160.783577 
L 129.654663 -160.009888 
L 129.765054 -159.236198 
L 129.916116 -158.886652 
L 137.231014 -158.886652 
L 139.758401 -159.449336 
L 140.304549 -159.818064 
L 140.554382 -160.176135 
L 140.780976 -160.593885 
L 141.257403 -161.137386 
L 141.716399 -161.491194 
L 142.936517 -162.145527 
L 143.964902 -162.450314 
L 144.348368 -162.853144 
L 144.627252 -163.255974 
L 144.917756 -163.443535 
L 147.950621 -163.950803 
L 148.967386 -163.955066 
L 150.425717 -163.511739 
L 151.076447 -163.443535 
L 151.378571 -163.085464 
L 151.680695 -162.290461 
L 152.075781 -161.495457 
L 152.627739 -161.137386 
L 154.760041 -160.574702 
L 158.356483 -160.553389 
L 158.526853 -160.581912 
L 160.087889 -160.843256 
L 160.15761 -161.235429 
L 160.814149 -162.6464 
L 162.533935 -163.77603 
L 164.218859 -163.94654 
L 165.084562 -163.14088 
L 165.752722 -162.024038 
L 165.869721 -161.881239 
L 166.374401 -161.265268 
L 167.129712 -161.516771 
L 167.25186 -161.729436 
L 167.495747 -162.154052 
L 167.559658 -162.772152 
L 167.530608 -163.35828 
L 167.600329 -163.920964 
L 167.577089 -164.204437 
L 167.443457 -164.526275 
L 167.350495 -164.901397 
L 167.478317 -165.357511 
L 167.68167 -165.532284 
L 167.977984 -165.643116 
L 168.222008 -165.651641 
L 168.274299 -165.519496 
L 168.309159 -165.012228 
L 168.675195 -164.82893 
L 168.994749 -166.783402 
L 168.483462 -166.832424 
L 168.223459 -166.938264 
L 167.582899 -167.199021 
L 166.798537 -167.331166 
L 164.067797 -166.870789 
L 163.225335 -166.450907 
L 162.446783 -165.898881 
L 161.615941 -165.472606 
L 160.616607 -165.429978 
L 159.45459 -166.086442 
L 158.013688 -167.175575 
L 157.734804 -167.218203 
L 156.851671 -167.540041 
L 157.211897 -168.433088 
L 157.072455 -169.136442 
L 156.834241 -169.739621 
L 156.898152 -170.349195 
L 157.45011 -170.973688 
L 158.873581 -171.747378 
L 159.47202 -172.301536 
L 159.896156 -173.951221 
L 160.15761 -174.552269 
L 160.918731 -175.660585 
L 161.360297 -175.920613 
L 161.987787 -175.903562 
L 165.014841 -176.500347 
L 165.863113 -176.926623 
L 165.340206 -178.226762 
L 166.234959 -178.73403 
L 167.635189 -178.6573 
L 168.675195 -178.19266 
L 168.762346 -177.591612 
L 168.814637 -176.525924 
L 169.01218 -175.524177 
L 169.564138 -175.117084 
L 170.261348 -175.568936 
L 170.551852 -177.367818 
L 171.06314 -177.896399 
L 171.7894 -177.657685 
L 172.329738 -176.84563 
L 172.771305 -175.890774 
L 173.189631 -175.23431 
L 173.770639 -175.104296 
L 174.392318 -175.232178 
L 174.944277 -175.12561 
L 175.316122 -174.292241 
L 175.16506 -173.98106 
L 174.415559 -172.866351 
L 174.229636 -172.327112 
L 174.46785 -171.653597 
L 174.915226 -171.105834 
L 175.054668 -170.477077 
L 175.16506 -169.939971 
L 178.134013 -169.982598 
L 177.675017 -170.491997 
L 178.180494 -172.109712 
L 179.691116 -172.041508 
L 181.527103 -170.982214 
L 182.979624 -169.620264 
L 181.945429 -169.38155 
L 181.951239 -168.80821 
L 182.746664 -168.01996 
L 182.787892 -167.979104 
L 184.420525 -166.770614 
L 185.797516 -166.412543 
L 187.999538 -166.619286 
L 190.044688 -167.267225 
L 190.939441 -168.230607 
L 192.002687 -168.648357 
L 198.271769 -167.949265 
L 201.380164 -167.949265 
L 202.141285 -166.770614 
L 204.244536 -166.772745 
L 206.429128 -166.271872 
L 221.847513 -156.740816 
L 222.161025 -155.284405 
L 222.26742 -154.790147 
L 223.929105 -152.300699 
L 226.020735 -151.350105 
L 227.630129 -149.939134 
L 227.583648 -146.443677 
L 227.0375 -145.190427 
L 224.858718 -142.447346 
L 224.597265 -141.707758 
L 224.30676 -140.254159 
L 224.091787 -139.687213 
L 222.174459 -137.381064 
L 220.367523 -134.32467 
L 219.437909 -132.751714 
L 218.467625 -129.970268 
L 218.333993 -127.193084 
L 218.763939 -125.829003 
L 219.373998 -124.639695 
L 219.844615 -123.318242 
L 219.873665 -121.557725 
L 219.339137 -120.457935 
L 218.479245 -119.571282 
L 217.822705 -118.686761 
L 217.886616 -117.917334 
L 219.153215 -117.542212 
L 222.586975 -116.968872 
L 223.743182 -117.3376 
L 224.794807 -117.058389 
L 227.740521 -117.424986 
L 228.681754 -117.282184 
L 239.30259 -113.923135 
L 239.209629 -112.983198 
L 239.447842 -112.778585 
L 239.796447 -112.806293 
L 240.011421 -112.550528 
L 240.011421 -112.064574 
L 239.779017 -111.275965 
L 239.639575 -109.340675 
L 239.459462 -108.451891 
L 239.552424 -107.678202 
L 240.267064 -106.659404 
L 241.661485 -105.58519 
L 247.674923 -103.63498 
L 249.847895 -101.556888 
L 251.114493 -100.819432 
L 253.543109 -100.035086 
L 254.323827 -100.005014 
L 254.705126 -99.990327 
L 256.157647 -100.405945 
L 258.609503 -101.661326 
L 259.184702 -102.503219 
L 259.335764 -103.134107 
L 259.382245 -103.828936 
L 259.649508 -104.87331 
L 260.503591 -106.320515 
L 261.415774 -106.491025 
L 262.50807 -106.203289 
L 263.908301 -106.269362 
L 263.937351 -107.810347 
L 264.919256 -109.703009 
L 266.336917 -111.335644 
L 267.969551 -112.275581 
L 268.277485 -112.33739 
L 268.59123 -112.275581 
L 268.887544 -112.081625 
L 268.893354 -112.081625 
L 268.893354 -112.068837 
L 269.474363 -111.442212 
L 270.648 -109.545287 
L 272.559518 -108.019222 
L 273.059185 -107.418174 
L 273.361309 -106.026385 
L 272.664099 -103.223625 
L 272.797731 -101.463108 
" style="stroke: #aaaaaa"/>
    </defs>
    <g clip-path="url(#p9497f4fa70)">
     <use xlink:href="#m92a2525fd3" x="0" y="209.220442" style="fill: #aaaaaa; stroke: #aaaaaa"/>
    </g>
   </g>
   <g id="PathCollection_1">
    <defs>
     <path id="md85226058a" d="M 0 1.581139 
C 0.419323 1.581139 0.821528 1.41454 1.118034 1.118034 
C 1.41454 0.821528 1.581139 0.419323 1.581139 0 
C 1.581139 -0.419323 1.41454 -0.821528 1.118034 -1.118034 
C 0.821528 -1.41454 0.419323 -1.581139 0 -1.581139 
C -0.419323 -1.581139 -0.821528 -1.41454 -1.118034 -1.118034 
C -1.41454 -0.821528 -1.581139 -0.419323 -1.581139 0 
C -1.581139 0.419323 -1.41454 0.821528 -1.118034 1.118034 
C -0.821528 1.41454 -0.419323 1.581139 0 1.581139 
z
" style="stroke: #1f77b4; stroke-opacity: 0.5"/>
    </defs>
    <g clip-path="url(#p9497f4fa70)">
     <use xlink:href="#md85226058a" x="157.82272" y="73.388361" style="fill: #1f77b4; fill-opacity: 0.5; stroke: #1f77b4; stroke-opacity: 0.5"/>
     <use xlink:href="#md85226058a" x="165.510086" y="55.23758" style="fill: #1f77b4; fill-opacity: 0.5; stroke: #1f77b4; stroke-opacity: 0.5"/>
     <use xlink:href="#md85226058a" x="158.78737" y="52.956665" style="fill: #1f77b4; fill-opacity: 0.5; stroke: #1f77b4; stroke-opacity: 0.5"/>
     <use xlink:href="#md85226058a" x="168.538075" y="71.497975" style="fill: #1f77b4; fill-opacity: 0.5; stroke: #1f77b4; stroke-opacity: 0.5"/>
     <use xlink:href="#md85226058a" x="179.014491" y="76.642013" style="fill: #1f77b4; fill-opacity: 0.5; stroke: #1f77b4; stroke-opacity: 0.5"/>
     <use xlink:href="#md85226058a" x="171.188726" y="64.694807" style="fill: #1f77b4; fill-opacity: 0.5; stroke: #1f77b4; stroke-opacity: 0.5"/>
     <use xlink:href="#md85226058a" x="176.832799" y="69.579693" style="fill: #1f77b4; fill-opacity: 0.5; stroke: #1f77b4; stroke-opacity: 0.5"/>
     <use xlink:href="#md85226058a" x="172.142091" y="52.734953" style="fill: #1f77b4; fill-opacity: 0.5; stroke: #1f77b4; stroke-opacity: 0.5"/>
     <use xlink:href="#md85226058a" x="179.578065" y="50.895672" style="fill: #1f77b4; fill-opacity: 0.5; stroke: #1f77b4; stroke-opacity: 0.5"/>
     <use xlink:href="#md85226058a" x="179.124542" y="51.930666" style="fill: #1f77b4; fill-opacity: 0.5; stroke: #1f77b4; stroke-opacity: 0.5"/>
     <use xlink:href="#md85226058a" x="124.25072" y="84.863466" style="fill: #1f77b4; fill-opacity: 0.5; stroke: #1f77b4; stroke-opacity: 0.5"/>
     <use xlink:href="#md85226058a" x="121.383101" y="81.476135" style="fill: #1f77b4; fill-opacity: 0.5; stroke: #1f77b4; stroke-opacity: 0.5"/>
     <use xlink:href="#md85226058a" x="120.50811" y="87.478895" style="fill: #1f77b4; fill-opacity: 0.5; stroke: #1f77b4; stroke-opacity: 0.5"/>
     <use xlink:href="#md85226058a" x="123.900696" y="87.473321" style="fill: #1f77b4; fill-opacity: 0.5; stroke: #1f77b4; stroke-opacity: 0.5"/>
     <use xlink:href="#md85226058a" x="121.483588" y="85.947285" style="fill: #1f77b4; fill-opacity: 0.5; stroke: #1f77b4; stroke-opacity: 0.5"/>
     <use xlink:href="#md85226058a" x="99.155207" y="87.742125" style="fill: #1f77b4; fill-opacity: 0.5; stroke: #1f77b4; stroke-opacity: 0.5"/>
     <use xlink:href="#md85226058a" x="113.064537" y="97.127149" style="fill: #1f77b4; fill-opacity: 0.5; stroke: #1f77b4; stroke-opacity: 0.5"/>
     <use xlink:href="#md85226058a" x="116.223671" y="96.977035" style="fill: #1f77b4; fill-opacity: 0.5; stroke: #1f77b4; stroke-opacity: 0.5"/>
     <use xlink:href="#md85226058a" x="117.843116" y="91.609047" style="fill: #1f77b4; fill-opacity: 0.5; stroke: #1f77b4; stroke-opacity: 0.5"/>
     <use xlink:href="#md85226058a" x="118.295129" y="86.909847" style="fill: #1f77b4; fill-opacity: 0.5; stroke: #1f77b4; stroke-opacity: 0.5"/>
     <use xlink:href="#md85226058a" x="110.944387" y="83.552266" style="fill: #1f77b4; fill-opacity: 0.5; stroke: #1f77b4; stroke-opacity: 0.5"/>
     <use xlink:href="#md85226058a" x="115.986865" y="129.869981" style="fill: #1f77b4; fill-opacity: 0.5; stroke: #1f77b4; stroke-opacity: 0.5"/>
     <use xlink:href="#md85226058a" x="118.707766" y="107.532906" style="fill: #1f77b4; fill-opacity: 0.5; stroke: #1f77b4; stroke-opacity: 0.5"/>
     <use xlink:href="#md85226058a" x="115.942025" y="100.014337" style="fill: #1f77b4; fill-opacity: 0.5; stroke: #1f77b4; stroke-opacity: 0.5"/>
     <use xlink:href="#md85226058a" x="115.095979" y="109.521384" style="fill: #1f77b4; fill-opacity: 0.5; stroke: #1f77b4; stroke-opacity: 0.5"/>
     <use xlink:href="#md85226058a" x="115.357952" y="110.386373" style="fill: #1f77b4; fill-opacity: 0.5; stroke: #1f77b4; stroke-opacity: 0.5"/>
     <use xlink:href="#md85226058a" x="114.64009" y="111.585604" style="fill: #1f77b4; fill-opacity: 0.5; stroke: #1f77b4; stroke-opacity: 0.5"/>
     <use xlink:href="#md85226058a" x="91.457746" y="100.800642" style="fill: #1f77b4; fill-opacity: 0.5; stroke: #1f77b4; stroke-opacity: 0.5"/>
     <use xlink:href="#md85226058a" x="112.069844" y="123.609866" style="fill: #1f77b4; fill-opacity: 0.5; stroke: #1f77b4; stroke-opacity: 0.5"/>
     <use xlink:href="#md85226058a" x="108.070603" y="124.873593" style="fill: #1f77b4; fill-opacity: 0.5; stroke: #1f77b4; stroke-opacity: 0.5"/>
     <use xlink:href="#md85226058a" x="141.744021" y="118.25193" style="fill: #1f77b4; fill-opacity: 0.5; stroke: #1f77b4; stroke-opacity: 0.5"/>
     <use xlink:href="#md85226058a" x="98.092891" y="140.73489" style="fill: #1f77b4; fill-opacity: 0.5; stroke: #1f77b4; stroke-opacity: 0.5"/>
     <use xlink:href="#md85226058a" x="99.796431" y="115.508444" style="fill: #1f77b4; fill-opacity: 0.5; stroke: #1f77b4; stroke-opacity: 0.5"/>
     <use xlink:href="#md85226058a" x="102.169258" y="115.431162" style="fill: #1f77b4; fill-opacity: 0.5; stroke: #1f77b4; stroke-opacity: 0.5"/>
     <use xlink:href="#md85226058a" x="102.094218" y="112.15484" style="fill: #1f77b4; fill-opacity: 0.5; stroke: #1f77b4; stroke-opacity: 0.5"/>
     <use xlink:href="#md85226058a" x="121.211197" y="101.993417" style="fill: #1f77b4; fill-opacity: 0.5; stroke: #1f77b4; stroke-opacity: 0.5"/>
     <use xlink:href="#md85226058a" x="123.331241" y="98.753387" style="fill: #1f77b4; fill-opacity: 0.5; stroke: #1f77b4; stroke-opacity: 0.5"/>
     <use xlink:href="#md85226058a" x="122.269282" y="97.303204" style="fill: #1f77b4; fill-opacity: 0.5; stroke: #1f77b4; stroke-opacity: 0.5"/>
     <use xlink:href="#md85226058a" x="115.110928" y="117.457147" style="fill: #1f77b4; fill-opacity: 0.5; stroke: #1f77b4; stroke-opacity: 0.5"/>
     <use xlink:href="#md85226058a" x="120.517808" y="114.924468" style="fill: #1f77b4; fill-opacity: 0.5; stroke: #1f77b4; stroke-opacity: 0.5"/>
     <use xlink:href="#md85226058a" x="115.714249" y="115.47842" style="fill: #1f77b4; fill-opacity: 0.5; stroke: #1f77b4; stroke-opacity: 0.5"/>
     <use xlink:href="#md85226058a" x="125.12339" y="87.863455" style="fill: #1f77b4; fill-opacity: 0.5; stroke: #1f77b4; stroke-opacity: 0.5"/>
     <use xlink:href="#md85226058a" x="117.014964" y="79.613628" style="fill: #1f77b4; fill-opacity: 0.5; stroke: #1f77b4; stroke-opacity: 0.5"/>
     <use xlink:href="#md85226058a" x="115.040941" y="76.169354" style="fill: #1f77b4; fill-opacity: 0.5; stroke: #1f77b4; stroke-opacity: 0.5"/>
     <use xlink:href="#md85226058a" x="129.73094" y="108.124752" style="fill: #1f77b4; fill-opacity: 0.5; stroke: #1f77b4; stroke-opacity: 0.5"/>
     <use xlink:href="#md85226058a" x="153.778339" y="85.315673" style="fill: #1f77b4; fill-opacity: 0.5; stroke: #1f77b4; stroke-opacity: 0.5"/>
     <use xlink:href="#md85226058a" x="146.795361" y="77.081783" style="fill: #1f77b4; fill-opacity: 0.5; stroke: #1f77b4; stroke-opacity: 0.5"/>
     <use xlink:href="#md85226058a" x="143.329709" y="80.041849" style="fill: #1f77b4; fill-opacity: 0.5; stroke: #1f77b4; stroke-opacity: 0.5"/>
     <use xlink:href="#md85226058a" x="137.956692" y="81.694136" style="fill: #1f77b4; fill-opacity: 0.5; stroke: #1f77b4; stroke-opacity: 0.5"/>
     <use xlink:href="#md85226058a" x="141.524503" y="77.662817" style="fill: #1f77b4; fill-opacity: 0.5; stroke: #1f77b4; stroke-opacity: 0.5"/>
     <use xlink:href="#md85226058a" x="129.470756" y="83.958052" style="fill: #1f77b4; fill-opacity: 0.5; stroke: #1f77b4; stroke-opacity: 0.5"/>
     <use xlink:href="#md85226058a" x="177.290797" y="79.921446" style="fill: #1f77b4; fill-opacity: 0.5; stroke: #1f77b4; stroke-opacity: 0.5"/>
     <use xlink:href="#md85226058a" x="187.070016" y="82.272503" style="fill: #1f77b4; fill-opacity: 0.5; stroke: #1f77b4; stroke-opacity: 0.5"/>
     <use xlink:href="#md85226058a" x="174.016841" y="95.715582" style="fill: #1f77b4; fill-opacity: 0.5; stroke: #1f77b4; stroke-opacity: 0.5"/>
     <use xlink:href="#md85226058a" x="171.242759" y="96.427972" style="fill: #1f77b4; fill-opacity: 0.5; stroke: #1f77b4; stroke-opacity: 0.5"/>
     <use xlink:href="#md85226058a" x="159.364884" y="102.20759" style="fill: #1f77b4; fill-opacity: 0.5; stroke: #1f77b4; stroke-opacity: 0.5"/>
     <use xlink:href="#md85226058a" x="159.581513" y="106.639158" style="fill: #1f77b4; fill-opacity: 0.5; stroke: #1f77b4; stroke-opacity: 0.5"/>
     <use xlink:href="#md85226058a" x="197.795861" y="87.584595" style="fill: #1f77b4; fill-opacity: 0.5; stroke: #1f77b4; stroke-opacity: 0.5"/>
     <use xlink:href="#md85226058a" x="192.850238" y="98.26034" style="fill: #1f77b4; fill-opacity: 0.5; stroke: #1f77b4; stroke-opacity: 0.5"/>
     <use xlink:href="#md85226058a" x="193.830733" y="100.840404" style="fill: #1f77b4; fill-opacity: 0.5; stroke: #1f77b4; stroke-opacity: 0.5"/>
     <use xlink:href="#md85226058a" x="167.088476" y="81.680025" style="fill: #1f77b4; fill-opacity: 0.5; stroke: #1f77b4; stroke-opacity: 0.5"/>
     <use xlink:href="#md85226058a" x="128.859733" y="66.067147" style="fill: #1f77b4; fill-opacity: 0.5; stroke: #1f77b4; stroke-opacity: 0.5"/>
     <use xlink:href="#md85226058a" x="134.614201" y="63.925343" style="fill: #1f77b4; fill-opacity: 0.5; stroke: #1f77b4; stroke-opacity: 0.5"/>
     <use xlink:href="#md85226058a" x="112.441782" y="77.945421" style="fill: #1f77b4; fill-opacity: 0.5; stroke: #1f77b4; stroke-opacity: 0.5"/>
     <use xlink:href="#md85226058a" x="125.392766" y="73.569578" style="fill: #1f77b4; fill-opacity: 0.5; stroke: #1f77b4; stroke-opacity: 0.5"/>
     <use xlink:href="#md85226058a" x="134.481416" y="67.848109" style="fill: #1f77b4; fill-opacity: 0.5; stroke: #1f77b4; stroke-opacity: 0.5"/>
     <use xlink:href="#md85226058a" x="126.798966" y="68.486698" style="fill: #1f77b4; fill-opacity: 0.5; stroke: #1f77b4; stroke-opacity: 0.5"/>
     <use xlink:href="#md85226058a" x="109.5827" y="63.209263" style="fill: #1f77b4; fill-opacity: 0.5; stroke: #1f77b4; stroke-opacity: 0.5"/>
     <use xlink:href="#md85226058a" x="126.860129" y="56.079522" style="fill: #1f77b4; fill-opacity: 0.5; stroke: #1f77b4; stroke-opacity: 0.5"/>
     <use xlink:href="#md85226058a" x="222.412796" y="63.796435" style="fill: #1f77b4; fill-opacity: 0.5; stroke: #1f77b4; stroke-opacity: 0.5"/>
     <use xlink:href="#md85226058a" x="213.448094" y="59.344279" style="fill: #1f77b4; fill-opacity: 0.5; stroke: #1f77b4; stroke-opacity: 0.5"/>
     <use xlink:href="#md85226058a" x="216.052197" y="56.770382" style="fill: #1f77b4; fill-opacity: 0.5; stroke: #1f77b4; stroke-opacity: 0.5"/>
     <use xlink:href="#md85226058a" x="218.492225" y="90.353848" style="fill: #1f77b4; fill-opacity: 0.5; stroke: #1f77b4; stroke-opacity: 0.5"/>
     <use xlink:href="#md85226058a" x="186.609518" y="76.49618" style="fill: #1f77b4; fill-opacity: 0.5; stroke: #1f77b4; stroke-opacity: 0.5"/>
     <use xlink:href="#md85226058a" x="197.740051" y="73.056963" style="fill: #1f77b4; fill-opacity: 0.5; stroke: #1f77b4; stroke-opacity: 0.5"/>
     <use xlink:href="#md85226058a" x="194.052686" y="60.016438" style="fill: #1f77b4; fill-opacity: 0.5; stroke: #1f77b4; stroke-opacity: 0.5"/>
     <use xlink:href="#md85226058a" x="193.458427" y="64.621363" style="fill: #1f77b4; fill-opacity: 0.5; stroke: #1f77b4; stroke-opacity: 0.5"/>
     <use xlink:href="#md85226058a" x="195.295355" y="60.26587" style="fill: #1f77b4; fill-opacity: 0.5; stroke: #1f77b4; stroke-opacity: 0.5"/>
     <use xlink:href="#md85226058a" x="135.354911" y="62.541473" style="fill: #1f77b4; fill-opacity: 0.5; stroke: #1f77b4; stroke-opacity: 0.5"/>
     <use xlink:href="#md85226058a" x="137.328735" y="63.164611" style="fill: #1f77b4; fill-opacity: 0.5; stroke: #1f77b4; stroke-opacity: 0.5"/>
     <use xlink:href="#md85226058a" x="151.189273" y="60.578695" style="fill: #1f77b4; fill-opacity: 0.5; stroke: #1f77b4; stroke-opacity: 0.5"/>
     <use xlink:href="#md85226058a" x="155.46661" y="62.140814" style="fill: #1f77b4; fill-opacity: 0.5; stroke: #1f77b4; stroke-opacity: 0.5"/>
     <use xlink:href="#md85226058a" x="152.402885" y="66.157421" style="fill: #1f77b4; fill-opacity: 0.5; stroke: #1f77b4; stroke-opacity: 0.5"/>
     <use xlink:href="#md85226058a" x="151.548478" y="64.260172" style="fill: #1f77b4; fill-opacity: 0.5; stroke: #1f77b4; stroke-opacity: 0.5"/>
     <use xlink:href="#md85226058a" x="144.296929" y="73.923001" style="fill: #1f77b4; fill-opacity: 0.5; stroke: #1f77b4; stroke-opacity: 0.5"/>
     <use xlink:href="#md85226058a" x="128.943509" y="49.586934" style="fill: #1f77b4; fill-opacity: 0.5; stroke: #1f77b4; stroke-opacity: 0.5"/>
     <use xlink:href="#md85226058a" x="130.363423" y="71.841337" style="fill: #1f77b4; fill-opacity: 0.5; stroke: #1f77b4; stroke-opacity: 0.5"/>
     <use xlink:href="#md85226058a" x="136.929905" y="73.326874" style="fill: #1f77b4; fill-opacity: 0.5; stroke: #1f77b4; stroke-opacity: 0.5"/>
     <use xlink:href="#md85226058a" x="157.631277" y="50.60071" style="fill: #1f77b4; fill-opacity: 0.5; stroke: #1f77b4; stroke-opacity: 0.5"/>
     <use xlink:href="#md85226058a" x="204.974977" y="48.459637" style="fill: #1f77b4; fill-opacity: 0.5; stroke: #1f77b4; stroke-opacity: 0.5"/>
     <use xlink:href="#md85226058a" x="193.728703" y="41.24287" style="fill: #1f77b4; fill-opacity: 0.5; stroke: #1f77b4; stroke-opacity: 0.5"/>
     <use xlink:href="#md85226058a" x="181.948161" y="43.328795" style="fill: #1f77b4; fill-opacity: 0.5; stroke: #1f77b4; stroke-opacity: 0.5"/>
     <use xlink:href="#md85226058a" x="201.781504" y="50.121486" style="fill: #1f77b4; fill-opacity: 0.5; stroke: #1f77b4; stroke-opacity: 0.5"/>
     <use xlink:href="#md85226058a" x="144.804028" y="145.394802" style="fill: #1f77b4; fill-opacity: 0.5; stroke: #1f77b4; stroke-opacity: 0.5"/>
    </g>
   </g>
   <g id="text_1">
    <text style="font: 12px 'DejaVu Sans', 'Bitstream Vera Sans', 'Computer Modern Sans Serif', 'Lucida Grande', 'Verdana', 'Geneva', 'Lucid', 'Arial', 'Helvetica', 'Avant Garde', sans-serif; text-anchor: middle" x="146.7" y="16.318125" transform="rotate(-0 146.7 16.318125)">-bach 94x</text>
   </g>
  </g>
 </g>
 <defs>
  <clipPath id="p9497f4fa70">
   <rect x="7.2" y="22.318125" width="279" height="179.702317"/>
  </clipPath>
 </defs>
</svg>
