<?xml version="1.0" encoding="utf-8" standalone="no"?>
<!DOCTYPE svg PUBLIC "-//W3C//DTD SVG 1.1//EN"
  "http://www.w3.org/Graphics/SVG/1.1/DTD/svg11.dtd">
<svg xmlns:xlink="http://www.w3.org/1999/xlink" width="293.4pt" height="208.949941pt" viewBox="0 0 293.4 208.949941" xmlns="http://www.w3.org/2000/svg" version="1.1">
 <metadata>
  <rdf:RDF xmlns:dc="http://purl.org/dc/elements/1.1/" xmlns:cc="http://creativecommons.org/ns#" xmlns:rdf="http://www.w3.org/1999/02/22-rdf-syntax-ns#">
   <cc:Work>
    <dc:type rdf:resource="http://purl.org/dc/dcmitype/StillImage"/>
    <dc:date>2024-08-06T14:07:33.820698</dc:date>
    <dc:format>image/svg+xml</dc:format>
    <dc:creator>
     <cc:Agent>
      <dc:title>Matplotlib v3.9.1, https://matplotlib.org/</dc:title>
     </cc:Agent>
    </dc:creator>
   </cc:Work>
  </rdf:RDF>
 </metadata>
 <defs>
  <style type="text/css">*{stroke-linejoin: round; stroke-linecap: butt}</style>
 </defs>
 <g id="figure_1">
  <g id="patch_1">
   <path d="M 0 208.949941 
L 293.4 208.949941 
L 293.4 0 
L 0 0 
z
" style="fill: #ffffff"/>
  </g>
  <g id="axes_1">
   <g id="PatchCollection_1">
    <defs>
     <path id="m8a8cd494a5" d="M 272.797731 -101.321216 
L 272.501417 -98.669518 
L 272.298064 -97.928916 
L 271.966889 -97.405386 
L 270.740961 -95.919925 
L 270.845543 -94.6941 
L 271.246439 -93.495942 
L 271.385881 -92.361628 
L 270.706101 -91.320954 
L 269.753247 -90.705913 
L 269.526653 -89.952542 
L 269.578944 -89.014019 
L 269.456932 -87.845655 
L 268.916594 -86.873082 
L 268.306535 -86.287836 
L 268.039272 -85.50467 
L 268.509888 -83.929826 
L 269.526653 -82.738052 
L 271.920408 -82.478415 
L 273.094046 -81.482432 
L 273.518182 -79.894819 
L 273.477511 -77.768779 
L 273.030135 -75.727866 
L 272.686514 -75.151686 
L 272.245773 -74.412658 
L 271.229008 -74.214738 
L 267.202619 -75.285207 
L 265.24462 -75.097928 
L 264.52417 -75.217105 
L 263.890871 -75.512921 
L 263.536455 -75.891735 
L 263.240141 -76.306727 
L 262.798575 -76.702567 
L 260.480351 -77.507014 
L 260.230517 -78.400845 
L 260.538451 -80.092739 
L 260.42806 -81.022748 
L 259.533307 -81.763351 
L 258.086596 -81.750582 
L 252.764558 -80.203403 
L 252.22422 -79.903332 
L 251.980196 -79.294675 
L 251.288796 -76.608927 
L 250.823989 -75.97899 
L 249.609681 -74.753165 
L 249.127444 -74.021075 
L 249.051913 -73.429444 
L 249.040293 -71.620501 
L 248.796269 -70.743696 
L 248.86599 -69.981812 
L 248.999622 -69.383796 
L 249.272696 -68.921984 
L 249.760744 -68.585733 
L 248.767219 -66.878943 
L 249.650352 -65.763782 
L 251.300416 -65.112563 
L 253.816183 -64.618828 
L 254.786467 -64.222989 
L 255.198983 -63.307876 
L 254.774847 -61.511702 
L 254.368141 -60.958379 
L 253.188694 -59.885782 
L 252.764558 -59.085591 
L 252.479863 -57.970431 
L 252.445003 -57.217059 
L 252.671596 -56.523276 
L 253.182884 -55.603908 
L 255.501108 -53.20759 
L 256.221558 -51.739154 
L 255.483677 -50.16431 
L 253.914954 -49.159814 
L 251.54444 -48.244702 
L 249.685212 -48.283009 
L 249.638732 -50.143028 
L 249.069343 -51.543363 
L 246.849891 -53.543841 
L 246.024859 -54.676026 
L 245.658823 -56.480713 
L 245.635583 -58.11089 
L 245.263738 -59.451636 
L 243.857697 -60.38803 
L 242.70149 -60.692358 
L 241.609194 -60.775356 
L 239.157338 -60.347594 
L 235.415643 -58.398192 
L 234.247816 -58.012994 
L 233.527365 -58.170478 
L 232.156185 -59.008977 
L 231.551937 -59.023874 
L 230.941878 -58.323707 
L 230.831486 -57.383056 
L 230.918637 -56.44879 
L 230.895397 -55.799699 
L 230.035504 -54.5909 
L 228.978069 -54.156753 
L 222.534684 -54.233367 
L 221.227415 -54.71859 
L 220.036348 -55.540063 
L 219.321707 -56.540302 
L 218.200361 -59.511224 
L 217.700693 -59.928345 
L 216.457335 -60.628513 
L 216.050629 -61.032865 
L 215.940238 -61.494677 
L 216.021579 -62.750296 
L 215.684594 -70.650056 
L 215.504481 -71.167201 
L 215.062915 -71.067177 
L 214.156542 -70.39042 
L 213.773076 -69.864762 
L 213.575533 -69.279516 
L 213.302459 -68.785781 
L 212.6924 -68.538914 
L 212.268264 -68.726192 
L 210.833173 -70.109502 
L 210.792502 -71.128894 
L 209.676966 -71.428966 
L 206.940416 -71.088459 
L 205.86555 -70.079707 
L 204.889456 -68.096255 
L 204.447889 -66.078751 
L 204.988227 -64.965719 
L 205.737728 -64.440062 
L 205.84812 -63.614333 
L 205.702868 -62.575787 
L 205.708678 -61.39891 
L 206.463989 -58.476935 
L 206.53952 -57.417107 
L 206.190915 -55.603908 
L 204.546661 -52.113712 
L 203.710008 -49.164071 
L 203.198721 -48.329829 
L 202.547991 -47.71266 
L 201.874021 -47.389179 
L 201.263962 -46.929494 
L 200.950218 -46.112278 
L 200.688764 -45.163115 
L 200.277789 -44.370822 
L 200.247198 -44.311847 
L 196.162708 -41.502665 
L 195.122702 -39.915052 
L 194.901919 -38.850968 
L 195.023931 -36.995205 
L 194.843818 -35.982197 
L 194.396442 -35.2118 
L 193.861914 -34.892575 
L 192.630176 -34.496736 
L 191.189275 -33.360294 
L 190.945251 -32.4239 
L 191.944586 -29.55513 
L 190.096979 -27.814288 
L 189.974967 -27.609984 
L 189.934296 -27.397167 
L 189.974967 -27.188607 
L 190.096979 -26.980046 
L 190.701228 -26.354365 
L 191.166034 -24.856134 
L 191.677322 -24.081481 
L 192.22347 -23.762256 
L 193.449398 -23.511132 
L 193.978116 -23.166369 
L 194.617225 -21.800085 
L 194.402252 -20.39975 
L 193.002021 -17.61185 
L 191.206705 -15.355992 
L 189.51597 -15.679473 
L 187.674173 -16.517971 
L 185.448911 -15.824189 
L 185.658074 -17.092577 
L 185.995059 -18.071534 
L 186.221652 -19.093055 
L 186.128691 -20.518928 
L 185.814946 -21.595781 
L 185.344329 -22.672634 
L 184.368235 -24.447526 
L 183.816277 -25.762734 
L 183.450241 -26.286263 
L 183.072586 -26.588463 
L 179.847988 -28.354843 
L 178.988096 -28.665555 
L 178.023622 -28.7294 
L 178.116583 -28.95073 
L 178.331556 -29.346569 
L 179.319271 -31.662016 
L 180.928664 -33.658238 
L 181.759507 -35.590614 
L 180.330226 -37.514478 
L 179.481953 -37.816678 
L 177.756358 -37.774115 
L 176.855795 -37.901805 
L 176.425848 -38.199749 
L 176.013332 -38.970145 
L 175.834808 -39.037172 
L 175.548525 -39.144655 
L 175.19992 -38.978658 
L 174.328408 -38.191236 
L 173.927512 -37.961394 
L 172.939797 -38.01247 
L 170.319449 -39.570289 
L 169.232963 -39.953359 
L 168.686815 -40.238534 
L 165.136853 -45.575979 
L 163.539079 -47.244463 
L 161.987787 -48.040398 
L 160.517835 -48.640542 
L 159.48364 -49.508834 
L 158.867771 -50.832555 
L 158.646988 -52.841545 
L 158.83872 -54.961201 
L 159.750904 -59.228178 
L 159.942637 -61.601086 
L 159.913586 -64.086786 
L 159.681183 -65.946805 
L 158.908441 -67.07899 
L 157.293238 -67.366293 
L 156.548421 -67.203817 
L 154.161602 -66.683151 
L 152.633549 -65.840396 
L 151.436672 -64.554983 
L 150.966055 -63.510052 
L 151.181028 -63.161033 
L 151.552874 -62.87373 
L 151.576114 -62.039488 
L 151.239129 -61.286117 
L 150.681361 -60.607231 
L 150.036441 -60.107111 
L 148.444478 -59.289895 
L 145.678878 -55.586882 
L 144.51686 -54.765409 
L 142.076625 -54.212086 
L 140.862317 -53.641737 
L 139.764211 -52.509551 
L 139.200633 -51.705104 
L 138.962419 -51.011321 
L 139.159962 -50.692096 
L 140.473041 -49.530116 
L 142.134726 -46.269762 
L 142.291598 -43.247763 
L 141.07148 -40.57904 
L 138.613814 -38.408309 
L 138.003755 -38.199749 
L 136.841738 -38.072058 
L 136.27816 -37.629399 
L 135.877264 -36.782389 
L 135.755252 -35.837482 
L 135.749442 -34.913857 
L 135.453128 -32.568616 
L 135.348546 -32.402618 
L 134.802398 -31.176794 
L 134.761727 -30.998028 
L 134.058707 -30.06589 
L 133.657811 -29.725383 
L 133.117473 -29.55513 
L 129.131755 -28.635761 
L 128.320962 -27.970228 
L 127.7102 -26.77708 
L 127.55751 -25.211074 
L 126.400518 -25.156914 
L 126.331294 -25.022131 
L 126.156991 -24.17512 
L 126.203472 -23.74523 
L 126.06984 -23.468569 
L 125.36682 -23.076986 
L 125.041455 -23.094011 
L 124.03631 -23.40898 
L 122.490828 -23.379186 
L 119.789138 -24.387937 
L 119.23718 -24.324092 
L 118.813044 -24.119788 
L 118.342427 -24.004867 
L 117.651027 -24.247478 
L 117.569685 -24.456039 
L 116.51225 -26.030883 
L 115.669788 -26.831074 
L 114.786655 -27.350347 
L 109.057911 -28.814527 
L 108.116677 -28.316536 
L 107.570529 -27.380142 
L 106.95466 -26.558669 
L 105.775213 -26.405441 
L 104.101908 -25.664838 
L 100.778539 -23.179138 
L 98.977413 -22.532175 
L 94.753481 -22.991859 
L 94.0156 -22.732222 
L 92.435257 -21.731983 
L 88.966636 -20.276316 
L 87.270091 -19.952835 
L 85.434104 -19.918784 
L 83.708509 -20.280573 
L 82.40124 -21.080764 
L 79.879663 -23.96656 
L 79.490387 -24.630548 
L 79.188263 -25.460534 
L 78.793177 -26.967277 
L 78.148257 -28.678324 
L 77.944904 -29.55513 
L 77.67183 -29.742408 
L 73.866225 -34.126435 
L 72.588006 -34.70104 
L 72.117389 -34.505249 
L 71.716493 -34.083871 
L 71.286547 -33.751877 
L 70.752019 -33.828491 
L 70.258162 -34.211561 
L 70.223301 -34.466942 
L 70.339503 -34.811705 
L 70.316263 -35.450155 
L 70.397604 -35.531026 
L 70.380174 -36.390806 
L 70.281402 -37.208022 
L 70.12453 -37.127152 
L 70.380174 -37.552785 
L 70.83336 -38.114622 
L 71.228446 -38.74456 
L 71.286547 -39.374497 
L 70.426654 -40.221508 
L 65.952889 -41.226004 
L 65.464841 -42.609313 
L 65.981939 -45.431264 
L 66.958033 -48.380905 
L 68.950893 -52.318016 
L 67.672674 -54.552593 
L 65.679815 -56.699914 
L 64.604949 -58.581215 
L 64.907073 -59.532506 
L 66.388645 -61.294629 
L 66.789541 -62.673682 
L 66.726476 -63.481074 
L 66.667529 -64.235758 
L 66.142326 -65.054126 
L 65.296349 -65.478608 
L 56.921111 -67.672749 
L 53.173606 -67.794055 
L 49.571353 -67.070478 
L 44.778033 -63.742023 
L 42.953666 -63.269569 
L 41.106059 -63.182314 
L 39.374654 -62.614094 
L 37.550287 -61.011583 
L 35.946704 -58.864261 
L 34.761446 -57.229828 
L 34.459322 -56.106155 
L 34.691725 -55.284682 
L 35.208823 -53.884348 
L 35.237873 -53.552354 
L 35.778211 -52.190326 
L 36.016425 -51.841306 
L 36.603243 -51.530594 
L 37.544477 -51.968996 
L 37.939563 -51.794487 
L 38.230067 -49.896161 
L 36.777546 -48.334085 
L 33.181103 -45.91223 
L 30.310921 -42.494392 
L 28.486554 -41.540972 
L 26.575036 -42.409265 
L 24.012789 -42.307113 
L 21.462161 -41.689944 
L 20.108412 -40.868471 
L 20.857912 -42.656133 
L 21.287859 -43.486118 
L 21.462161 -44.19267 
L 20.468637 -45.461058 
L 19.881818 -46.588987 
L 20.090981 -47.580714 
L 21.462161 -48.466032 
L 24.832011 -50.143028 
L 24.924972 -50.172823 
L 25.017933 -50.181335 
L 25.122515 -50.172823 
L 25.564081 -50.028107 
L 25.901066 -49.985544 
L 26.226431 -50.023851 
L 27.463979 -50.415434 
L 27.708003 -50.964501 
L 27.655712 -51.726385 
L 27.684763 -52.61596 
L 28.085658 -54.948432 
L 28.271581 -55.591139 
L 29.089878 -57.448908 
L 30.090138 -59.719785 
L 30.014607 -60.630641 
L 29.329017 -61.877747 
L 28.503985 -62.780091 
L 25.740097 -64.500362 
L 25.47112 -64.667776 
L 26.11604 -65.293457 
L 26.220621 -65.83614 
L 26.104419 -66.39372 
L 26.104419 -67.02153 
L 26.063749 -67.274782 
L 25.930117 -67.615289 
L 25.808105 -68.002615 
L 25.808105 -68.423993 
L 26.028888 -68.92624 
L 26.667998 -69.624279 
L 28.625996 -73.020836 
L 30.613046 -75.557612 
L 29.253486 -77.09415 
L 29.079183 -78.179515 
L 29.834494 -79.179754 
L 37.393415 -86.160146 
L 41.419804 -88.388338 
L 41.977572 -88.86292 
L 43.459144 -90.546301 
L 45.324181 -91.542283 
L 45.91681 -91.98707 
L 46.550109 -92.787262 
L 46.765082 -93.470404 
L 46.741842 -94.860097 
L 46.323516 -95.324038 
L 46.027202 -95.72839 
L 45.870329 -96.192331 
L 45.95167 -96.592426 
L 46.834803 -99.27179 
L 47.224079 -99.98047 
L 47.332569 -100.252753 
L 47.537824 -100.767892 
L 47.630785 -101.90859 
L 47.450672 -102.819446 
L 46.701171 -104.253832 
L 46.468768 -104.99869 
L 47.30542 -107.888743 
L 50.03035 -109.4721 
L 56.078649 -111.378939 
L 59.829059 -114.241325 
L 61.113088 -116.099215 
L 60.439118 -117.62724 
L 61.194429 -118.936064 
L 61.723147 -119.457465 
L 63.134997 -119.963969 
L 63.34416 -120.487498 
L 63.553323 -120.632214 
L 64.360925 -121.049335 
L 64.291204 -122.458182 
L 65.976129 -123.045556 
L 69.535563 -126.335854 
L 69.659723 -126.450625 
L 70.728779 -128.212749 
L 72.361413 -129.891873 
L 76.178639 -132.686158 
L 75.952045 -134.729199 
L 76.312271 -136.418965 
L 77.369706 -137.504331 
L 77.880993 -137.568176 
L 78.183118 -137.687353 
L 79.00234 -138.791872 
L 79.589159 -139.134508 
L 80.164357 -139.291992 
L 80.693075 -139.628243 
L 81.128831 -140.532714 
L 80.542013 -141.369084 
L 79.69955 -142.130968 
L 78.862898 -142.809854 
L 77.828703 -142.313991 
L 71.141295 -141.658515 
L 71.420179 -142.711958 
L 72.117389 -143.9995 
L 72.948231 -145.080609 
L 74.394942 -145.92762 
L 74.482094 -147.481183 
L 75.957855 -147.808921 
L 76.870039 -148.33245 
L 77.706691 -149.04113 
L 78.130827 -149.734913 
L 77.857753 -150.715999 
L 77.276745 -151.854569 
L 77.137303 -152.771809 
L 78.183118 -153.088906 
L 78.682785 -153.478361 
L 79.188263 -153.608179 
L 79.69955 -153.478361 
L 80.210838 -153.088906 
L 81.669169 -152.878217 
L 84.46963 -153.36344 
L 85.79433 -153.088906 
L 86.5264 -152.669657 
L 86.630465 -152.65311 
L 87.275901 -152.55048 
L 88.803954 -152.703708 
L 87.781379 -150.366979 
L 88.100933 -149.021977 
L 89.321051 -148.294143 
L 90.971115 -147.779127 
L 91.203519 -147.593976 
L 91.360391 -147.298161 
L 91.586985 -147.000217 
L 92.022741 -146.817195 
L 92.400396 -146.893809 
L 94.526888 -147.813177 
L 96.014269 -148.12389 
L 97.579131 -148.057359 
L 99.918647 -147.957893 
L 100.462385 -148.175567 
L 101.48156 -148.583574 
L 102.280648 -149.622572 
L 102.591286 -150.026472 
L 102.771398 -150.796869 
L 102.678437 -151.26081 
L 102.405363 -151.646008 
L 102.21944 -151.846056 
L 101.934746 -152.354688 
L 101.928936 -152.861192 
L 102.585476 -153.052727 
L 103.456989 -152.750527 
L 103.710372 -152.589949 
L 104.189059 -152.286587 
L 104.91532 -152.180178 
L 105.775213 -152.950575 
L 105.873984 -153.088906 
L 105.949515 -153.323005 
L 105.955325 -153.53795 
L 105.946663 -153.568725 
L 105.897224 -153.744382 
L 105.496328 -154.30409 
L 105.374317 -154.636084 
L 105.449848 -154.895721 
L 105.775213 -155.070231 
L 106.356221 -154.946797 
L 106.809408 -155.095769 
L 107.053431 -155.566094 
L 107.036001 -156.389695 
L 106.844268 -156.385439 
L 105.908844 -157.096247 
L 105.775213 -157.151579 
L 107.919309 -158.893511 
L 108.227068 -159.143544 
L 109.575008 -159.888403 
L 111.551776 -160.628375 
L 111.58245 -160.639857 
L 114.44967 -161.493042 
L 115.722078 -161.624989 
L 114.984198 -159.562794 
L 114.385759 -158.990316 
L 113.061425 -159.00182 
L 112.915807 -159.003085 
L 115.004462 -157.907533 
L 115.82085 -157.479317 
L 117.058398 -157.315448 
L 119.52532 -157.823306 
L 121.741327 -158.279508 
L 122.798762 -158.875395 
L 123.693515 -159.937351 
L 124.71609 -161.522836 
L 125.506262 -161.122741 
L 129.131755 -160.905668 
L 129.47455 -160.552392 
L 129.654663 -159.779867 
L 129.765054 -159.007342 
L 129.916116 -158.658322 
L 137.231014 -158.658322 
L 139.758401 -159.220159 
L 140.304549 -159.588332 
L 140.554382 -159.945864 
L 140.780976 -160.362985 
L 141.257403 -160.905668 
L 141.716399 -161.258944 
L 142.936517 -161.912291 
L 143.964902 -162.216619 
L 144.348368 -162.618843 
L 144.627252 -163.021067 
L 144.917756 -163.208346 
L 147.950621 -163.71485 
L 148.967386 -163.719106 
L 150.425717 -163.276447 
L 151.076447 -163.208346 
L 151.378571 -162.850813 
L 151.680695 -162.057007 
L 152.075781 -161.2632 
L 152.627739 -160.905668 
L 154.760041 -160.343831 
L 158.356483 -160.32255 
L 158.526853 -160.35103 
L 160.087889 -160.611981 
L 160.15761 -161.003563 
L 160.814149 -162.412411 
L 162.533935 -163.54034 
L 164.218859 -163.710593 
L 165.084562 -162.906146 
L 165.752722 -161.790986 
L 165.869721 -161.648401 
L 166.374401 -161.033358 
L 167.129712 -161.284482 
L 167.25186 -161.496826 
L 167.495747 -161.920804 
L 167.559658 -162.537973 
L 167.530608 -163.123219 
L 167.600329 -163.685055 
L 167.577089 -163.968102 
L 167.443457 -164.289455 
L 167.350495 -164.664013 
L 167.478317 -165.119441 
L 167.68167 -165.29395 
L 167.977984 -165.404615 
L 168.222008 -165.413128 
L 168.274299 -165.281181 
L 168.309159 -164.774677 
L 168.675195 -164.591655 
L 168.994749 -166.543185 
L 168.483462 -166.592133 
L 168.223459 -166.697814 
L 167.582899 -166.958178 
L 166.798537 -167.090124 
L 164.067797 -166.63044 
L 163.225335 -166.211191 
L 162.446783 -165.659995 
L 161.615941 -165.234362 
L 160.616607 -165.191798 
L 159.45459 -165.847274 
L 158.013688 -166.934768 
L 157.734804 -166.977331 
L 156.851671 -167.298685 
L 157.211897 -168.190387 
L 157.072455 -168.892683 
L 156.834241 -169.494954 
L 156.898152 -170.10361 
L 157.45011 -170.727164 
L 158.873581 -171.499689 
L 159.47202 -172.053013 
L 159.896156 -173.700215 
L 160.15761 -174.300358 
L 160.918731 -175.407006 
L 161.360297 -175.666642 
L 161.987787 -175.649617 
L 165.014841 -176.245504 
L 165.863113 -176.671137 
L 165.340206 -177.96932 
L 166.234959 -178.475824 
L 167.635189 -178.39921 
L 168.675195 -177.935269 
L 168.762346 -177.335126 
L 168.814637 -176.271042 
L 169.01218 -175.270803 
L 169.564138 -174.864323 
L 170.261348 -175.315494 
L 170.551852 -177.111668 
L 171.06314 -177.639454 
L 171.7894 -177.401099 
L 172.329738 -176.590267 
L 172.771305 -175.636848 
L 173.189631 -174.981372 
L 173.770639 -174.851554 
L 174.392318 -174.979244 
L 174.944277 -174.872835 
L 175.316122 -174.040721 
L 175.16506 -173.730009 
L 174.415559 -172.616977 
L 174.229636 -172.07855 
L 174.46785 -171.406049 
L 174.915226 -170.85911 
L 175.054668 -170.2313 
L 175.16506 -169.695002 
L 178.134013 -169.737565 
L 177.675017 -170.246198 
L 178.180494 -171.861477 
L 179.691116 -171.793376 
L 181.527103 -170.735676 
L 182.979624 -169.375777 
L 181.945429 -169.137422 
L 181.951239 -168.564945 
L 182.746664 -167.777882 
L 182.787892 -167.737087 
L 184.420525 -166.530416 
L 185.797516 -166.172884 
L 187.999538 -166.379316 
L 190.044688 -167.026279 
L 190.939441 -167.988211 
L 192.002687 -168.405332 
L 198.271769 -167.707293 
L 201.380164 -167.707293 
L 202.141285 -166.530416 
L 204.244536 -166.532544 
L 206.429128 -166.032425 
L 221.847513 -156.515716 
L 222.161025 -155.061497 
L 222.26742 -154.567983 
L 223.929105 -152.082283 
L 226.020735 -151.13312 
L 227.630129 -149.724272 
L 227.583648 -146.234077 
L 227.0375 -144.982714 
L 224.858718 -142.243761 
L 224.597265 -141.505287 
L 224.30676 -140.053876 
L 224.091787 -139.487783 
L 222.174459 -137.185106 
L 220.367523 -134.133312 
L 219.437909 -132.562724 
L 218.467625 -129.785465 
L 218.333993 -127.012462 
L 218.763939 -125.650434 
L 219.373998 -124.462916 
L 219.844615 -123.143452 
L 219.873665 -121.385585 
L 219.339137 -120.28745 
L 218.479245 -119.402133 
L 217.822705 -118.518943 
L 217.886616 -117.750674 
L 219.153215 -117.376116 
L 222.586975 -116.803639 
L 223.743182 -117.171812 
L 224.794807 -116.893022 
L 227.740521 -117.259067 
L 228.681754 -117.11648 
L 239.30259 -113.762487 
L 239.209629 -112.823965 
L 239.447842 -112.619661 
L 239.796447 -112.647327 
L 240.011421 -112.391947 
L 240.011421 -111.906724 
L 239.779017 -111.119302 
L 239.639575 -109.186925 
L 239.459462 -108.299479 
L 239.552424 -107.526954 
L 240.267064 -106.50969 
L 241.661485 -105.437093 
L 247.674923 -103.489819 
L 249.847895 -101.414855 
L 251.114493 -100.678509 
L 253.543109 -99.895343 
L 254.323827 -99.865317 
L 254.705126 -99.850652 
L 256.157647 -100.265644 
L 258.609503 -101.519135 
L 259.184702 -102.359762 
L 259.335764 -102.9897 
L 259.382245 -103.683483 
L 259.649508 -104.726285 
L 260.503591 -106.171311 
L 261.415774 -106.341564 
L 262.50807 -106.054262 
L 263.908301 -106.120235 
L 263.937351 -107.658901 
L 264.919256 -109.548714 
L 266.336917 -111.178891 
L 267.969551 -112.117413 
L 268.277485 -112.17913 
L 268.59123 -112.117413 
L 268.887544 -111.92375 
L 268.893354 -111.92375 
L 268.893354 -111.910981 
L 269.474363 -111.285299 
L 270.648 -109.39123 
L 272.559518 -107.867461 
L 273.059185 -107.267318 
L 273.361309 -105.877624 
L 272.664099 -103.079083 
L 272.797731 -101.321216 
" style="stroke: #aaaaaa"/>
    </defs>
    <g clip-path="url(#p44e8e304b5)">
     <use xlink:href="#m8a8cd494a5" x="0" y="208.949941" style="fill: #aaaaaa; stroke: #aaaaaa"/>
    </g>
   </g>
   <g id="PathCollection_1">
    <defs>
     <path id="m70d366e898" d="M 0 1.581139 
C 0.419323 1.581139 0.821528 1.41454 1.118034 1.118034 
C 1.41454 0.821528 1.581139 0.419323 1.581139 0 
C 1.581139 -0.419323 1.41454 -0.821528 1.118034 -1.118034 
C 0.821528 -1.41454 0.419323 -1.581139 0 -1.581139 
C -0.419323 -1.581139 -0.821528 -1.41454 -1.118034 -1.118034 
C -1.41454 -0.821528 -1.581139 -0.419323 -1.581139 0 
C -1.581139 0.419323 -1.41454 0.821528 -1.118034 1.118034 
C -0.821528 1.41454 -0.419323 1.581139 0 1.581139 
z
" style="stroke: #1f77b4; stroke-opacity: 0.5"/>
    </defs>
    <g clip-path="url(#p44e8e304b5)">
     <use xlink:href="#m70d366e898" x="162.497691" y="67.757044" style="fill: #1f77b4; fill-opacity: 0.5; stroke: #1f77b4; stroke-opacity: 0.5"/>
     <use xlink:href="#m70d366e898" x="167.782297" y="50.092736" style="fill: #1f77b4; fill-opacity: 0.5; stroke: #1f77b4; stroke-opacity: 0.5"/>
     <use xlink:href="#m70d366e898" x="157.491392" y="56.803355" style="fill: #1f77b4; fill-opacity: 0.5; stroke: #1f77b4; stroke-opacity: 0.5"/>
     <use xlink:href="#m70d366e898" x="164.362904" y="56.897169" style="fill: #1f77b4; fill-opacity: 0.5; stroke: #1f77b4; stroke-opacity: 0.5"/>
     <use xlink:href="#m70d366e898" x="165.509665" y="69.974856" style="fill: #1f77b4; fill-opacity: 0.5; stroke: #1f77b4; stroke-opacity: 0.5"/>
     <use xlink:href="#m70d366e898" x="170.22719" y="72.017502" style="fill: #1f77b4; fill-opacity: 0.5; stroke: #1f77b4; stroke-opacity: 0.5"/>
     <use xlink:href="#m70d366e898" x="169.046067" y="68.074925" style="fill: #1f77b4; fill-opacity: 0.5; stroke: #1f77b4; stroke-opacity: 0.5"/>
     <use xlink:href="#m70d366e898" x="173.684871" y="58.812256" style="fill: #1f77b4; fill-opacity: 0.5; stroke: #1f77b4; stroke-opacity: 0.5"/>
     <use xlink:href="#m70d366e898" x="180.931709" y="61.2533" style="fill: #1f77b4; fill-opacity: 0.5; stroke: #1f77b4; stroke-opacity: 0.5"/>
     <use xlink:href="#m70d366e898" x="176.076884" y="49.794062" style="fill: #1f77b4; fill-opacity: 0.5; stroke: #1f77b4; stroke-opacity: 0.5"/>
     <use xlink:href="#m70d366e898" x="170.873504" y="80.604147" style="fill: #1f77b4; fill-opacity: 0.5; stroke: #1f77b4; stroke-opacity: 0.5"/>
     <use xlink:href="#m70d366e898" x="167.685364" y="76.105499" style="fill: #1f77b4; fill-opacity: 0.5; stroke: #1f77b4; stroke-opacity: 0.5"/>
     <use xlink:href="#m70d366e898" x="186.027573" y="64.351355" style="fill: #1f77b4; fill-opacity: 0.5; stroke: #1f77b4; stroke-opacity: 0.5"/>
     <use xlink:href="#m70d366e898" x="94.558796" y="92.818247" style="fill: #1f77b4; fill-opacity: 0.5; stroke: #1f77b4; stroke-opacity: 0.5"/>
     <use xlink:href="#m70d366e898" x="97.728434" y="91.916263" style="fill: #1f77b4; fill-opacity: 0.5; stroke: #1f77b4; stroke-opacity: 0.5"/>
     <use xlink:href="#m70d366e898" x="93.908991" y="94.927253" style="fill: #1f77b4; fill-opacity: 0.5; stroke: #1f77b4; stroke-opacity: 0.5"/>
     <use xlink:href="#m70d366e898" x="120.199836" y="78.154624" style="fill: #1f77b4; fill-opacity: 0.5; stroke: #1f77b4; stroke-opacity: 0.5"/>
     <use xlink:href="#m70d366e898" x="96.234031" y="96.785495" style="fill: #1f77b4; fill-opacity: 0.5; stroke: #1f77b4; stroke-opacity: 0.5"/>
     <use xlink:href="#m70d366e898" x="98.524359" y="83.133866" style="fill: #1f77b4; fill-opacity: 0.5; stroke: #1f77b4; stroke-opacity: 0.5"/>
     <use xlink:href="#m70d366e898" x="111.747676" y="88.833014" style="fill: #1f77b4; fill-opacity: 0.5; stroke: #1f77b4; stroke-opacity: 0.5"/>
     <use xlink:href="#m70d366e898" x="123.67438" y="120.390667" style="fill: #1f77b4; fill-opacity: 0.5; stroke: #1f77b4; stroke-opacity: 0.5"/>
     <use xlink:href="#m70d366e898" x="130.914984" y="135.551113" style="fill: #1f77b4; fill-opacity: 0.5; stroke: #1f77b4; stroke-opacity: 0.5"/>
     <use xlink:href="#m70d366e898" x="128.975969" y="120.211501" style="fill: #1f77b4; fill-opacity: 0.5; stroke: #1f77b4; stroke-opacity: 0.5"/>
     <use xlink:href="#m70d366e898" x="115.942025" y="99.897382" style="fill: #1f77b4; fill-opacity: 0.5; stroke: #1f77b4; stroke-opacity: 0.5"/>
     <use xlink:href="#m70d366e898" x="93.486531" y="99.516752" style="fill: #1f77b4; fill-opacity: 0.5; stroke: #1f77b4; stroke-opacity: 0.5"/>
     <use xlink:href="#m70d366e898" x="92.486394" y="90.986904" style="fill: #1f77b4; fill-opacity: 0.5; stroke: #1f77b4; stroke-opacity: 0.5"/>
     <use xlink:href="#m70d366e898" x="113.250697" y="120.289885" style="fill: #1f77b4; fill-opacity: 0.5; stroke: #1f77b4; stroke-opacity: 0.5"/>
     <use xlink:href="#m70d366e898" x="144.055826" y="116.771903" style="fill: #1f77b4; fill-opacity: 0.5; stroke: #1f77b4; stroke-opacity: 0.5"/>
     <use xlink:href="#m70d366e898" x="147.609787" y="116.781909" style="fill: #1f77b4; fill-opacity: 0.5; stroke: #1f77b4; stroke-opacity: 0.5"/>
     <use xlink:href="#m70d366e898" x="145.9001" y="118.014361" style="fill: #1f77b4; fill-opacity: 0.5; stroke: #1f77b4; stroke-opacity: 0.5"/>
     <use xlink:href="#m70d366e898" x="149.336039" y="118.674021" style="fill: #1f77b4; fill-opacity: 0.5; stroke: #1f77b4; stroke-opacity: 0.5"/>
     <use xlink:href="#m70d366e898" x="96.629337" y="116.245657" style="fill: #1f77b4; fill-opacity: 0.5; stroke: #1f77b4; stroke-opacity: 0.5"/>
     <use xlink:href="#m70d366e898" x="103.383048" y="118.62143" style="fill: #1f77b4; fill-opacity: 0.5; stroke: #1f77b4; stroke-opacity: 0.5"/>
     <use xlink:href="#m70d366e898" x="108.112017" y="107.392169" style="fill: #1f77b4; fill-opacity: 0.5; stroke: #1f77b4; stroke-opacity: 0.5"/>
     <use xlink:href="#m70d366e898" x="110.454188" y="111.33034" style="fill: #1f77b4; fill-opacity: 0.5; stroke: #1f77b4; stroke-opacity: 0.5"/>
     <use xlink:href="#m70d366e898" x="104.820759" y="112.36828" style="fill: #1f77b4; fill-opacity: 0.5; stroke: #1f77b4; stroke-opacity: 0.5"/>
     <use xlink:href="#m70d366e898" x="103.267624" y="110.943492" style="fill: #1f77b4; fill-opacity: 0.5; stroke: #1f77b4; stroke-opacity: 0.5"/>
     <use xlink:href="#m70d366e898" x="104.705626" y="105.084041" style="fill: #1f77b4; fill-opacity: 0.5; stroke: #1f77b4; stroke-opacity: 0.5"/>
     <use xlink:href="#m70d366e898" x="112.589985" y="113.691505" style="fill: #1f77b4; fill-opacity: 0.5; stroke: #1f77b4; stroke-opacity: 0.5"/>
     <use xlink:href="#m70d366e898" x="117.02939" y="114.981061" style="fill: #1f77b4; fill-opacity: 0.5; stroke: #1f77b4; stroke-opacity: 0.5"/>
     <use xlink:href="#m70d366e898" x="115.591845" y="73.639818" style="fill: #1f77b4; fill-opacity: 0.5; stroke: #1f77b4; stroke-opacity: 0.5"/>
     <use xlink:href="#m70d366e898" x="120.257995" y="83.929983" style="fill: #1f77b4; fill-opacity: 0.5; stroke: #1f77b4; stroke-opacity: 0.5"/>
     <use xlink:href="#m70d366e898" x="114.628212" y="74.307902" style="fill: #1f77b4; fill-opacity: 0.5; stroke: #1f77b4; stroke-opacity: 0.5"/>
     <use xlink:href="#m70d366e898" x="116.030224" y="83.291207" style="fill: #1f77b4; fill-opacity: 0.5; stroke: #1f77b4; stroke-opacity: 0.5"/>
     <use xlink:href="#m70d366e898" x="135.033265" y="111.527116" style="fill: #1f77b4; fill-opacity: 0.5; stroke: #1f77b4; stroke-opacity: 0.5"/>
     <use xlink:href="#m70d366e898" x="147.760369" y="80.317537" style="fill: #1f77b4; fill-opacity: 0.5; stroke: #1f77b4; stroke-opacity: 0.5"/>
     <use xlink:href="#m70d366e898" x="144.53296" y="96.888077" style="fill: #1f77b4; fill-opacity: 0.5; stroke: #1f77b4; stroke-opacity: 0.5"/>
     <use xlink:href="#m70d366e898" x="137.170718" y="92.726653" style="fill: #1f77b4; fill-opacity: 0.5; stroke: #1f77b4; stroke-opacity: 0.5"/>
     <use xlink:href="#m70d366e898" x="133.798525" y="92.919716" style="fill: #1f77b4; fill-opacity: 0.5; stroke: #1f77b4; stroke-opacity: 0.5"/>
     <use xlink:href="#m70d366e898" x="163.40801" y="111.942923" style="fill: #1f77b4; fill-opacity: 0.5; stroke: #1f77b4; stroke-opacity: 0.5"/>
     <use xlink:href="#m70d366e898" x="166.873397" y="98.842747" style="fill: #1f77b4; fill-opacity: 0.5; stroke: #1f77b4; stroke-opacity: 0.5"/>
     <use xlink:href="#m70d366e898" x="177.482789" y="81.687212" style="fill: #1f77b4; fill-opacity: 0.5; stroke: #1f77b4; stroke-opacity: 0.5"/>
     <use xlink:href="#m70d366e898" x="166.704321" y="90.913371" style="fill: #1f77b4; fill-opacity: 0.5; stroke: #1f77b4; stroke-opacity: 0.5"/>
     <use xlink:href="#m70d366e898" x="181.179556" y="95.257656" style="fill: #1f77b4; fill-opacity: 0.5; stroke: #1f77b4; stroke-opacity: 0.5"/>
     <use xlink:href="#m70d366e898" x="177.815421" y="93.681187" style="fill: #1f77b4; fill-opacity: 0.5; stroke: #1f77b4; stroke-opacity: 0.5"/>
     <use xlink:href="#m70d366e898" x="147.283087" y="104.339648" style="fill: #1f77b4; fill-opacity: 0.5; stroke: #1f77b4; stroke-opacity: 0.5"/>
     <use xlink:href="#m70d366e898" x="155.027622" y="102.780553" style="fill: #1f77b4; fill-opacity: 0.5; stroke: #1f77b4; stroke-opacity: 0.5"/>
     <use xlink:href="#m70d366e898" x="158.277718" y="78.081839" style="fill: #1f77b4; fill-opacity: 0.5; stroke: #1f77b4; stroke-opacity: 0.5"/>
     <use xlink:href="#m70d366e898" x="159.918308" y="82.387437" style="fill: #1f77b4; fill-opacity: 0.5; stroke: #1f77b4; stroke-opacity: 0.5"/>
     <use xlink:href="#m70d366e898" x="164.553459" y="84.775736" style="fill: #1f77b4; fill-opacity: 0.5; stroke: #1f77b4; stroke-opacity: 0.5"/>
     <use xlink:href="#m70d366e898" x="133.005191" y="59.986368" style="fill: #1f77b4; fill-opacity: 0.5; stroke: #1f77b4; stroke-opacity: 0.5"/>
     <use xlink:href="#m70d366e898" x="132.193438" y="66.51774" style="fill: #1f77b4; fill-opacity: 0.5; stroke: #1f77b4; stroke-opacity: 0.5"/>
     <use xlink:href="#m70d366e898" x="111.425653" y="83.02832" style="fill: #1f77b4; fill-opacity: 0.5; stroke: #1f77b4; stroke-opacity: 0.5"/>
     <use xlink:href="#m70d366e898" x="109.181073" y="74.448544" style="fill: #1f77b4; fill-opacity: 0.5; stroke: #1f77b4; stroke-opacity: 0.5"/>
     <use xlink:href="#m70d366e898" x="108.922807" y="74.646063" style="fill: #1f77b4; fill-opacity: 0.5; stroke: #1f77b4; stroke-opacity: 0.5"/>
     <use xlink:href="#m70d366e898" x="109.20118" y="75.243285" style="fill: #1f77b4; fill-opacity: 0.5; stroke: #1f77b4; stroke-opacity: 0.5"/>
     <use xlink:href="#m70d366e898" x="110.782061" y="74.816938" style="fill: #1f77b4; fill-opacity: 0.5; stroke: #1f77b4; stroke-opacity: 0.5"/>
     <use xlink:href="#m70d366e898" x="136.182959" y="65.707108" style="fill: #1f77b4; fill-opacity: 0.5; stroke: #1f77b4; stroke-opacity: 0.5"/>
     <use xlink:href="#m70d366e898" x="124.501016" y="67.586542" style="fill: #1f77b4; fill-opacity: 0.5; stroke: #1f77b4; stroke-opacity: 0.5"/>
     <use xlink:href="#m70d366e898" x="103.575675" y="63.426477" style="fill: #1f77b4; fill-opacity: 0.5; stroke: #1f77b4; stroke-opacity: 0.5"/>
     <use xlink:href="#m70d366e898" x="101.942102" y="62.989198" style="fill: #1f77b4; fill-opacity: 0.5; stroke: #1f77b4; stroke-opacity: 0.5"/>
     <use xlink:href="#m70d366e898" x="122.684969" y="53.653545" style="fill: #1f77b4; fill-opacity: 0.5; stroke: #1f77b4; stroke-opacity: 0.5"/>
     <use xlink:href="#m70d366e898" x="122.587685" y="55.94519" style="fill: #1f77b4; fill-opacity: 0.5; stroke: #1f77b4; stroke-opacity: 0.5"/>
     <use xlink:href="#m70d366e898" x="118.740765" y="58.507727" style="fill: #1f77b4; fill-opacity: 0.5; stroke: #1f77b4; stroke-opacity: 0.5"/>
     <use xlink:href="#m70d366e898" x="129.103642" y="61.280601" style="fill: #1f77b4; fill-opacity: 0.5; stroke: #1f77b4; stroke-opacity: 0.5"/>
     <use xlink:href="#m70d366e898" x="128.125496" y="60.930317" style="fill: #1f77b4; fill-opacity: 0.5; stroke: #1f77b4; stroke-opacity: 0.5"/>
     <use xlink:href="#m70d366e898" x="120.973" y="61.247867" style="fill: #1f77b4; fill-opacity: 0.5; stroke: #1f77b4; stroke-opacity: 0.5"/>
     <use xlink:href="#m70d366e898" x="165.826637" y="49.635734" style="fill: #1f77b4; fill-opacity: 0.5; stroke: #1f77b4; stroke-opacity: 0.5"/>
     <use xlink:href="#m70d366e898" x="223.374486" y="58.726826" style="fill: #1f77b4; fill-opacity: 0.5; stroke: #1f77b4; stroke-opacity: 0.5"/>
     <use xlink:href="#m70d366e898" x="214.283939" y="56.283252" style="fill: #1f77b4; fill-opacity: 0.5; stroke: #1f77b4; stroke-opacity: 0.5"/>
     <use xlink:href="#m70d366e898" x="219.221582" y="58.064705" style="fill: #1f77b4; fill-opacity: 0.5; stroke: #1f77b4; stroke-opacity: 0.5"/>
     <use xlink:href="#m70d366e898" x="221.418548" y="67.981812" style="fill: #1f77b4; fill-opacity: 0.5; stroke: #1f77b4; stroke-opacity: 0.5"/>
     <use xlink:href="#m70d366e898" x="216.744822" y="82.41449" style="fill: #1f77b4; fill-opacity: 0.5; stroke: #1f77b4; stroke-opacity: 0.5"/>
     <use xlink:href="#m70d366e898" x="212.081401" y="82.902356" style="fill: #1f77b4; fill-opacity: 0.5; stroke: #1f77b4; stroke-opacity: 0.5"/>
     <use xlink:href="#m70d366e898" x="209.293607" y="91.881794" style="fill: #1f77b4; fill-opacity: 0.5; stroke: #1f77b4; stroke-opacity: 0.5"/>
     <use xlink:href="#m70d366e898" x="209.153783" y="90.698782" style="fill: #1f77b4; fill-opacity: 0.5; stroke: #1f77b4; stroke-opacity: 0.5"/>
     <use xlink:href="#m70d366e898" x="209.120221" y="89.447593" style="fill: #1f77b4; fill-opacity: 0.5; stroke: #1f77b4; stroke-opacity: 0.5"/>
     <use xlink:href="#m70d366e898" x="205.860864" y="93.619051" style="fill: #1f77b4; fill-opacity: 0.5; stroke: #1f77b4; stroke-opacity: 0.5"/>
     <use xlink:href="#m70d366e898" x="205.387782" y="91.118106" style="fill: #1f77b4; fill-opacity: 0.5; stroke: #1f77b4; stroke-opacity: 0.5"/>
     <use xlink:href="#m70d366e898" x="219.883193" y="99.156652" style="fill: #1f77b4; fill-opacity: 0.5; stroke: #1f77b4; stroke-opacity: 0.5"/>
     <use xlink:href="#m70d366e898" x="206.716866" y="84.769976" style="fill: #1f77b4; fill-opacity: 0.5; stroke: #1f77b4; stroke-opacity: 0.5"/>
     <use xlink:href="#m70d366e898" x="200.267407" y="73.679971" style="fill: #1f77b4; fill-opacity: 0.5; stroke: #1f77b4; stroke-opacity: 0.5"/>
     <use xlink:href="#m70d366e898" x="192.724169" y="62.942428" style="fill: #1f77b4; fill-opacity: 0.5; stroke: #1f77b4; stroke-opacity: 0.5"/>
     <use xlink:href="#m70d366e898" x="198.601905" y="66.941523" style="fill: #1f77b4; fill-opacity: 0.5; stroke: #1f77b4; stroke-opacity: 0.5"/>
     <use xlink:href="#m70d366e898" x="237.220983" y="125.811008" style="fill: #1f77b4; fill-opacity: 0.5; stroke: #1f77b4; stroke-opacity: 0.5"/>
     <use xlink:href="#m70d366e898" x="217.053355" y="107.979294" style="fill: #1f77b4; fill-opacity: 0.5; stroke: #1f77b4; stroke-opacity: 0.5"/>
     <use xlink:href="#m70d366e898" x="156.175197" y="64.466137" style="fill: #1f77b4; fill-opacity: 0.5; stroke: #1f77b4; stroke-opacity: 0.5"/>
     <use xlink:href="#m70d366e898" x="159.622774" y="69.701006" style="fill: #1f77b4; fill-opacity: 0.5; stroke: #1f77b4; stroke-opacity: 0.5"/>
     <use xlink:href="#m70d366e898" x="144.273788" y="57.028086" style="fill: #1f77b4; fill-opacity: 0.5; stroke: #1f77b4; stroke-opacity: 0.5"/>
     <use xlink:href="#m70d366e898" x="155.643882" y="79.656425" style="fill: #1f77b4; fill-opacity: 0.5; stroke: #1f77b4; stroke-opacity: 0.5"/>
     <use xlink:href="#m70d366e898" x="135.778194" y="74.528541" style="fill: #1f77b4; fill-opacity: 0.5; stroke: #1f77b4; stroke-opacity: 0.5"/>
     <use xlink:href="#m70d366e898" x="208.232016" y="56.128116" style="fill: #1f77b4; fill-opacity: 0.5; stroke: #1f77b4; stroke-opacity: 0.5"/>
     <use xlink:href="#m70d366e898" x="202.249177" y="53.937768" style="fill: #1f77b4; fill-opacity: 0.5; stroke: #1f77b4; stroke-opacity: 0.5"/>
     <use xlink:href="#m70d366e898" x="202.087476" y="47.114307" style="fill: #1f77b4; fill-opacity: 0.5; stroke: #1f77b4; stroke-opacity: 0.5"/>
     <use xlink:href="#m70d366e898" x="201.523659" y="49.226212" style="fill: #1f77b4; fill-opacity: 0.5; stroke: #1f77b4; stroke-opacity: 0.5"/>
     <use xlink:href="#m70d366e898" x="196.182108" y="53.458848" style="fill: #1f77b4; fill-opacity: 0.5; stroke: #1f77b4; stroke-opacity: 0.5"/>
     <use xlink:href="#m70d366e898" x="196.13903" y="47.594442" style="fill: #1f77b4; fill-opacity: 0.5; stroke: #1f77b4; stroke-opacity: 0.5"/>
     <use xlink:href="#m70d366e898" x="49.504198" y="116.694105" style="fill: #1f77b4; fill-opacity: 0.5; stroke: #1f77b4; stroke-opacity: 0.5"/>
     <use xlink:href="#m70d366e898" x="128.505315" y="152.568489" style="fill: #1f77b4; fill-opacity: 0.5; stroke: #1f77b4; stroke-opacity: 0.5"/>
     <use xlink:href="#m70d366e898" x="152.79646" y="135.40347" style="fill: #1f77b4; fill-opacity: 0.5; stroke: #1f77b4; stroke-opacity: 0.5"/>
     <use xlink:href="#m70d366e898" x="140.334178" y="147.33814" style="fill: #1f77b4; fill-opacity: 0.5; stroke: #1f77b4; stroke-opacity: 0.5"/>
     <use xlink:href="#m70d366e898" x="137.658167" y="148.173111" style="fill: #1f77b4; fill-opacity: 0.5; stroke: #1f77b4; stroke-opacity: 0.5"/>
     <use xlink:href="#m70d366e898" x="126.439646" y="151.786707" style="fill: #1f77b4; fill-opacity: 0.5; stroke: #1f77b4; stroke-opacity: 0.5"/>
     <use xlink:href="#m70d366e898" x="224.701338" y="88.301147" style="fill: #1f77b4; fill-opacity: 0.5; stroke: #1f77b4; stroke-opacity: 0.5"/>
     <use xlink:href="#m70d366e898" x="221.868423" y="77.373718" style="fill: #1f77b4; fill-opacity: 0.5; stroke: #1f77b4; stroke-opacity: 0.5"/>
    </g>
   </g>
   <g id="text_1">
    <text style="font: 12px 'DejaVu Sans', 'Bitstream Vera Sans', 'Computer Modern Sans Serif', 'Lucida Grande', 'Verdana', 'Geneva', 'Lucid', 'Arial', 'Helvetica', 'Avant Garde', sans-serif; text-anchor: middle" x="146.7" y="16.318125" transform="rotate(-0 146.7 16.318125)">-berg 115x</text>
   </g>
  </g>
 </g>
 <defs>
  <clipPath id="p44e8e304b5">
   <rect x="7.2" y="22.318125" width="279" height="179.431816"/>
  </clipPath>
 </defs>
</svg>
