<?xml version="1.0" encoding="utf-8" standalone="no"?>
<!DOCTYPE svg PUBLIC "-//W3C//DTD SVG 1.1//EN"
  "http://www.w3.org/Graphics/SVG/1.1/DTD/svg11.dtd">
<svg xmlns:xlink="http://www.w3.org/1999/xlink" width="293.4pt" height="209.206248pt" viewBox="0 0 293.4 209.206248" xmlns="http://www.w3.org/2000/svg" version="1.1">
 <metadata>
  <rdf:RDF xmlns:dc="http://purl.org/dc/elements/1.1/" xmlns:cc="http://creativecommons.org/ns#" xmlns:rdf="http://www.w3.org/1999/02/22-rdf-syntax-ns#">
   <cc:Work>
    <dc:type rdf:resource="http://purl.org/dc/dcmitype/StillImage"/>
    <dc:date>2024-08-06T14:07:34.084123</dc:date>
    <dc:format>image/svg+xml</dc:format>
    <dc:creator>
     <cc:Agent>
      <dc:title>Matplotlib v3.9.1, https://matplotlib.org/</dc:title>
     </cc:Agent>
    </dc:creator>
   </cc:Work>
  </rdf:RDF>
 </metadata>
 <defs>
  <style type="text/css">*{stroke-linejoin: round; stroke-linecap: butt}</style>
 </defs>
 <g id="figure_1">
  <g id="patch_1">
   <path d="M 0 209.206248 
L 293.4 209.206248 
L 293.4 -0 
L 0 -0 
z
" style="fill: #ffffff"/>
  </g>
  <g id="axes_1">
   <g id="PatchCollection_1">
    <defs>
     <path id="m5b074172bb" d="M 272.797731 -101.455662 
L 272.501417 -98.800177 
L 272.298064 -98.058517 
L 271.966889 -97.534239 
L 270.740961 -96.046656 
L 270.845543 -94.81908 
L 271.246439 -93.61921 
L 271.385881 -92.483276 
L 270.706101 -91.441116 
L 269.753247 -90.825196 
L 269.526653 -90.070749 
L 269.578944 -89.130886 
L 269.456932 -87.960853 
L 268.916594 -86.986891 
L 268.306535 -86.400808 
L 268.039272 -85.616524 
L 268.509888 -84.03943 
L 269.526653 -82.845953 
L 271.920408 -82.585946 
L 273.094046 -81.58854 
L 273.518182 -79.998659 
L 273.477511 -77.869582 
L 273.030135 -75.825754 
L 272.686514 -75.248751 
L 272.245773 -74.508667 
L 271.229008 -74.310465 
L 267.202619 -75.382462 
L 265.24462 -75.194916 
L 264.52417 -75.314264 
L 263.890871 -75.610502 
L 263.536455 -75.989857 
L 263.240141 -76.405442 
L 262.798575 -76.801847 
L 260.480351 -77.607444 
L 260.230517 -78.502551 
L 260.538451 -80.196862 
L 260.42806 -81.1282 
L 259.533307 -81.86986 
L 258.086596 -81.857073 
L 252.764558 -80.307684 
L 252.22422 -80.007184 
L 251.980196 -79.397658 
L 251.288796 -76.708074 
L 250.823989 -76.077236 
L 249.609681 -74.84966 
L 249.127444 -74.116525 
L 249.051913 -73.524049 
L 249.040293 -71.712522 
L 248.796269 -70.834464 
L 248.86599 -70.071492 
L 248.999622 -69.472622 
L 249.272696 -69.01015 
L 249.760744 -68.673419 
L 248.767219 -66.96419 
L 249.650352 -65.847437 
L 251.300416 -65.195288 
L 253.816183 -64.700847 
L 254.786467 -64.304443 
L 255.198983 -63.388023 
L 254.774847 -61.589283 
L 254.368141 -61.035169 
L 253.188694 -59.961041 
L 252.764558 -59.159706 
L 252.479863 -58.042953 
L 252.445003 -57.288506 
L 252.671596 -56.593732 
L 253.182884 -55.67305 
L 255.501108 -53.273309 
L 256.221558 -51.802776 
L 255.483677 -50.225682 
L 253.914954 -49.219752 
L 251.54444 -48.303332 
L 249.685212 -48.341694 
L 249.638732 -50.20437 
L 249.069343 -51.606705 
L 246.849891 -53.61004 
L 246.024859 -54.743843 
L 245.658823 -56.551108 
L 245.635583 -58.183613 
L 245.263738 -59.526274 
L 243.857697 -60.464006 
L 242.70149 -60.768768 
L 241.609194 -60.851885 
L 239.157338 -60.423513 
L 235.415643 -58.471326 
L 234.247816 -58.085577 
L 233.527365 -58.243287 
L 232.156185 -59.082983 
L 231.551937 -59.097901 
L 230.941878 -58.396734 
L 230.831486 -57.45474 
L 230.918637 -56.519139 
L 230.895397 -55.869121 
L 230.035504 -54.658595 
L 228.978069 -54.223828 
L 222.534684 -54.300552 
L 221.227415 -54.786467 
L 220.036348 -55.609114 
L 219.321707 -56.610781 
L 218.200361 -59.585948 
L 217.700693 -60.003665 
L 216.457335 -60.704832 
L 216.050629 -61.109762 
L 215.940238 -61.572234 
L 216.021579 -62.829647 
L 215.684594 -70.740691 
L 215.504481 -71.258575 
L 215.062915 -71.158408 
L 214.156542 -70.480684 
L 213.773076 -69.954275 
L 213.575533 -69.368193 
L 213.302459 -68.873753 
L 212.6924 -68.626533 
L 212.268264 -68.814079 
L 210.833173 -70.199364 
L 210.792502 -71.220213 
L 209.676966 -71.520713 
L 206.940416 -71.17972 
L 205.86555 -70.169527 
L 204.889456 -68.183241 
L 204.447889 -66.162856 
L 204.988227 -65.048234 
L 205.737728 -64.521826 
L 205.84812 -63.694917 
L 205.702868 -62.654888 
L 205.708678 -61.476329 
L 206.463989 -58.550181 
L 206.53952 -57.488839 
L 206.190915 -55.67305 
L 204.546661 -52.177868 
L 203.710008 -49.224014 
L 203.198721 -48.38858 
L 202.547991 -47.77053 
L 201.874021 -47.446586 
L 201.263962 -46.986245 
L 200.950218 -46.167862 
L 200.688764 -45.217343 
L 200.277789 -44.423918 
L 200.247198 -44.36486 
L 196.162708 -41.551665 
L 195.122702 -39.961784 
L 194.901919 -38.89618 
L 195.023931 -37.037766 
L 194.843818 -36.023311 
L 194.396442 -35.251814 
L 193.861914 -34.932132 
L 192.630176 -34.535728 
L 191.189275 -33.397663 
L 190.945251 -32.459931 
L 191.944586 -29.587062 
L 190.096979 -27.843734 
L 189.974967 -27.639138 
L 189.934296 -27.426017 
L 189.974967 -27.217159 
L 190.096979 -27.008301 
L 190.701228 -26.381725 
L 191.166034 -24.881355 
L 191.677322 -24.105595 
L 192.22347 -23.785914 
L 193.449398 -23.534431 
L 193.978116 -23.189176 
L 194.617225 -21.82094 
L 194.402252 -20.418605 
L 193.002021 -17.626723 
L 191.206705 -15.367642 
L 189.51597 -15.691586 
L 187.674173 -16.531282 
L 185.448911 -15.836508 
L 185.658074 -17.106708 
L 185.995059 -18.087064 
L 186.221652 -19.110043 
L 186.128691 -20.537953 
L 185.814946 -21.616344 
L 185.344329 -22.694735 
L 184.368235 -24.472163 
L 183.816277 -25.78925 
L 183.450241 -26.313527 
L 183.072586 -26.616158 
L 179.847988 -28.385061 
L 178.988096 -28.696218 
L 178.023622 -28.760154 
L 178.116583 -28.981799 
L 178.331556 -29.378204 
L 179.319271 -31.696959 
L 180.928664 -33.696032 
L 181.759507 -35.631169 
L 180.330226 -37.557781 
L 179.481953 -37.860412 
L 177.756358 -37.817788 
L 176.855795 -37.945661 
L 176.425848 -38.24403 
L 176.013332 -39.015527 
L 175.834808 -39.082649 
L 175.548525 -39.190286 
L 175.19992 -39.024052 
L 174.328408 -38.235505 
L 173.927512 -38.005335 
L 172.939797 -38.056484 
L 170.319449 -39.616528 
L 169.232963 -40.000145 
L 168.686815 -40.285727 
L 165.136853 -45.630797 
L 163.539079 -47.301664 
L 161.987787 -48.098736 
L 160.517835 -48.699737 
L 159.48364 -49.56927 
L 158.867771 -50.894881 
L 158.646988 -52.906742 
L 158.83872 -55.029425 
L 159.750904 -59.302497 
L 159.942637 -61.678794 
L 159.913586 -64.168045 
L 159.681183 -66.030721 
L 158.908441 -67.164524 
L 157.293238 -67.452237 
L 156.548421 -67.289529 
L 154.161602 -66.768119 
L 152.633549 -65.924161 
L 151.436672 -64.636911 
L 150.966055 -63.590488 
L 151.181028 -63.24097 
L 151.552874 -62.953257 
L 151.576114 -62.117823 
L 151.239129 -61.363375 
L 150.681361 -60.68352 
L 150.036441 -60.182686 
L 148.444478 -59.364302 
L 145.678878 -55.656 
L 144.51686 -54.833354 
L 142.076625 -54.27924 
L 140.862317 -53.708076 
L 139.764211 -52.574273 
L 139.200633 -51.768677 
L 138.962419 -51.073903 
L 139.159962 -50.754221 
L 140.473041 -49.590582 
L 142.134726 -46.325571 
L 142.291598 -43.299256 
L 141.07148 -40.62672 
L 138.613814 -38.452888 
L 138.003755 -38.24403 
L 136.841738 -38.116157 
L 136.27816 -37.672866 
L 135.877264 -36.824645 
L 135.755252 -35.878389 
L 135.749442 -34.953444 
L 135.453128 -32.604853 
L 135.348546 -32.438619 
L 134.802398 -31.211043 
L 134.761727 -31.032022 
L 134.058707 -30.098552 
L 133.657811 -29.757559 
L 133.117473 -29.587062 
L 129.131755 -28.666381 
L 128.320962 -27.999897 
L 127.7102 -26.805045 
L 127.55751 -25.236802 
L 126.400518 -25.182564 
L 126.331294 -25.047589 
L 126.156991 -24.199368 
L 126.203472 -23.768864 
L 126.06984 -23.491807 
L 125.36682 -23.099665 
L 125.041455 -23.116715 
L 124.03631 -23.432133 
L 122.490828 -23.402297 
L 119.789138 -24.412489 
L 119.23718 -24.348553 
L 118.813044 -24.143957 
L 118.342427 -24.028872 
L 117.651027 -24.271829 
L 117.569685 -24.480688 
L 116.51225 -26.057782 
L 115.669788 -26.859116 
L 114.786655 -27.379131 
L 109.057911 -28.845402 
L 108.116677 -28.346699 
L 107.570529 -27.408968 
L 106.95466 -26.586321 
L 105.775213 -26.432874 
L 104.101908 -25.691214 
L 100.778539 -23.201963 
L 98.977413 -22.554076 
L 94.753481 -23.014417 
L 94.0156 -22.754409 
L 92.435257 -21.752742 
L 88.966636 -20.294995 
L 87.270091 -19.971052 
L 85.434104 -19.936952 
L 83.708509 -20.299258 
L 82.40124 -21.100592 
L 79.879663 -23.99051 
L 79.490387 -24.655447 
L 79.188263 -25.486618 
L 78.793177 -26.995513 
L 78.148257 -28.709005 
L 77.944904 -29.587062 
L 77.67183 -29.774609 
L 73.866225 -34.164898 
L 72.588006 -34.740324 
L 72.117389 -34.544253 
L 71.716493 -34.122273 
L 71.286547 -33.789805 
L 70.752019 -33.866528 
L 70.258162 -34.250146 
L 70.223301 -34.505891 
L 70.339503 -34.851147 
L 70.316263 -35.490509 
L 70.397604 -35.571495 
L 70.380174 -36.432503 
L 70.281402 -37.250887 
L 70.12453 -37.169901 
L 70.380174 -37.596143 
L 70.83336 -38.158781 
L 71.228446 -38.789619 
L 71.286547 -39.420457 
L 70.426654 -40.268678 
L 65.952889 -41.274608 
L 65.464841 -42.659893 
L 65.981939 -45.485875 
L 66.958033 -48.439729 
L 68.950893 -52.382464 
L 67.672674 -54.620233 
L 65.679815 -56.770622 
L 64.604949 -58.65461 
L 64.907073 -59.60726 
L 66.388645 -61.3719 
L 66.789541 -62.752923 
L 66.726476 -63.561468 
L 66.667529 -64.31723 
L 66.142326 -65.136767 
L 65.296349 -65.561855 
L 56.921111 -67.759131 
L 53.173606 -67.88061 
L 49.571353 -67.155999 
L 44.778033 -63.82279 
L 42.953666 -63.349661 
L 41.106059 -63.262282 
L 39.374654 -62.693249 
L 37.550287 -61.08845 
L 35.946704 -58.938061 
L 34.761446 -57.301293 
L 34.459322 -56.176015 
L 34.691725 -55.353369 
L 35.208823 -53.951034 
L 35.237873 -53.618565 
L 35.778211 -52.254592 
L 36.016425 -51.905074 
L 36.603243 -51.593917 
L 37.544477 -52.032946 
L 37.939563 -51.858187 
L 38.230067 -49.95715 
L 36.777546 -48.392843 
L 33.181103 -45.967528 
L 30.310921 -42.544808 
L 28.486554 -41.590027 
L 26.575036 -42.45956 
L 24.012789 -42.357261 
L 21.462161 -41.739211 
L 20.108412 -40.916565 
L 20.857912 -42.70678 
L 21.287859 -43.537951 
L 21.462161 -44.245512 
L 20.468637 -45.515712 
L 19.881818 -46.645252 
L 20.090981 -47.638395 
L 21.462161 -48.524978 
L 24.832011 -50.20437 
L 24.924972 -50.234207 
L 25.017933 -50.242732 
L 25.122515 -50.234207 
L 25.564081 -50.089285 
L 25.901066 -50.04666 
L 26.226431 -50.085022 
L 27.463979 -50.477164 
L 27.708003 -51.027016 
L 27.655712 -51.789989 
L 27.684763 -52.680834 
L 28.085658 -55.016638 
L 28.271581 -55.660262 
L 29.089878 -57.520685 
L 30.090138 -59.794806 
L 30.014607 -60.706963 
L 29.329017 -61.955851 
L 28.503985 -62.859483 
L 25.740097 -64.582212 
L 25.47112 -64.749865 
L 26.11604 -65.37644 
L 26.220621 -65.919898 
L 26.104419 -66.478275 
L 26.104419 -67.106981 
L 26.063749 -67.360595 
L 25.930117 -67.701588 
L 25.808105 -68.089468 
L 25.808105 -68.511447 
L 26.028888 -69.014413 
L 26.667998 -69.713449 
L 28.625996 -73.114857 
L 30.613046 -75.655257 
L 29.253486 -77.193989 
L 29.079183 -78.280905 
L 29.834494 -79.282573 
L 37.393415 -86.272936 
L 41.419804 -88.504311 
L 41.977572 -88.97957 
L 43.459144 -90.665356 
L 45.324181 -91.662761 
L 45.91681 -92.108184 
L 46.550109 -92.909518 
L 46.765082 -93.593636 
L 46.741842 -94.985315 
L 46.323516 -95.449918 
L 46.027202 -95.854848 
L 45.870329 -96.319451 
L 45.95167 -96.720118 
L 46.834803 -99.403309 
L 47.224079 -100.113001 
L 47.332569 -100.385674 
L 47.537824 -100.901548 
L 47.630785 -102.043876 
L 47.450672 -102.956033 
L 46.701171 -104.392467 
L 46.468768 -105.13839 
L 47.30542 -108.032571 
L 50.03035 -109.61819 
L 56.078649 -111.527752 
L 59.829059 -114.394227 
L 61.113088 -116.254772 
L 60.439118 -117.784979 
L 61.194429 -119.095672 
L 61.723147 -119.617818 
L 63.134997 -120.125045 
L 63.34416 -120.649323 
L 63.553323 -120.794245 
L 64.360925 -121.211962 
L 64.291204 -122.622821 
L 65.976129 -123.211035 
L 69.535563 -126.506032 
L 69.659723 -126.620968 
L 70.728779 -128.385608 
L 72.361413 -130.067131 
L 76.178639 -132.865408 
L 75.952045 -134.911367 
L 76.312271 -136.603547 
L 77.369706 -137.690463 
L 77.880993 -137.754399 
L 78.183118 -137.873747 
L 79.00234 -138.979844 
L 79.589159 -139.322968 
L 80.164357 -139.480678 
L 80.693075 -139.817408 
L 81.128831 -140.723172 
L 80.542013 -141.560737 
L 79.69955 -142.323709 
L 78.862898 -143.003565 
L 77.828703 -142.506993 
L 71.141295 -141.850581 
L 71.420179 -142.905529 
L 72.117389 -144.19491 
L 72.948231 -145.277564 
L 74.394942 -146.125785 
L 74.482094 -147.681566 
L 75.957855 -148.009772 
L 76.870039 -148.53405 
L 77.706691 -149.243742 
L 78.130827 -149.938516 
L 77.857753 -150.921003 
L 77.276745 -152.061199 
L 77.137303 -152.97975 
L 78.183118 -153.2973 
L 78.682785 -153.687311 
L 79.188263 -153.817315 
L 79.69955 -153.687311 
L 80.210838 -153.2973 
L 81.669169 -153.08631 
L 84.46963 -153.572226 
L 85.79433 -153.2973 
L 86.5264 -152.877452 
L 86.630465 -152.860881 
L 87.275901 -152.758104 
L 88.803954 -152.911551 
L 87.781379 -150.571485 
L 88.100933 -149.224561 
L 89.321051 -148.495688 
L 90.971115 -147.979935 
L 91.203519 -147.79452 
L 91.360391 -147.498283 
L 91.586985 -147.199913 
L 92.022741 -147.016629 
L 92.400396 -147.093353 
L 94.526888 -148.014035 
L 96.014269 -148.325191 
L 97.579131 -148.258565 
L 99.918647 -148.158957 
L 100.462385 -148.376943 
L 101.48156 -148.785532 
L 102.280648 -149.826014 
L 102.591286 -150.230491 
L 102.771398 -151.001989 
L 102.678437 -151.466592 
L 102.405363 -151.852341 
L 102.21944 -152.052674 
L 101.934746 -152.562033 
L 101.928936 -153.06926 
L 102.585476 -153.261069 
L 103.456989 -152.958438 
L 103.710372 -152.79763 
L 104.189059 -152.493834 
L 104.91532 -152.387274 
L 105.775213 -153.158771 
L 105.873984 -153.2973 
L 105.949515 -153.531733 
L 105.955325 -153.746985 
L 105.946663 -153.777804 
L 105.897224 -153.953712 
L 105.496328 -154.51422 
L 105.374317 -154.846688 
L 105.449848 -155.106696 
L 105.775213 -155.281455 
L 106.356221 -155.157844 
L 106.809408 -155.307029 
L 107.053431 -155.778026 
L 107.036001 -156.602804 
L 106.844268 -156.598541 
L 105.908844 -157.310365 
L 105.775213 -157.365776 
L 107.919309 -159.110196 
L 108.227068 -159.360587 
L 109.575008 -160.10651 
L 111.551776 -160.847538 
L 111.58245 -160.859037 
L 114.44967 -161.713441 
L 115.722078 -161.845576 
L 114.984198 -159.780435 
L 114.385759 -159.20714 
L 113.061425 -159.21866 
L 112.915807 -159.219927 
L 115.004462 -158.12281 
L 115.82085 -157.693982 
L 117.058398 -157.529879 
L 119.52532 -158.038462 
L 121.741327 -158.495316 
L 122.798762 -159.092055 
L 123.693515 -160.155527 
L 124.71609 -161.743277 
L 125.506262 -161.34261 
L 129.131755 -161.125227 
L 129.47455 -160.771447 
L 129.654663 -159.997818 
L 129.765054 -159.22419 
L 129.916116 -158.874671 
L 137.231014 -158.874671 
L 139.758401 -159.43731 
L 140.304549 -159.806009 
L 140.554382 -160.164052 
L 140.780976 -160.581769 
L 141.257403 -161.125227 
L 141.716399 -161.479008 
L 142.936517 -162.133289 
L 143.964902 -162.438051 
L 144.348368 -162.84085 
L 144.627252 -163.243648 
L 144.917756 -163.431194 
L 147.950621 -163.938422 
L 148.967386 -163.942684 
L 150.425717 -163.499393 
L 151.076447 -163.431194 
L 151.378571 -163.073151 
L 151.680695 -162.278211 
L 152.075781 -161.48327 
L 152.627739 -161.125227 
L 154.760041 -160.562588 
L 158.356483 -160.541276 
L 158.526853 -160.569797 
L 160.087889 -160.83112 
L 160.15761 -161.223263 
L 160.814149 -162.634122 
L 162.533935 -163.763663 
L 164.218859 -163.93416 
L 165.084562 -163.128563 
L 165.752722 -162.01181 
L 165.869721 -161.869021 
L 166.374401 -161.2531 
L 167.129712 -161.504582 
L 167.25186 -161.71723 
L 167.495747 -162.141813 
L 167.559658 -162.759864 
L 167.530608 -163.345946 
L 167.600329 -163.908585 
L 167.577089 -164.192036 
L 167.443457 -164.513848 
L 167.350495 -164.888941 
L 167.478317 -165.345019 
L 167.68167 -165.519778 
L 167.977984 -165.630601 
L 168.222008 -165.639126 
L 168.274299 -165.506991 
L 168.309159 -164.999763 
L 168.675195 -164.81648 
L 168.994749 -166.770797 
L 168.483462 -166.819815 
L 168.223459 -166.925647 
L 167.582899 -167.186383 
L 166.798537 -167.318518 
L 164.067797 -166.858177 
L 163.225335 -166.438329 
L 162.446783 -165.886346 
L 161.615941 -165.460104 
L 160.616607 -165.41748 
L 159.45459 -166.073892 
L 158.013688 -167.16294 
L 157.734804 -167.205564 
L 156.851671 -167.527376 
L 157.211897 -168.420353 
L 157.072455 -169.123651 
L 156.834241 -169.726783 
L 156.898152 -170.336309 
L 157.45011 -170.960753 
L 158.873581 -171.734381 
L 159.47202 -172.288495 
L 159.896156 -173.93805 
L 160.15761 -174.539051 
L 160.918731 -175.647279 
L 161.360297 -175.907287 
L 161.987787 -175.890237 
L 165.014841 -176.486975 
L 165.863113 -176.913217 
L 165.340206 -178.213254 
L 166.234959 -178.720481 
L 167.635189 -178.643758 
L 168.675195 -178.179154 
L 168.762346 -177.578154 
L 168.814637 -176.51255 
L 169.01218 -175.510882 
L 169.564138 -175.103821 
L 170.261348 -175.555637 
L 170.551852 -177.354377 
L 171.06314 -177.882917 
L 171.7894 -177.644221 
L 172.329738 -176.832231 
L 172.771305 -175.87745 
L 173.189631 -175.221038 
L 173.770639 -175.091034 
L 174.392318 -175.218906 
L 174.944277 -175.112346 
L 175.316122 -174.279044 
L 175.16506 -173.967887 
L 174.415559 -172.853265 
L 174.229636 -172.31407 
L 174.46785 -171.640608 
L 174.915226 -171.092887 
L 175.054668 -170.464181 
L 175.16506 -169.927117 
L 178.134013 -169.969741 
L 177.675017 -170.4791 
L 178.180494 -172.096687 
L 179.691116 -172.028488 
L 181.527103 -170.969277 
L 182.979624 -169.607435 
L 181.945429 -169.36874 
L 181.951239 -168.795445 
L 182.746664 -168.007258 
L 182.787892 -167.966405 
L 184.420525 -166.75801 
L 185.797516 -166.399967 
L 187.999538 -166.606694 
L 190.044688 -167.254582 
L 190.939441 -168.217888 
L 192.002687 -168.635605 
L 198.271769 -167.936568 
L 201.380164 -167.936568 
L 202.141285 -166.75801 
L 204.244536 -166.760141 
L 206.429128 -166.259307 
L 221.847513 -156.729005 
L 222.161025 -155.272708 
L 222.26742 -154.778489 
L 223.929105 -152.289238 
L 226.020735 -151.33872 
L 227.630129 -149.92786 
L 227.583648 -146.432678 
L 227.0375 -145.179528 
L 224.858718 -142.436663 
L 224.597265 -141.697134 
L 224.30676 -140.24365 
L 224.091787 -139.676749 
L 222.174459 -137.370782 
L 220.367523 -134.314629 
L 219.437909 -132.741798 
L 218.467625 -129.960571 
L 218.333993 -127.183607 
L 218.763939 -125.819634 
L 219.373998 -124.630419 
L 219.844615 -123.30907 
L 219.873665 -121.548693 
L 219.339137 -120.448989 
L 218.479245 -119.562407 
L 217.822705 -118.677955 
L 217.886616 -117.908589 
L 219.153215 -117.533496 
L 222.586975 -116.960202 
L 223.743182 -117.3289 
L 224.794807 -117.049712 
L 227.740521 -117.41628 
L 228.681754 -117.273489 
L 239.30259 -113.914705 
L 239.209629 -112.974842 
L 239.447842 -112.770246 
L 239.796447 -112.797952 
L 240.011421 -112.542207 
L 240.011421 -112.056292 
L 239.779017 -111.267745 
L 239.639575 -109.332608 
L 239.459462 -108.443894 
L 239.552424 -107.670265 
L 240.267064 -106.651548 
L 241.661485 -105.577419 
L 247.674923 -103.627363 
L 249.847895 -101.549436 
L 251.114493 -100.812038 
L 253.543109 -100.027753 
L 254.323827 -99.997683 
L 254.705126 -99.982998 
L 256.157647 -100.398583 
L 258.609503 -101.653865 
L 259.184702 -102.495692 
L 259.335764 -103.12653 
L 259.382245 -103.821303 
L 259.649508 -104.865595 
L 260.503591 -106.312686 
L 261.415774 -106.483182 
L 262.50807 -106.195469 
L 263.908301 -106.261537 
L 263.937351 -107.8024 
L 264.919256 -109.694913 
L 266.336917 -111.327418 
L 267.969551 -112.267281 
L 268.277485 -112.329086 
L 268.59123 -112.267281 
L 268.887544 -112.073341 
L 268.893354 -112.073341 
L 268.893354 -112.060554 
L 269.474363 -111.433979 
L 270.648 -109.537204 
L 272.559518 -108.011259 
L 273.059185 -107.410258 
L 273.361309 -106.018579 
L 272.664099 -103.21604 
L 272.797731 -101.455662 
" style="stroke: #aaaaaa"/>
    </defs>
    <g clip-path="url(#p6f72ae9d02)">
     <use xlink:href="#m5b074172bb" x="0" y="209.206248" style="fill: #aaaaaa; stroke: #aaaaaa"/>
    </g>
   </g>
   <g id="PathCollection_1">
    <defs>
     <path id="m9a6a09fc72" d="M 0 1.581139 
C 0.419323 1.581139 0.821528 1.41454 1.118034 1.118034 
C 1.41454 0.821528 1.581139 0.419323 1.581139 0 
C 1.581139 -0.419323 1.41454 -0.821528 1.118034 -1.118034 
C 0.821528 -1.41454 0.419323 -1.581139 0 -1.581139 
C -0.419323 -1.581139 -0.821528 -1.41454 -1.118034 -1.118034 
C -1.41454 -0.821528 -1.581139 -0.419323 -1.581139 0 
C -1.581139 0.419323 -1.41454 0.821528 -1.118034 1.118034 
C -0.821528 1.41454 -0.419323 1.581139 0 1.581139 
z
" style="stroke: #1f77b4; stroke-opacity: 0.5"/>
    </defs>
    <g clip-path="url(#p6f72ae9d02)">
     <use xlink:href="#m9a6a09fc72" x="176.538771" y="59.260737" style="fill: #1f77b4; fill-opacity: 0.5; stroke: #1f77b4; stroke-opacity: 0.5"/>
     <use xlink:href="#m9a6a09fc72" x="123.653641" y="81.529363" style="fill: #1f77b4; fill-opacity: 0.5; stroke: #1f77b4; stroke-opacity: 0.5"/>
     <use xlink:href="#m9a6a09fc72" x="113.371116" y="91.820113" style="fill: #1f77b4; fill-opacity: 0.5; stroke: #1f77b4; stroke-opacity: 0.5"/>
     <use xlink:href="#m9a6a09fc72" x="114.127177" y="93.350688" style="fill: #1f77b4; fill-opacity: 0.5; stroke: #1f77b4; stroke-opacity: 0.5"/>
     <use xlink:href="#m9a6a09fc72" x="114.650336" y="95.441186" style="fill: #1f77b4; fill-opacity: 0.5; stroke: #1f77b4; stroke-opacity: 0.5"/>
     <use xlink:href="#m9a6a09fc72" x="133.425511" y="127.001434" style="fill: #1f77b4; fill-opacity: 0.5; stroke: #1f77b4; stroke-opacity: 0.5"/>
     <use xlink:href="#m9a6a09fc72" x="105.390243" y="123.956973" style="fill: #1f77b4; fill-opacity: 0.5; stroke: #1f77b4; stroke-opacity: 0.5"/>
     <use xlink:href="#m9a6a09fc72" x="101.885607" y="134.167195" style="fill: #1f77b4; fill-opacity: 0.5; stroke: #1f77b4; stroke-opacity: 0.5"/>
     <use xlink:href="#m9a6a09fc72" x="98.05285" y="113.400671" style="fill: #1f77b4; fill-opacity: 0.5; stroke: #1f77b4; stroke-opacity: 0.5"/>
     <use xlink:href="#m9a6a09fc72" x="106.84478" y="113.829297" style="fill: #1f77b4; fill-opacity: 0.5; stroke: #1f77b4; stroke-opacity: 0.5"/>
     <use xlink:href="#m9a6a09fc72" x="115.336302" y="114.389842" style="fill: #1f77b4; fill-opacity: 0.5; stroke: #1f77b4; stroke-opacity: 0.5"/>
     <use xlink:href="#m9a6a09fc72" x="116.602465" y="82.169398" style="fill: #1f77b4; fill-opacity: 0.5; stroke: #1f77b4; stroke-opacity: 0.5"/>
     <use xlink:href="#m9a6a09fc72" x="148.752671" y="89.566085" style="fill: #1f77b4; fill-opacity: 0.5; stroke: #1f77b4; stroke-opacity: 0.5"/>
     <use xlink:href="#m9a6a09fc72" x="189.700692" y="83.416938" style="fill: #1f77b4; fill-opacity: 0.5; stroke: #1f77b4; stroke-opacity: 0.5"/>
     <use xlink:href="#m9a6a09fc72" x="107.477853" y="84.777536" style="fill: #1f77b4; fill-opacity: 0.5; stroke: #1f77b4; stroke-opacity: 0.5"/>
     <use xlink:href="#m9a6a09fc72" x="128.122204" y="70.801795" style="fill: #1f77b4; fill-opacity: 0.5; stroke: #1f77b4; stroke-opacity: 0.5"/>
     <use xlink:href="#m9a6a09fc72" x="99.985652" y="61.789788" style="fill: #1f77b4; fill-opacity: 0.5; stroke: #1f77b4; stroke-opacity: 0.5"/>
     <use xlink:href="#m9a6a09fc72" x="103.340017" y="59.233732" style="fill: #1f77b4; fill-opacity: 0.5; stroke: #1f77b4; stroke-opacity: 0.5"/>
     <use xlink:href="#m9a6a09fc72" x="121.783479" y="59.494626" style="fill: #1f77b4; fill-opacity: 0.5; stroke: #1f77b4; stroke-opacity: 0.5"/>
     <use xlink:href="#m9a6a09fc72" x="125.202162" y="61.400496" style="fill: #1f77b4; fill-opacity: 0.5; stroke: #1f77b4; stroke-opacity: 0.5"/>
     <use xlink:href="#m9a6a09fc72" x="120.134859" y="65.417392" style="fill: #1f77b4; fill-opacity: 0.5; stroke: #1f77b4; stroke-opacity: 0.5"/>
     <use xlink:href="#m9a6a09fc72" x="193.693988" y="76.779897" style="fill: #1f77b4; fill-opacity: 0.5; stroke: #1f77b4; stroke-opacity: 0.5"/>
     <use xlink:href="#m9a6a09fc72" x="194.453417" y="64.405495" style="fill: #1f77b4; fill-opacity: 0.5; stroke: #1f77b4; stroke-opacity: 0.5"/>
     <use xlink:href="#m9a6a09fc72" x="197.193496" y="64.131603" style="fill: #1f77b4; fill-opacity: 0.5; stroke: #1f77b4; stroke-opacity: 0.5"/>
     <use xlink:href="#m9a6a09fc72" x="209.889276" y="60.18507" style="fill: #1f77b4; fill-opacity: 0.5; stroke: #1f77b4; stroke-opacity: 0.5"/>
     <use xlink:href="#m9a6a09fc72" x="195.947427" y="112.986461" style="fill: #1f77b4; fill-opacity: 0.5; stroke: #1f77b4; stroke-opacity: 0.5"/>
     <use xlink:href="#m9a6a09fc72" x="145.297309" y="58.480821" style="fill: #1f77b4; fill-opacity: 0.5; stroke: #1f77b4; stroke-opacity: 0.5"/>
     <use xlink:href="#m9a6a09fc72" x="144.903588" y="77.247648" style="fill: #1f77b4; fill-opacity: 0.5; stroke: #1f77b4; stroke-opacity: 0.5"/>
     <use xlink:href="#m9a6a09fc72" x="137.861392" y="51.004212" style="fill: #1f77b4; fill-opacity: 0.5; stroke: #1f77b4; stroke-opacity: 0.5"/>
     <use xlink:href="#m9a6a09fc72" x="144.657708" y="65.194714" style="fill: #1f77b4; fill-opacity: 0.5; stroke: #1f77b4; stroke-opacity: 0.5"/>
     <use xlink:href="#m9a6a09fc72" x="191.15039" y="44.691588" style="fill: #1f77b4; fill-opacity: 0.5; stroke: #1f77b4; stroke-opacity: 0.5"/>
     <use xlink:href="#m9a6a09fc72" x="57.632758" y="109.15038" style="fill: #1f77b4; fill-opacity: 0.5; stroke: #1f77b4; stroke-opacity: 0.5"/>
     <use xlink:href="#m9a6a09fc72" x="39.836721" y="142.630157" style="fill: #1f77b4; fill-opacity: 0.5; stroke: #1f77b4; stroke-opacity: 0.5"/>
     <use xlink:href="#m9a6a09fc72" x="38.657426" y="142.042279" style="fill: #1f77b4; fill-opacity: 0.5; stroke: #1f77b4; stroke-opacity: 0.5"/>
     <use xlink:href="#m9a6a09fc72" x="38.088924" y="140.882902" style="fill: #1f77b4; fill-opacity: 0.5; stroke: #1f77b4; stroke-opacity: 0.5"/>
     <use xlink:href="#m9a6a09fc72" x="78.393889" y="60.271935" style="fill: #1f77b4; fill-opacity: 0.5; stroke: #1f77b4; stroke-opacity: 0.5"/>
    </g>
   </g>
   <g id="text_1">
    <text style="font: 12px 'DejaVu Sans', 'Bitstream Vera Sans', 'Computer Modern Sans Serif', 'Lucida Grande', 'Verdana', 'Geneva', 'Lucid', 'Arial', 'Helvetica', 'Avant Garde', sans-serif; text-anchor: middle" x="146.7" y="16.318125" transform="rotate(-0 146.7 16.318125)">-bur 36x</text>
   </g>
  </g>
 </g>
 <defs>
  <clipPath id="p6f72ae9d02">
   <rect x="7.2" y="22.318125" width="279" height="179.688123"/>
  </clipPath>
 </defs>
</svg>
