<?xml version="1.0" encoding="utf-8" standalone="no"?>
<!DOCTYPE svg PUBLIC "-//W3C//DTD SVG 1.1//EN"
  "http://www.w3.org/Graphics/SVG/1.1/DTD/svg11.dtd">
<svg xmlns:xlink="http://www.w3.org/1999/xlink" width="293.4pt" height="209.069654pt" viewBox="0 0 293.4 209.069654" xmlns="http://www.w3.org/2000/svg" version="1.1">
 <metadata>
  <rdf:RDF xmlns:dc="http://purl.org/dc/elements/1.1/" xmlns:cc="http://creativecommons.org/ns#" xmlns:rdf="http://www.w3.org/1999/02/22-rdf-syntax-ns#">
   <cc:Work>
    <dc:type rdf:resource="http://purl.org/dc/dcmitype/StillImage"/>
    <dc:date>2024-08-06T14:07:34.320455</dc:date>
    <dc:format>image/svg+xml</dc:format>
    <dc:creator>
     <cc:Agent>
      <dc:title>Matplotlib v3.9.1, https://matplotlib.org/</dc:title>
     </cc:Agent>
    </dc:creator>
   </cc:Work>
  </rdf:RDF>
 </metadata>
 <defs>
  <style type="text/css">*{stroke-linejoin: round; stroke-linecap: butt}</style>
 </defs>
 <g id="figure_1">
  <g id="patch_1">
   <path d="M 0 209.069654 
L 293.4 209.069654 
L 293.4 0 
L 0 0 
z
" style="fill: #ffffff"/>
  </g>
  <g id="axes_1">
   <g id="PatchCollection_1">
    <defs>
     <path id="m29e5bb4908" d="M 272.797731 -101.384012 
L 272.501417 -98.730545 
L 272.298064 -97.989448 
L 271.966889 -97.46557 
L 270.740961 -95.979117 
L 270.845543 -94.752475 
L 271.246439 -93.553517 
L 271.385881 -92.418446 
L 270.706101 -91.377078 
L 269.753247 -90.761627 
L 269.526653 -90.007753 
L 269.578944 -89.068604 
L 269.456932 -87.89946 
L 268.916594 -86.926239 
L 268.306535 -86.340602 
L 268.039272 -85.556914 
L 268.509888 -83.981018 
L 269.526653 -82.788449 
L 271.920408 -82.528639 
L 273.094046 -81.531992 
L 273.518182 -79.94332 
L 273.477511 -77.815861 
L 273.030135 -75.773586 
L 272.686514 -75.197022 
L 272.245773 -74.457501 
L 271.229008 -74.259449 
L 267.202619 -75.330632 
L 265.24462 -75.143228 
L 264.52417 -75.262485 
L 263.890871 -75.558498 
L 263.536455 -75.937564 
L 263.240141 -76.352834 
L 262.798575 -76.748938 
L 260.480351 -77.553922 
L 260.230517 -78.448349 
L 260.538451 -80.141371 
L 260.42806 -81.072001 
L 259.533307 -81.813098 
L 258.086596 -81.80032 
L 252.764558 -80.25211 
L 252.22422 -79.951838 
L 251.980196 -79.342776 
L 251.288796 -76.655236 
L 250.823989 -76.024878 
L 249.609681 -74.798235 
L 249.127444 -74.065657 
L 249.051913 -73.473631 
L 249.040293 -71.663481 
L 248.796269 -70.786091 
L 248.86599 -70.023699 
L 248.999622 -69.425284 
L 249.272696 -68.963164 
L 249.760744 -68.626689 
L 248.767219 -66.918759 
L 249.650352 -65.802855 
L 251.300416 -65.151201 
L 253.816183 -64.657137 
L 254.786467 -64.261033 
L 255.198983 -63.345311 
L 254.774847 -61.547938 
L 254.368141 -60.994245 
L 253.188694 -59.920933 
L 252.764558 -59.120208 
L 252.479863 -58.004304 
L 252.445003 -57.25043 
L 252.671596 -56.556184 
L 253.182884 -55.636202 
L 255.501108 -53.238286 
L 256.221558 -51.76887 
L 255.483677 -50.192975 
L 253.914954 -49.187809 
L 251.54444 -48.272086 
L 249.685212 -48.310419 
L 249.638732 -50.171679 
L 249.069343 -51.572948 
L 246.849891 -53.574761 
L 246.024859 -54.707701 
L 245.658823 -56.513592 
L 245.635583 -58.144857 
L 245.263738 -59.486497 
L 243.857697 -60.423516 
L 242.70149 -60.728047 
L 241.609194 -60.811101 
L 239.157338 -60.383054 
L 235.415643 -58.432351 
L 234.247816 -58.046895 
L 233.527365 -58.204485 
L 232.156185 -59.043543 
L 231.551937 -59.05845 
L 230.941878 -58.357815 
L 230.831486 -57.416538 
L 230.918637 -56.481648 
L 230.895397 -55.832124 
L 230.035504 -54.622518 
L 228.978069 -54.188082 
L 222.534684 -54.264747 
L 221.227415 -54.750293 
L 220.036348 -55.572314 
L 219.321707 -56.573221 
L 218.200361 -59.546125 
L 217.700693 -59.963525 
L 216.457335 -60.664159 
L 216.050629 -61.068781 
L 215.940238 -61.530902 
L 216.021579 -62.787358 
L 215.684594 -70.692389 
L 215.504481 -71.209879 
L 215.062915 -71.109788 
L 214.156542 -70.43258 
L 213.773076 -69.906571 
L 213.575533 -69.320935 
L 213.302459 -68.82687 
L 212.6924 -68.579838 
L 212.268264 -68.767242 
L 210.833173 -70.151474 
L 210.792502 -71.171546 
L 209.676966 -71.471818 
L 206.940416 -71.131084 
L 205.86555 -70.12166 
L 204.889456 -68.136884 
L 204.447889 -66.118034 
L 204.988227 -65.00426 
L 205.737728 -64.478251 
L 205.84812 -63.651971 
L 205.702868 -62.612732 
L 205.708678 -61.43507 
L 206.463989 -58.511146 
L 206.53952 -57.450611 
L 206.190915 -55.636202 
L 204.546661 -52.143677 
L 203.710008 -49.192068 
L 203.198721 -48.35727 
L 202.547991 -47.739689 
L 201.874021 -47.415992 
L 201.263962 -46.956001 
L 200.950218 -46.138239 
L 200.688764 -45.188443 
L 200.277789 -44.395622 
L 200.247198 -44.336608 
L 196.162708 -41.525552 
L 195.122702 -39.936879 
L 194.901919 -38.872085 
L 195.023931 -37.015084 
L 194.843818 -36.0014 
L 194.396442 -35.230489 
L 193.861914 -34.911051 
L 192.630176 -34.514948 
L 191.189275 -33.377748 
L 190.945251 -32.440729 
L 191.944586 -29.570044 
L 190.096979 -27.828041 
L 189.974967 -27.623601 
L 189.934296 -27.410642 
L 189.974967 -27.201943 
L 190.096979 -26.993243 
L 190.701228 -26.367144 
L 191.166034 -24.867914 
L 191.677322 -24.092744 
L 192.22347 -23.773306 
L 193.449398 -23.522014 
L 193.978116 -23.177021 
L 194.617225 -21.809826 
L 194.402252 -20.408557 
L 193.002021 -17.618796 
L 191.206705 -15.361433 
L 189.51597 -15.685131 
L 187.674173 -16.524188 
L 185.448911 -15.829942 
L 185.658074 -17.099177 
L 185.995059 -18.078787 
L 186.221652 -19.10099 
L 186.128691 -20.527814 
L 185.814946 -21.605385 
L 185.344329 -22.682957 
L 184.368235 -24.459033 
L 183.816277 -25.775119 
L 183.450241 -26.298997 
L 183.072586 -26.601399 
L 179.847988 -28.368957 
L 178.988096 -28.679877 
L 178.023622 -28.743764 
L 178.116583 -28.965241 
L 178.331556 -29.361345 
L 179.319271 -31.678337 
L 180.928664 -33.67589 
L 181.759507 -35.609556 
L 180.330226 -37.534704 
L 179.481953 -37.837105 
L 177.756358 -37.794513 
L 176.855795 -37.922289 
L 176.425848 -38.220431 
L 176.013332 -38.991342 
L 175.834808 -39.058413 
L 175.548525 -39.165968 
L 175.19992 -38.99986 
L 174.328408 -38.211913 
L 173.927512 -37.981917 
L 172.939797 -38.033027 
L 170.319449 -39.591886 
L 169.232963 -39.975212 
L 168.686815 -40.260576 
L 165.136853 -45.601583 
L 163.539079 -47.27118 
L 161.987787 -48.067646 
L 160.517835 -48.66819 
L 159.48364 -49.537062 
L 158.867771 -50.861666 
L 158.646988 -52.871997 
L 158.83872 -54.993066 
L 159.750904 -59.26289 
L 159.942637 -61.637381 
L 159.913586 -64.12474 
L 159.681183 -65.986 
L 158.908441 -67.11894 
L 157.293238 -67.406435 
L 156.548421 -67.24385 
L 154.161602 -66.722837 
L 152.633549 -65.87952 
L 151.436672 -64.593249 
L 150.966055 -63.547621 
L 151.181028 -63.198369 
L 151.552874 -62.910875 
L 151.576114 -62.076076 
L 151.239129 -61.322202 
L 150.681361 -60.642863 
L 150.036441 -60.14241 
L 148.444478 -59.324648 
L 145.678878 -55.619165 
L 144.51686 -54.797144 
L 142.076625 -54.243451 
L 140.862317 -53.672722 
L 139.764211 -52.539781 
L 139.200633 -51.734797 
L 138.962419 -51.040551 
L 139.159962 -50.721113 
L 140.473041 -49.558358 
L 142.134726 -46.295829 
L 142.291598 -43.271814 
L 141.07148 -40.60131 
L 138.613814 -38.429131 
L 138.003755 -38.220431 
L 136.841738 -38.092656 
L 136.27816 -37.649701 
L 135.877264 -36.802125 
L 135.755252 -35.856588 
L 135.749442 -34.932347 
L 135.453128 -32.585541 
L 135.348546 -32.419433 
L 134.802398 -31.19279 
L 134.761727 -31.013905 
L 134.058707 -30.081146 
L 133.657811 -29.740411 
L 133.117473 -29.570044 
L 129.131755 -28.650062 
L 128.320962 -27.984085 
L 127.7102 -26.790142 
L 127.55751 -25.223091 
L 126.400518 -25.168894 
L 126.331294 -25.034022 
L 126.156991 -24.186446 
L 126.203472 -23.756269 
L 126.06984 -23.479423 
L 125.36682 -23.087578 
L 125.041455 -23.104615 
L 124.03631 -23.419794 
L 122.490828 -23.38998 
L 119.789138 -24.399405 
L 119.23718 -24.335517 
L 118.813044 -24.131077 
L 118.342427 -24.016079 
L 117.651027 -24.258852 
L 117.569685 -24.467552 
L 116.51225 -26.043447 
L 115.669788 -26.844172 
L 114.786655 -27.363791 
L 109.057911 -28.828948 
L 108.116677 -28.330624 
L 107.570529 -27.393605 
L 106.95466 -26.571584 
L 105.775213 -26.418254 
L 104.101908 -25.677158 
L 100.778539 -23.189799 
L 98.977413 -22.542404 
L 94.753481 -23.002395 
L 94.0156 -22.742585 
L 92.435257 -21.741679 
L 88.966636 -20.285041 
L 87.270091 -19.961343 
L 85.434104 -19.92727 
L 83.708509 -20.2893 
L 82.40124 -21.090025 
L 79.879663 -23.977746 
L 79.490387 -24.642178 
L 79.188263 -25.472717 
L 78.793177 -26.980465 
L 78.148257 -28.692654 
L 77.944904 -29.570044 
L 77.67183 -29.757448 
L 73.866225 -34.1444 
L 72.588006 -34.719388 
L 72.117389 -34.523466 
L 71.716493 -34.101808 
L 71.286547 -33.769592 
L 70.752019 -33.846257 
L 70.258162 -34.229583 
L 70.223301 -34.485134 
L 70.339503 -34.830127 
L 70.316263 -35.469003 
L 70.397604 -35.549928 
L 70.380174 -36.410281 
L 70.281402 -37.228043 
L 70.12453 -37.147119 
L 70.380174 -37.573036 
L 70.83336 -38.135247 
L 71.228446 -38.765606 
L 71.286547 -39.395964 
L 70.426654 -40.24354 
L 65.952889 -41.248705 
L 65.464841 -42.632937 
L 65.981939 -45.456771 
L 66.958033 -48.40838 
L 68.950893 -52.348118 
L 67.672674 -54.584185 
L 65.679815 -56.73294 
L 64.604949 -58.615496 
L 64.907073 -59.567421 
L 66.388645 -61.33072 
L 66.789541 -62.710693 
L 66.726476 -63.518624 
L 66.667529 -64.273811 
L 66.142326 -65.092725 
L 65.296349 -65.51749 
L 56.921111 -67.713096 
L 53.173606 -67.834482 
L 49.571353 -67.110422 
L 44.778033 -63.779746 
L 42.953666 -63.306978 
L 41.106059 -63.219665 
L 39.374654 -62.651065 
L 37.550287 -61.047485 
L 35.946704 -58.898731 
L 34.761446 -57.263207 
L 34.459322 -56.138785 
L 34.691725 -55.316764 
L 35.208823 -53.915495 
L 35.237873 -53.583279 
L 35.778211 -52.220343 
L 36.016425 -51.87109 
L 36.603243 -51.56017 
L 37.544477 -51.998865 
L 37.939563 -51.824239 
L 38.230067 -49.924647 
L 36.777546 -48.361529 
L 33.181103 -45.938058 
L 30.310921 -42.51794 
L 28.486554 -41.563884 
L 26.575036 -42.432756 
L 24.012789 -42.330536 
L 21.462161 -41.712955 
L 20.108412 -40.890934 
L 20.857912 -42.679788 
L 21.287859 -43.510328 
L 21.462161 -44.217351 
L 20.468637 -45.486585 
L 19.881818 -46.615267 
L 20.090981 -47.607655 
L 21.462161 -48.493564 
L 24.832011 -50.171679 
L 24.924972 -50.201493 
L 25.017933 -50.210012 
L 25.122515 -50.201493 
L 25.564081 -50.056681 
L 25.901066 -50.014089 
L 26.226431 -50.052422 
L 27.463979 -50.444266 
L 27.708003 -50.9937 
L 27.655712 -51.756092 
L 27.684763 -52.64626 
L 28.085658 -54.980289 
L 28.271581 -55.623424 
L 29.089878 -57.482433 
L 30.090138 -59.754825 
L 30.014607 -60.666289 
L 29.329017 -61.914227 
L 28.503985 -62.817173 
L 25.740097 -64.538592 
L 25.47112 -64.706117 
L 26.11604 -65.332216 
L 26.220621 -65.875261 
L 26.104419 -66.433213 
L 26.104419 -67.061442 
L 26.063749 -67.314863 
L 25.930117 -67.655597 
L 25.808105 -68.043182 
L 25.808105 -68.46484 
L 26.028888 -68.967423 
L 26.667998 -69.665928 
L 28.625996 -73.06475 
L 30.613046 -75.603219 
L 29.253486 -77.140782 
L 29.079183 -78.226872 
L 29.834494 -79.227778 
L 37.393415 -86.212827 
L 41.419804 -88.442505 
L 41.977572 -88.917404 
L 43.459144 -90.601908 
L 45.324181 -91.598555 
L 45.91681 -92.043639 
L 46.550109 -92.844364 
L 46.765082 -93.527962 
L 46.741842 -94.918583 
L 46.323516 -95.382833 
L 46.027202 -95.787454 
L 45.870329 -96.251705 
L 45.95167 -96.652067 
L 46.834803 -99.333219 
L 47.224079 -100.042371 
L 47.332569 -100.314836 
L 47.537824 -100.830319 
L 47.630785 -101.971778 
L 47.450672 -102.883242 
L 46.701171 -104.318584 
L 46.468768 -105.06394 
L 47.30542 -107.95592 
L 50.03035 -109.540334 
L 56.078649 -111.448445 
L 59.829059 -114.312741 
L 61.113088 -116.171871 
L 60.439118 -117.700915 
L 61.194429 -119.010612 
L 61.723147 -119.532361 
L 63.134997 -120.039203 
L 63.34416 -120.563082 
L 63.553323 -120.707894 
L 64.360925 -121.125293 
L 64.291204 -122.53508 
L 65.976129 -123.122846 
L 69.535563 -126.415339 
L 69.659723 -126.530187 
L 70.728779 -128.293486 
L 72.361413 -129.973731 
L 76.178639 -132.76988 
L 75.952045 -134.814285 
L 76.312271 -136.505178 
L 77.369706 -137.591267 
L 77.880993 -137.655155 
L 78.183118 -137.774412 
L 79.00234 -138.879668 
L 79.589159 -139.222532 
L 80.164357 -139.380121 
L 80.693075 -139.716596 
L 81.128831 -140.621671 
L 80.542013 -141.458599 
L 79.69955 -142.220992 
L 78.862898 -142.90033 
L 77.828703 -142.404136 
L 71.141295 -141.748223 
L 71.420179 -142.802369 
L 72.117389 -144.09077 
L 72.948231 -145.172601 
L 74.394942 -146.020177 
L 74.482094 -147.574776 
L 75.957855 -147.902733 
L 76.870039 -148.426611 
L 77.706691 -149.135764 
L 78.130827 -149.83001 
L 77.857753 -150.81175 
L 77.276745 -151.951079 
L 77.137303 -152.868932 
L 78.183118 -153.186241 
L 78.682785 -153.575955 
L 79.188263 -153.70586 
L 79.69955 -153.575955 
L 80.210838 -153.186241 
L 81.669169 -152.975411 
L 84.46963 -153.460957 
L 85.79433 -153.186241 
L 86.5264 -152.766712 
L 86.630465 -152.750153 
L 87.275901 -152.647455 
L 88.803954 -152.800785 
L 87.781379 -150.462497 
L 88.100933 -149.116598 
L 89.321051 -148.388279 
L 90.971115 -147.872918 
L 91.203519 -147.687644 
L 91.360391 -147.391632 
L 91.586985 -147.093489 
L 92.022741 -146.910345 
L 92.400396 -146.98701 
L 94.526888 -147.906992 
L 96.014269 -148.217912 
L 97.579131 -148.151336 
L 99.918647 -148.051804 
L 100.462385 -148.269624 
L 101.48156 -148.677903 
L 102.280648 -149.717594 
L 102.591286 -150.121763 
L 102.771398 -150.892674 
L 102.678437 -151.356924 
L 102.405363 -151.74238 
L 102.21944 -151.942561 
L 101.934746 -152.451533 
L 101.928936 -152.958375 
L 102.585476 -153.150038 
L 103.456989 -152.847636 
L 103.710372 -152.686951 
L 104.189059 -152.383386 
L 104.91532 -152.276906 
L 105.775213 -153.047817 
L 105.873984 -153.186241 
L 105.949515 -153.420495 
L 105.955325 -153.635584 
L 105.946663 -153.66638 
L 105.897224 -153.842154 
L 105.496328 -154.402235 
L 105.374317 -154.734451 
L 105.449848 -154.994261 
L 105.775213 -155.168887 
L 106.356221 -155.045371 
L 106.809408 -155.194442 
L 107.053431 -155.665081 
L 107.036001 -156.489232 
L 106.844268 -156.484972 
L 105.908844 -157.196255 
L 105.775213 -157.251624 
L 107.919309 -158.994718 
L 108.227068 -159.244918 
L 109.575008 -159.990274 
L 111.551776 -160.730739 
L 111.58245 -160.74223 
L 114.44967 -161.595984 
L 115.722078 -161.728018 
L 114.984198 -159.664447 
L 114.385759 -159.091588 
L 113.061425 -159.1031 
L 112.915807 -159.104366 
L 115.004462 -158.008083 
L 115.82085 -157.579581 
L 117.058398 -157.415602 
L 119.52532 -157.923799 
L 121.741327 -158.380306 
L 122.798762 -158.97659 
L 123.693515 -160.039255 
L 124.71609 -161.625798 
L 125.506262 -161.225435 
L 129.131755 -161.008217 
L 129.47455 -160.654706 
L 129.654663 -159.881665 
L 129.765054 -159.108625 
L 129.916116 -158.759372 
L 137.231014 -158.759372 
L 139.758401 -159.321584 
L 140.304549 -159.690002 
L 140.554382 -160.047773 
L 140.780976 -160.465172 
L 141.257403 -161.008217 
L 141.716399 -161.361729 
L 142.936517 -162.015512 
L 143.964902 -162.320043 
L 144.348368 -162.722536 
L 144.627252 -163.125028 
L 144.917756 -163.312432 
L 147.950621 -163.819274 
L 148.967386 -163.823533 
L 150.425717 -163.380578 
L 151.076447 -163.312432 
L 151.378571 -162.954661 
L 151.680695 -162.160324 
L 152.075781 -161.365988 
L 152.627739 -161.008217 
L 154.760041 -160.446006 
L 158.356483 -160.42471 
L 158.526853 -160.453209 
L 160.087889 -160.714334 
L 160.15761 -161.106178 
L 160.814149 -162.515966 
L 162.533935 -163.644647 
L 164.218859 -163.815014 
L 165.084562 -163.01003 
L 165.752722 -161.894126 
L 165.869721 -161.751446 
L 166.374401 -161.135993 
L 167.129712 -161.387284 
L 167.25186 -161.59977 
L 167.495747 -162.024031 
L 167.559658 -162.641611 
L 167.530608 -163.227248 
L 167.600329 -163.789459 
L 167.577089 -164.072694 
L 167.443457 -164.394262 
L 167.350495 -164.76907 
L 167.478317 -165.224802 
L 167.68167 -165.399428 
L 167.977984 -165.510166 
L 168.222008 -165.518685 
L 168.274299 -165.38665 
L 168.309159 -164.879808 
L 168.675195 -164.696664 
L 168.994749 -166.649496 
L 168.483462 -166.698477 
L 168.223459 -166.804228 
L 167.582899 -167.064766 
L 166.798537 -167.1968 
L 164.067797 -166.736809 
L 163.225335 -166.31728 
L 162.446783 -165.765717 
L 161.615941 -165.339799 
L 160.616607 -165.297208 
L 159.45459 -165.953121 
L 158.013688 -167.04134 
L 157.734804 -167.083932 
L 156.851671 -167.4055 
L 157.211897 -168.297797 
L 157.072455 -169.000561 
L 156.834241 -169.603235 
L 156.898152 -170.212297 
L 157.45011 -170.836266 
L 158.873581 -171.609306 
L 159.47202 -172.162999 
L 159.896156 -173.811301 
L 160.15761 -174.411844 
L 160.918731 -175.51923 
L 161.360297 -175.77904 
L 161.987787 -175.762003 
L 165.014841 -176.358288 
L 165.863113 -176.784205 
L 165.340206 -178.083254 
L 166.234959 -178.590096 
L 167.635189 -178.513431 
L 168.675195 -178.049181 
L 168.762346 -177.448637 
L 168.814637 -176.383843 
L 169.01218 -175.382936 
L 169.564138 -174.976185 
L 170.261348 -175.427658 
L 170.551852 -177.22503 
L 171.06314 -177.753168 
L 171.7894 -177.514654 
L 172.329738 -176.703281 
L 172.771305 -175.749226 
L 173.189631 -175.093313 
L 173.770639 -174.963408 
L 174.392318 -175.091183 
L 174.944277 -174.984704 
L 175.316122 -174.152035 
L 175.16506 -173.841115 
L 174.415559 -172.72734 
L 174.229636 -172.188554 
L 174.46785 -171.515605 
L 174.915226 -170.9683 
L 175.054668 -170.340072 
L 175.16506 -169.803416 
L 178.134013 -169.846008 
L 177.675017 -170.354979 
L 178.180494 -171.971336 
L 179.691116 -171.90319 
L 181.527103 -170.844784 
L 182.979624 -169.483978 
L 181.945429 -169.245464 
L 181.951239 -168.672605 
L 182.746664 -167.885016 
L 182.787892 -167.844195 
L 184.420525 -166.636718 
L 185.797516 -166.278948 
L 187.999538 -166.485518 
L 190.044688 -167.132912 
L 190.939441 -168.095486 
L 192.002687 -168.512886 
L 198.271769 -167.814381 
L 201.380164 -167.814381 
L 202.141285 -166.636718 
L 204.244536 -166.638848 
L 206.429128 -166.138395 
L 221.847513 -156.615337 
L 222.161025 -155.160147 
L 222.26742 -154.666304 
L 223.929105 -152.178945 
L 226.020735 -151.229149 
L 227.630129 -149.819362 
L 227.583648 -146.326838 
L 227.0375 -145.07464 
L 224.858718 -142.33386 
L 224.597265 -141.594893 
L 224.30676 -140.142514 
L 224.091787 -139.576043 
L 222.174459 -137.271829 
L 220.367523 -134.218 
L 219.437909 -132.646364 
L 218.467625 -129.867252 
L 218.333993 -127.092398 
L 218.763939 -125.729462 
L 219.373998 -124.541152 
L 219.844615 -123.220807 
L 219.873665 -121.461768 
L 219.339137 -120.3629 
L 218.479245 -119.476992 
L 217.822705 -118.593213 
L 217.886616 -117.824431 
L 219.153215 -117.449624 
L 222.586975 -116.876765 
L 223.743182 -117.245183 
L 224.794807 -116.966207 
L 227.740521 -117.332497 
L 228.681754 -117.189814 
L 239.30259 -113.833583 
L 239.209629 -112.894435 
L 239.447842 -112.689995 
L 239.796447 -112.717679 
L 240.011421 -112.462129 
L 240.011421 -111.976583 
L 239.779017 -111.188635 
L 239.639575 -109.254969 
L 239.459462 -108.366931 
L 239.552424 -107.59389 
L 240.267064 -106.575947 
L 241.661485 -105.502635 
L 247.674923 -103.554062 
L 249.847895 -101.477714 
L 251.114493 -100.740876 
L 253.543109 -99.957188 
L 254.323827 -99.927141 
L 254.705126 -99.912467 
L 256.157647 -100.327736 
L 258.609503 -101.582063 
L 259.184702 -102.423251 
L 259.335764 -103.053609 
L 259.382245 -103.747855 
L 259.649508 -104.791353 
L 260.503591 -106.237343 
L 261.415774 -106.40771 
L 262.50807 -106.120216 
L 263.908301 -106.186233 
L 263.937351 -107.725925 
L 264.919256 -109.616999 
L 266.336917 -111.248264 
L 267.969551 -112.187412 
L 268.277485 -112.24917 
L 268.59123 -112.187412 
L 268.887544 -111.993619 
L 268.893354 -111.993619 
L 268.893354 -111.980842 
L 269.474363 -111.354743 
L 270.648 -109.45941 
L 272.559518 -107.934625 
L 273.059185 -107.334081 
L 273.361309 -105.94346 
L 272.664099 -103.143052 
L 272.797731 -101.384012 
" style="stroke: #aaaaaa"/>
    </defs>
    <g clip-path="url(#p5e95659682)">
     <use xlink:href="#m29e5bb4908" x="0" y="209.069654" style="fill: #aaaaaa; stroke: #aaaaaa"/>
    </g>
   </g>
   <g id="PathCollection_1">
    <defs>
     <path id="m8292ccbc0a" d="M 0 1.581139 
C 0.419323 1.581139 0.821528 1.41454 1.118034 1.118034 
C 1.41454 0.821528 1.581139 0.419323 1.581139 0 
C 1.581139 -0.419323 1.41454 -0.821528 1.118034 -1.118034 
C 0.821528 -1.41454 0.419323 -1.581139 0 -1.581139 
C -0.419323 -1.581139 -0.821528 -1.41454 -1.118034 -1.118034 
C -1.41454 -0.821528 -1.581139 -0.419323 -1.581139 0 
C -1.581139 0.419323 -1.41454 0.821528 -1.118034 1.118034 
C -0.821528 1.41454 -0.419323 1.581139 0 1.581139 
z
" style="stroke: #1f77b4; stroke-opacity: 0.5"/>
    </defs>
    <g clip-path="url(#p5e95659682)">
     <use xlink:href="#m8292ccbc0a" x="171.356999" y="49.427451" style="fill: #1f77b4; fill-opacity: 0.5; stroke: #1f77b4; stroke-opacity: 0.5"/>
     <use xlink:href="#m8292ccbc0a" x="170.041306" y="60.229582" style="fill: #1f77b4; fill-opacity: 0.5; stroke: #1f77b4; stroke-opacity: 0.5"/>
     <use xlink:href="#m8292ccbc0a" x="169.967558" y="62.86234" style="fill: #1f77b4; fill-opacity: 0.5; stroke: #1f77b4; stroke-opacity: 0.5"/>
     <use xlink:href="#m8292ccbc0a" x="170.066564" y="58.350543" style="fill: #1f77b4; fill-opacity: 0.5; stroke: #1f77b4; stroke-opacity: 0.5"/>
     <use xlink:href="#m8292ccbc0a" x="160.443357" y="57.310085" style="fill: #1f77b4; fill-opacity: 0.5; stroke: #1f77b4; stroke-opacity: 0.5"/>
     <use xlink:href="#m8292ccbc0a" x="161.041168" y="60.911375" style="fill: #1f77b4; fill-opacity: 0.5; stroke: #1f77b4; stroke-opacity: 0.5"/>
     <use xlink:href="#m8292ccbc0a" x="160.657579" y="59.224743" style="fill: #1f77b4; fill-opacity: 0.5; stroke: #1f77b4; stroke-opacity: 0.5"/>
     <use xlink:href="#m8292ccbc0a" x="158.48826" y="55.336112" style="fill: #1f77b4; fill-opacity: 0.5; stroke: #1f77b4; stroke-opacity: 0.5"/>
     <use xlink:href="#m8292ccbc0a" x="174.024571" y="74.985173" style="fill: #1f77b4; fill-opacity: 0.5; stroke: #1f77b4; stroke-opacity: 0.5"/>
     <use xlink:href="#m8292ccbc0a" x="171.423807" y="62.824831" style="fill: #1f77b4; fill-opacity: 0.5; stroke: #1f77b4; stroke-opacity: 0.5"/>
     <use xlink:href="#m8292ccbc0a" x="159.565803" y="67.503291" style="fill: #1f77b4; fill-opacity: 0.5; stroke: #1f77b4; stroke-opacity: 0.5"/>
     <use xlink:href="#m8292ccbc0a" x="159.314374" y="64.31426" style="fill: #1f77b4; fill-opacity: 0.5; stroke: #1f77b4; stroke-opacity: 0.5"/>
     <use xlink:href="#m8292ccbc0a" x="185.012953" y="55.96453" style="fill: #1f77b4; fill-opacity: 0.5; stroke: #1f77b4; stroke-opacity: 0.5"/>
     <use xlink:href="#m8292ccbc0a" x="95.275581" y="93.287072" style="fill: #1f77b4; fill-opacity: 0.5; stroke: #1f77b4; stroke-opacity: 0.5"/>
     <use xlink:href="#m8292ccbc0a" x="97.765369" y="95.732237" style="fill: #1f77b4; fill-opacity: 0.5; stroke: #1f77b4; stroke-opacity: 0.5"/>
     <use xlink:href="#m8292ccbc0a" x="96.478462" y="92.466091" style="fill: #1f77b4; fill-opacity: 0.5; stroke: #1f77b4; stroke-opacity: 0.5"/>
     <use xlink:href="#m8292ccbc0a" x="113.371116" y="91.767279" style="fill: #1f77b4; fill-opacity: 0.5; stroke: #1f77b4; stroke-opacity: 0.5"/>
     <use xlink:href="#m8292ccbc0a" x="114.650336" y="95.3856" style="fill: #1f77b4; fill-opacity: 0.5; stroke: #1f77b4; stroke-opacity: 0.5"/>
     <use xlink:href="#m8292ccbc0a" x="105.966148" y="95.73109" style="fill: #1f77b4; fill-opacity: 0.5; stroke: #1f77b4; stroke-opacity: 0.5"/>
     <use xlink:href="#m8292ccbc0a" x="106.462798" y="109.724559" style="fill: #1f77b4; fill-opacity: 0.5; stroke: #1f77b4; stroke-opacity: 0.5"/>
     <use xlink:href="#m8292ccbc0a" x="109.108716" y="111.529136" style="fill: #1f77b4; fill-opacity: 0.5; stroke: #1f77b4; stroke-opacity: 0.5"/>
     <use xlink:href="#m8292ccbc0a" x="108.509556" y="110.763303" style="fill: #1f77b4; fill-opacity: 0.5; stroke: #1f77b4; stroke-opacity: 0.5"/>
     <use xlink:href="#m8292ccbc0a" x="111.086455" y="114.987847" style="fill: #1f77b4; fill-opacity: 0.5; stroke: #1f77b4; stroke-opacity: 0.5"/>
     <use xlink:href="#m8292ccbc0a" x="150.876435" y="82.52036" style="fill: #1f77b4; fill-opacity: 0.5; stroke: #1f77b4; stroke-opacity: 0.5"/>
     <use xlink:href="#m8292ccbc0a" x="146.490952" y="81.82878" style="fill: #1f77b4; fill-opacity: 0.5; stroke: #1f77b4; stroke-opacity: 0.5"/>
     <use xlink:href="#m8292ccbc0a" x="170.902677" y="105.774048" style="fill: #1f77b4; fill-opacity: 0.5; stroke: #1f77b4; stroke-opacity: 0.5"/>
     <use xlink:href="#m8292ccbc0a" x="173.378287" y="107.998073" style="fill: #1f77b4; fill-opacity: 0.5; stroke: #1f77b4; stroke-opacity: 0.5"/>
     <use xlink:href="#m8292ccbc0a" x="171.60684" y="108.300951" style="fill: #1f77b4; fill-opacity: 0.5; stroke: #1f77b4; stroke-opacity: 0.5"/>
     <use xlink:href="#m8292ccbc0a" x="167.930011" y="105.777646" style="fill: #1f77b4; fill-opacity: 0.5; stroke: #1f77b4; stroke-opacity: 0.5"/>
     <use xlink:href="#m8292ccbc0a" x="181.258656" y="82.288758" style="fill: #1f77b4; fill-opacity: 0.5; stroke: #1f77b4; stroke-opacity: 0.5"/>
     <use xlink:href="#m8292ccbc0a" x="146.715441" y="100.602981" style="fill: #1f77b4; fill-opacity: 0.5; stroke: #1f77b4; stroke-opacity: 0.5"/>
     <use xlink:href="#m8292ccbc0a" x="156.739651" y="100.511494" style="fill: #1f77b4; fill-opacity: 0.5; stroke: #1f77b4; stroke-opacity: 0.5"/>
     <use xlink:href="#m8292ccbc0a" x="123.638061" y="72.064409" style="fill: #1f77b4; fill-opacity: 0.5; stroke: #1f77b4; stroke-opacity: 0.5"/>
     <use xlink:href="#m8292ccbc0a" x="111.994396" y="70.690232" style="fill: #1f77b4; fill-opacity: 0.5; stroke: #1f77b4; stroke-opacity: 0.5"/>
     <use xlink:href="#m8292ccbc0a" x="115.342331" y="71.067569" style="fill: #1f77b4; fill-opacity: 0.5; stroke: #1f77b4; stroke-opacity: 0.5"/>
     <use xlink:href="#m8292ccbc0a" x="113.986255" y="71.486274" style="fill: #1f77b4; fill-opacity: 0.5; stroke: #1f77b4; stroke-opacity: 0.5"/>
     <use xlink:href="#m8292ccbc0a" x="105.276148" y="85.561944" style="fill: #1f77b4; fill-opacity: 0.5; stroke: #1f77b4; stroke-opacity: 0.5"/>
     <use xlink:href="#m8292ccbc0a" x="103.636015" y="56.586951" style="fill: #1f77b4; fill-opacity: 0.5; stroke: #1f77b4; stroke-opacity: 0.5"/>
     <use xlink:href="#m8292ccbc0a" x="111.731982" y="76.329418" style="fill: #1f77b4; fill-opacity: 0.5; stroke: #1f77b4; stroke-opacity: 0.5"/>
     <use xlink:href="#m8292ccbc0a" x="107.541684" y="78.247579" style="fill: #1f77b4; fill-opacity: 0.5; stroke: #1f77b4; stroke-opacity: 0.5"/>
     <use xlink:href="#m8292ccbc0a" x="106.577334" y="77.338585" style="fill: #1f77b4; fill-opacity: 0.5; stroke: #1f77b4; stroke-opacity: 0.5"/>
     <use xlink:href="#m8292ccbc0a" x="124.960879" y="69.736287" style="fill: #1f77b4; fill-opacity: 0.5; stroke: #1f77b4; stroke-opacity: 0.5"/>
     <use xlink:href="#m8292ccbc0a" x="101.942102" y="63.016333" style="fill: #1f77b4; fill-opacity: 0.5; stroke: #1f77b4; stroke-opacity: 0.5"/>
     <use xlink:href="#m8292ccbc0a" x="121.729198" y="54.669731" style="fill: #1f77b4; fill-opacity: 0.5; stroke: #1f77b4; stroke-opacity: 0.5"/>
     <use xlink:href="#m8292ccbc0a" x="119.944472" y="59.665325" style="fill: #1f77b4; fill-opacity: 0.5; stroke: #1f77b4; stroke-opacity: 0.5"/>
     <use xlink:href="#m8292ccbc0a" x="118.344168" y="55.117686" style="fill: #1f77b4; fill-opacity: 0.5; stroke: #1f77b4; stroke-opacity: 0.5"/>
     <use xlink:href="#m8292ccbc0a" x="119.920735" y="54.528188" style="fill: #1f77b4; fill-opacity: 0.5; stroke: #1f77b4; stroke-opacity: 0.5"/>
     <use xlink:href="#m8292ccbc0a" x="120.853262" y="62.517504" style="fill: #1f77b4; fill-opacity: 0.5; stroke: #1f77b4; stroke-opacity: 0.5"/>
     <use xlink:href="#m8292ccbc0a" x="121.760105" y="63.01385" style="fill: #1f77b4; fill-opacity: 0.5; stroke: #1f77b4; stroke-opacity: 0.5"/>
     <use xlink:href="#m8292ccbc0a" x="171.832436" y="31.630935" style="fill: #1f77b4; fill-opacity: 0.5; stroke: #1f77b4; stroke-opacity: 0.5"/>
     <use xlink:href="#m8292ccbc0a" x="212.457906" y="56.838223" style="fill: #1f77b4; fill-opacity: 0.5; stroke: #1f77b4; stroke-opacity: 0.5"/>
     <use xlink:href="#m8292ccbc0a" x="227.553449" y="120.213135" style="fill: #1f77b4; fill-opacity: 0.5; stroke: #1f77b4; stroke-opacity: 0.5"/>
     <use xlink:href="#m8292ccbc0a" x="206.169096" y="108.426191" style="fill: #1f77b4; fill-opacity: 0.5; stroke: #1f77b4; stroke-opacity: 0.5"/>
     <use xlink:href="#m8292ccbc0a" x="267.491945" y="100.865676" style="fill: #1f77b4; fill-opacity: 0.5; stroke: #1f77b4; stroke-opacity: 0.5"/>
     <use xlink:href="#m8292ccbc0a" x="240.480697" y="114.935057" style="fill: #1f77b4; fill-opacity: 0.5; stroke: #1f77b4; stroke-opacity: 0.5"/>
     <use xlink:href="#m8292ccbc0a" x="243.469652" y="104.885939" style="fill: #1f77b4; fill-opacity: 0.5; stroke: #1f77b4; stroke-opacity: 0.5"/>
     <use xlink:href="#m8292ccbc0a" x="226.701328" y="95.019521" style="fill: #1f77b4; fill-opacity: 0.5; stroke: #1f77b4; stroke-opacity: 0.5"/>
     <use xlink:href="#m8292ccbc0a" x="151.824255" y="61.667293" style="fill: #1f77b4; fill-opacity: 0.5; stroke: #1f77b4; stroke-opacity: 0.5"/>
     <use xlink:href="#m8292ccbc0a" x="153.003268" y="61.575455" style="fill: #1f77b4; fill-opacity: 0.5; stroke: #1f77b4; stroke-opacity: 0.5"/>
     <use xlink:href="#m8292ccbc0a" x="150.583149" y="55.342523" style="fill: #1f77b4; fill-opacity: 0.5; stroke: #1f77b4; stroke-opacity: 0.5"/>
     <use xlink:href="#m8292ccbc0a" x="143.753085" y="58.231091" style="fill: #1f77b4; fill-opacity: 0.5; stroke: #1f77b4; stroke-opacity: 0.5"/>
     <use xlink:href="#m8292ccbc0a" x="204.973018" y="54.798913" style="fill: #1f77b4; fill-opacity: 0.5; stroke: #1f77b4; stroke-opacity: 0.5"/>
     <use xlink:href="#m8292ccbc0a" x="176.32919" y="40.488558" style="fill: #1f77b4; fill-opacity: 0.5; stroke: #1f77b4; stroke-opacity: 0.5"/>
     <use xlink:href="#m8292ccbc0a" x="186.498678" y="57.7097" style="fill: #1f77b4; fill-opacity: 0.5; stroke: #1f77b4; stroke-opacity: 0.5"/>
     <use xlink:href="#m8292ccbc0a" x="189.110325" y="48.853596" style="fill: #1f77b4; fill-opacity: 0.5; stroke: #1f77b4; stroke-opacity: 0.5"/>
     <use xlink:href="#m8292ccbc0a" x="189.115353" y="51.252455" style="fill: #1f77b4; fill-opacity: 0.5; stroke: #1f77b4; stroke-opacity: 0.5"/>
     <use xlink:href="#m8292ccbc0a" x="190.189666" y="50.851649" style="fill: #1f77b4; fill-opacity: 0.5; stroke: #1f77b4; stroke-opacity: 0.5"/>
     <use xlink:href="#m8292ccbc0a" x="191.37687" y="46.959473" style="fill: #1f77b4; fill-opacity: 0.5; stroke: #1f77b4; stroke-opacity: 0.5"/>
     <use xlink:href="#m8292ccbc0a" x="138.476756" y="162.276444" style="fill: #1f77b4; fill-opacity: 0.5; stroke: #1f77b4; stroke-opacity: 0.5"/>
    </g>
   </g>
   <g id="text_1">
    <text style="font: 12px 'DejaVu Sans', 'Bitstream Vera Sans', 'Computer Modern Sans Serif', 'Lucida Grande', 'Verdana', 'Geneva', 'Lucid', 'Arial', 'Helvetica', 'Avant Garde', sans-serif; text-anchor: middle" x="146.7" y="16.318125" transform="rotate(-0 146.7 16.318125)">-dorf 69x</text>
   </g>
  </g>
 </g>
 <defs>
  <clipPath id="p5e95659682">
   <rect x="7.2" y="22.318125" width="279" height="179.551529"/>
  </clipPath>
 </defs>
</svg>
