<?xml version="1.0" encoding="utf-8" standalone="no"?>
<!DOCTYPE svg PUBLIC "-//W3C//DTD SVG 1.1//EN"
  "http://www.w3.org/Graphics/SVG/1.1/DTD/svg11.dtd">
<svg xmlns:xlink="http://www.w3.org/1999/xlink" width="293.4pt" height="210.020433pt" viewBox="0 0 293.4 210.020433" xmlns="http://www.w3.org/2000/svg" version="1.1">
 <metadata>
  <rdf:RDF xmlns:dc="http://purl.org/dc/elements/1.1/" xmlns:cc="http://creativecommons.org/ns#" xmlns:rdf="http://www.w3.org/1999/02/22-rdf-syntax-ns#">
   <cc:Work>
    <dc:type rdf:resource="http://purl.org/dc/dcmitype/StillImage"/>
    <dc:date>2024-08-06T14:07:34.612778</dc:date>
    <dc:format>image/svg+xml</dc:format>
    <dc:creator>
     <cc:Agent>
      <dc:title>Matplotlib v3.9.1, https://matplotlib.org/</dc:title>
     </cc:Agent>
    </dc:creator>
   </cc:Work>
  </rdf:RDF>
 </metadata>
 <defs>
  <style type="text/css">*{stroke-linejoin: round; stroke-linecap: butt}</style>
 </defs>
 <g id="figure_1">
  <g id="patch_1">
   <path d="M 0 210.020433 
L 293.4 210.020433 
L 293.4 0 
L 0 0 
z
" style="fill: #ffffff"/>
  </g>
  <g id="axes_1">
   <g id="PatchCollection_1">
    <defs>
     <path id="m9a6254166e" d="M 272.797731 -101.882744 
L 272.501417 -99.215226 
L 272.298064 -98.470205 
L 271.966889 -97.943553 
L 270.740961 -96.449229 
L 270.845543 -95.216091 
L 271.246439 -94.010784 
L 271.385881 -92.869703 
L 270.706101 -91.82282 
L 269.753247 -91.20411 
L 269.526653 -90.446244 
L 269.578944 -89.502123 
L 269.456932 -88.326788 
L 268.916594 -87.348413 
L 268.306535 -86.759675 
L 268.039272 -85.971837 
L 268.509888 -84.387597 
L 269.526653 -83.188712 
L 271.920408 -82.927527 
L 273.094046 -81.925602 
L 273.518182 -80.328517 
L 273.477511 -78.189793 
L 273.030135 -76.136704 
L 272.686514 -75.557087 
L 272.245773 -74.813649 
L 271.229008 -74.614549 
L 267.202619 -75.691404 
L 265.24462 -75.503008 
L 264.52417 -75.622896 
L 263.890871 -75.920476 
L 263.536455 -76.30155 
L 263.240141 -76.719019 
L 262.798575 -77.11722 
L 260.480351 -77.926467 
L 260.230517 -78.82563 
L 260.538451 -80.527617 
L 260.42806 -81.463175 
L 259.533307 -82.208196 
L 258.086596 -82.195351 
L 252.764558 -80.638942 
L 252.22422 -80.33708 
L 251.980196 -79.724793 
L 251.288796 -77.023022 
L 250.823989 -76.389326 
L 249.609681 -75.156188 
L 249.127444 -74.41973 
L 249.051913 -73.82457 
L 249.040293 -72.004835 
L 248.796269 -71.122798 
L 248.86599 -70.356369 
L 248.999622 -69.754786 
L 249.272696 -69.290218 
L 249.760744 -68.951961 
L 248.767219 -67.234988 
L 249.650352 -66.113175 
L 251.300416 -65.45807 
L 253.816183 -64.961389 
L 254.786467 -64.563188 
L 255.198983 -63.642617 
L 254.774847 -61.835727 
L 254.368141 -61.279102 
L 253.188694 -60.200106 
L 252.764558 -59.395141 
L 252.479863 -58.273328 
L 252.445003 -57.515461 
L 252.671596 -56.817539 
L 253.182884 -55.892686 
L 255.501108 -53.482072 
L 256.221558 -52.004875 
L 255.483677 -50.420635 
L 253.914954 -49.410147 
L 251.54444 -48.489575 
L 249.685212 -48.528111 
L 249.638732 -50.399227 
L 249.069343 -51.807916 
L 246.849891 -53.820329 
L 246.024859 -54.959269 
L 245.658823 -56.774722 
L 245.635583 -58.414625 
L 245.263738 -59.76337 
L 243.857697 -60.70535 
L 242.70149 -61.011494 
L 241.609194 -61.094987 
L 239.157338 -60.664674 
L 235.415643 -58.703641 
L 234.247816 -58.316145 
L 233.527365 -58.474569 
L 232.156185 -59.31807 
L 231.551937 -59.333056 
L 230.941878 -58.628711 
L 230.831486 -57.682449 
L 230.918637 -56.742609 
L 230.895397 -56.089645 
L 230.035504 -54.873634 
L 228.978069 -54.436898 
L 222.534684 -54.513969 
L 221.227415 -55.002086 
L 220.036348 -55.82846 
L 219.321707 -56.834666 
L 218.200361 -59.823314 
L 217.700693 -60.242923 
L 216.457335 -60.947268 
L 216.050629 -61.354032 
L 215.940238 -61.8186 
L 216.021579 -63.08171 
L 215.684594 -71.0286 
L 215.504481 -71.54883 
L 215.062915 -71.44821 
L 214.156542 -70.767415 
L 213.773076 -70.238621 
L 213.575533 -69.649883 
L 213.302459 -69.153203 
L 212.6924 -68.904862 
L 212.268264 -69.093258 
L 210.833173 -70.484821 
L 210.792502 -71.510295 
L 209.676966 -71.812157 
L 206.940416 -71.469618 
L 205.86555 -70.454848 
L 204.889456 -68.459562 
L 204.447889 -66.430023 
L 204.988227 -65.31035 
L 205.737728 -64.781557 
L 205.84812 -63.950901 
L 205.702868 -62.906159 
L 205.708678 -61.722261 
L 206.463989 -58.782853 
L 206.53952 -57.716703 
L 206.190915 -55.892686 
L 204.546661 -52.381668 
L 203.710008 -49.414429 
L 203.198721 -48.57521 
L 202.547991 -47.954359 
L 201.874021 -47.628948 
L 201.263962 -47.166521 
L 200.950218 -46.344429 
L 200.688764 -45.389603 
L 200.277789 -44.592583 
L 200.247198 -44.533257 
L 196.162708 -41.707316 
L 195.122702 -40.11023 
L 194.901919 -39.039798 
L 195.023931 -37.172964 
L 194.843818 -36.153912 
L 194.396442 -35.378919 
L 193.861914 -35.057789 
L 192.630176 -34.659589 
L 191.189275 -33.516367 
L 190.945251 -32.574386 
L 191.944586 -29.6885 
L 190.096979 -27.937273 
L 189.974967 -27.73175 
L 189.934296 -27.517664 
L 189.974967 -27.307859 
L 190.096979 -27.098054 
L 190.701228 -26.46864 
L 191.166034 -24.961471 
L 191.677322 -24.182196 
L 192.22347 -23.861066 
L 193.449398 -23.608444 
L 193.978116 -23.261624 
L 194.617225 -21.887189 
L 194.402252 -20.4785 
L 193.002021 -17.673967 
L 191.206705 -15.40465 
L 189.51597 -15.730062 
L 187.674173 -16.573563 
L 185.448911 -15.875641 
L 185.658074 -17.151596 
L 185.995059 -18.136394 
L 186.221652 -19.164009 
L 186.128691 -20.598388 
L 185.814946 -21.681666 
L 185.344329 -22.764944 
L 184.368235 -24.550425 
L 183.816277 -25.873479 
L 183.450241 -26.400132 
L 183.072586 -26.704135 
L 179.847988 -28.481053 
L 178.988096 -28.793619 
L 178.023622 -28.857845 
L 178.116583 -29.080495 
L 178.331556 -29.478696 
L 179.319271 -31.807957 
L 180.928664 -33.816088 
L 181.759507 -35.759993 
L 180.330226 -37.695335 
L 179.481953 -37.999338 
L 177.756358 -37.95652 
L 176.855795 -38.084972 
L 176.425848 -38.384693 
L 176.013332 -39.159686 
L 175.834808 -39.227113 
L 175.548525 -39.335237 
L 175.19992 -39.16825 
L 174.328408 -38.37613 
L 173.927512 -38.144917 
L 172.939797 -38.196297 
L 170.319449 -39.76341 
L 169.232963 -40.148766 
L 168.686815 -40.435642 
L 165.136853 -45.804931 
L 163.539079 -47.483369 
L 161.987787 -48.284052 
L 160.517835 -48.887776 
L 159.48364 -49.761249 
L 158.867771 -51.092867 
L 158.646988 -53.113843 
L 158.83872 -55.246145 
L 159.750904 -59.538579 
L 159.942637 -61.925643 
L 159.913586 -64.426173 
L 159.681183 -66.297289 
L 158.908441 -67.436229 
L 157.293238 -67.725246 
L 156.548421 -67.5618 
L 154.161602 -67.038028 
L 152.633549 -66.190246 
L 151.436672 -64.897163 
L 150.966055 -63.845999 
L 151.181028 -63.494897 
L 151.552874 -63.20588 
L 151.576114 -62.366661 
L 151.239129 -61.608795 
L 150.681361 -60.925859 
L 150.036441 -60.422756 
L 148.444478 -59.600664 
L 145.678878 -55.875559 
L 144.51686 -55.049185 
L 142.076625 -54.49256 
L 140.862317 -53.918809 
L 139.764211 -52.779868 
L 139.200633 -51.970622 
L 138.962419 -51.2727 
L 139.159962 -50.95157 
L 140.473041 -49.782658 
L 142.134726 -46.502853 
L 142.291598 -43.462825 
L 141.07148 -40.77818 
L 138.613814 -38.594498 
L 138.003755 -38.384693 
L 136.841738 -38.256241 
L 136.27816 -37.810942 
L 135.877264 -36.958877 
L 135.755252 -36.008333 
L 135.749442 -35.079198 
L 135.453128 -32.719965 
L 135.348546 -32.552978 
L 134.802398 -31.319839 
L 134.761727 -31.140007 
L 134.058707 -30.202308 
L 133.657811 -29.85977 
L 133.117473 -29.6885 
L 129.131755 -28.763647 
L 128.320962 -28.094143 
L 127.7102 -26.893877 
L 127.55751 -25.318529 
L 126.400518 -25.264045 
L 126.331294 -25.128458 
L 126.156991 -24.276394 
L 126.203472 -23.843939 
L 126.06984 -23.565627 
L 125.36682 -23.171708 
L 125.041455 -23.188835 
L 124.03631 -23.505683 
L 122.490828 -23.475711 
L 119.789138 -24.490481 
L 119.23718 -24.426255 
L 118.813044 -24.220732 
L 118.342427 -24.105125 
L 117.651027 -24.349184 
L 117.569685 -24.558988 
L 116.51225 -26.143228 
L 115.669788 -26.948193 
L 114.786655 -27.470564 
L 109.057911 -28.943479 
L 108.116677 -28.442517 
L 107.570529 -27.500537 
L 106.95466 -26.674163 
L 105.775213 -26.52002 
L 104.101908 -25.775 
L 100.778539 -23.274469 
L 98.977413 -22.623647 
L 94.753481 -23.086073 
L 94.0156 -22.824888 
L 92.435257 -21.818681 
L 88.966636 -20.35433 
L 87.270091 -20.028918 
L 85.434104 -19.994664 
L 83.708509 -20.358612 
L 82.40124 -21.163577 
L 79.879663 -24.066589 
L 79.490387 -24.734539 
L 79.188263 -25.569477 
L 78.793177 -27.085209 
L 78.148257 -28.806464 
L 77.944904 -29.6885 
L 77.67183 -29.876897 
L 73.866225 -34.287078 
L 72.588006 -34.865112 
L 72.117389 -34.668152 
L 71.716493 -34.244261 
L 71.286547 -33.910286 
L 70.752019 -33.987357 
L 70.258162 -34.372713 
L 70.223301 -34.629616 
L 70.339503 -34.976437 
L 70.316263 -35.618696 
L 70.397604 -35.700049 
L 70.380174 -36.564958 
L 70.281402 -37.38705 
L 70.12453 -37.305697 
L 70.380174 -37.733871 
L 70.83336 -38.299059 
L 71.228446 -38.932755 
L 71.286547 -39.566451 
L 70.426654 -40.418515 
L 65.952889 -41.429003 
L 65.464841 -42.820565 
L 65.981939 -45.659352 
L 66.958033 -48.626591 
L 68.950893 -52.587191 
L 67.672674 -54.835099 
L 65.679815 -56.995231 
L 64.604949 -58.887756 
L 64.907073 -59.844722 
L 66.388645 -61.617358 
L 66.789541 -63.004639 
L 66.726476 -63.816848 
L 66.667529 -64.576034 
L 66.142326 -65.399284 
L 65.296349 -65.826299 
L 56.921111 -68.03353 
L 53.173606 -68.15556 
L 49.571353 -67.427666 
L 44.778033 -64.079353 
L 42.953666 -63.604081 
L 41.106059 -63.516305 
L 39.374654 -62.944695 
L 37.550287 -61.332623 
L 35.946704 -59.172491 
L 34.761446 -57.528307 
L 34.459322 -56.39793 
L 34.691725 -55.571556 
L 35.208823 -54.162867 
L 35.237873 -53.828892 
L 35.778211 -52.458739 
L 36.016425 -52.107637 
L 36.603243 -51.795071 
L 37.544477 -52.236089 
L 37.939563 -52.060538 
L 38.230067 -50.150886 
L 36.777546 -48.579492 
L 33.181103 -46.143188 
L 30.310921 -42.704959 
L 28.486554 -41.745851 
L 26.575036 -42.619324 
L 24.012789 -42.516562 
L 21.462161 -41.895712 
L 20.108412 -41.069338 
L 20.857912 -42.867664 
L 21.287859 -43.702602 
L 21.462161 -44.413369 
L 20.468637 -45.689324 
L 19.881818 -46.823982 
L 20.090981 -47.821625 
L 21.462161 -48.712225 
L 24.832011 -50.399227 
L 24.924972 -50.429199 
L 25.017933 -50.437762 
L 25.122515 -50.429199 
L 25.564081 -50.28362 
L 25.901066 -50.240803 
L 26.226431 -50.279338 
L 27.463979 -50.673257 
L 27.708003 -51.225601 
L 27.655712 -51.99203 
L 27.684763 -52.886912 
L 28.085658 -55.233299 
L 28.271581 -55.879841 
L 29.089878 -57.748693 
L 30.090138 -60.033118 
L 30.014607 -60.949409 
L 29.329017 -62.203955 
L 28.503985 -63.111682 
L 25.740097 -64.842217 
L 25.47112 -65.010629 
L 26.11604 -65.640043 
L 26.220621 -66.185964 
L 26.104419 -66.746871 
L 26.104419 -67.378426 
L 26.063749 -67.633189 
L 25.930117 -67.975727 
L 25.808105 -68.365364 
L 25.808105 -68.789256 
L 26.028888 -69.2945 
L 26.667998 -69.996703 
L 28.625996 -73.413524 
L 30.613046 -75.965434 
L 29.253486 -77.511139 
L 29.079183 -78.60298 
L 29.834494 -79.609186 
L 37.393415 -86.631223 
L 41.419804 -88.872709 
L 41.977572 -89.350121 
L 43.459144 -91.043545 
L 45.324181 -92.04547 
L 45.91681 -92.492911 
L 46.550109 -93.297876 
L 46.765082 -93.985094 
L 46.741842 -95.383078 
L 46.323516 -95.849787 
L 46.027202 -96.256551 
L 45.870329 -96.72326 
L 45.95167 -97.125742 
L 46.834803 -99.821091 
L 47.224079 -100.533999 
L 47.332569 -100.807907 
L 47.537824 -101.326119 
L 47.630785 -102.473623 
L 47.450672 -103.389913 
L 46.701171 -104.832856 
L 46.468768 -105.582158 
L 47.30542 -108.489453 
L 50.03035 -110.082256 
L 56.078649 -112.000471 
L 59.829059 -114.879934 
L 61.113088 -116.748909 
L 60.439118 -118.28605 
L 61.194429 -119.602682 
L 61.723147 -120.127194 
L 63.134997 -120.63672 
L 63.34416 -121.163373 
L 63.553323 -121.308951 
L 64.360925 -121.728561 
L 64.291204 -123.145813 
L 65.976129 -123.736692 
L 69.535563 -127.04662 
L 69.659723 -127.162076 
L 70.728779 -128.934712 
L 72.361413 -130.623854 
L 76.178639 -133.43481 
L 75.952045 -135.49004 
L 76.312271 -137.189887 
L 77.369706 -138.281728 
L 77.880993 -138.345954 
L 78.183118 -138.465842 
L 79.00234 -139.576951 
L 79.589159 -139.92163 
L 80.164357 -140.080054 
L 80.693075 -140.418311 
L 81.128831 -141.328178 
L 80.542013 -142.169538 
L 79.69955 -142.935968 
L 78.862898 -143.618904 
L 77.828703 -143.120082 
L 71.141295 -142.460696 
L 71.420179 -143.520424 
L 72.117389 -144.815647 
L 72.948231 -145.903207 
L 74.394942 -146.755271 
L 74.482094 -148.318102 
L 75.957855 -148.647795 
L 76.870039 -149.174448 
L 77.706691 -149.887356 
L 78.130827 -150.585278 
L 77.857753 -151.572216 
L 77.276745 -152.717579 
L 77.137303 -153.640292 
L 78.183118 -153.959281 
L 78.682785 -154.351059 
L 79.188263 -154.481652 
L 79.69955 -154.351059 
L 80.210838 -153.959281 
L 81.669169 -153.747335 
L 84.46963 -154.235452 
L 85.79433 -153.959281 
L 86.5264 -153.53753 
L 86.630465 -153.520885 
L 87.275901 -153.417642 
L 88.803954 -153.571784 
L 87.781379 -151.221115 
L 88.100933 -149.868088 
L 89.321051 -149.135912 
L 90.971115 -148.617823 
L 91.203519 -148.431568 
L 91.360391 -148.133988 
L 91.586985 -147.834267 
L 92.022741 -147.650152 
L 92.400396 -147.727223 
L 94.526888 -148.652077 
L 96.014269 -148.964643 
L 97.579131 -148.897715 
L 99.918647 -148.797656 
L 100.462385 -149.016629 
L 101.48156 -149.42707 
L 102.280648 -150.472267 
L 102.591286 -150.878576 
L 102.771398 -151.653569 
L 102.678437 -152.120278 
L 102.405363 -152.507774 
L 102.21944 -152.709016 
L 101.934746 -153.220682 
L 101.928936 -153.730208 
L 102.585476 -153.922886 
L 103.456989 -153.618883 
L 103.710372 -153.457347 
L 104.189059 -153.152175 
L 104.91532 -153.045132 
L 105.775213 -153.820125 
L 105.873984 -153.959281 
L 105.949515 -154.194776 
L 105.955325 -154.411003 
L 105.946663 -154.441963 
L 105.897224 -154.618667 
L 105.496328 -155.181715 
L 105.374317 -155.515689 
L 105.449848 -155.776875 
L 105.775213 -155.952426 
L 106.356221 -155.828256 
L 106.809408 -155.978116 
L 107.053431 -156.451248 
L 107.036001 -157.279762 
L 106.844268 -157.27548 
L 105.908844 -157.990529 
L 105.775213 -158.046192 
L 107.919309 -159.798516 
L 108.227068 -160.050041 
L 109.575008 -160.799344 
L 111.551776 -161.54373 
L 111.58245 -161.555281 
L 114.44967 -162.413556 
L 115.722078 -162.54629 
L 114.984198 -160.471792 
L 114.385759 -159.895899 
L 113.061425 -159.907472 
L 112.915807 -159.908744 
L 115.004462 -158.806656 
L 115.82085 -158.375885 
L 117.058398 -158.211038 
L 119.52532 -158.721926 
L 121.741327 -159.18085 
L 122.798762 -159.780292 
L 123.693515 -160.848584 
L 124.71609 -162.443528 
L 125.506262 -162.041046 
L 129.131755 -161.822677 
L 129.47455 -161.467294 
L 129.654663 -160.69016 
L 129.765054 -159.913026 
L 129.916116 -159.561924 
L 137.231014 -159.561924 
L 139.758401 -160.127112 
L 140.304549 -160.497482 
L 140.554382 -160.857147 
L 140.780976 -161.276757 
L 141.257403 -161.822677 
L 141.716399 -162.178061 
L 142.936517 -162.835306 
L 143.964902 -163.14145 
L 144.348368 -163.546073 
L 144.627252 -163.950697 
L 144.917756 -164.139093 
L 147.950621 -164.648619 
L 148.967386 -164.652901 
L 150.425717 -164.207601 
L 151.076447 -164.139093 
L 151.378571 -163.779428 
L 151.680695 -162.980885 
L 152.075781 -162.182343 
L 152.627739 -161.822677 
L 154.760041 -161.257489 
L 158.356483 -161.23608 
L 158.526853 -161.26473 
L 160.087889 -161.527238 
L 160.15761 -161.921157 
L 160.814149 -163.33841 
L 162.533935 -164.473068 
L 164.218859 -164.644337 
L 165.084562 -163.83509 
L 165.752722 -162.713277 
L 165.869721 -162.569841 
L 166.374401 -161.951129 
L 167.129712 -162.203751 
L 167.25186 -162.417363 
L 167.495747 -162.84387 
L 167.559658 -163.464721 
L 167.530608 -164.053458 
L 167.600329 -164.618647 
L 167.577089 -164.903382 
L 167.443457 -165.226652 
L 167.350495 -165.603445 
L 167.478317 -166.06159 
L 167.68167 -166.237141 
L 167.977984 -166.348466 
L 168.222008 -166.357029 
L 168.274299 -166.224295 
L 168.309159 -165.71477 
L 168.675195 -165.530655 
L 168.994749 -167.493828 
L 168.483462 -167.543068 
L 168.223459 -167.64938 
L 167.582899 -167.911297 
L 166.798537 -168.044031 
L 164.067797 -167.581604 
L 163.225335 -167.159853 
L 162.446783 -166.605369 
L 161.615941 -166.177196 
L 160.616607 -166.134379 
L 159.45459 -166.793765 
L 158.013688 -167.887747 
L 157.734804 -167.930565 
L 156.851671 -168.253835 
L 157.211897 -169.150858 
L 157.072455 -169.857343 
L 156.834241 -170.463208 
L 156.898152 -171.075495 
L 157.45011 -171.702768 
L 158.873581 -172.479902 
L 159.47202 -173.036527 
L 159.896156 -174.693557 
L 160.15761 -175.297281 
L 160.918731 -176.41053 
L 161.360297 -176.671716 
L 161.987787 -176.654589 
L 165.014841 -177.254031 
L 165.863113 -177.682204 
L 165.340206 -178.988131 
L 166.234959 -179.497657 
L 167.635189 -179.420586 
L 168.675195 -178.953878 
L 168.762346 -178.350154 
L 168.814637 -177.279721 
L 169.01218 -176.273515 
L 169.564138 -175.86461 
L 170.261348 -176.318473 
L 170.551852 -178.125363 
L 171.06314 -178.656297 
L 171.7894 -178.416521 
L 172.329738 -177.600851 
L 172.771305 -176.641744 
L 173.189631 -175.982357 
L 173.770639 -175.851765 
L 174.392318 -175.980216 
L 174.944277 -175.873173 
L 175.316122 -175.036095 
L 175.16506 -174.723529 
L 174.415559 -173.603856 
L 174.229636 -173.062218 
L 174.46785 -172.385704 
L 174.915226 -171.835502 
L 175.054668 -171.203947 
L 175.16506 -170.664449 
L 178.134013 -170.707266 
L 177.675017 -171.218933 
L 178.180494 -172.843849 
L 179.691116 -172.775342 
L 181.527103 -171.711332 
L 182.979624 -170.343319 
L 181.945429 -170.103542 
L 181.951239 -169.52765 
L 182.746664 -168.735891 
L 182.787892 -168.694853 
L 184.420525 -167.480983 
L 185.797516 -167.121318 
L 187.999538 -167.328982 
L 190.044688 -167.979805 
L 190.939441 -168.947475 
L 192.002687 -169.367085 
L 198.271769 -168.664881 
L 201.380164 -168.664881 
L 202.141285 -167.480983 
L 204.244536 -167.483124 
L 206.429128 -166.980021 
L 221.847513 -157.406535 
L 222.161025 -155.94364 
L 222.26742 -155.447182 
L 223.929105 -152.946652 
L 226.020735 -151.991826 
L 227.630129 -150.574574 
L 227.583648 -147.063555 
L 227.0375 -145.804727 
L 224.858718 -143.049434 
L 224.597265 -142.306554 
L 224.30676 -140.846484 
L 224.091787 -140.277014 
L 222.174459 -137.960598 
L 220.367523 -134.890598 
L 219.437909 -133.31064 
L 218.467625 -130.516811 
L 218.333993 -127.727264 
L 218.763939 -126.357111 
L 219.373998 -125.162508 
L 219.844615 -123.835172 
L 219.873665 -122.066818 
L 219.339137 -120.962131 
L 218.479245 -120.071532 
L 217.822705 -119.183073 
L 217.886616 -118.41022 
L 219.153215 -118.033428 
L 222.586975 -117.457536 
L 223.743182 -117.827905 
L 224.794807 -117.547452 
L 227.740521 -117.915681 
L 228.681754 -117.772243 
L 239.30259 -114.39824 
L 239.209629 -113.454118 
L 239.447842 -113.248595 
L 239.796447 -113.276427 
L 240.011421 -113.019523 
L 240.011421 -112.531406 
L 239.779017 -111.739286 
L 239.639575 -109.79538 
L 239.459462 -108.90264 
L 239.552424 -108.125506 
L 240.267064 -107.102172 
L 241.661485 -106.023177 
L 247.674923 -104.064285 
L 249.847895 -101.976942 
L 251.114493 -101.236203 
L 253.543109 -100.448365 
L 254.323827 -100.418159 
L 254.705126 -100.403406 
L 256.157647 -100.820875 
L 258.609503 -102.081844 
L 259.184702 -102.927486 
L 259.335764 -103.561182 
L 259.382245 -104.259104 
L 259.649508 -105.308128 
L 260.503591 -106.761775 
L 261.415774 -106.933044 
L 262.50807 -106.644027 
L 263.908301 -106.710394 
L 263.937351 -108.258239 
L 264.919256 -110.159327 
L 266.336917 -111.79923 
L 267.969551 -112.743351 
L 268.277485 -112.805436 
L 268.59123 -112.743351 
L 268.887544 -112.548533 
L 268.893354 -112.548533 
L 268.893354 -112.535687 
L 269.474363 -111.906273 
L 270.648 -110.000903 
L 272.559518 -108.468044 
L 273.059185 -107.86432 
L 273.361309 -106.466336 
L 272.664099 -103.651098 
L 272.797731 -101.882744 
" style="stroke: #aaaaaa"/>
    </defs>
    <g clip-path="url(#p4ab1e33011)">
     <use xlink:href="#m9a6254166e" x="0" y="210.020433" style="fill: #aaaaaa; stroke: #aaaaaa"/>
    </g>
   </g>
   <g id="PathCollection_1">
    <defs>
     <path id="mbdce935bda" d="M 0 1.581139 
C 0.419323 1.581139 0.821528 1.41454 1.118034 1.118034 
C 1.41454 0.821528 1.581139 0.419323 1.581139 0 
C 1.581139 -0.419323 1.41454 -0.821528 1.118034 -1.118034 
C 0.821528 -1.41454 0.419323 -1.581139 0 -1.581139 
C -0.419323 -1.581139 -0.821528 -1.41454 -1.118034 -1.118034 
C -1.41454 -0.821528 -1.581139 -0.419323 -1.581139 0 
C -1.581139 0.419323 -1.41454 0.821528 -1.118034 1.118034 
C -0.821528 1.41454 -0.419323 1.581139 0 1.581139 
z
" style="stroke: #1f77b4; stroke-opacity: 0.5"/>
    </defs>
    <g clip-path="url(#p4ab1e33011)">
     <use xlink:href="#mbdce935bda" x="176.749845" y="48.681691" style="fill: #1f77b4; fill-opacity: 0.5; stroke: #1f77b4; stroke-opacity: 0.5"/>
     <use xlink:href="#mbdce935bda" x="179.249002" y="43.243197" style="fill: #1f77b4; fill-opacity: 0.5; stroke: #1f77b4; stroke-opacity: 0.5"/>
     <use xlink:href="#mbdce935bda" x="180.096298" y="44.834691" style="fill: #1f77b4; fill-opacity: 0.5; stroke: #1f77b4; stroke-opacity: 0.5"/>
     <use xlink:href="#mbdce935bda" x="115.902995" y="92.453369" style="fill: #1f77b4; fill-opacity: 0.5; stroke: #1f77b4; stroke-opacity: 0.5"/>
     <use xlink:href="#mbdce935bda" x="116.588808" y="111.001894" style="fill: #1f77b4; fill-opacity: 0.5; stroke: #1f77b4; stroke-opacity: 0.5"/>
     <use xlink:href="#mbdce935bda" x="122.269282" y="97.637019" style="fill: #1f77b4; fill-opacity: 0.5; stroke: #1f77b4; stroke-opacity: 0.5"/>
     <use xlink:href="#mbdce935bda" x="112.589985" y="114.236639" style="fill: #1f77b4; fill-opacity: 0.5; stroke: #1f77b4; stroke-opacity: 0.5"/>
     <use xlink:href="#mbdce935bda" x="117.740245" y="79.135443" style="fill: #1f77b4; fill-opacity: 0.5; stroke: #1f77b4; stroke-opacity: 0.5"/>
     <use xlink:href="#mbdce935bda" x="135.738443" y="99.134734" style="fill: #1f77b4; fill-opacity: 0.5; stroke: #1f77b4; stroke-opacity: 0.5"/>
     <use xlink:href="#mbdce935bda" x="166.468343" y="79.997297" style="fill: #1f77b4; fill-opacity: 0.5; stroke: #1f77b4; stroke-opacity: 0.5"/>
     <use xlink:href="#mbdce935bda" x="113.949814" y="55.793464" style="fill: #1f77b4; fill-opacity: 0.5; stroke: #1f77b4; stroke-opacity: 0.5"/>
     <use xlink:href="#mbdce935bda" x="163.202201" y="35.904823" style="fill: #1f77b4; fill-opacity: 0.5; stroke: #1f77b4; stroke-opacity: 0.5"/>
     <use xlink:href="#mbdce935bda" x="175.114596" y="33.921493" style="fill: #1f77b4; fill-opacity: 0.5; stroke: #1f77b4; stroke-opacity: 0.5"/>
     <use xlink:href="#mbdce935bda" x="202.30907" y="67.235212" style="fill: #1f77b4; fill-opacity: 0.5; stroke: #1f77b4; stroke-opacity: 0.5"/>
     <use xlink:href="#mbdce935bda" x="209.120221" y="89.848088" style="fill: #1f77b4; fill-opacity: 0.5; stroke: #1f77b4; stroke-opacity: 0.5"/>
     <use xlink:href="#mbdce935bda" x="205.860864" y="94.044433" style="fill: #1f77b4; fill-opacity: 0.5; stroke: #1f77b4; stroke-opacity: 0.5"/>
     <use xlink:href="#mbdce935bda" x="139.955761" y="60.378757" style="fill: #1f77b4; fill-opacity: 0.5; stroke: #1f77b4; stroke-opacity: 0.5"/>
     <use xlink:href="#mbdce935bda" x="143.03451" y="61.256234" style="fill: #1f77b4; fill-opacity: 0.5; stroke: #1f77b4; stroke-opacity: 0.5"/>
     <use xlink:href="#mbdce935bda" x="142.63037" y="65.806196" style="fill: #1f77b4; fill-opacity: 0.5; stroke: #1f77b4; stroke-opacity: 0.5"/>
     <use xlink:href="#mbdce935bda" x="135.039757" y="72.3662" style="fill: #1f77b4; fill-opacity: 0.5; stroke: #1f77b4; stroke-opacity: 0.5"/>
     <use xlink:href="#mbdce935bda" x="150.134567" y="47.278284" style="fill: #1f77b4; fill-opacity: 0.5; stroke: #1f77b4; stroke-opacity: 0.5"/>
     <use xlink:href="#mbdce935bda" x="191.37687" y="47.089956" style="fill: #1f77b4; fill-opacity: 0.5; stroke: #1f77b4; stroke-opacity: 0.5"/>
     <use xlink:href="#mbdce935bda" x="191.840207" y="48.01597" style="fill: #1f77b4; fill-opacity: 0.5; stroke: #1f77b4; stroke-opacity: 0.5"/>
    </g>
   </g>
   <g id="text_1">
    <text style="font: 12px 'DejaVu Sans', 'Bitstream Vera Sans', 'Computer Modern Sans Serif', 'Lucida Grande', 'Verdana', 'Geneva', 'Lucid', 'Arial', 'Helvetica', 'Avant Garde', sans-serif; text-anchor: middle" x="146.7" y="16.318125" transform="rotate(-0 146.7 16.318125)">-heim 23x</text>
   </g>
  </g>
 </g>
 <defs>
  <clipPath id="p4ab1e33011">
   <rect x="7.2" y="22.318125" width="279" height="180.502308"/>
  </clipPath>
 </defs>
</svg>
