<?xml version="1.0" encoding="utf-8" standalone="no"?>
<!DOCTYPE svg PUBLIC "-//W3C//DTD SVG 1.1//EN"
  "http://www.w3.org/Graphics/SVG/1.1/DTD/svg11.dtd">
<svg xmlns:xlink="http://www.w3.org/1999/xlink" width="293.4pt" height="209.955274pt" viewBox="0 0 293.4 209.955274" xmlns="http://www.w3.org/2000/svg" version="1.1">
 <metadata>
  <rdf:RDF xmlns:dc="http://purl.org/dc/elements/1.1/" xmlns:cc="http://creativecommons.org/ns#" xmlns:rdf="http://www.w3.org/1999/02/22-rdf-syntax-ns#">
   <cc:Work>
    <dc:type rdf:resource="http://purl.org/dc/dcmitype/StillImage"/>
    <dc:date>2024-08-06T14:07:34.882358</dc:date>
    <dc:format>image/svg+xml</dc:format>
    <dc:creator>
     <cc:Agent>
      <dc:title>Matplotlib v3.9.1, https://matplotlib.org/</dc:title>
     </cc:Agent>
    </dc:creator>
   </cc:Work>
  </rdf:RDF>
 </metadata>
 <defs>
  <style type="text/css">*{stroke-linejoin: round; stroke-linecap: butt}</style>
 </defs>
 <g id="figure_1">
  <g id="patch_1">
   <path d="M 0 209.955274 
L 293.4 209.955274 
L 293.4 0 
L 0 0 
z
" style="fill: #ffffff"/>
  </g>
  <g id="axes_1">
   <g id="PatchCollection_1">
    <defs>
     <path id="m0ef1d6f3d7" d="M 272.797731 -101.848565 
L 272.501417 -99.18201 
L 272.298064 -98.437258 
L 271.966889 -97.910796 
L 270.740961 -96.417012 
L 270.845543 -95.184319 
L 271.246439 -93.979447 
L 271.385881 -92.838778 
L 270.706101 -91.792273 
L 269.753247 -91.173786 
L 269.526653 -90.416194 
L 269.578944 -89.472413 
L 269.456932 -88.297503 
L 268.916594 -87.31948 
L 268.306535 -86.730955 
L 268.039272 -85.943401 
L 268.509888 -84.359733 
L 269.526653 -83.161282 
L 271.920408 -82.90019 
L 273.094046 -81.898627 
L 273.518182 -80.302119 
L 273.477511 -78.164167 
L 273.030135 -76.111819 
L 272.686514 -75.532411 
L 272.245773 -74.789242 
L 271.229008 -74.590213 
L 267.202619 -75.66668 
L 265.24462 -75.478351 
L 264.52417 -75.598197 
L 263.890871 -75.895669 
L 263.536455 -76.276606 
L 263.240141 -76.693924 
L 262.798575 -77.091981 
L 260.480351 -77.900936 
L 260.230517 -78.799774 
L 260.538451 -80.501147 
L 260.42806 -81.436368 
L 259.533307 -82.18112 
L 258.086596 -82.168279 
L 252.764558 -80.612432 
L 252.22422 -80.310679 
L 251.980196 -79.698613 
L 251.288796 -76.997817 
L 250.823989 -76.36435 
L 249.609681 -75.131656 
L 249.127444 -74.395465 
L 249.051913 -73.800519 
L 249.040293 -71.981441 
L 248.796269 -71.099723 
L 248.86599 -70.33357 
L 248.999622 -69.732204 
L 249.272696 -69.267804 
L 249.760744 -68.92967 
L 248.767219 -67.213316 
L 249.650352 -66.091908 
L 251.300416 -65.43704 
L 253.816183 -64.940538 
L 254.786467 -64.542481 
L 255.198983 -63.622242 
L 254.774847 -61.816004 
L 254.368141 -61.25958 
L 253.188694 -60.180974 
L 252.764558 -59.376299 
L 252.479863 -58.254891 
L 252.445003 -57.497298 
L 252.671596 -56.799628 
L 253.182884 -55.875109 
L 255.501108 -53.465365 
L 256.221558 -51.988702 
L 255.483677 -50.405033 
L 253.914954 -49.39491 
L 251.54444 -48.47467 
L 249.685212 -48.513192 
L 249.638732 -50.383633 
L 249.069343 -51.791813 
L 246.849891 -53.8035 
L 246.024859 -54.942028 
L 245.658823 -56.756827 
L 245.635583 -58.396137 
L 245.263738 -59.744395 
L 243.857697 -60.686036 
L 242.70149 -60.992069 
L 241.609194 -61.075532 
L 239.157338 -60.645374 
L 235.415643 -58.685049 
L 234.247816 -58.297693 
L 233.527365 -58.45606 
L 232.156185 -59.299256 
L 231.551937 -59.314236 
L 230.941878 -58.610146 
L 230.831486 -57.664226 
L 230.918637 -56.724725 
L 230.895397 -56.071997 
L 230.035504 -54.856425 
L 228.978069 -54.419846 
L 222.534684 -54.496889 
L 221.227415 -54.98483 
L 220.036348 -55.810906 
L 219.321707 -56.816749 
L 218.200361 -59.804318 
L 217.700693 -60.223776 
L 216.457335 -60.927866 
L 216.050629 -61.334483 
L 215.940238 -61.798883 
L 216.021579 -63.061538 
L 215.684594 -71.005559 
L 215.504481 -71.525601 
L 215.062915 -71.425017 
L 214.156542 -70.744468 
L 213.773076 -70.215865 
L 213.575533 -69.62734 
L 213.302459 -69.130838 
L 212.6924 -68.882588 
L 212.268264 -69.070916 
L 210.833173 -70.461976 
L 210.792502 -71.48708 
L 209.676966 -71.788833 
L 206.940416 -71.446418 
L 205.86555 -70.432014 
L 204.889456 -68.437449 
L 204.447889 -66.408642 
L 204.988227 -65.289373 
L 205.737728 -64.760771 
L 205.84812 -63.930415 
L 205.702868 -62.88605 
L 205.708678 -61.702579 
L 206.463989 -58.764233 
L 206.53952 -57.698467 
L 206.190915 -55.875109 
L 204.546661 -52.365358 
L 203.710008 -49.39919 
L 203.198721 -48.560274 
L 202.547991 -47.939647 
L 201.874021 -47.614353 
L 201.263962 -47.152094 
L 200.950218 -46.330298 
L 200.688764 -45.375817 
L 200.277789 -44.579085 
L 200.247198 -44.51978 
L 196.162708 -41.694859 
L 195.122702 -40.09835 
L 194.901919 -39.028304 
L 195.023931 -37.162144 
L 194.843818 -36.14346 
L 194.396442 -35.368747 
L 193.861914 -35.047733 
L 192.630176 -34.649676 
L 191.189275 -33.506867 
L 190.945251 -32.565226 
L 191.944586 -29.680382 
L 190.096979 -27.929787 
L 189.974967 -27.724338 
L 189.934296 -27.510329 
L 189.974967 -27.3006 
L 190.096979 -27.090871 
L 190.701228 -26.461684 
L 191.166034 -24.955059 
L 191.677322 -24.176066 
L 192.22347 -23.855052 
L 193.449398 -23.602521 
L 193.978116 -23.255826 
L 194.617225 -21.881887 
L 194.402252 -20.473707 
L 193.002021 -17.670186 
L 191.206705 -15.401689 
L 189.51597 -15.726983 
L 187.674173 -16.570179 
L 185.448911 -15.872509 
L 185.658074 -17.148004 
L 185.995059 -18.132446 
L 186.221652 -19.15969 
L 186.128691 -20.593552 
L 185.814946 -21.676438 
L 185.344329 -22.759325 
L 184.368235 -24.544162 
L 183.816277 -25.866739 
L 183.450241 -26.393201 
L 183.072586 -26.697094 
L 179.847988 -28.473371 
L 178.988096 -28.785824 
L 178.023622 -28.850027 
L 178.116583 -29.072596 
L 178.331556 -29.470653 
L 179.319271 -31.799074 
L 180.928664 -33.80648 
L 181.759507 -35.749683 
L 180.330226 -37.684327 
L 179.481953 -37.98822 
L 177.756358 -37.945418 
L 176.855795 -38.073823 
L 176.425848 -38.373436 
L 176.013332 -39.148149 
L 175.834808 -39.215551 
L 175.548525 -39.323637 
L 175.19992 -39.15671 
L 174.328408 -38.364876 
L 173.927512 -38.133746 
L 172.939797 -38.185108 
L 170.319449 -39.751655 
L 169.232963 -40.136872 
L 168.686815 -40.423644 
L 165.136853 -45.790995 
L 163.539079 -47.468827 
L 161.987787 -48.269222 
L 160.517835 -48.872728 
L 159.48364 -49.745885 
L 158.867771 -51.077022 
L 158.646988 -53.097269 
L 158.83872 -55.228801 
L 159.750904 -59.519685 
L 159.942637 -61.905888 
L 159.913586 -64.405515 
L 159.681183 -66.275956 
L 158.908441 -67.414485 
L 157.293238 -67.703397 
L 156.548421 -67.540011 
L 154.161602 -67.016428 
L 152.633549 -66.168951 
L 151.436672 -64.876336 
L 150.966055 -63.82555 
L 151.181028 -63.474575 
L 151.552874 -63.185663 
L 151.576114 -62.346747 
L 151.239129 -61.589154 
L 150.681361 -60.906465 
L 150.036441 -60.403543 
L 148.444478 -59.581748 
L 145.678878 -55.857988 
L 144.51686 -55.031912 
L 142.076625 -54.475488 
L 140.862317 -53.901944 
L 139.764211 -52.763415 
L 139.200633 -51.95446 
L 138.962419 -51.25679 
L 139.159962 -50.935776 
L 140.473041 -49.767286 
L 142.134726 -46.488665 
L 142.291598 -43.449734 
L 141.07148 -40.766059 
L 138.613814 -38.583165 
L 138.003755 -38.373436 
L 136.841738 -38.245031 
L 136.27816 -37.799892 
L 135.877264 -36.948135 
L 135.755252 -35.997934 
L 135.749442 -35.069134 
L 135.453128 -32.710753 
L 135.348546 -32.543826 
L 134.802398 -31.311133 
L 134.761727 -31.131365 
L 134.058707 -30.194005 
L 133.657811 -29.85159 
L 133.117473 -29.680382 
L 129.131755 -28.755863 
L 128.320962 -28.0866 
L 127.7102 -26.886768 
L 127.55751 -25.311988 
L 126.400518 -25.257524 
L 126.331294 -25.121986 
L 126.156991 -24.27023 
L 126.203472 -23.837931 
L 126.06984 -23.559719 
L 125.36682 -23.165942 
L 125.041455 -23.183063 
L 124.03631 -23.499797 
L 122.490828 -23.469835 
L 119.789138 -24.484239 
L 119.23718 -24.420036 
L 118.813044 -24.214587 
L 118.342427 -24.099023 
L 117.651027 -24.342993 
L 117.569685 -24.552722 
L 116.51225 -26.13639 
L 115.669788 -26.941065 
L 114.786655 -27.463247 
L 109.057911 -28.93563 
L 108.116677 -28.434849 
L 107.570529 -27.493208 
L 106.95466 -26.667133 
L 105.775213 -26.513046 
L 104.101908 -25.768294 
L 100.778539 -23.268667 
L 98.977413 -22.618079 
L 94.753481 -23.080339 
L 94.0156 -22.819247 
L 92.435257 -21.813404 
L 88.966636 -20.349581 
L 87.270091 -20.024287 
L 85.434104 -19.990046 
L 83.708509 -20.353861 
L 82.40124 -21.158536 
L 79.879663 -24.060501 
L 79.490387 -24.728209 
L 79.188263 -25.562845 
L 78.793177 -27.078031 
L 78.148257 -28.798665 
L 77.944904 -29.680382 
L 77.67183 -29.868711 
L 73.866225 -34.2773 
L 72.588006 -34.855125 
L 72.117389 -34.658236 
L 71.716493 -34.234498 
L 71.286547 -33.900644 
L 70.752019 -33.977687 
L 70.258162 -34.362904 
L 70.223301 -34.619715 
L 70.339503 -34.96641 
L 70.316263 -35.608437 
L 70.397604 -35.689761 
L 70.380174 -36.554358 
L 70.281402 -37.376153 
L 70.12453 -37.29483 
L 70.380174 -37.722848 
L 70.83336 -38.287832 
L 71.228446 -38.9213 
L 71.286547 -39.554767 
L 70.426654 -40.406524 
L 65.952889 -41.416647 
L 65.464841 -42.807707 
L 65.981939 -45.645469 
L 66.958033 -48.611636 
L 68.950893 -52.570807 
L 67.672674 -54.817903 
L 65.679815 -56.977256 
L 64.604949 -58.869097 
L 64.907073 -59.825719 
L 66.388645 -61.597715 
L 66.789541 -62.984494 
L 66.726476 -63.79641 
L 66.667529 -64.555322 
L 66.142326 -65.378275 
L 65.296349 -65.805136 
L 56.921111 -68.01157 
L 53.173606 -68.133556 
L 49.571353 -67.405924 
L 44.778033 -64.05882 
L 42.953666 -63.58372 
L 41.106059 -63.495976 
L 39.374654 -62.924572 
L 37.550287 -61.313082 
L 35.946704 -59.15373 
L 34.761446 -57.510139 
L 34.459322 -56.38017 
L 34.691725 -55.554095 
L 35.208823 -54.145914 
L 35.237873 -53.81206 
L 35.778211 -52.442401 
L 36.016425 -52.091426 
L 36.603243 -51.778973 
L 37.544477 -52.219831 
L 37.939563 -52.044344 
L 38.230067 -50.135382 
L 36.777546 -48.564554 
L 33.181103 -46.12913 
L 30.310921 -42.692142 
L 28.486554 -41.733381 
L 26.575036 -42.606538 
L 24.012789 -42.503814 
L 21.462161 -41.883187 
L 20.108412 -41.057112 
L 20.857912 -42.854789 
L 21.287859 -43.689425 
L 21.462161 -44.399935 
L 20.468637 -45.67543 
L 19.881818 -46.809679 
L 20.090981 -47.806962 
L 21.462161 -48.69724 
L 24.832011 -50.383633 
L 24.924972 -50.413594 
L 25.017933 -50.422154 
L 25.122515 -50.413594 
L 25.564081 -50.268068 
L 25.901066 -50.225266 
L 26.226431 -50.263787 
L 27.463979 -50.657564 
L 27.708003 -51.209708 
L 27.655712 -51.975861 
L 27.684763 -52.870419 
L 28.085658 -55.21596 
L 28.271581 -55.862268 
L 29.089878 -57.730446 
L 30.090138 -60.014047 
L 30.014607 -60.930006 
L 29.329017 -62.1841 
L 28.503985 -63.091499 
L 25.740097 -64.821409 
L 25.47112 -64.98976 
L 26.11604 -65.618948 
L 26.220621 -66.164671 
L 26.104419 -66.725375 
L 26.104419 -67.356702 
L 26.063749 -67.611373 
L 25.930117 -67.953788 
L 25.808105 -68.343285 
L 25.808105 -68.767023 
L 26.028888 -69.272085 
L 26.667998 -69.974035 
L 28.625996 -73.389622 
L 30.613046 -75.940611 
L 29.253486 -77.485758 
L 29.079183 -78.577205 
L 29.834494 -79.583048 
L 37.393415 -86.60255 
L 41.419804 -88.843226 
L 41.977572 -89.320467 
L 43.459144 -91.013279 
L 45.324181 -92.014842 
L 45.91681 -92.462122 
L 46.550109 -93.266796 
L 46.765082 -93.953766 
L 46.741842 -95.351246 
L 46.323516 -95.817786 
L 46.027202 -96.224403 
L 45.870329 -96.690943 
L 45.95167 -97.093281 
L 46.834803 -99.787657 
L 47.224079 -100.500307 
L 47.332569 -100.774116 
L 47.537824 -101.292141 
L 47.630785 -102.439231 
L 47.450672 -103.35519 
L 46.701171 -104.797612 
L 46.468768 -105.546644 
L 47.30542 -108.452889 
L 50.03035 -110.045118 
L 56.078649 -111.96264 
L 59.829059 -114.841064 
L 61.113088 -116.709364 
L 60.439118 -118.24595 
L 61.194429 -119.562107 
L 61.723147 -120.086429 
L 63.134997 -120.595771 
L 63.34416 -121.122234 
L 63.553323 -121.26776 
L 64.360925 -121.687218 
L 64.291204 -123.103959 
L 65.976129 -123.694624 
L 69.535563 -127.003357 
L 69.659723 -127.118772 
L 70.728779 -128.890768 
L 72.361413 -130.5793 
L 76.178639 -133.389241 
L 75.952045 -135.443729 
L 76.312271 -137.142963 
L 77.369706 -138.234409 
L 77.880993 -138.298612 
L 78.183118 -138.418457 
L 79.00234 -139.529165 
L 79.589159 -139.87372 
L 80.164357 -140.032087 
L 80.693075 -140.370221 
L 81.128831 -141.27976 
L 80.542013 -142.120817 
L 79.69955 -142.886969 
L 78.862898 -143.569659 
L 77.828703 -143.071017 
L 71.141295 -142.411869 
L 71.420179 -143.471215 
L 72.117389 -144.76597 
L 72.948231 -145.853137 
L 74.394942 -146.704894 
L 74.482094 -148.267161 
L 75.957855 -148.596735 
L 76.870039 -149.123198 
L 77.706691 -149.835848 
L 78.130827 -150.533518 
L 77.857753 -151.520101 
L 77.276745 -152.66505 
L 77.137303 -153.58743 
L 78.183118 -153.906303 
L 78.682785 -154.29794 
L 79.188263 -154.428486 
L 79.69955 -154.29794 
L 80.210838 -153.906303 
L 81.669169 -153.694434 
L 84.46963 -154.182375 
L 85.79433 -153.906303 
L 86.5264 -153.484705 
L 86.630465 -153.468065 
L 87.275901 -153.36486 
L 88.803954 -153.518947 
L 87.781379 -151.169126 
L 88.100933 -149.816587 
L 89.321051 -149.084676 
L 90.971115 -148.566774 
L 91.203519 -148.380586 
L 91.360391 -148.083113 
L 91.586985 -147.7835 
L 92.022741 -147.599452 
L 92.400396 -147.676495 
L 94.526888 -148.601015 
L 96.014269 -148.913469 
L 97.579131 -148.846565 
L 99.918647 -148.746541 
L 100.462385 -148.965436 
L 101.48156 -149.375728 
L 102.280648 -150.420548 
L 102.591286 -150.826711 
L 102.771398 -151.601424 
L 102.678437 -152.067964 
L 102.405363 -152.455321 
L 102.21944 -152.656489 
L 101.934746 -153.167971 
L 101.928936 -153.677313 
L 102.585476 -153.869922 
L 103.456989 -153.566029 
L 103.710372 -153.404551 
L 104.189059 -153.099489 
L 104.91532 -152.992484 
L 105.775213 -153.767197 
L 105.873984 -153.906303 
L 105.949515 -154.141713 
L 105.955325 -154.357863 
L 105.946663 -154.388811 
L 105.897224 -154.565452 
L 105.496328 -155.128296 
L 105.374317 -155.46215 
L 105.449848 -155.723241 
L 105.775213 -155.898729 
L 106.356221 -155.774604 
L 106.809408 -155.92441 
L 107.053431 -156.39737 
L 107.036001 -157.225586 
L 106.844268 -157.221306 
L 105.908844 -157.936096 
L 105.775213 -157.991739 
L 107.919309 -159.74343 
L 108.227068 -159.994865 
L 109.575008 -160.743897 
L 111.551776 -161.488015 
L 111.58245 -161.499561 
L 114.44967 -162.357527 
L 115.722078 -162.490212 
L 114.984198 -160.416463 
L 114.385759 -159.840778 
L 113.061425 -159.852347 
L 112.915807 -159.853619 
L 115.004462 -158.751929 
L 115.82085 -158.321313 
L 117.058398 -158.156526 
L 119.52532 -158.667229 
L 121.741327 -159.125988 
L 122.798762 -159.725213 
L 123.693515 -160.793119 
L 124.71609 -162.387488 
L 125.506262 -161.985151 
L 129.131755 -161.766861 
L 129.47455 -161.411606 
L 129.654663 -160.634752 
L 129.765054 -159.857899 
L 129.916116 -159.506924 
L 137.231014 -159.506924 
L 139.758401 -160.071908 
L 140.304549 -160.442144 
L 140.554382 -160.80168 
L 140.780976 -161.221138 
L 141.257403 -161.766861 
L 141.716399 -162.122116 
L 142.936517 -162.779125 
L 143.964902 -163.085158 
L 144.348368 -163.489635 
L 144.627252 -163.894113 
L 144.917756 -164.082441 
L 147.950621 -164.591783 
L 148.967386 -164.596063 
L 150.425717 -164.150924 
L 151.076447 -164.082441 
L 151.378571 -163.722905 
L 151.680695 -162.924651 
L 152.075781 -162.126397 
L 152.627739 -161.766861 
L 154.760041 -161.201877 
L 158.356483 -161.180476 
L 158.526853 -161.209115 
L 160.087889 -161.471528 
L 160.15761 -161.865305 
L 160.814149 -163.282046 
L 162.533935 -164.416295 
L 164.218859 -164.587502 
L 165.084562 -163.778548 
L 165.752722 -162.657139 
L 165.869721 -162.513756 
L 166.374401 -161.895267 
L 167.129712 -162.147798 
L 167.25186 -162.361332 
L 167.495747 -162.787685 
L 167.559658 -163.408312 
L 167.530608 -163.996837 
L 167.600329 -164.561821 
L 167.577089 -164.846454 
L 167.443457 -165.169608 
L 167.350495 -165.546264 
L 167.478317 -166.004243 
L 167.68167 -166.179731 
L 167.977984 -166.291016 
L 168.222008 -166.299576 
L 168.274299 -166.16689 
L 168.309159 -165.657548 
L 168.675195 -165.473501 
L 168.994749 -167.435965 
L 168.483462 -167.485187 
L 168.223459 -167.59146 
L 167.582899 -167.853283 
L 166.798537 -167.985969 
L 164.067797 -167.523709 
L 163.225335 -167.102111 
L 162.446783 -166.547827 
L 161.615941 -166.119808 
L 160.616607 -166.077006 
L 159.45459 -166.736155 
L 158.013688 -167.829742 
L 157.734804 -167.872544 
L 156.851671 -168.195697 
L 157.211897 -169.092396 
L 157.072455 -169.798626 
L 156.834241 -170.404273 
L 156.898152 -171.016339 
L 157.45011 -171.643386 
L 158.873581 -172.420239 
L 159.47202 -172.976663 
L 159.896156 -174.633094 
L 160.15761 -175.2366 
L 160.918731 -176.349448 
L 161.360297 -176.610539 
L 161.987787 -176.593419 
L 165.014841 -177.192644 
L 165.863113 -177.620663 
L 165.340206 -178.926119 
L 166.234959 -179.435461 
L 167.635189 -179.358417 
L 168.675195 -178.891877 
L 168.762346 -178.288371 
L 168.814637 -177.218325 
L 169.01218 -176.212482 
L 169.564138 -175.803725 
L 170.261348 -176.257424 
L 170.551852 -178.063662 
L 171.06314 -178.594405 
L 171.7894 -178.354714 
L 172.329738 -177.539339 
L 172.771305 -176.580578 
L 173.189631 -175.92143 
L 173.770639 -175.790884 
L 174.392318 -175.91929 
L 174.944277 -175.812285 
L 175.316122 -174.975509 
L 175.16506 -174.663056 
L 174.415559 -173.543787 
L 174.229636 -173.002344 
L 174.46785 -172.326075 
L 174.915226 -171.776071 
L 175.054668 -171.144744 
L 175.16506 -170.605441 
L 178.134013 -170.648243 
L 177.675017 -171.159725 
L 178.180494 -172.784055 
L 179.691116 -172.715572 
L 181.527103 -171.651946 
L 182.979624 -170.284427 
L 181.945429 -170.044737 
L 181.951239 -169.469052 
L 182.746664 -168.677579 
L 182.787892 -168.636556 
L 184.420525 -167.423124 
L 185.797516 -167.063589 
L 187.999538 -167.271178 
L 190.044688 -167.921766 
L 190.939441 -168.889087 
L 192.002687 -169.308545 
L 198.271769 -168.606595 
L 201.380164 -168.606595 
L 202.141285 -167.423124 
L 204.244536 -167.425264 
L 206.429128 -166.922343 
L 221.847513 -157.352313 
L 222.161025 -155.889946 
L 222.26742 -155.393667 
L 223.929105 -152.89404 
L 226.020735 -151.939559 
L 227.630129 -150.522818 
L 227.583648 -147.013067 
L 227.0375 -145.754693 
L 224.858718 -143.000394 
L 224.597265 -142.257782 
L 224.30676 -140.79824 
L 224.091787 -140.228975 
L 222.174459 -137.913396 
L 220.367523 -134.844504 
L 219.437909 -133.265116 
L 218.467625 -130.472296 
L 218.333993 -127.683756 
L 218.763939 -126.314097 
L 219.373998 -125.119926 
L 219.844615 -123.793069 
L 219.873665 -122.025353 
L 219.339137 -120.921065 
L 218.479245 -120.030787 
L 217.822705 -119.142649 
L 217.886616 -118.370075 
L 219.153215 -117.993419 
L 222.586975 -117.417735 
L 223.743182 -117.78797 
L 224.794807 -117.507618 
L 227.740521 -117.875714 
L 228.681754 -117.732328 
L 239.30259 -114.359543 
L 239.209629 -113.415762 
L 239.447842 -113.210314 
L 239.796447 -113.238135 
L 240.011421 -112.981324 
L 240.011421 -112.493383 
L 239.779017 -111.701549 
L 239.639575 -109.758345 
L 239.459462 -108.865927 
L 239.552424 -108.089073 
L 240.267064 -107.066109 
L 241.661485 -105.987503 
L 247.674923 -104.029319 
L 249.847895 -101.942729 
L 251.114493 -101.202257 
L 253.543109 -100.414703 
L 254.323827 -100.384509 
L 254.705126 -100.369762 
L 256.157647 -100.78708 
L 258.609503 -102.047594 
L 259.184702 -102.89293 
L 259.335764 -103.526397 
L 259.382245 -104.224067 
L 259.649508 -105.272712 
L 260.503591 -106.725835 
L 261.415774 -106.897042 
L 262.50807 -106.60813 
L 263.908301 -106.674473 
L 263.937351 -108.221759 
L 264.919256 -110.122161 
L 266.336917 -111.761471 
L 267.969551 -112.705252 
L 268.277485 -112.767315 
L 268.59123 -112.705252 
L 268.887544 -112.510504 
L 268.893354 -112.510504 
L 268.893354 -112.497663 
L 269.474363 -111.868476 
L 270.648 -109.963794 
L 272.559518 -108.431488 
L 273.059185 -107.827982 
L 273.361309 -106.430502 
L 272.664099 -103.616281 
L 272.797731 -101.848565 
" style="stroke: #aaaaaa"/>
    </defs>
    <g clip-path="url(#pe38791c8f9)">
     <use xlink:href="#m0ef1d6f3d7" x="0" y="209.955274" style="fill: #aaaaaa; stroke: #aaaaaa"/>
    </g>
   </g>
   <g id="PathCollection_1">
    <defs>
     <path id="m9c192f8f15" d="M 0 1.581139 
C 0.419323 1.581139 0.821528 1.41454 1.118034 1.118034 
C 1.41454 0.821528 1.581139 0.419323 1.581139 0 
C 1.581139 -0.419323 1.41454 -0.821528 1.118034 -1.118034 
C 0.821528 -1.41454 0.419323 -1.581139 0 -1.581139 
C -0.419323 -1.581139 -0.821528 -1.41454 -1.118034 -1.118034 
C -1.41454 -0.821528 -1.581139 -0.419323 -1.581139 0 
C -1.581139 0.419323 -1.41454 0.821528 -1.118034 1.118034 
C -0.821528 1.41454 -0.419323 1.581139 0 1.581139 
z
" style="stroke: #1f77b4; stroke-opacity: 0.5"/>
    </defs>
    <g clip-path="url(#pe38791c8f9)">
     <use xlink:href="#m9c192f8f15" x="182.054746" y="57.716388" style="fill: #1f77b4; fill-opacity: 0.5; stroke: #1f77b4; stroke-opacity: 0.5"/>
     <use xlink:href="#m9c192f8f15" x="177.468506" y="58.168816" style="fill: #1f77b4; fill-opacity: 0.5; stroke: #1f77b4; stroke-opacity: 0.5"/>
     <use xlink:href="#m9c192f8f15" x="107.157764" y="88.740457" style="fill: #1f77b4; fill-opacity: 0.5; stroke: #1f77b4; stroke-opacity: 0.5"/>
     <use xlink:href="#m9c192f8f15" x="139.578758" y="116.288201" style="fill: #1f77b4; fill-opacity: 0.5; stroke: #1f77b4; stroke-opacity: 0.5"/>
     <use xlink:href="#m9c192f8f15" x="108.090926" y="71.605302" style="fill: #1f77b4; fill-opacity: 0.5; stroke: #1f77b4; stroke-opacity: 0.5"/>
     <use xlink:href="#m9c192f8f15" x="116.52441" y="119.1125" style="fill: #1f77b4; fill-opacity: 0.5; stroke: #1f77b4; stroke-opacity: 0.5"/>
     <use xlink:href="#m9c192f8f15" x="138.285099" y="78.605059" style="fill: #1f77b4; fill-opacity: 0.5; stroke: #1f77b4; stroke-opacity: 0.5"/>
     <use xlink:href="#m9c192f8f15" x="132.556016" y="80.024586" style="fill: #1f77b4; fill-opacity: 0.5; stroke: #1f77b4; stroke-opacity: 0.5"/>
     <use xlink:href="#m9c192f8f15" x="129.257952" y="90.320248" style="fill: #1f77b4; fill-opacity: 0.5; stroke: #1f77b4; stroke-opacity: 0.5"/>
     <use xlink:href="#m9c192f8f15" x="107.243539" y="57.79956" style="fill: #1f77b4; fill-opacity: 0.5; stroke: #1f77b4; stroke-opacity: 0.5"/>
     <use xlink:href="#m9c192f8f15" x="117.302383" y="83.65462" style="fill: #1f77b4; fill-opacity: 0.5; stroke: #1f77b4; stroke-opacity: 0.5"/>
     <use xlink:href="#m9c192f8f15" x="123.656441" y="56.150585" style="fill: #1f77b4; fill-opacity: 0.5; stroke: #1f77b4; stroke-opacity: 0.5"/>
     <use xlink:href="#m9c192f8f15" x="172.048955" y="32.88222" style="fill: #1f77b4; fill-opacity: 0.5; stroke: #1f77b4; stroke-opacity: 0.5"/>
     <use xlink:href="#m9c192f8f15" x="172.900213" y="32.17419" style="fill: #1f77b4; fill-opacity: 0.5; stroke: #1f77b4; stroke-opacity: 0.5"/>
     <use xlink:href="#m9c192f8f15" x="182.106692" y="40.191523" style="fill: #1f77b4; fill-opacity: 0.5; stroke: #1f77b4; stroke-opacity: 0.5"/>
     <use xlink:href="#m9c192f8f15" x="206.714356" y="54.682935" style="fill: #1f77b4; fill-opacity: 0.5; stroke: #1f77b4; stroke-opacity: 0.5"/>
     <use xlink:href="#m9c192f8f15" x="200.72459" y="67.737544" style="fill: #1f77b4; fill-opacity: 0.5; stroke: #1f77b4; stroke-opacity: 0.5"/>
     <use xlink:href="#m9c192f8f15" x="192.748497" y="57.088686" style="fill: #1f77b4; fill-opacity: 0.5; stroke: #1f77b4; stroke-opacity: 0.5"/>
     <use xlink:href="#m9c192f8f15" x="149.798704" y="60.576573" style="fill: #1f77b4; fill-opacity: 0.5; stroke: #1f77b4; stroke-opacity: 0.5"/>
     <use xlink:href="#m9c192f8f15" x="153.141179" y="60.050691" style="fill: #1f77b4; fill-opacity: 0.5; stroke: #1f77b4; stroke-opacity: 0.5"/>
     <use xlink:href="#m9c192f8f15" x="157.34693" y="70.939596" style="fill: #1f77b4; fill-opacity: 0.5; stroke: #1f77b4; stroke-opacity: 0.5"/>
     <use xlink:href="#m9c192f8f15" x="156.8699" y="70.160136" style="fill: #1f77b4; fill-opacity: 0.5; stroke: #1f77b4; stroke-opacity: 0.5"/>
     <use xlink:href="#m9c192f8f15" x="135.320481" y="60.261909" style="fill: #1f77b4; fill-opacity: 0.5; stroke: #1f77b4; stroke-opacity: 0.5"/>
     <use xlink:href="#m9c192f8f15" x="141.989512" y="50.799005" style="fill: #1f77b4; fill-opacity: 0.5; stroke: #1f77b4; stroke-opacity: 0.5"/>
     <use xlink:href="#m9c192f8f15" x="208.719599" y="50.595246" style="fill: #1f77b4; fill-opacity: 0.5; stroke: #1f77b4; stroke-opacity: 0.5"/>
     <use xlink:href="#m9c192f8f15" x="205.615354" y="51.710035" style="fill: #1f77b4; fill-opacity: 0.5; stroke: #1f77b4; stroke-opacity: 0.5"/>
     <use xlink:href="#m9c192f8f15" x="205.052876" y="50.689484" style="fill: #1f77b4; fill-opacity: 0.5; stroke: #1f77b4; stroke-opacity: 0.5"/>
     <use xlink:href="#m9c192f8f15" x="203.101937" y="52.65391" style="fill: #1f77b4; fill-opacity: 0.5; stroke: #1f77b4; stroke-opacity: 0.5"/>
     <use xlink:href="#m9c192f8f15" x="175.529024" y="40.607831" style="fill: #1f77b4; fill-opacity: 0.5; stroke: #1f77b4; stroke-opacity: 0.5"/>
     <use xlink:href="#m9c192f8f15" x="202.838988" y="44.348101" style="fill: #1f77b4; fill-opacity: 0.5; stroke: #1f77b4; stroke-opacity: 0.5"/>
     <use xlink:href="#m9c192f8f15" x="197.593254" y="47.605481" style="fill: #1f77b4; fill-opacity: 0.5; stroke: #1f77b4; stroke-opacity: 0.5"/>
     <use xlink:href="#m9c192f8f15" x="204.756473" y="47.357652" style="fill: #1f77b4; fill-opacity: 0.5; stroke: #1f77b4; stroke-opacity: 0.5"/>
     <use xlink:href="#m9c192f8f15" x="201.83476" y="46.1426" style="fill: #1f77b4; fill-opacity: 0.5; stroke: #1f77b4; stroke-opacity: 0.5"/>
     <use xlink:href="#m9c192f8f15" x="202.522282" y="45.250917" style="fill: #1f77b4; fill-opacity: 0.5; stroke: #1f77b4; stroke-opacity: 0.5"/>
     <use xlink:href="#m9c192f8f15" x="188.498987" y="45.596277" style="fill: #1f77b4; fill-opacity: 0.5; stroke: #1f77b4; stroke-opacity: 0.5"/>
     <use xlink:href="#m9c192f8f15" x="200.68041" y="50.101628" style="fill: #1f77b4; fill-opacity: 0.5; stroke: #1f77b4; stroke-opacity: 0.5"/>
     <use xlink:href="#m9c192f8f15" x="199.327451" y="52.238735" style="fill: #1f77b4; fill-opacity: 0.5; stroke: #1f77b4; stroke-opacity: 0.5"/>
     <use xlink:href="#m9c192f8f15" x="194.181724" y="51.755154" style="fill: #1f77b4; fill-opacity: 0.5; stroke: #1f77b4; stroke-opacity: 0.5"/>
    </g>
   </g>
   <g id="text_1">
    <text style="font: 12px 'DejaVu Sans', 'Bitstream Vera Sans', 'Computer Modern Sans Serif', 'Lucida Grande', 'Verdana', 'Geneva', 'Lucid', 'Arial', 'Helvetica', 'Avant Garde', sans-serif; text-anchor: middle" x="146.7" y="16.318125" transform="rotate(-0 146.7 16.318125)">-hof 38x</text>
   </g>
  </g>
 </g>
 <defs>
  <clipPath id="pe38791c8f9">
   <rect x="7.2" y="22.318125" width="279" height="180.437149"/>
  </clipPath>
 </defs>
</svg>
