<?xml version="1.0" encoding="utf-8" standalone="no"?>
<!DOCTYPE svg PUBLIC "-//W3C//DTD SVG 1.1//EN"
  "http://www.w3.org/Graphics/SVG/1.1/DTD/svg11.dtd">
<svg xmlns:xlink="http://www.w3.org/1999/xlink" width="293.4pt" height="210.060433pt" viewBox="0 0 293.4 210.060433" xmlns="http://www.w3.org/2000/svg" version="1.1">
 <metadata>
  <rdf:RDF xmlns:dc="http://purl.org/dc/elements/1.1/" xmlns:cc="http://creativecommons.org/ns#" xmlns:rdf="http://www.w3.org/1999/02/22-rdf-syntax-ns#">
   <cc:Work>
    <dc:type rdf:resource="http://purl.org/dc/dcmitype/StillImage"/>
    <dc:date>2024-08-06T14:07:35.197100</dc:date>
    <dc:format>image/svg+xml</dc:format>
    <dc:creator>
     <cc:Agent>
      <dc:title>Matplotlib v3.9.1, https://matplotlib.org/</dc:title>
     </cc:Agent>
    </dc:creator>
   </cc:Work>
  </rdf:RDF>
 </metadata>
 <defs>
  <style type="text/css">*{stroke-linejoin: round; stroke-linecap: butt}</style>
 </defs>
 <g id="figure_1">
  <g id="patch_1">
   <path d="M 0 210.060433 
L 293.4 210.060433 
L 293.4 0 
L 0 0 
z
" style="fill: #ffffff"/>
  </g>
  <g id="axes_1">
   <g id="PatchCollection_1">
    <defs>
     <path id="md9d3182a95" d="M 272.797731 -101.903726 
L 272.501417 -99.235617 
L 272.298064 -98.490431 
L 271.966889 -97.963662 
L 270.740961 -96.469007 
L 270.845543 -95.235596 
L 271.246439 -94.030022 
L 271.385881 -92.888688 
L 270.706101 -91.841573 
L 269.753247 -91.222726 
L 269.526653 -90.464692 
L 269.578944 -89.520361 
L 269.456932 -88.344766 
L 268.916594 -87.366174 
L 268.306535 -86.777306 
L 268.039272 -85.989293 
L 268.509888 -84.404702 
L 269.526653 -83.205552 
L 271.920408 -82.944308 
L 273.094046 -81.942162 
L 273.518182 -80.344723 
L 273.477511 -78.205525 
L 273.030135 -76.15198 
L 272.686514 -75.572235 
L 272.245773 -74.828633 
L 271.229008 -74.629488 
L 267.202619 -75.706582 
L 265.24462 -75.518144 
L 264.52417 -75.638059 
L 263.890871 -75.935705 
L 263.536455 -76.316863 
L 263.240141 -76.734424 
L 262.798575 -77.132714 
L 260.480351 -77.94214 
L 260.230517 -78.841502 
L 260.538451 -80.543867 
L 260.42806 -81.479632 
L 259.533307 -82.224818 
L 258.086596 -82.21197 
L 252.764558 -80.655217 
L 252.22422 -80.353288 
L 251.980196 -79.740865 
L 251.288796 -77.038495 
L 250.823989 -76.404658 
L 249.609681 -75.171247 
L 249.127444 -74.434626 
L 249.051913 -73.839334 
L 249.040293 -72.019196 
L 248.796269 -71.136964 
L 248.86599 -70.370364 
L 248.999622 -69.768648 
L 249.272696 -69.303977 
L 249.760744 -68.965646 
L 248.767219 -67.248292 
L 249.650352 -66.12623 
L 251.300416 -65.47098 
L 253.816183 -64.974189 
L 254.786467 -64.5759 
L 255.198983 -63.655124 
L 254.774847 -61.847834 
L 254.368141 -61.291086 
L 253.188694 -60.211851 
L 252.764558 -59.406707 
L 252.479863 -58.284646 
L 252.445003 -57.526612 
L 252.671596 -56.828535 
L 253.182884 -55.903476 
L 255.501108 -53.492328 
L 256.221558 -52.014804 
L 255.483677 -50.430213 
L 253.914954 -49.419501 
L 251.54444 -48.498725 
L 249.685212 -48.537269 
L 249.638732 -50.4088 
L 249.069343 -51.817801 
L 246.849891 -53.83066 
L 246.024859 -54.969852 
L 245.658823 -56.785708 
L 245.635583 -58.425974 
L 245.263738 -59.775018 
L 243.857697 -60.717207 
L 242.70149 -61.023418 
L 241.609194 -61.106931 
L 239.157338 -60.676521 
L 235.415643 -58.715055 
L 234.247816 -58.327472 
L 233.527365 -58.485931 
L 232.156185 -59.329619 
L 231.551937 -59.344609 
L 230.941878 -58.640108 
L 230.831486 -57.693636 
L 230.918637 -56.753588 
L 230.895397 -56.10048 
L 230.035504 -54.884199 
L 228.978069 -54.447366 
L 222.534684 -54.524454 
L 221.227415 -55.012679 
L 220.036348 -55.839236 
L 219.321707 -56.845666 
L 218.200361 -59.834975 
L 217.700693 -60.254678 
L 216.457335 -60.959178 
L 216.050629 -61.366033 
L 215.940238 -61.830703 
L 216.021579 -63.094093 
L 215.684594 -71.042745 
L 215.504481 -71.56309 
L 215.062915 -71.462447 
L 214.156542 -70.781501 
L 213.773076 -70.252591 
L 213.575533 -69.663722 
L 213.302459 -69.166932 
L 212.6924 -68.918536 
L 212.268264 -69.106974 
L 210.833173 -70.498845 
L 210.792502 -71.524546 
L 209.676966 -71.826475 
L 206.940416 -71.483861 
L 205.86555 -70.468866 
L 204.889456 -68.473138 
L 204.447889 -66.443148 
L 204.988227 -65.323228 
L 205.737728 -64.794317 
L 205.84812 -63.963477 
L 205.702868 -62.918504 
L 205.708678 -61.734343 
L 206.463989 -58.794284 
L 206.53952 -57.727897 
L 206.190915 -55.903476 
L 204.546661 -52.39168 
L 203.710008 -49.423784 
L 203.198721 -48.584379 
L 202.547991 -47.96339 
L 201.874021 -47.637907 
L 201.263962 -47.175378 
L 200.950218 -46.353103 
L 200.688764 -45.398066 
L 200.277789 -44.60087 
L 200.247198 -44.54153 
L 196.162708 -41.714962 
L 195.122702 -40.117523 
L 194.901919 -39.046854 
L 195.023931 -37.179606 
L 194.843818 -36.160329 
L 194.396442 -35.385164 
L 193.861914 -35.063963 
L 192.630176 -34.665674 
L 191.189275 -33.522199 
L 190.945251 -32.580009 
L 191.944586 -29.693484 
L 190.096979 -27.941868 
L 189.974967 -27.7363 
L 189.934296 -27.522166 
L 189.974967 -27.312315 
L 190.096979 -27.102463 
L 190.701228 -26.47291 
L 191.166034 -24.965407 
L 191.677322 -24.185959 
L 192.22347 -23.864759 
L 193.449398 -23.61208 
L 193.978116 -23.265184 
L 194.617225 -21.890444 
L 194.402252 -20.481443 
L 193.002021 -17.676288 
L 191.206705 -15.406469 
L 189.51597 -15.731952 
L 187.674173 -16.57564 
L 185.448911 -15.877563 
L 185.658074 -17.153801 
L 185.995059 -18.138817 
L 186.221652 -19.16666 
L 186.128691 -20.601358 
L 185.814946 -21.684875 
L 185.344329 -22.768393 
L 184.368235 -24.55427 
L 183.816277 -25.877617 
L 183.450241 -26.404387 
L 183.072586 -26.708457 
L 179.847988 -28.485769 
L 178.988096 -28.798404 
L 178.023622 -28.862644 
L 178.116583 -29.085344 
L 178.331556 -29.483633 
L 179.319271 -31.81341 
L 180.928664 -33.821986 
L 181.759507 -35.766322 
L 180.330226 -37.702093 
L 179.481953 -38.006163 
L 177.756358 -37.963336 
L 176.855795 -38.091817 
L 176.425848 -38.391604 
L 176.013332 -39.166769 
L 175.834808 -39.23421 
L 175.548525 -39.342359 
L 175.19992 -39.175334 
L 174.328408 -38.383039 
L 173.927512 -38.151774 
L 172.939797 -38.203166 
L 170.319449 -39.770626 
L 169.232963 -40.156068 
L 168.686815 -40.443007 
L 165.136853 -45.813486 
L 163.539079 -47.492296 
L 161.987787 -48.293157 
L 160.517835 -48.897014 
L 159.48364 -49.770681 
L 158.867771 -51.102594 
L 158.646988 -53.124018 
L 158.83872 -55.256792 
L 159.750904 -59.550177 
L 159.942637 -61.93777 
L 159.913586 -64.438855 
L 159.681183 -66.310385 
L 158.908441 -67.449578 
L 157.293238 -67.738658 
L 156.548421 -67.575177 
L 154.161602 -67.051288 
L 152.633549 -66.203318 
L 151.436672 -64.909949 
L 150.966055 -63.858552 
L 151.181028 -63.507372 
L 151.552874 -63.218291 
L 151.576114 -62.378886 
L 151.239129 -61.620852 
L 150.681361 -60.937765 
L 150.036441 -60.43455 
L 148.444478 -59.612276 
L 145.678878 -55.886346 
L 144.51686 -55.059789 
L 142.076625 -54.50304 
L 140.862317 -53.929162 
L 139.764211 -52.789969 
L 139.200633 -51.980543 
L 138.962419 -51.282466 
L 139.159962 -50.961265 
L 140.473041 -49.792094 
L 142.134726 -46.511562 
L 142.291598 -43.470861 
L 141.07148 -40.785621 
L 138.613814 -38.601455 
L 138.003755 -38.391604 
L 136.841738 -38.263124 
L 136.27816 -37.817725 
L 135.877264 -36.965472 
L 135.755252 -36.014717 
L 135.749442 -35.085376 
L 135.453128 -32.72562 
L 135.348546 -32.558596 
L 134.802398 -31.325184 
L 134.761727 -31.145312 
L 134.058707 -30.207405 
L 133.657811 -29.864791 
L 133.117473 -29.693484 
L 129.131755 -28.768425 
L 128.320962 -28.098773 
L 127.7102 -26.898241 
L 127.55751 -25.322544 
L 126.400518 -25.268048 
L 126.331294 -25.132431 
L 126.156991 -24.280178 
L 126.203472 -23.847628 
L 126.06984 -23.569254 
L 125.36682 -23.175247 
L 125.041455 -23.192378 
L 124.03631 -23.509296 
L 122.490828 -23.479317 
L 119.789138 -24.494312 
L 119.23718 -24.430072 
L 118.813044 -24.224504 
L 118.342427 -24.108871 
L 117.651027 -24.352984 
L 117.569685 -24.562835 
L 116.51225 -26.147426 
L 115.669788 -26.95257 
L 114.786655 -27.475057 
L 109.057911 -28.948298 
L 108.116677 -28.447225 
L 107.570529 -27.505035 
L 106.95466 -26.678478 
L 105.775213 -26.524302 
L 104.101908 -25.779116 
L 100.778539 -23.278032 
L 98.977413 -22.627064 
L 94.753481 -23.089594 
L 94.0156 -22.82835 
L 92.435257 -21.821921 
L 88.966636 -20.357245 
L 87.270091 -20.031761 
L 85.434104 -19.9975 
L 83.708509 -20.361528 
L 82.40124 -21.166671 
L 79.879663 -24.070327 
L 79.490387 -24.738425 
L 79.188263 -25.573547 
L 78.793177 -27.089615 
L 78.148257 -28.811252 
L 77.944904 -29.693484 
L 77.67183 -29.881922 
L 73.866225 -34.293081 
L 72.588006 -34.871242 
L 72.117389 -34.674239 
L 71.716493 -34.250254 
L 71.286547 -33.916205 
L 70.752019 -33.993293 
L 70.258162 -34.378734 
L 70.223301 -34.635695 
L 70.339503 -34.982592 
L 70.316263 -35.624994 
L 70.397604 -35.706365 
L 70.380174 -36.571466 
L 70.281402 -37.39374 
L 70.12453 -37.312369 
L 70.380174 -37.740637 
L 70.83336 -38.30595 
L 71.228446 -38.939787 
L 71.286547 -39.573623 
L 70.426654 -40.425876 
L 65.952889 -41.436588 
L 65.464841 -42.828459 
L 65.981939 -45.667875 
L 66.958033 -48.635771 
L 68.950893 -52.597249 
L 67.672674 -54.845655 
L 65.679815 -57.006266 
L 64.604949 -58.89921 
L 64.907073 -59.856389 
L 66.388645 -61.629418 
L 66.789541 -63.017005 
L 66.726476 -63.829394 
L 66.667529 -64.588748 
L 66.142326 -65.412181 
L 65.296349 -65.83929 
L 56.921111 -68.047011 
L 53.173606 -68.169068 
L 49.571353 -67.441012 
L 44.778033 -64.091958 
L 42.953666 -63.61658 
L 41.106059 -63.528785 
L 39.374654 -62.957048 
L 37.550287 -61.344619 
L 35.946704 -59.184008 
L 34.761446 -57.53946 
L 34.459322 -56.408832 
L 34.691725 -55.582275 
L 35.208823 -54.173274 
L 35.237873 -53.839225 
L 35.778211 -52.468768 
L 36.016425 -52.117589 
L 36.603243 -51.804953 
L 37.544477 -52.246069 
L 37.939563 -52.070479 
L 38.230067 -50.160404 
L 36.777546 -48.588662 
L 33.181103 -46.151817 
L 30.310921 -42.712827 
L 28.486554 -41.753507 
L 26.575036 -42.627173 
L 24.012789 -42.524389 
L 21.462161 -41.9034 
L 20.108412 -41.076843 
L 20.857912 -42.875568 
L 21.287859 -43.710691 
L 21.462161 -44.421615 
L 20.468637 -45.697853 
L 19.881818 -46.832763 
L 20.090981 -47.830627 
L 21.462161 -48.721424 
L 24.832011 -50.4088 
L 24.924972 -50.438779 
L 25.017933 -50.447344 
L 25.122515 -50.438779 
L 25.564081 -50.293168 
L 25.901066 -50.250341 
L 26.226431 -50.288885 
L 27.463979 -50.682891 
L 27.708003 -51.235357 
L 27.655712 -52.001956 
L 27.684763 -52.897036 
L 28.085658 -55.243944 
L 28.271581 -55.890628 
L 29.089878 -57.759895 
L 30.090138 -60.044826 
L 30.014607 -60.96132 
L 29.329017 -62.216144 
L 28.503985 -63.124072 
L 25.740097 -64.85499 
L 25.47112 -65.02344 
L 26.11604 -65.652994 
L 26.220621 -66.199035 
L 26.104419 -66.760066 
L 26.104419 -67.391761 
L 26.063749 -67.646581 
L 25.930117 -67.989195 
L 25.808105 -68.378919 
L 25.808105 -68.802904 
L 26.028888 -69.30826 
L 26.667998 -70.010619 
L 28.625996 -73.428197 
L 30.613046 -75.980673 
L 29.253486 -77.52672 
L 29.079183 -78.618803 
L 29.834494 -79.625232 
L 37.393415 -86.648825 
L 41.419804 -88.890807 
L 41.977572 -89.368326 
L 43.459144 -91.062125 
L 45.324181 -92.064272 
L 45.91681 -92.511812 
L 46.550109 -93.316956 
L 46.765082 -94.004326 
L 46.741842 -95.40262 
L 46.323516 -95.869432 
L 46.027202 -96.276286 
L 45.870329 -96.743098 
L 45.95167 -97.14567 
L 46.834803 -99.841616 
L 47.224079 -100.554682 
L 47.332569 -100.828651 
L 47.537824 -101.346978 
L 47.630785 -102.494736 
L 47.450672 -103.411229 
L 46.701171 -104.854492 
L 46.468768 -105.60396 
L 47.30542 -108.511899 
L 50.03035 -110.105055 
L 56.078649 -112.023695 
L 59.829059 -114.903797 
L 61.113088 -116.773186 
L 60.439118 -118.310667 
L 61.194429 -119.627591 
L 61.723147 -120.152219 
L 63.134997 -120.661858 
L 63.34416 -121.188627 
L 63.553323 -121.334238 
L 64.360925 -121.753941 
L 64.291204 -123.171507 
L 65.976129 -123.762517 
L 69.535563 -127.073178 
L 69.659723 -127.18866 
L 70.728779 -128.961689 
L 72.361413 -130.651205 
L 76.178639 -133.462784 
L 75.952045 -135.518469 
L 76.312271 -137.218693 
L 77.369706 -138.310776 
L 77.880993 -138.375016 
L 78.183118 -138.494931 
L 79.00234 -139.606286 
L 79.589159 -139.951042 
L 80.164357 -140.109501 
L 80.693075 -140.447832 
L 81.128831 -141.357902 
L 80.542013 -142.199448 
L 79.69955 -142.966047 
L 78.862898 -143.649135 
L 77.828703 -143.150203 
L 71.141295 -142.49067 
L 71.420179 -143.550633 
L 72.117389 -144.846143 
L 72.948231 -145.933944 
L 74.394942 -146.786197 
L 74.482094 -148.349374 
L 75.957855 -148.679141 
L 76.870039 -149.20591 
L 77.706691 -149.918976 
L 78.130827 -150.617053 
L 77.857753 -151.60421 
L 77.276745 -152.749826 
L 77.137303 -153.672744 
L 78.183118 -153.991803 
L 78.682785 -154.383668 
L 79.188263 -154.51429 
L 79.69955 -154.383668 
L 80.210838 -153.991803 
L 81.669169 -153.779811 
L 84.46963 -154.268036 
L 85.79433 -153.991803 
L 86.5264 -153.569959 
L 86.630465 -153.55331 
L 87.275901 -153.450044 
L 88.803954 -153.604221 
L 87.781379 -151.25303 
L 88.100933 -149.899704 
L 89.321051 -149.167366 
L 90.971115 -148.649162 
L 91.203519 -148.462865 
L 91.360391 -148.165219 
L 91.586985 -147.865432 
L 92.022741 -147.681276 
L 92.400396 -147.758365 
L 94.526888 -148.683423 
L 96.014269 -148.996059 
L 97.579131 -148.929116 
L 99.918647 -148.829034 
L 100.462385 -149.048056 
L 101.48156 -149.458588 
L 102.280648 -150.504016 
L 102.591286 -150.910416 
L 102.771398 -151.685581 
L 102.678437 -152.152393 
L 102.405363 -152.539975 
L 102.21944 -152.741261 
L 101.934746 -153.253041 
L 101.928936 -153.76268 
L 102.585476 -153.9554 
L 103.456989 -153.65133 
L 103.710372 -153.489758 
L 104.189059 -153.184518 
L 104.91532 -153.077451 
L 105.775213 -153.852616 
L 105.873984 -153.991803 
L 105.949515 -154.22735 
L 105.955325 -154.443626 
L 105.946663 -154.474592 
L 105.897224 -154.651336 
L 105.496328 -155.214508 
L 105.374317 -155.548557 
L 105.449848 -155.8098 
L 105.775213 -155.98539 
L 106.356221 -155.861192 
L 106.809408 -156.011086 
L 107.053431 -156.484322 
L 107.036001 -157.31302 
L 106.844268 -157.308738 
L 105.908844 -158.023945 
L 105.775213 -158.07962 
L 107.919309 -159.832332 
L 108.227068 -160.083913 
L 109.575008 -160.833382 
L 111.551776 -161.577933 
L 111.58245 -161.589487 
L 114.44967 -162.447952 
L 115.722078 -162.580715 
L 114.984198 -160.505757 
L 114.385759 -159.929737 
L 113.061425 -159.941312 
L 112.915807 -159.942585 
L 115.004462 -158.840253 
L 115.82085 -158.409386 
L 117.058398 -158.244503 
L 119.52532 -158.755504 
L 121.741327 -159.21453 
L 122.798762 -159.814105 
L 123.693515 -160.882633 
L 124.71609 -162.477931 
L 125.506262 -162.075359 
L 129.131755 -161.856942 
L 129.47455 -161.50148 
L 129.654663 -160.724174 
L 129.765054 -159.946868 
L 129.916116 -159.595688 
L 137.231014 -159.595688 
L 139.758401 -160.161002 
L 140.304549 -160.531453 
L 140.554382 -160.891198 
L 140.780976 -161.310901 
L 141.257403 -161.856942 
L 141.716399 -162.212405 
L 142.936517 -162.869796 
L 143.964902 -163.176007 
L 144.348368 -163.58072 
L 144.627252 -163.985433 
L 144.917756 -164.173871 
L 147.950621 -164.68351 
L 148.967386 -164.687793 
L 150.425717 -164.242394 
L 151.076447 -164.173871 
L 151.378571 -163.814126 
L 151.680695 -163.015407 
L 152.075781 -162.216687 
L 152.627739 -161.856942 
L 154.760041 -161.291629 
L 158.356483 -161.270215 
L 158.526853 -161.298871 
L 160.087889 -161.561437 
L 160.15761 -161.955444 
L 160.814149 -163.37301 
L 162.533935 -164.50792 
L 164.218859 -164.679227 
L 165.084562 -163.869801 
L 165.752722 -162.747739 
L 165.869721 -162.604272 
L 166.374401 -161.985423 
L 167.129712 -162.238101 
L 167.25186 -162.45176 
L 167.495747 -162.878361 
L 167.559658 -163.499349 
L 167.530608 -164.088218 
L 167.600329 -164.653531 
L 167.577089 -164.938329 
L 167.443457 -165.261672 
L 167.350495 -165.638547 
L 167.478317 -166.096794 
L 167.68167 -166.272384 
L 167.977984 -166.383733 
L 168.222008 -166.392299 
L 168.274299 -166.259536 
L 168.309159 -165.749897 
L 168.675195 -165.565742 
L 168.994749 -167.52935 
L 168.483462 -167.578601 
L 168.223459 -167.684936 
L 167.582899 -167.946911 
L 166.798537 -168.079674 
L 164.067797 -167.617145 
L 163.225335 -167.195301 
L 162.446783 -166.640694 
L 161.615941 -166.212426 
L 160.616607 -166.169599 
L 159.45459 -166.829132 
L 158.013688 -167.923356 
L 157.734804 -167.966183 
L 156.851671 -168.289525 
L 157.211897 -169.186747 
L 157.072455 -169.893388 
L 156.834241 -170.499387 
L 156.898152 -171.11181 
L 157.45011 -171.739223 
L 158.873581 -172.516529 
L 159.47202 -173.073277 
L 159.896156 -174.730674 
L 160.15761 -175.334531 
L 160.918731 -176.448028 
L 161.360297 -176.709271 
L 161.987787 -176.692141 
L 165.014841 -177.291715 
L 165.863113 -177.719983 
L 165.340206 -179.0262 
L 166.234959 -179.535839 
L 167.635189 -179.458751 
L 168.675195 -178.991939 
L 168.762346 -178.388081 
L 168.814637 -177.317412 
L 169.01218 -176.310982 
L 169.564138 -175.901986 
L 170.261348 -176.35595 
L 170.551852 -178.163241 
L 171.06314 -178.694293 
L 171.7894 -178.454463 
L 172.329738 -177.638612 
L 172.771305 -176.679293 
L 173.189631 -176.01976 
L 173.770639 -175.889138 
L 174.392318 -176.017619 
L 174.944277 -175.910552 
L 175.316122 -175.073288 
L 175.16506 -174.760653 
L 174.415559 -173.640732 
L 174.229636 -173.098973 
L 174.46785 -172.42231 
L 174.915226 -171.871986 
L 175.054668 -171.240291 
L 175.16506 -170.700673 
L 178.134013 -170.7435 
L 177.675017 -171.25528 
L 178.180494 -172.880557 
L 179.691116 -172.812034 
L 181.527103 -171.747788 
L 182.979624 -170.379472 
L 181.945429 -170.139642 
L 181.951239 -169.563622 
L 182.746664 -168.771688 
L 182.787892 -168.730641 
L 184.420525 -167.516502 
L 185.797516 -167.156757 
L 187.999538 -167.364467 
L 190.044688 -168.015434 
L 190.939441 -168.983319 
L 192.002687 -169.403022 
L 198.271769 -168.700663 
L 201.380164 -168.700663 
L 202.141285 -167.516502 
L 204.244536 -167.518643 
L 206.429128 -167.015428 
L 221.847513 -157.439822 
L 222.161025 -155.976602 
L 222.26742 -155.480034 
L 223.929105 -152.97895 
L 226.020735 -152.023912 
L 227.630129 -150.606346 
L 227.583648 -147.09455 
L 227.0375 -145.835442 
L 224.858718 -143.079538 
L 224.597265 -142.336494 
L 224.30676 -140.8761 
L 224.091787 -140.306504 
L 222.174459 -137.989575 
L 220.367523 -134.918894 
L 219.437909 -133.338586 
L 218.467625 -130.544138 
L 218.333993 -127.753973 
L 218.763939 -126.383516 
L 219.373998 -125.188649 
L 219.844615 -123.861019 
L 219.873665 -122.092272 
L 219.339137 -120.987341 
L 218.479245 -120.096544 
L 217.822705 -119.207889 
L 217.886616 -118.434865 
L 219.153215 -118.057989 
L 222.586975 -117.481969 
L 223.743182 -117.852421 
L 224.794807 -117.571905 
L 227.740521 -117.940216 
L 228.681754 -117.796746 
L 239.30259 -114.421995 
L 239.209629 -113.477665 
L 239.447842 -113.272096 
L 239.796447 -113.299933 
L 240.011421 -113.042973 
L 240.011421 -112.554747 
L 239.779017 -111.762452 
L 239.639575 -109.818116 
L 239.459462 -108.925177 
L 239.552424 -108.147871 
L 240.267064 -107.124311 
L 241.661485 -106.045076 
L 247.674923 -104.085751 
L 249.847895 -101.997945 
L 251.114493 -101.257042 
L 253.543109 -100.469029 
L 254.323827 -100.438816 
L 254.705126 -100.424061 
L 256.157647 -100.841622 
L 258.609503 -102.102871 
L 259.184702 -102.9487 
L 259.335764 -103.582536 
L 259.382245 -104.280613 
L 259.649508 -105.329869 
L 260.503591 -106.783838 
L 261.415774 -106.955145 
L 262.50807 -106.666064 
L 263.908301 -106.732446 
L 263.937351 -108.280634 
L 264.919256 -110.182144 
L 266.336917 -111.822409 
L 267.969551 -112.76674 
L 268.277485 -112.828839 
L 268.59123 -112.76674 
L 268.887544 -112.571878 
L 268.893354 -112.571878 
L 268.893354 -112.55903 
L 269.474363 -111.929476 
L 270.648 -110.023684 
L 272.559518 -108.490486 
L 273.059185 -107.886628 
L 273.361309 -106.488333 
L 272.664099 -103.672472 
L 272.797731 -101.903726 
" style="stroke: #aaaaaa"/>
    </defs>
    <g clip-path="url(#pc86beda9ad)">
     <use xlink:href="#md9d3182a95" x="0" y="210.060433" style="fill: #aaaaaa; stroke: #aaaaaa"/>
    </g>
   </g>
   <g id="PathCollection_1">
    <defs>
     <path id="m36d9a1c333" d="M 0 1.581139 
C 0.419323 1.581139 0.821528 1.41454 1.118034 1.118034 
C 1.41454 0.821528 1.581139 0.419323 1.581139 0 
C 1.581139 -0.419323 1.41454 -0.821528 1.118034 -1.118034 
C 0.821528 -1.41454 0.419323 -1.581139 0 -1.581139 
C -0.419323 -1.581139 -0.821528 -1.41454 -1.118034 -1.118034 
C -1.41454 -0.821528 -1.581139 -0.419323 -1.581139 0 
C -1.581139 0.419323 -1.41454 0.821528 -1.118034 1.118034 
C -0.821528 1.41454 -0.419323 1.581139 0 1.581139 
z
" style="stroke: #1f77b4; stroke-opacity: 0.5"/>
    </defs>
    <g clip-path="url(#pc86beda9ad)">
     <use xlink:href="#m36d9a1c333" x="159.241699" y="72.922902" style="fill: #1f77b4; fill-opacity: 0.5; stroke: #1f77b4; stroke-opacity: 0.5"/>
     <use xlink:href="#m36d9a1c333" x="162.649447" y="77.648806" style="fill: #1f77b4; fill-opacity: 0.5; stroke: #1f77b4; stroke-opacity: 0.5"/>
     <use xlink:href="#m36d9a1c333" x="162.9089" y="78.845001" style="fill: #1f77b4; fill-opacity: 0.5; stroke: #1f77b4; stroke-opacity: 0.5"/>
     <use xlink:href="#m36d9a1c333" x="162.378794" y="69.596201" style="fill: #1f77b4; fill-opacity: 0.5; stroke: #1f77b4; stroke-opacity: 0.5"/>
     <use xlink:href="#m36d9a1c333" x="168.871326" y="50.842504" style="fill: #1f77b4; fill-opacity: 0.5; stroke: #1f77b4; stroke-opacity: 0.5"/>
     <use xlink:href="#m36d9a1c333" x="168.921804" y="47.014655" style="fill: #1f77b4; fill-opacity: 0.5; stroke: #1f77b4; stroke-opacity: 0.5"/>
     <use xlink:href="#m36d9a1c333" x="173.636083" y="45.105797" style="fill: #1f77b4; fill-opacity: 0.5; stroke: #1f77b4; stroke-opacity: 0.5"/>
     <use xlink:href="#m36d9a1c333" x="175.870072" y="44.510726" style="fill: #1f77b4; fill-opacity: 0.5; stroke: #1f77b4; stroke-opacity: 0.5"/>
     <use xlink:href="#m36d9a1c333" x="169.283663" y="61.709335" style="fill: #1f77b4; fill-opacity: 0.5; stroke: #1f77b4; stroke-opacity: 0.5"/>
     <use xlink:href="#m36d9a1c333" x="167.615925" y="61.325761" style="fill: #1f77b4; fill-opacity: 0.5; stroke: #1f77b4; stroke-opacity: 0.5"/>
     <use xlink:href="#m36d9a1c333" x="159.160656" y="60.538759" style="fill: #1f77b4; fill-opacity: 0.5; stroke: #1f77b4; stroke-opacity: 0.5"/>
     <use xlink:href="#m36d9a1c333" x="157.606167" y="60.095304" style="fill: #1f77b4; fill-opacity: 0.5; stroke: #1f77b4; stroke-opacity: 0.5"/>
     <use xlink:href="#m36d9a1c333" x="156.907591" y="60.36489" style="fill: #1f77b4; fill-opacity: 0.5; stroke: #1f77b4; stroke-opacity: 0.5"/>
     <use xlink:href="#m36d9a1c333" x="160.657579" y="59.428396" style="fill: #1f77b4; fill-opacity: 0.5; stroke: #1f77b4; stroke-opacity: 0.5"/>
     <use xlink:href="#m36d9a1c333" x="156.841887" y="55.951092" style="fill: #1f77b4; fill-opacity: 0.5; stroke: #1f77b4; stroke-opacity: 0.5"/>
     <use xlink:href="#m36d9a1c333" x="158.866534" y="56.473469" style="fill: #1f77b4; fill-opacity: 0.5; stroke: #1f77b4; stroke-opacity: 0.5"/>
     <use xlink:href="#m36d9a1c333" x="180.434951" y="74.158396" style="fill: #1f77b4; fill-opacity: 0.5; stroke: #1f77b4; stroke-opacity: 0.5"/>
     <use xlink:href="#m36d9a1c333" x="177.411106" y="70.336462" style="fill: #1f77b4; fill-opacity: 0.5; stroke: #1f77b4; stroke-opacity: 0.5"/>
     <use xlink:href="#m36d9a1c333" x="179.040932" y="72.941836" style="fill: #1f77b4; fill-opacity: 0.5; stroke: #1f77b4; stroke-opacity: 0.5"/>
     <use xlink:href="#m36d9a1c333" x="180.246763" y="70.4699" style="fill: #1f77b4; fill-opacity: 0.5; stroke: #1f77b4; stroke-opacity: 0.5"/>
     <use xlink:href="#m36d9a1c333" x="166.016988" y="70.777237" style="fill: #1f77b4; fill-opacity: 0.5; stroke: #1f77b4; stroke-opacity: 0.5"/>
     <use xlink:href="#m36d9a1c333" x="165.946849" y="73.863793" style="fill: #1f77b4; fill-opacity: 0.5; stroke: #1f77b4; stroke-opacity: 0.5"/>
     <use xlink:href="#m36d9a1c333" x="177.907917" y="75.772379" style="fill: #1f77b4; fill-opacity: 0.5; stroke: #1f77b4; stroke-opacity: 0.5"/>
     <use xlink:href="#m36d9a1c333" x="177.435537" y="77.204967" style="fill: #1f77b4; fill-opacity: 0.5; stroke: #1f77b4; stroke-opacity: 0.5"/>
     <use xlink:href="#m36d9a1c333" x="173.208694" y="74.445207" style="fill: #1f77b4; fill-opacity: 0.5; stroke: #1f77b4; stroke-opacity: 0.5"/>
     <use xlink:href="#m36d9a1c333" x="170.036618" y="69.083777" style="fill: #1f77b4; fill-opacity: 0.5; stroke: #1f77b4; stroke-opacity: 0.5"/>
     <use xlink:href="#m36d9a1c333" x="167.497637" y="68.615271" style="fill: #1f77b4; fill-opacity: 0.5; stroke: #1f77b4; stroke-opacity: 0.5"/>
     <use xlink:href="#m36d9a1c333" x="179.622461" y="66.513897" style="fill: #1f77b4; fill-opacity: 0.5; stroke: #1f77b4; stroke-opacity: 0.5"/>
     <use xlink:href="#m36d9a1c333" x="180.355471" y="68.213464" style="fill: #1f77b4; fill-opacity: 0.5; stroke: #1f77b4; stroke-opacity: 0.5"/>
     <use xlink:href="#m36d9a1c333" x="178.876813" y="64.159526" style="fill: #1f77b4; fill-opacity: 0.5; stroke: #1f77b4; stroke-opacity: 0.5"/>
     <use xlink:href="#m36d9a1c333" x="177.680722" y="63.077627" style="fill: #1f77b4; fill-opacity: 0.5; stroke: #1f77b4; stroke-opacity: 0.5"/>
     <use xlink:href="#m36d9a1c333" x="179.084755" y="59.79182" style="fill: #1f77b4; fill-opacity: 0.5; stroke: #1f77b4; stroke-opacity: 0.5"/>
     <use xlink:href="#m36d9a1c333" x="180.505832" y="62.415815" style="fill: #1f77b4; fill-opacity: 0.5; stroke: #1f77b4; stroke-opacity: 0.5"/>
     <use xlink:href="#m36d9a1c333" x="173.801433" y="66.144265" style="fill: #1f77b4; fill-opacity: 0.5; stroke: #1f77b4; stroke-opacity: 0.5"/>
     <use xlink:href="#m36d9a1c333" x="174.793511" y="69.661168" style="fill: #1f77b4; fill-opacity: 0.5; stroke: #1f77b4; stroke-opacity: 0.5"/>
     <use xlink:href="#m36d9a1c333" x="173.219482" y="62.79074" style="fill: #1f77b4; fill-opacity: 0.5; stroke: #1f77b4; stroke-opacity: 0.5"/>
     <use xlink:href="#m36d9a1c333" x="178.955033" y="49.001799" style="fill: #1f77b4; fill-opacity: 0.5; stroke: #1f77b4; stroke-opacity: 0.5"/>
     <use xlink:href="#m36d9a1c333" x="169.906257" y="53.114967" style="fill: #1f77b4; fill-opacity: 0.5; stroke: #1f77b4; stroke-opacity: 0.5"/>
     <use xlink:href="#m36d9a1c333" x="181.357303" y="50.307555" style="fill: #1f77b4; fill-opacity: 0.5; stroke: #1f77b4; stroke-opacity: 0.5"/>
     <use xlink:href="#m36d9a1c333" x="184.07187" y="53.188523" style="fill: #1f77b4; fill-opacity: 0.5; stroke: #1f77b4; stroke-opacity: 0.5"/>
     <use xlink:href="#m36d9a1c333" x="172.147001" y="51.026978" style="fill: #1f77b4; fill-opacity: 0.5; stroke: #1f77b4; stroke-opacity: 0.5"/>
     <use xlink:href="#m36d9a1c333" x="161.011004" y="67.429301" style="fill: #1f77b4; fill-opacity: 0.5; stroke: #1f77b4; stroke-opacity: 0.5"/>
     <use xlink:href="#m36d9a1c333" x="157.236214" y="63.767539" style="fill: #1f77b4; fill-opacity: 0.5; stroke: #1f77b4; stroke-opacity: 0.5"/>
     <use xlink:href="#m36d9a1c333" x="174.485772" y="49.114084" style="fill: #1f77b4; fill-opacity: 0.5; stroke: #1f77b4; stroke-opacity: 0.5"/>
     <use xlink:href="#m36d9a1c333" x="172.852046" y="49.28016" style="fill: #1f77b4; fill-opacity: 0.5; stroke: #1f77b4; stroke-opacity: 0.5"/>
     <use xlink:href="#m36d9a1c333" x="175.639222" y="61.286601" style="fill: #1f77b4; fill-opacity: 0.5; stroke: #1f77b4; stroke-opacity: 0.5"/>
     <use xlink:href="#m36d9a1c333" x="181.498147" y="53.332898" style="fill: #1f77b4; fill-opacity: 0.5; stroke: #1f77b4; stroke-opacity: 0.5"/>
     <use xlink:href="#m36d9a1c333" x="181.418124" y="51.491812" style="fill: #1f77b4; fill-opacity: 0.5; stroke: #1f77b4; stroke-opacity: 0.5"/>
     <use xlink:href="#m36d9a1c333" x="179.855576" y="52.398953" style="fill: #1f77b4; fill-opacity: 0.5; stroke: #1f77b4; stroke-opacity: 0.5"/>
     <use xlink:href="#m36d9a1c333" x="151.730884" y="76.50384" style="fill: #1f77b4; fill-opacity: 0.5; stroke: #1f77b4; stroke-opacity: 0.5"/>
     <use xlink:href="#m36d9a1c333" x="157.107084" y="85.847882" style="fill: #1f77b4; fill-opacity: 0.5; stroke: #1f77b4; stroke-opacity: 0.5"/>
     <use xlink:href="#m36d9a1c333" x="154.847097" y="90.444444" style="fill: #1f77b4; fill-opacity: 0.5; stroke: #1f77b4; stroke-opacity: 0.5"/>
     <use xlink:href="#m36d9a1c333" x="155.861859" y="89.155274" style="fill: #1f77b4; fill-opacity: 0.5; stroke: #1f77b4; stroke-opacity: 0.5"/>
     <use xlink:href="#m36d9a1c333" x="143.975067" y="76.492603" style="fill: #1f77b4; fill-opacity: 0.5; stroke: #1f77b4; stroke-opacity: 0.5"/>
     <use xlink:href="#m36d9a1c333" x="137.244988" y="77.786786" style="fill: #1f77b4; fill-opacity: 0.5; stroke: #1f77b4; stroke-opacity: 0.5"/>
     <use xlink:href="#m36d9a1c333" x="132.854551" y="81.736824" style="fill: #1f77b4; fill-opacity: 0.5; stroke: #1f77b4; stroke-opacity: 0.5"/>
     <use xlink:href="#m36d9a1c333" x="136.377563" y="79.022128" style="fill: #1f77b4; fill-opacity: 0.5; stroke: #1f77b4; stroke-opacity: 0.5"/>
     <use xlink:href="#m36d9a1c333" x="133.196232" y="74.918643" style="fill: #1f77b4; fill-opacity: 0.5; stroke: #1f77b4; stroke-opacity: 0.5"/>
     <use xlink:href="#m36d9a1c333" x="170.688821" y="101.727303" style="fill: #1f77b4; fill-opacity: 0.5; stroke: #1f77b4; stroke-opacity: 0.5"/>
     <use xlink:href="#m36d9a1c333" x="178.916208" y="81.118234" style="fill: #1f77b4; fill-opacity: 0.5; stroke: #1f77b4; stroke-opacity: 0.5"/>
     <use xlink:href="#m36d9a1c333" x="188.074018" y="82.923004" style="fill: #1f77b4; fill-opacity: 0.5; stroke: #1f77b4; stroke-opacity: 0.5"/>
     <use xlink:href="#m36d9a1c333" x="129.001789" y="55.333885" style="fill: #1f77b4; fill-opacity: 0.5; stroke: #1f77b4; stroke-opacity: 0.5"/>
     <use xlink:href="#m36d9a1c333" x="187.643112" y="78.194577" style="fill: #1f77b4; fill-opacity: 0.5; stroke: #1f77b4; stroke-opacity: 0.5"/>
     <use xlink:href="#m36d9a1c333" x="154.437343" y="64.44279" style="fill: #1f77b4; fill-opacity: 0.5; stroke: #1f77b4; stroke-opacity: 0.5"/>
     <use xlink:href="#m36d9a1c333" x="156.175197" y="64.726988" style="fill: #1f77b4; fill-opacity: 0.5; stroke: #1f77b4; stroke-opacity: 0.5"/>
     <use xlink:href="#m36d9a1c333" x="156.605695" y="67.658302" style="fill: #1f77b4; fill-opacity: 0.5; stroke: #1f77b4; stroke-opacity: 0.5"/>
     <use xlink:href="#m36d9a1c333" x="149.924395" y="69.698917" style="fill: #1f77b4; fill-opacity: 0.5; stroke: #1f77b4; stroke-opacity: 0.5"/>
     <use xlink:href="#m36d9a1c333" x="148.649122" y="65.866016" style="fill: #1f77b4; fill-opacity: 0.5; stroke: #1f77b4; stroke-opacity: 0.5"/>
     <use xlink:href="#m36d9a1c333" x="152.402885" y="66.362341" style="fill: #1f77b4; fill-opacity: 0.5; stroke: #1f77b4; stroke-opacity: 0.5"/>
     <use xlink:href="#m36d9a1c333" x="149.154796" y="66.965048" style="fill: #1f77b4; fill-opacity: 0.5; stroke: #1f77b4; stroke-opacity: 0.5"/>
     <use xlink:href="#m36d9a1c333" x="148.551782" y="69.509791" style="fill: #1f77b4; fill-opacity: 0.5; stroke: #1f77b4; stroke-opacity: 0.5"/>
     <use xlink:href="#m36d9a1c333" x="154.904469" y="68.157678" style="fill: #1f77b4; fill-opacity: 0.5; stroke: #1f77b4; stroke-opacity: 0.5"/>
     <use xlink:href="#m36d9a1c333" x="147.308817" y="66.997006" style="fill: #1f77b4; fill-opacity: 0.5; stroke: #1f77b4; stroke-opacity: 0.5"/>
     <use xlink:href="#m36d9a1c333" x="154.557051" y="80.76914" style="fill: #1f77b4; fill-opacity: 0.5; stroke: #1f77b4; stroke-opacity: 0.5"/>
     <use xlink:href="#m36d9a1c333" x="154.422316" y="50.330389" style="fill: #1f77b4; fill-opacity: 0.5; stroke: #1f77b4; stroke-opacity: 0.5"/>
     <use xlink:href="#m36d9a1c333" x="153.763725" y="51.191126" style="fill: #1f77b4; fill-opacity: 0.5; stroke: #1f77b4; stroke-opacity: 0.5"/>
     <use xlink:href="#m36d9a1c333" x="156.037399" y="50.040082" style="fill: #1f77b4; fill-opacity: 0.5; stroke: #1f77b4; stroke-opacity: 0.5"/>
     <use xlink:href="#m36d9a1c333" x="182.432392" y="51.151815" style="fill: #1f77b4; fill-opacity: 0.5; stroke: #1f77b4; stroke-opacity: 0.5"/>
     <use xlink:href="#m36d9a1c333" x="181.826321" y="51.175738" style="fill: #1f77b4; fill-opacity: 0.5; stroke: #1f77b4; stroke-opacity: 0.5"/>
     <use xlink:href="#m36d9a1c333" x="191.051692" y="52.324108" style="fill: #1f77b4; fill-opacity: 0.5; stroke: #1f77b4; stroke-opacity: 0.5"/>
     <use xlink:href="#m36d9a1c333" x="192.935904" y="52.02425" style="fill: #1f77b4; fill-opacity: 0.5; stroke: #1f77b4; stroke-opacity: 0.5"/>
     <use xlink:href="#m36d9a1c333" x="192.042209" y="52.522382" style="fill: #1f77b4; fill-opacity: 0.5; stroke: #1f77b4; stroke-opacity: 0.5"/>
     <use xlink:href="#m36d9a1c333" x="189.134117" y="58.79234" style="fill: #1f77b4; fill-opacity: 0.5; stroke: #1f77b4; stroke-opacity: 0.5"/>
     <use xlink:href="#m36d9a1c333" x="189.98242" y="60.258763" style="fill: #1f77b4; fill-opacity: 0.5; stroke: #1f77b4; stroke-opacity: 0.5"/>
     <use xlink:href="#m36d9a1c333" x="194.664089" y="51.391122" style="fill: #1f77b4; fill-opacity: 0.5; stroke: #1f77b4; stroke-opacity: 0.5"/>
    </g>
   </g>
   <g id="text_1">
    <text style="font: 12px 'DejaVu Sans', 'Bitstream Vera Sans', 'Computer Modern Sans Serif', 'Lucida Grande', 'Verdana', 'Geneva', 'Lucid', 'Arial', 'Helvetica', 'Avant Garde', sans-serif; text-anchor: middle" x="146.7" y="16.318125" transform="rotate(-0 146.7 16.318125)">-ikon 85x</text>
   </g>
  </g>
 </g>
 <defs>
  <clipPath id="pc86beda9ad">
   <rect x="7.2" y="22.318125" width="279" height="180.542308"/>
  </clipPath>
 </defs>
</svg>
