<?xml version="1.0" encoding="utf-8" standalone="no"?>
<!DOCTYPE svg PUBLIC "-//W3C//DTD SVG 1.1//EN"
  "http://www.w3.org/Graphics/SVG/1.1/DTD/svg11.dtd">
<svg xmlns:xlink="http://www.w3.org/1999/xlink" width="293.4pt" height="209.439297pt" viewBox="0 0 293.4 209.439297" xmlns="http://www.w3.org/2000/svg" version="1.1">
 <metadata>
  <rdf:RDF xmlns:dc="http://purl.org/dc/elements/1.1/" xmlns:cc="http://creativecommons.org/ns#" xmlns:rdf="http://www.w3.org/1999/02/22-rdf-syntax-ns#">
   <cc:Work>
    <dc:type rdf:resource="http://purl.org/dc/dcmitype/StillImage"/>
    <dc:date>2024-08-06T14:07:35.520936</dc:date>
    <dc:format>image/svg+xml</dc:format>
    <dc:creator>
     <cc:Agent>
      <dc:title>Matplotlib v3.9.1, https://matplotlib.org/</dc:title>
     </cc:Agent>
    </dc:creator>
   </cc:Work>
  </rdf:RDF>
 </metadata>
 <defs>
  <style type="text/css">*{stroke-linejoin: round; stroke-linecap: butt}</style>
 </defs>
 <g id="figure_1">
  <g id="patch_1">
   <path d="M 0 209.439297 
L 293.4 209.439297 
L 293.4 -0 
L 0 -0 
z
" style="fill: #ffffff"/>
  </g>
  <g id="axes_1">
   <g id="PatchCollection_1">
    <defs>
     <path id="maa04ed330c" d="M 272.797731 -101.577908 
L 272.501417 -98.918979 
L 272.298064 -98.176357 
L 271.966889 -97.6514 
L 270.740961 -96.161887 
L 270.845543 -94.932719 
L 271.246439 -93.731293 
L 271.385881 -92.593885 
L 270.706101 -91.550373 
L 269.753247 -90.933655 
L 269.526653 -90.178229 
L 269.578944 -89.237147 
L 269.456932 -88.065596 
L 268.916594 -87.090371 
L 268.306535 -86.503529 
L 268.039272 -85.718227 
L 268.509888 -84.139087 
L 269.526653 -82.944063 
L 271.920408 -82.683718 
L 273.094046 -81.685019 
L 273.518182 -80.093076 
L 273.477511 -77.961238 
L 273.030135 -75.914759 
L 272.686514 -75.337008 
L 272.245773 -74.595964 
L 271.229008 -74.397504 
L 267.202619 -75.470892 
L 265.24462 -75.283103 
L 264.52417 -75.402605 
L 263.890871 -75.699227 
L 263.536455 -76.079074 
L 263.240141 -76.495199 
L 262.798575 -76.892118 
L 260.480351 -77.698759 
L 260.230517 -78.595028 
L 260.538451 -80.291536 
L 260.42806 -81.224082 
L 259.533307 -81.966704 
L 258.086596 -81.9539 
L 252.764558 -80.402502 
L 252.22422 -80.101612 
L 251.980196 -79.491296 
L 251.288796 -76.798223 
L 250.823989 -76.166567 
L 249.609681 -74.937399 
L 249.127444 -74.203313 
L 249.051913 -73.610069 
L 249.040293 -71.796192 
L 248.796269 -70.916996 
L 248.86599 -70.153034 
L 248.999622 -69.553387 
L 249.272696 -69.090315 
L 249.760744 -68.753148 
L 248.767219 -67.041702 
L 249.650352 -65.923501 
L 251.300416 -65.270505 
L 253.816183 -64.775424 
L 254.786467 -64.378505 
L 255.198983 -63.460897 
L 254.774847 -61.659824 
L 254.368141 -61.104992 
L 253.188694 -60.02947 
L 252.764558 -59.227096 
L 252.479863 -58.108895 
L 252.445003 -57.353468 
L 252.671596 -56.657793 
L 253.182884 -55.735917 
L 255.501108 -53.333065 
L 256.221558 -51.860624 
L 255.483677 -50.281484 
L 253.914954 -49.27425 
L 251.54444 -48.356642 
L 249.685212 -48.395053 
L 249.638732 -50.260145 
L 249.069343 -51.664298 
L 246.849891 -53.670232 
L 246.024859 -54.805506 
L 245.658823 -56.615114 
L 245.635583 -58.249737 
L 245.263738 -59.594139 
L 243.857697 -60.533087 
L 242.70149 -60.838245 
L 241.609194 -60.92147 
L 239.157338 -60.492541 
L 235.415643 -58.537823 
L 234.247816 -58.151574 
L 233.527365 -58.309488 
L 232.156185 -59.150273 
L 231.551937 -59.165211 
L 230.941878 -58.463134 
L 230.831486 -57.519918 
L 230.918637 -56.583104 
L 230.895397 -55.932243 
L 230.035504 -54.720147 
L 228.978069 -54.284816 
L 222.534684 -54.361639 
L 221.227415 -54.848185 
L 220.036348 -55.671898 
L 219.321707 -56.674865 
L 218.200361 -59.65389 
L 217.700693 -60.072149 
L 216.457335 -60.774226 
L 216.050629 -61.179681 
L 215.940238 -61.642753 
L 216.021579 -62.901796 
L 215.684594 -70.823101 
L 215.504481 -71.341656 
L 215.062915 -71.241359 
L 214.156542 -70.562756 
L 213.773076 -70.035665 
L 213.575533 -69.448823 
L 213.302459 -68.953741 
L 212.6924 -68.706201 
L 212.268264 -68.89399 
L 210.833173 -70.281072 
L 210.792502 -71.303245 
L 209.676966 -71.604135 
L 206.940416 -71.262699 
L 205.86555 -70.251196 
L 204.889456 -68.262334 
L 204.447889 -66.239329 
L 204.988227 -65.123261 
L 205.737728 -64.59617 
L 205.84812 -63.768189 
L 205.702868 -62.72681 
L 205.708678 -61.546724 
L 206.463989 -58.61678 
L 206.53952 -57.554062 
L 206.190915 -55.735917 
L 204.546661 -52.236203 
L 203.710008 -49.278518 
L 203.198721 -48.442 
L 202.547991 -47.823148 
L 201.874021 -47.498785 
L 201.263962 -47.037847 
L 200.950218 -46.218401 
L 200.688764 -45.26665 
L 200.277789 -44.472196 
L 200.247198 -44.413061 
L 196.162708 -41.596218 
L 195.122702 -40.004274 
L 194.901919 -38.937288 
L 195.023931 -37.076464 
L 194.843818 -36.060694 
L 194.396442 -35.288196 
L 193.861914 -34.9681 
L 192.630176 -34.571181 
L 191.189275 -33.43164 
L 190.945251 -32.492692 
L 191.944586 -29.616098 
L 190.096979 -27.870508 
L 189.974967 -27.665647 
L 189.934296 -27.45225 
L 189.974967 -27.243121 
L 190.096979 -27.033991 
L 190.701228 -26.406603 
L 191.166034 -24.904287 
L 191.677322 -24.127521 
L 192.22347 -23.807425 
L 193.449398 -23.555617 
L 193.978116 -23.209913 
L 194.617225 -21.839903 
L 194.402252 -20.435749 
L 193.002021 -17.640246 
L 191.206705 -15.378235 
L 189.51597 -15.702599 
L 187.674173 -16.543384 
L 185.448911 -15.847709 
L 185.658074 -17.119556 
L 185.995059 -18.101184 
L 186.221652 -19.12549 
L 186.128691 -20.555252 
L 185.814946 -21.635042 
L 185.344329 -22.714832 
L 184.368235 -24.494564 
L 183.816277 -25.813359 
L 183.450241 -26.338316 
L 183.072586 -26.64134 
L 179.847988 -28.412537 
L 178.988096 -28.724097 
L 178.023622 -28.788116 
L 178.116583 -29.010049 
L 178.331556 -29.406968 
L 179.319271 -31.72873 
L 180.928664 -33.730396 
L 181.759507 -35.668043 
L 180.330226 -37.597154 
L 179.481953 -37.900178 
L 177.756358 -37.857498 
L 176.855795 -37.985537 
L 176.425848 -38.284293 
L 176.013332 -39.056791 
L 175.834808 -39.124 
L 175.548525 -39.231776 
L 175.19992 -39.065327 
L 174.328408 -38.275757 
L 173.927512 -38.045288 
L 172.939797 -38.096503 
L 170.319449 -39.658571 
L 169.232963 -40.042686 
L 168.686815 -40.328638 
L 165.136853 -45.68064 
L 163.539079 -47.353675 
L 161.987787 -48.15178 
L 160.517835 -48.75356 
L 159.48364 -49.624221 
L 158.867771 -50.951552 
L 158.646988 -52.966022 
L 158.83872 -55.091458 
L 159.750904 -59.370072 
L 159.942637 -61.749451 
L 159.913586 -64.241931 
L 159.681183 -66.107022 
L 158.908441 -67.242296 
L 157.293238 -67.530382 
L 156.548421 -67.367463 
L 154.161602 -66.845377 
L 152.633549 -66.000324 
L 151.436672 -64.711404 
L 150.966055 -63.663624 
L 151.181028 -63.313653 
L 151.552874 -63.025567 
L 151.576114 -62.189049 
L 151.239129 -61.433623 
L 150.681361 -60.752886 
L 150.036441 -60.251403 
L 148.444478 -59.431957 
L 145.678878 -55.718846 
L 144.51686 -54.895132 
L 142.076625 -54.3403 
L 140.862317 -53.768395 
L 139.764211 -52.633122 
L 139.200633 -51.82648 
L 138.962419 -51.130805 
L 139.159962 -50.81071 
L 140.473041 -49.645561 
L 142.134726 -46.376315 
L 142.291598 -43.346075 
L 141.07148 -40.670074 
L 138.613814 -38.493422 
L 138.003755 -38.284293 
L 136.841738 -38.156254 
L 136.27816 -37.712388 
L 135.877264 -36.863067 
L 135.755252 -35.915584 
L 135.749442 -34.98944 
L 135.453128 -32.637802 
L 135.348546 -32.471352 
L 134.802398 -31.242184 
L 134.761727 -31.062931 
L 134.058707 -30.128251 
L 133.657811 -29.786815 
L 133.117473 -29.616098 
L 129.131755 -28.694222 
L 128.320962 -28.026873 
L 127.7102 -26.830472 
L 127.55751 -25.260195 
L 126.400518 -25.205887 
L 126.331294 -25.070737 
L 126.156991 -24.221416 
L 126.203472 -23.790353 
L 126.06984 -23.512937 
L 125.36682 -23.120286 
L 125.041455 -23.137358 
L 124.03631 -23.453186 
L 122.490828 -23.42331 
L 119.789138 -24.434813 
L 119.23718 -24.370794 
L 118.813044 -24.165933 
L 118.342427 -24.050698 
L 117.651027 -24.293971 
L 117.569685 -24.5031 
L 116.51225 -26.08224 
L 115.669788 -26.884613 
L 114.786655 -27.405302 
L 109.057911 -28.873475 
L 108.116677 -28.374126 
L 107.570529 -27.435178 
L 106.95466 -26.611465 
L 105.775213 -26.457819 
L 104.101908 -25.715196 
L 100.778539 -23.222717 
L 98.977413 -22.573989 
L 94.753481 -23.034927 
L 94.0156 -22.774583 
L 92.435257 -21.771616 
L 88.966636 -20.311979 
L 87.270091 -19.987615 
L 85.434104 -19.953471 
L 83.708509 -20.316247 
L 82.40124 -21.11862 
L 79.879663 -24.012287 
L 79.490387 -24.678086 
L 79.188263 -25.510335 
L 78.793177 -27.021187 
L 78.148257 -28.736901 
L 77.944904 -29.616098 
L 77.67183 -29.803887 
L 73.866225 -34.19987 
L 72.588006 -34.776042 
L 72.117389 -34.579717 
L 71.716493 -34.15719 
L 71.286547 -33.824291 
L 70.752019 -33.901114 
L 70.258162 -34.285229 
L 70.223301 -34.541306 
L 70.339503 -34.887009 
L 70.316263 -35.527201 
L 70.397604 -35.608292 
L 70.380174 -36.470416 
L 70.281402 -37.289862 
L 70.12453 -37.208771 
L 70.380174 -37.635565 
L 70.83336 -38.198934 
L 71.228446 -38.83059 
L 71.286547 -39.462245 
L 70.426654 -40.311566 
L 65.952889 -41.318801 
L 65.464841 -42.705883 
L 65.981939 -45.53553 
L 66.958033 -48.493216 
L 68.950893 -52.441064 
L 67.672674 -54.681735 
L 65.679815 -56.834913 
L 64.604949 -58.721345 
L 64.907073 -59.67523 
L 66.388645 -61.442159 
L 66.789541 -62.824973 
L 66.726476 -63.634567 
L 66.667529 -64.391309 
L 66.142326 -65.211909 
L 65.296349 -65.637548 
L 56.921111 -67.837674 
L 53.173606 -67.95931 
L 49.571353 -67.23376 
L 44.778033 -63.896227 
L 42.953666 -63.422485 
L 41.106059 -63.334992 
L 39.374654 -62.765222 
L 37.550287 -61.158341 
L 35.946704 -59.005163 
L 34.761446 -57.366272 
L 34.459322 -56.239535 
L 34.691725 -55.415822 
L 35.208823 -54.011668 
L 35.237873 -53.678768 
L 35.778211 -52.313026 
L 36.016425 -51.963055 
L 36.603243 -51.651495 
L 37.544477 -52.091093 
L 37.939563 -51.916107 
L 38.230067 -50.012604 
L 36.777546 -48.446268 
L 33.181103 -46.017808 
L 30.310921 -42.590649 
L 28.486554 -41.634629 
L 26.575036 -42.50529 
L 24.012789 -42.402859 
L 21.462161 -41.784007 
L 20.108412 -40.960294 
L 20.857912 -42.75283 
L 21.287859 -43.58508 
L 21.462161 -44.293558 
L 20.468637 -45.565406 
L 19.881818 -46.696411 
L 20.090981 -47.690842 
L 21.462161 -48.578575 
L 24.832011 -50.260145 
L 24.924972 -50.29002 
L 25.017933 -50.298556 
L 25.122515 -50.29002 
L 25.564081 -50.14491 
L 25.901066 -50.102231 
L 26.226431 -50.140642 
L 27.463979 -50.533293 
L 27.708003 -51.083858 
L 27.655712 -51.84782 
L 27.684763 -52.73982 
L 28.085658 -55.078654 
L 28.271581 -55.723114 
L 29.089878 -57.585949 
L 30.090138 -59.86302 
L 30.014607 -60.77636 
L 29.329017 -62.026868 
L 28.503985 -62.931672 
L 25.740097 -64.656635 
L 25.47112 -64.824505 
L 26.11604 -65.451893 
L 26.220621 -65.996056 
L 26.104419 -66.555157 
L 26.104419 -67.184678 
L 26.063749 -67.438621 
L 25.930117 -67.780057 
L 25.808105 -68.16844 
L 25.808105 -68.590966 
L 26.028888 -69.094583 
L 26.667998 -69.794526 
L 28.625996 -73.200346 
L 30.613046 -75.744041 
L 29.253486 -77.284769 
L 29.079183 -78.373095 
L 29.834494 -79.376062 
L 37.393415 -86.37549 
L 41.419804 -88.609759 
L 41.977572 -89.085635 
L 43.459144 -90.773607 
L 45.324181 -91.772306 
L 45.91681 -92.218306 
L 46.550109 -93.02068 
L 46.765082 -93.705685 
L 46.741842 -95.099169 
L 46.323516 -95.564375 
L 46.027202 -95.969829 
L 45.870329 -96.435035 
L 45.95167 -96.836222 
L 46.834803 -99.522893 
L 47.224079 -100.233506 
L 47.332569 -100.506532 
L 47.537824 -101.023076 
L 47.630785 -102.166885 
L 47.450672 -103.080225 
L 46.701171 -104.518522 
L 46.468768 -105.265412 
L 47.30542 -108.163347 
L 50.03035 -109.751022 
L 56.078649 -111.663061 
L 59.829059 -114.533254 
L 61.113088 -116.396211 
L 60.439118 -117.928403 
L 61.194429 -119.240796 
L 61.723147 -119.76362 
L 63.134997 -120.271505 
L 63.34416 -120.796462 
L 63.553323 -120.941572 
L 64.360925 -121.359831 
L 64.291204 -122.77252 
L 65.976129 -123.361497 
L 69.535563 -126.660768 
L 69.659723 -126.775852 
L 70.728779 -128.542781 
L 72.361413 -130.226485 
L 76.178639 -133.028391 
L 75.952045 -135.077004 
L 76.312271 -136.771378 
L 77.369706 -137.859704 
L 77.880993 -137.923723 
L 78.183118 -138.043226 
L 79.00234 -139.150757 
L 79.589159 -139.494327 
L 80.164357 -139.65224 
L 80.693075 -139.989408 
L 81.128831 -140.896346 
L 80.542013 -141.734997 
L 79.69955 -142.498959 
L 78.862898 -143.179697 
L 77.828703 -142.682481 
L 71.141295 -142.025218 
L 71.420179 -143.081534 
L 72.117389 -144.372587 
L 72.948231 -145.456645 
L 74.394942 -146.305966 
L 74.482094 -147.863766 
L 75.957855 -148.192397 
L 76.870039 -148.717354 
L 77.706691 -149.427967 
L 78.130827 -150.123642 
L 77.857753 -151.107403 
L 77.276745 -152.249078 
L 77.137303 -153.168821 
L 78.183118 -153.486782 
L 78.682785 -153.877299 
L 79.188263 -154.007472 
L 79.69955 -153.877299 
L 80.210838 -153.486782 
L 81.669169 -153.275519 
L 84.46963 -153.762065 
L 85.79433 -153.486782 
L 86.5264 -153.06639 
L 86.630465 -153.049798 
L 87.275901 -152.946887 
L 88.803954 -153.100533 
L 87.781379 -150.757432 
L 88.100933 -149.408761 
L 89.321051 -148.678943 
L 90.971115 -148.162522 
L 91.203519 -147.976866 
L 91.360391 -147.680244 
L 91.586985 -147.381488 
L 92.022741 -147.197966 
L 92.400396 -147.274789 
L 94.526888 -148.196665 
L 96.014269 -148.508225 
L 97.579131 -148.441513 
L 99.918647 -148.341775 
L 100.462385 -148.560044 
L 101.48156 -148.969163 
L 102.280648 -150.010995 
L 102.591286 -150.415996 
L 102.771398 -151.188494 
L 102.678437 -151.6537 
L 102.405363 -152.039949 
L 102.21944 -152.240543 
L 101.934746 -152.750562 
L 101.928936 -153.258447 
L 102.585476 -153.450505 
L 103.456989 -153.147481 
L 103.710372 -152.986464 
L 104.189059 -152.682275 
L 104.91532 -152.575576 
L 105.775213 -153.348074 
L 105.873984 -153.486782 
L 105.949515 -153.721519 
L 105.955325 -153.93705 
L 105.946663 -153.96791 
L 105.897224 -154.144046 
L 105.496328 -154.70528 
L 105.374317 -155.03818 
L 105.449848 -155.298525 
L 105.775213 -155.47351 
L 106.356221 -155.34974 
L 106.809408 -155.499118 
L 107.053431 -155.970726 
L 107.036001 -156.796573 
L 106.844268 -156.792305 
L 105.908844 -157.505052 
L 105.775213 -157.560535 
L 107.919309 -159.307218 
L 108.227068 -159.557933 
L 109.575008 -160.304824 
L 111.551776 -161.046813 
L 111.58245 -161.058327 
L 114.44967 -161.913839 
L 115.722078 -162.046145 
L 114.984198 -159.978326 
L 114.385759 -159.404287 
L 113.061425 -159.415823 
L 112.915807 -159.417091 
L 115.004462 -158.318551 
L 115.82085 -157.889167 
L 117.058398 -157.724851 
L 119.52532 -158.234094 
L 121.741327 -158.691541 
L 122.798762 -159.289053 
L 123.693515 -160.353905 
L 124.71609 -161.943714 
L 125.506262 -161.542527 
L 129.131755 -161.324862 
L 129.47455 -160.970623 
L 129.654663 -160.195991 
L 129.765054 -159.421359 
L 129.916116 -159.071388 
L 137.231014 -159.071388 
L 139.758401 -159.634756 
L 140.304549 -160.003933 
L 140.554382 -160.362441 
L 140.780976 -160.780699 
L 141.257403 -161.324862 
L 141.716399 -161.679102 
L 142.936517 -162.334231 
L 143.964902 -162.639389 
L 144.348368 -163.04271 
L 144.627252 -163.446031 
L 144.917756 -163.63382 
L 147.950621 -164.141706 
L 148.967386 -164.145973 
L 150.425717 -163.702107 
L 151.076447 -163.63382 
L 151.378571 -163.275313 
L 151.680695 -162.479341 
L 152.075781 -161.68337 
L 152.627739 -161.324862 
L 154.760041 -160.761494 
L 158.356483 -160.740154 
L 158.526853 -160.768711 
L 160.087889 -161.030374 
L 160.15761 -161.423025 
L 160.814149 -162.835715 
L 162.533935 -163.96672 
L 164.218859 -164.137438 
L 165.084562 -163.330796 
L 165.752722 -162.212595 
L 165.869721 -162.069621 
L 166.374401 -161.452901 
L 167.129712 -161.704709 
L 167.25186 -161.917633 
L 167.495747 -162.342767 
L 167.559658 -162.961619 
L 167.530608 -163.548461 
L 167.600329 -164.11183 
L 167.577089 -164.395648 
L 167.443457 -164.717878 
L 167.350495 -165.093457 
L 167.478317 -165.550127 
L 167.68167 -165.725113 
L 167.977984 -165.83608 
L 168.222008 -165.844615 
L 168.274299 -165.712309 
L 168.309159 -165.204424 
L 168.675195 -165.020902 
L 168.994749 -166.977755 
L 168.483462 -167.026836 
L 168.223459 -167.132805 
L 167.582899 -167.393879 
L 166.798537 -167.526186 
L 164.067797 -167.065247 
L 163.225335 -166.644855 
L 162.446783 -166.092156 
L 161.615941 -165.665362 
L 160.616607 -165.622682 
L 159.45459 -166.279946 
L 158.013688 -167.370405 
L 157.734804 -167.413085 
L 156.851671 -167.735315 
L 157.211897 -168.629449 
L 157.072455 -169.33366 
L 156.834241 -169.937574 
L 156.898152 -170.54789 
L 157.45011 -171.173144 
L 158.873581 -171.947776 
L 159.47202 -172.502609 
L 159.896156 -174.154303 
L 160.15761 -174.756083 
L 160.918731 -175.865749 
L 161.360297 -176.126093 
L 161.987787 -176.109022 
L 165.014841 -176.706534 
L 165.863113 -177.133328 
L 165.340206 -178.435051 
L 166.234959 -178.942937 
L 167.635189 -178.866114 
L 168.675195 -178.400908 
L 168.762346 -177.799128 
L 168.814637 -176.732142 
L 169.01218 -175.729175 
L 169.564138 -175.321586 
L 170.261348 -175.773988 
L 170.551852 -177.575061 
L 171.06314 -178.104286 
L 171.7894 -177.865281 
L 172.329738 -177.052237 
L 172.771305 -176.096218 
L 173.189631 -175.438954 
L 173.770639 -175.308782 
L 174.392318 -175.43682 
L 174.944277 -175.330122 
L 175.316122 -174.495739 
L 175.16506 -174.184179 
L 174.415559 -173.068111 
L 174.229636 -172.528216 
L 174.46785 -171.853881 
L 174.915226 -171.30545 
L 175.054668 -170.675928 
L 175.16506 -170.138167 
L 178.134013 -170.180847 
L 177.675017 -170.690866 
L 178.180494 -172.310551 
L 179.691116 -172.242264 
L 181.527103 -171.18168 
L 182.979624 -169.818072 
L 181.945429 -169.579067 
L 181.951239 -169.005028 
L 182.746664 -168.215818 
L 182.787892 -168.174913 
L 184.420525 -166.964951 
L 185.797516 -166.606443 
L 187.999538 -166.813439 
L 190.044688 -167.462166 
L 190.939441 -168.426722 
L 192.002687 -168.84498 
L 198.271769 -168.145037 
L 201.380164 -168.145037 
L 202.141285 -166.964951 
L 204.244536 -166.967085 
L 206.429128 -166.465601 
L 221.847513 -156.922938 
L 222.161025 -155.464753 
L 222.26742 -154.969893 
L 223.929105 -152.477414 
L 226.020735 -151.525662 
L 227.630129 -150.112972 
L 227.583648 -146.613258 
L 227.0375 -145.358482 
L 224.858718 -142.61206 
L 224.597265 -141.871572 
L 224.30676 -140.416203 
L 224.091787 -139.848566 
L 222.174459 -137.539608 
L 220.367523 -134.479492 
L 219.437909 -132.90462 
L 218.467625 -130.119787 
L 218.333993 -127.339221 
L 218.763939 -125.973479 
L 219.373998 -124.782722 
L 219.844615 -123.459659 
L 219.873665 -121.696998 
L 219.339137 -120.595869 
L 218.479245 -119.708136 
L 217.822705 -118.822538 
L 217.886616 -118.052174 
L 219.153215 -117.676595 
L 222.586975 -117.102556 
L 223.743182 -117.471733 
L 224.794807 -117.192183 
L 227.740521 -117.559226 
L 228.681754 -117.41625 
L 239.30259 -114.05311 
L 239.209629 -113.112028 
L 239.447842 -112.907167 
L 239.796447 -112.934908 
L 240.011421 -112.678832 
L 240.011421 -112.192286 
L 239.779017 -111.402716 
L 239.639575 -109.46507 
L 239.459462 -108.575203 
L 239.552424 -107.800571 
L 240.267064 -106.780533 
L 241.661485 -105.705011 
L 247.674923 -103.752426 
L 249.847895 -101.671803 
L 251.114493 -100.933449 
L 253.543109 -100.148147 
L 254.323827 -100.118039 
L 254.705126 -100.103334 
L 256.157647 -100.519458 
L 258.609503 -101.776368 
L 259.184702 -102.619287 
L 259.335764 -103.250943 
L 259.382245 -103.946618 
L 259.649508 -104.992264 
L 260.503591 -106.441231 
L 261.415774 -106.611949 
L 262.50807 -106.323863 
L 263.908301 -106.390016 
L 263.937351 -107.932878 
L 264.919256 -109.827845 
L 266.336917 -111.462468 
L 267.969551 -112.403549 
L 268.277485 -112.465435 
L 268.59123 -112.403549 
L 268.887544 -112.209358 
L 268.893354 -112.209358 
L 268.893354 -112.196554 
L 269.474363 -111.569166 
L 270.648 -109.669931 
L 272.559518 -108.142007 
L 273.059185 -107.540227 
L 273.361309 -106.146743 
L 272.664099 -103.340569 
L 272.797731 -101.577908 
" style="stroke: #aaaaaa"/>
    </defs>
    <g clip-path="url(#pa6a33f40c4)">
     <use xlink:href="#maa04ed330c" x="0" y="209.439297" style="fill: #aaaaaa; stroke: #aaaaaa"/>
    </g>
   </g>
   <g id="PathCollection_1">
    <defs>
     <path id="m2179f0396b" d="M 0 1.581139 
C 0.419323 1.581139 0.821528 1.41454 1.118034 1.118034 
C 1.41454 0.821528 1.581139 0.419323 1.581139 0 
C 1.581139 -0.419323 1.41454 -0.821528 1.118034 -1.118034 
C 0.821528 -1.41454 0.419323 -1.581139 0 -1.581139 
C -0.419323 -1.581139 -0.821528 -1.41454 -1.118034 -1.118034 
C -1.41454 -0.821528 -1.581139 -0.419323 -1.581139 0 
C -1.581139 0.419323 -1.41454 0.821528 -1.118034 1.118034 
C -0.821528 1.41454 -0.419323 1.581139 0 1.581139 
z
" style="stroke: #1f77b4; stroke-opacity: 0.5"/>
    </defs>
    <g clip-path="url(#pa6a33f40c4)">
     <use xlink:href="#m2179f0396b" x="160.174117" y="71.694429" style="fill: #1f77b4; fill-opacity: 0.5; stroke: #1f77b4; stroke-opacity: 0.5"/>
     <use xlink:href="#m2179f0396b" x="170.580113" y="40.205799" style="fill: #1f77b4; fill-opacity: 0.5; stroke: #1f77b4; stroke-opacity: 0.5"/>
     <use xlink:href="#m2179f0396b" x="173.359377" y="46.549637" style="fill: #1f77b4; fill-opacity: 0.5; stroke: #1f77b4; stroke-opacity: 0.5"/>
     <use xlink:href="#m2179f0396b" x="172.945407" y="45.19204" style="fill: #1f77b4; fill-opacity: 0.5; stroke: #1f77b4; stroke-opacity: 0.5"/>
     <use xlink:href="#m2179f0396b" x="175.434253" y="46.175174" style="fill: #1f77b4; fill-opacity: 0.5; stroke: #1f77b4; stroke-opacity: 0.5"/>
     <use xlink:href="#m2179f0396b" x="172.590049" y="43.961888" style="fill: #1f77b4; fill-opacity: 0.5; stroke: #1f77b4; stroke-opacity: 0.5"/>
     <use xlink:href="#m2179f0396b" x="168.289347" y="56.872456" style="fill: #1f77b4; fill-opacity: 0.5; stroke: #1f77b4; stroke-opacity: 0.5"/>
     <use xlink:href="#m2179f0396b" x="161.386516" y="47.396899" style="fill: #1f77b4; fill-opacity: 0.5; stroke: #1f77b4; stroke-opacity: 0.5"/>
     <use xlink:href="#m2179f0396b" x="155.913131" y="55.626484" style="fill: #1f77b4; fill-opacity: 0.5; stroke: #1f77b4; stroke-opacity: 0.5"/>
     <use xlink:href="#m2179f0396b" x="157.665741" y="55.037257" style="fill: #1f77b4; fill-opacity: 0.5; stroke: #1f77b4; stroke-opacity: 0.5"/>
     <use xlink:href="#m2179f0396b" x="156.497344" y="58.198253" style="fill: #1f77b4; fill-opacity: 0.5; stroke: #1f77b4; stroke-opacity: 0.5"/>
     <use xlink:href="#m2179f0396b" x="176.286124" y="72.833067" style="fill: #1f77b4; fill-opacity: 0.5; stroke: #1f77b4; stroke-opacity: 0.5"/>
     <use xlink:href="#m2179f0396b" x="178.287415" y="60.708074" style="fill: #1f77b4; fill-opacity: 0.5; stroke: #1f77b4; stroke-opacity: 0.5"/>
     <use xlink:href="#m2179f0396b" x="177.8535" y="62.191755" style="fill: #1f77b4; fill-opacity: 0.5; stroke: #1f77b4; stroke-opacity: 0.5"/>
     <use xlink:href="#m2179f0396b" x="175.109713" y="72.776837" style="fill: #1f77b4; fill-opacity: 0.5; stroke: #1f77b4; stroke-opacity: 0.5"/>
     <use xlink:href="#m2179f0396b" x="170.800364" y="67.642765" style="fill: #1f77b4; fill-opacity: 0.5; stroke: #1f77b4; stroke-opacity: 0.5"/>
     <use xlink:href="#m2179f0396b" x="174.808398" y="51.396483" style="fill: #1f77b4; fill-opacity: 0.5; stroke: #1f77b4; stroke-opacity: 0.5"/>
     <use xlink:href="#m2179f0396b" x="177.047112" y="53.078295" style="fill: #1f77b4; fill-opacity: 0.5; stroke: #1f77b4; stroke-opacity: 0.5"/>
     <use xlink:href="#m2179f0396b" x="160.996742" y="62.693588" style="fill: #1f77b4; fill-opacity: 0.5; stroke: #1f77b4; stroke-opacity: 0.5"/>
     <use xlink:href="#m2179f0396b" x="159.839445" y="62.700138" style="fill: #1f77b4; fill-opacity: 0.5; stroke: #1f77b4; stroke-opacity: 0.5"/>
     <use xlink:href="#m2179f0396b" x="159.42983" y="61.842883" style="fill: #1f77b4; fill-opacity: 0.5; stroke: #1f77b4; stroke-opacity: 0.5"/>
     <use xlink:href="#m2179f0396b" x="172.819372" y="47.547008" style="fill: #1f77b4; fill-opacity: 0.5; stroke: #1f77b4; stroke-opacity: 0.5"/>
     <use xlink:href="#m2179f0396b" x="174.485772" y="49.021896" style="fill: #1f77b4; fill-opacity: 0.5; stroke: #1f77b4; stroke-opacity: 0.5"/>
     <use xlink:href="#m2179f0396b" x="177.970921" y="45.390323" style="fill: #1f77b4; fill-opacity: 0.5; stroke: #1f77b4; stroke-opacity: 0.5"/>
     <use xlink:href="#m2179f0396b" x="177.559198" y="44.187116" style="fill: #1f77b4; fill-opacity: 0.5; stroke: #1f77b4; stroke-opacity: 0.5"/>
     <use xlink:href="#m2179f0396b" x="93.908991" y="95.125276" style="fill: #1f77b4; fill-opacity: 0.5; stroke: #1f77b4; stroke-opacity: 0.5"/>
     <use xlink:href="#m2179f0396b" x="90.62089" y="85.271715" style="fill: #1f77b4; fill-opacity: 0.5; stroke: #1f77b4; stroke-opacity: 0.5"/>
     <use xlink:href="#m2179f0396b" x="113.982799" y="87.718818" style="fill: #1f77b4; fill-opacity: 0.5; stroke: #1f77b4; stroke-opacity: 0.5"/>
     <use xlink:href="#m2179f0396b" x="113.203644" y="84.564757" style="fill: #1f77b4; fill-opacity: 0.5; stroke: #1f77b4; stroke-opacity: 0.5"/>
     <use xlink:href="#m2179f0396b" x="108.134608" y="92.814126" style="fill: #1f77b4; fill-opacity: 0.5; stroke: #1f77b4; stroke-opacity: 0.5"/>
     <use xlink:href="#m2179f0396b" x="140.35044" y="120.979575" style="fill: #1f77b4; fill-opacity: 0.5; stroke: #1f77b4; stroke-opacity: 0.5"/>
     <use xlink:href="#m2179f0396b" x="113.377895" y="106.668485" style="fill: #1f77b4; fill-opacity: 0.5; stroke: #1f77b4; stroke-opacity: 0.5"/>
     <use xlink:href="#m2179f0396b" x="110.118946" y="106.874342" style="fill: #1f77b4; fill-opacity: 0.5; stroke: #1f77b4; stroke-opacity: 0.5"/>
     <use xlink:href="#m2179f0396b" x="108.638671" y="104.150514" style="fill: #1f77b4; fill-opacity: 0.5; stroke: #1f77b4; stroke-opacity: 0.5"/>
     <use xlink:href="#m2179f0396b" x="113.380487" y="100.929074" style="fill: #1f77b4; fill-opacity: 0.5; stroke: #1f77b4; stroke-opacity: 0.5"/>
     <use xlink:href="#m2179f0396b" x="109.162316" y="103.615677" style="fill: #1f77b4; fill-opacity: 0.5; stroke: #1f77b4; stroke-opacity: 0.5"/>
     <use xlink:href="#m2179f0396b" x="89.970825" y="90.347908" style="fill: #1f77b4; fill-opacity: 0.5; stroke: #1f77b4; stroke-opacity: 0.5"/>
     <use xlink:href="#m2179f0396b" x="107.751428" y="109.681894" style="fill: #1f77b4; fill-opacity: 0.5; stroke: #1f77b4; stroke-opacity: 0.5"/>
     <use xlink:href="#m2179f0396b" x="111.651958" y="119.456367" style="fill: #1f77b4; fill-opacity: 0.5; stroke: #1f77b4; stroke-opacity: 0.5"/>
     <use xlink:href="#m2179f0396b" x="115.895144" y="118.036151" style="fill: #1f77b4; fill-opacity: 0.5; stroke: #1f77b4; stroke-opacity: 0.5"/>
     <use xlink:href="#m2179f0396b" x="118.240799" y="83.016633" style="fill: #1f77b4; fill-opacity: 0.5; stroke: #1f77b4; stroke-opacity: 0.5"/>
     <use xlink:href="#m2179f0396b" x="150.300916" y="79.506458" style="fill: #1f77b4; fill-opacity: 0.5; stroke: #1f77b4; stroke-opacity: 0.5"/>
     <use xlink:href="#m2179f0396b" x="174.106541" y="107.301923" style="fill: #1f77b4; fill-opacity: 0.5; stroke: #1f77b4; stroke-opacity: 0.5"/>
     <use xlink:href="#m2179f0396b" x="190.9965" y="98.302377" style="fill: #1f77b4; fill-opacity: 0.5; stroke: #1f77b4; stroke-opacity: 0.5"/>
     <use xlink:href="#m2179f0396b" x="193.742421" y="99.828585" style="fill: #1f77b4; fill-opacity: 0.5; stroke: #1f77b4; stroke-opacity: 0.5"/>
     <use xlink:href="#m2179f0396b" x="170.629459" y="82.594189" style="fill: #1f77b4; fill-opacity: 0.5; stroke: #1f77b4; stroke-opacity: 0.5"/>
     <use xlink:href="#m2179f0396b" x="89.523463" y="117.059869" style="fill: #1f77b4; fill-opacity: 0.5; stroke: #1f77b4; stroke-opacity: 0.5"/>
     <use xlink:href="#m2179f0396b" x="90.089482" y="105.438841" style="fill: #1f77b4; fill-opacity: 0.5; stroke: #1f77b4; stroke-opacity: 0.5"/>
     <use xlink:href="#m2179f0396b" x="89.277025" y="109.507781" style="fill: #1f77b4; fill-opacity: 0.5; stroke: #1f77b4; stroke-opacity: 0.5"/>
     <use xlink:href="#m2179f0396b" x="91.817717" y="105.998595" style="fill: #1f77b4; fill-opacity: 0.5; stroke: #1f77b4; stroke-opacity: 0.5"/>
     <use xlink:href="#m2179f0396b" x="123.451425" y="69.770847" style="fill: #1f77b4; fill-opacity: 0.5; stroke: #1f77b4; stroke-opacity: 0.5"/>
     <use xlink:href="#m2179f0396b" x="124.782019" y="71.461291" style="fill: #1f77b4; fill-opacity: 0.5; stroke: #1f77b4; stroke-opacity: 0.5"/>
     <use xlink:href="#m2179f0396b" x="119.028495" y="72.690969" style="fill: #1f77b4; fill-opacity: 0.5; stroke: #1f77b4; stroke-opacity: 0.5"/>
     <use xlink:href="#m2179f0396b" x="106.719487" y="80.68546" style="fill: #1f77b4; fill-opacity: 0.5; stroke: #1f77b4; stroke-opacity: 0.5"/>
     <use xlink:href="#m2179f0396b" x="106.801859" y="85.975734" style="fill: #1f77b4; fill-opacity: 0.5; stroke: #1f77b4; stroke-opacity: 0.5"/>
     <use xlink:href="#m2179f0396b" x="133.114703" y="64.057182" style="fill: #1f77b4; fill-opacity: 0.5; stroke: #1f77b4; stroke-opacity: 0.5"/>
     <use xlink:href="#m2179f0396b" x="113.778006" y="78.68256" style="fill: #1f77b4; fill-opacity: 0.5; stroke: #1f77b4; stroke-opacity: 0.5"/>
     <use xlink:href="#m2179f0396b" x="111.797893" y="80.970256" style="fill: #1f77b4; fill-opacity: 0.5; stroke: #1f77b4; stroke-opacity: 0.5"/>
     <use xlink:href="#m2179f0396b" x="112.574917" y="80.711331" style="fill: #1f77b4; fill-opacity: 0.5; stroke: #1f77b4; stroke-opacity: 0.5"/>
     <use xlink:href="#m2179f0396b" x="110.660209" y="82.614202" style="fill: #1f77b4; fill-opacity: 0.5; stroke: #1f77b4; stroke-opacity: 0.5"/>
     <use xlink:href="#m2179f0396b" x="111.425653" y="83.193892" style="fill: #1f77b4; fill-opacity: 0.5; stroke: #1f77b4; stroke-opacity: 0.5"/>
     <use xlink:href="#m2179f0396b" x="112.738509" y="81.756779" style="fill: #1f77b4; fill-opacity: 0.5; stroke: #1f77b4; stroke-opacity: 0.5"/>
     <use xlink:href="#m2179f0396b" x="126.530903" y="71.796474" style="fill: #1f77b4; fill-opacity: 0.5; stroke: #1f77b4; stroke-opacity: 0.5"/>
     <use xlink:href="#m2179f0396b" x="110.505262" y="65.069895" style="fill: #1f77b4; fill-opacity: 0.5; stroke: #1f77b4; stroke-opacity: 0.5"/>
     <use xlink:href="#m2179f0396b" x="113.112835" y="63.560962" style="fill: #1f77b4; fill-opacity: 0.5; stroke: #1f77b4; stroke-opacity: 0.5"/>
     <use xlink:href="#m2179f0396b" x="116.605329" y="49.458738" style="fill: #1f77b4; fill-opacity: 0.5; stroke: #1f77b4; stroke-opacity: 0.5"/>
     <use xlink:href="#m2179f0396b" x="112.586677" y="57.977303" style="fill: #1f77b4; fill-opacity: 0.5; stroke: #1f77b4; stroke-opacity: 0.5"/>
     <use xlink:href="#m2179f0396b" x="110.551568" y="52.338505" style="fill: #1f77b4; fill-opacity: 0.5; stroke: #1f77b4; stroke-opacity: 0.5"/>
     <use xlink:href="#m2179f0396b" x="111.102016" y="53.628528" style="fill: #1f77b4; fill-opacity: 0.5; stroke: #1f77b4; stroke-opacity: 0.5"/>
     <use xlink:href="#m2179f0396b" x="109.359757" y="57.338864" style="fill: #1f77b4; fill-opacity: 0.5; stroke: #1f77b4; stroke-opacity: 0.5"/>
     <use xlink:href="#m2179f0396b" x="111.353548" y="59.063786" style="fill: #1f77b4; fill-opacity: 0.5; stroke: #1f77b4; stroke-opacity: 0.5"/>
     <use xlink:href="#m2179f0396b" x="106.078418" y="60.096141" style="fill: #1f77b4; fill-opacity: 0.5; stroke: #1f77b4; stroke-opacity: 0.5"/>
     <use xlink:href="#m2179f0396b" x="111.489366" y="60.389221" style="fill: #1f77b4; fill-opacity: 0.5; stroke: #1f77b4; stroke-opacity: 0.5"/>
     <use xlink:href="#m2179f0396b" x="110.219236" y="59.577006" style="fill: #1f77b4; fill-opacity: 0.5; stroke: #1f77b4; stroke-opacity: 0.5"/>
     <use xlink:href="#m2179f0396b" x="108.444384" y="60.669552" style="fill: #1f77b4; fill-opacity: 0.5; stroke: #1f77b4; stroke-opacity: 0.5"/>
     <use xlink:href="#m2179f0396b" x="117.958004" y="59.606508" style="fill: #1f77b4; fill-opacity: 0.5; stroke: #1f77b4; stroke-opacity: 0.5"/>
     <use xlink:href="#m2179f0396b" x="126.242089" y="61.994505" style="fill: #1f77b4; fill-opacity: 0.5; stroke: #1f77b4; stroke-opacity: 0.5"/>
     <use xlink:href="#m2179f0396b" x="126.431466" y="62.030523" style="fill: #1f77b4; fill-opacity: 0.5; stroke: #1f77b4; stroke-opacity: 0.5"/>
     <use xlink:href="#m2179f0396b" x="125.988476" y="59.918483" style="fill: #1f77b4; fill-opacity: 0.5; stroke: #1f77b4; stroke-opacity: 0.5"/>
     <use xlink:href="#m2179f0396b" x="127.531546" y="63.080977" style="fill: #1f77b4; fill-opacity: 0.5; stroke: #1f77b4; stroke-opacity: 0.5"/>
     <use xlink:href="#m2179f0396b" x="127.729144" y="56.005114" style="fill: #1f77b4; fill-opacity: 0.5; stroke: #1f77b4; stroke-opacity: 0.5"/>
     <use xlink:href="#m2179f0396b" x="122.862324" y="58.38788" style="fill: #1f77b4; fill-opacity: 0.5; stroke: #1f77b4; stroke-opacity: 0.5"/>
     <use xlink:href="#m2179f0396b" x="129.63521" y="61.504912" style="fill: #1f77b4; fill-opacity: 0.5; stroke: #1f77b4; stroke-opacity: 0.5"/>
     <use xlink:href="#m2179f0396b" x="126.036386" y="65.406107" style="fill: #1f77b4; fill-opacity: 0.5; stroke: #1f77b4; stroke-opacity: 0.5"/>
     <use xlink:href="#m2179f0396b" x="125.642372" y="54.758787" style="fill: #1f77b4; fill-opacity: 0.5; stroke: #1f77b4; stroke-opacity: 0.5"/>
     <use xlink:href="#m2179f0396b" x="131.392363" y="61.047239" style="fill: #1f77b4; fill-opacity: 0.5; stroke: #1f77b4; stroke-opacity: 0.5"/>
     <use xlink:href="#m2179f0396b" x="129.900078" y="61.570297" style="fill: #1f77b4; fill-opacity: 0.5; stroke: #1f77b4; stroke-opacity: 0.5"/>
     <use xlink:href="#m2179f0396b" x="162.849539" y="37.966046" style="fill: #1f77b4; fill-opacity: 0.5; stroke: #1f77b4; stroke-opacity: 0.5"/>
     <use xlink:href="#m2179f0396b" x="163.109665" y="36.236129" style="fill: #1f77b4; fill-opacity: 0.5; stroke: #1f77b4; stroke-opacity: 0.5"/>
     <use xlink:href="#m2179f0396b" x="166.115781" y="39.462293" style="fill: #1f77b4; fill-opacity: 0.5; stroke: #1f77b4; stroke-opacity: 0.5"/>
     <use xlink:href="#m2179f0396b" x="165.513415" y="38.377289" style="fill: #1f77b4; fill-opacity: 0.5; stroke: #1f77b4; stroke-opacity: 0.5"/>
     <use xlink:href="#m2179f0396b" x="161.065175" y="40.283179" style="fill: #1f77b4; fill-opacity: 0.5; stroke: #1f77b4; stroke-opacity: 0.5"/>
     <use xlink:href="#m2179f0396b" x="175.005589" y="38.125075" style="fill: #1f77b4; fill-opacity: 0.5; stroke: #1f77b4; stroke-opacity: 0.5"/>
     <use xlink:href="#m2179f0396b" x="167.226119" y="38.998573" style="fill: #1f77b4; fill-opacity: 0.5; stroke: #1f77b4; stroke-opacity: 0.5"/>
     <use xlink:href="#m2179f0396b" x="165.942707" y="47.777982" style="fill: #1f77b4; fill-opacity: 0.5; stroke: #1f77b4; stroke-opacity: 0.5"/>
     <use xlink:href="#m2179f0396b" x="165.194361" y="33.410321" style="fill: #1f77b4; fill-opacity: 0.5; stroke: #1f77b4; stroke-opacity: 0.5"/>
     <use xlink:href="#m2179f0396b" x="158.75761" y="41.418657" style="fill: #1f77b4; fill-opacity: 0.5; stroke: #1f77b4; stroke-opacity: 0.5"/>
     <use xlink:href="#m2179f0396b" x="162.49202" y="42.372464" style="fill: #1f77b4; fill-opacity: 0.5; stroke: #1f77b4; stroke-opacity: 0.5"/>
     <use xlink:href="#m2179f0396b" x="221.924808" y="63.826267" style="fill: #1f77b4; fill-opacity: 0.5; stroke: #1f77b4; stroke-opacity: 0.5"/>
     <use xlink:href="#m2179f0396b" x="223.842066" y="68.542813" style="fill: #1f77b4; fill-opacity: 0.5; stroke: #1f77b4; stroke-opacity: 0.5"/>
     <use xlink:href="#m2179f0396b" x="185.212784" y="78.161931" style="fill: #1f77b4; fill-opacity: 0.5; stroke: #1f77b4; stroke-opacity: 0.5"/>
     <use xlink:href="#m2179f0396b" x="191.265483" y="75.532612" style="fill: #1f77b4; fill-opacity: 0.5; stroke: #1f77b4; stroke-opacity: 0.5"/>
     <use xlink:href="#m2179f0396b" x="189.856726" y="72.466107" style="fill: #1f77b4; fill-opacity: 0.5; stroke: #1f77b4; stroke-opacity: 0.5"/>
     <use xlink:href="#m2179f0396b" x="190.09564" y="63.081378" style="fill: #1f77b4; fill-opacity: 0.5; stroke: #1f77b4; stroke-opacity: 0.5"/>
     <use xlink:href="#m2179f0396b" x="192.177984" y="70.30059" style="fill: #1f77b4; fill-opacity: 0.5; stroke: #1f77b4; stroke-opacity: 0.5"/>
     <use xlink:href="#m2179f0396b" x="150.182729" y="61.938756" style="fill: #1f77b4; fill-opacity: 0.5; stroke: #1f77b4; stroke-opacity: 0.5"/>
     <use xlink:href="#m2179f0396b" x="154.070734" y="58.451137" style="fill: #1f77b4; fill-opacity: 0.5; stroke: #1f77b4; stroke-opacity: 0.5"/>
     <use xlink:href="#m2179f0396b" x="148.777271" y="52.810855" style="fill: #1f77b4; fill-opacity: 0.5; stroke: #1f77b4; stroke-opacity: 0.5"/>
     <use xlink:href="#m2179f0396b" x="154.227226" y="55.734313" style="fill: #1f77b4; fill-opacity: 0.5; stroke: #1f77b4; stroke-opacity: 0.5"/>
     <use xlink:href="#m2179f0396b" x="149.295518" y="64.384831" style="fill: #1f77b4; fill-opacity: 0.5; stroke: #1f77b4; stroke-opacity: 0.5"/>
     <use xlink:href="#m2179f0396b" x="141.626746" y="54.194752" style="fill: #1f77b4; fill-opacity: 0.5; stroke: #1f77b4; stroke-opacity: 0.5"/>
     <use xlink:href="#m2179f0396b" x="142.26164" y="52.1569" style="fill: #1f77b4; fill-opacity: 0.5; stroke: #1f77b4; stroke-opacity: 0.5"/>
     <use xlink:href="#m2179f0396b" x="140.624423" y="54.532756" style="fill: #1f77b4; fill-opacity: 0.5; stroke: #1f77b4; stroke-opacity: 0.5"/>
     <use xlink:href="#m2179f0396b" x="146.990706" y="63.390241" style="fill: #1f77b4; fill-opacity: 0.5; stroke: #1f77b4; stroke-opacity: 0.5"/>
     <use xlink:href="#m2179f0396b" x="127.895214" y="51.689122" style="fill: #1f77b4; fill-opacity: 0.5; stroke: #1f77b4; stroke-opacity: 0.5"/>
     <use xlink:href="#m2179f0396b" x="129.940159" y="70.835091" style="fill: #1f77b4; fill-opacity: 0.5; stroke: #1f77b4; stroke-opacity: 0.5"/>
     <use xlink:href="#m2179f0396b" x="132.464858" y="71.983908" style="fill: #1f77b4; fill-opacity: 0.5; stroke: #1f77b4; stroke-opacity: 0.5"/>
     <use xlink:href="#m2179f0396b" x="148.270598" y="49.656963" style="fill: #1f77b4; fill-opacity: 0.5; stroke: #1f77b4; stroke-opacity: 0.5"/>
     <use xlink:href="#m2179f0396b" x="148.979167" y="50.853916" style="fill: #1f77b4; fill-opacity: 0.5; stroke: #1f77b4; stroke-opacity: 0.5"/>
     <use xlink:href="#m2179f0396b" x="151.37809" y="53.111405" style="fill: #1f77b4; fill-opacity: 0.5; stroke: #1f77b4; stroke-opacity: 0.5"/>
     <use xlink:href="#m2179f0396b" x="151.420927" y="51.584507" style="fill: #1f77b4; fill-opacity: 0.5; stroke: #1f77b4; stroke-opacity: 0.5"/>
     <use xlink:href="#m2179f0396b" x="155.462502" y="53.059409" style="fill: #1f77b4; fill-opacity: 0.5; stroke: #1f77b4; stroke-opacity: 0.5"/>
     <use xlink:href="#m2179f0396b" x="152.923504" y="49.760644" style="fill: #1f77b4; fill-opacity: 0.5; stroke: #1f77b4; stroke-opacity: 0.5"/>
     <use xlink:href="#m2179f0396b" x="152.473056" y="50.836969" style="fill: #1f77b4; fill-opacity: 0.5; stroke: #1f77b4; stroke-opacity: 0.5"/>
     <use xlink:href="#m2179f0396b" x="176.42914" y="42.258207" style="fill: #1f77b4; fill-opacity: 0.5; stroke: #1f77b4; stroke-opacity: 0.5"/>
     <use xlink:href="#m2179f0396b" x="178.19106" y="42.065108" style="fill: #1f77b4; fill-opacity: 0.5; stroke: #1f77b4; stroke-opacity: 0.5"/>
     <use xlink:href="#m2179f0396b" x="186.334001" y="52.567929" style="fill: #1f77b4; fill-opacity: 0.5; stroke: #1f77b4; stroke-opacity: 0.5"/>
     <use xlink:href="#m2179f0396b" x="190.495434" y="49.016889" style="fill: #1f77b4; fill-opacity: 0.5; stroke: #1f77b4; stroke-opacity: 0.5"/>
     <use xlink:href="#m2179f0396b" x="181.434398" y="48.582932" style="fill: #1f77b4; fill-opacity: 0.5; stroke: #1f77b4; stroke-opacity: 0.5"/>
     <use xlink:href="#m2179f0396b" x="185.41362" y="47.940089" style="fill: #1f77b4; fill-opacity: 0.5; stroke: #1f77b4; stroke-opacity: 0.5"/>
     <use xlink:href="#m2179f0396b" x="202.569684" y="43.817011" style="fill: #1f77b4; fill-opacity: 0.5; stroke: #1f77b4; stroke-opacity: 0.5"/>
     <use xlink:href="#m2179f0396b" x="195.837359" y="42.387302" style="fill: #1f77b4; fill-opacity: 0.5; stroke: #1f77b4; stroke-opacity: 0.5"/>
     <use xlink:href="#m2179f0396b" x="197.207813" y="42.556709" style="fill: #1f77b4; fill-opacity: 0.5; stroke: #1f77b4; stroke-opacity: 0.5"/>
     <use xlink:href="#m2179f0396b" x="207.196609" y="47.248822" style="fill: #1f77b4; fill-opacity: 0.5; stroke: #1f77b4; stroke-opacity: 0.5"/>
     <use xlink:href="#m2179f0396b" x="203.733877" y="44.977611" style="fill: #1f77b4; fill-opacity: 0.5; stroke: #1f77b4; stroke-opacity: 0.5"/>
     <use xlink:href="#m2179f0396b" x="204.314926" y="44.562012" style="fill: #1f77b4; fill-opacity: 0.5; stroke: #1f77b4; stroke-opacity: 0.5"/>
     <use xlink:href="#m2179f0396b" x="192.726193" y="41.735371" style="fill: #1f77b4; fill-opacity: 0.5; stroke: #1f77b4; stroke-opacity: 0.5"/>
     <use xlink:href="#m2179f0396b" x="180.603994" y="41.312751" style="fill: #1f77b4; fill-opacity: 0.5; stroke: #1f77b4; stroke-opacity: 0.5"/>
     <use xlink:href="#m2179f0396b" x="191.840207" y="47.933234" style="fill: #1f77b4; fill-opacity: 0.5; stroke: #1f77b4; stroke-opacity: 0.5"/>
     <use xlink:href="#m2179f0396b" x="192.580404" y="47.25013" style="fill: #1f77b4; fill-opacity: 0.5; stroke: #1f77b4; stroke-opacity: 0.5"/>
     <use xlink:href="#m2179f0396b" x="148.059218" y="141.979718" style="fill: #1f77b4; fill-opacity: 0.5; stroke: #1f77b4; stroke-opacity: 0.5"/>
     <use xlink:href="#m2179f0396b" x="145.128303" y="140.476926" style="fill: #1f77b4; fill-opacity: 0.5; stroke: #1f77b4; stroke-opacity: 0.5"/>
     <use xlink:href="#m2179f0396b" x="145.981178" y="142.68559" style="fill: #1f77b4; fill-opacity: 0.5; stroke: #1f77b4; stroke-opacity: 0.5"/>
     <use xlink:href="#m2179f0396b" x="149.747633" y="141.200715" style="fill: #1f77b4; fill-opacity: 0.5; stroke: #1f77b4; stroke-opacity: 0.5"/>
     <use xlink:href="#m2179f0396b" x="147.079709" y="139.998762" style="fill: #1f77b4; fill-opacity: 0.5; stroke: #1f77b4; stroke-opacity: 0.5"/>
    </g>
   </g>
   <g id="text_1">
    <text style="font: 12px 'DejaVu Sans', 'Bitstream Vera Sans', 'Computer Modern Sans Serif', 'Lucida Grande', 'Verdana', 'Geneva', 'Lucid', 'Arial', 'Helvetica', 'Avant Garde', sans-serif; text-anchor: middle" x="146.7" y="16.318125" transform="rotate(-0 146.7 16.318125)">-ingen 145x</text>
   </g>
  </g>
 </g>
 <defs>
  <clipPath id="pa6a33f40c4">
   <rect x="7.2" y="22.318125" width="279" height="179.921172"/>
  </clipPath>
 </defs>
</svg>
