<?xml version="1.0" encoding="utf-8" standalone="no"?>
<!DOCTYPE svg PUBLIC "-//W3C//DTD SVG 1.1//EN"
  "http://www.w3.org/Graphics/SVG/1.1/DTD/svg11.dtd">
<svg xmlns:xlink="http://www.w3.org/1999/xlink" width="293.4pt" height="209.446208pt" viewBox="0 0 293.4 209.446208" xmlns="http://www.w3.org/2000/svg" version="1.1">
 <metadata>
  <rdf:RDF xmlns:dc="http://purl.org/dc/elements/1.1/" xmlns:cc="http://creativecommons.org/ns#" xmlns:rdf="http://www.w3.org/1999/02/22-rdf-syntax-ns#">
   <cc:Work>
    <dc:type rdf:resource="http://purl.org/dc/dcmitype/StillImage"/>
    <dc:date>2024-08-06T14:07:35.796640</dc:date>
    <dc:format>image/svg+xml</dc:format>
    <dc:creator>
     <cc:Agent>
      <dc:title>Matplotlib v3.9.1, https://matplotlib.org/</dc:title>
     </cc:Agent>
    </dc:creator>
   </cc:Work>
  </rdf:RDF>
 </metadata>
 <defs>
  <style type="text/css">*{stroke-linejoin: round; stroke-linecap: butt}</style>
 </defs>
 <g id="figure_1">
  <g id="patch_1">
   <path d="M 0 209.446208 
L 293.4 209.446208 
L 293.4 -0 
L 0 -0 
z
" style="fill: #ffffff"/>
  </g>
  <g id="axes_1">
   <g id="PatchCollection_1">
    <defs>
     <path id="m8883c151fe" d="M 272.797731 -101.581533 
L 272.501417 -98.922502 
L 272.298064 -98.179851 
L 271.966889 -97.654874 
L 270.740961 -96.165304 
L 270.845543 -94.936089 
L 271.246439 -93.734616 
L 271.385881 -92.597165 
L 270.706101 -91.553613 
L 269.753247 -90.936871 
L 269.526653 -90.181416 
L 269.578944 -89.240298 
L 269.456932 -88.068702 
L 268.916594 -87.09344 
L 268.306535 -86.506575 
L 268.039272 -85.721243 
L 268.509888 -84.142043 
L 269.526653 -82.946972 
L 271.920408 -82.686618 
L 273.094046 -81.68788 
L 273.518182 -80.095876 
L 273.477511 -77.963956 
L 273.030135 -75.917398 
L 272.686514 -75.339625 
L 272.245773 -74.598552 
L 271.229008 -74.400085 
L 267.202619 -75.473515 
L 265.24462 -75.285718 
L 264.52417 -75.405225 
L 263.890871 -75.701858 
L 263.536455 -76.08172 
L 263.240141 -76.497861 
L 262.798575 -76.894795 
L 260.480351 -77.701467 
L 260.230517 -78.59777 
L 260.538451 -80.294343 
L 260.42806 -81.226925 
L 259.533307 -81.969576 
L 258.086596 -81.956771 
L 252.764558 -80.405314 
L 252.22422 -80.104412 
L 251.980196 -79.494073 
L 251.288796 -76.800896 
L 250.823989 -76.169216 
L 249.609681 -74.940001 
L 249.127444 -74.205886 
L 249.051913 -73.612619 
L 249.040293 -71.798673 
L 248.796269 -70.919443 
L 248.86599 -70.155452 
L 248.999622 -69.555782 
L 249.272696 -69.092693 
L 249.760744 -68.755512 
L 248.767219 -67.044001 
L 249.650352 -65.925756 
L 251.300416 -65.272736 
L 253.816183 -64.777635 
L 254.786467 -64.380701 
L 255.198983 -63.463058 
L 254.774847 -61.661916 
L 254.368141 -61.107062 
L 253.188694 -60.031499 
L 252.764558 -59.229094 
L 252.479863 -58.11085 
L 252.445003 -57.355395 
L 252.671596 -56.659693 
L 253.182884 -55.737782 
L 255.501108 -53.334837 
L 256.221558 -51.862339 
L 255.483677 -50.283139 
L 253.914954 -49.275866 
L 251.54444 -48.358222 
L 249.685212 -48.396635 
L 249.638732 -50.261799 
L 249.069343 -51.666006 
L 246.849891 -53.672017 
L 246.024859 -54.807334 
L 245.658823 -56.617012 
L 245.635583 -58.251698 
L 245.263738 -59.596152 
L 243.857697 -60.535136 
L 242.70149 -60.840305 
L 241.609194 -60.923533 
L 239.157338 -60.494588 
L 235.415643 -58.539795 
L 234.247816 -58.153531 
L 233.527365 -58.311451 
L 232.156185 -59.152268 
L 231.551937 -59.167207 
L 230.941878 -58.465103 
L 230.831486 -57.521851 
L 230.918637 -56.585001 
L 230.895397 -55.934115 
L 230.035504 -54.721972 
L 228.978069 -54.286625 
L 222.534684 -54.363451 
L 221.227415 -54.850015 
L 220.036348 -55.67376 
L 219.321707 -56.676766 
L 218.200361 -59.655905 
L 217.700693 -60.07418 
L 216.457335 -60.776284 
L 216.050629 -61.181754 
L 215.940238 -61.644844 
L 216.021579 -62.903936 
L 215.684594 -70.825545 
L 215.504481 -71.34412 
L 215.062915 -71.243819 
L 214.156542 -70.56519 
L 213.773076 -70.038079 
L 213.575533 -69.451214 
L 213.302459 -68.956113 
L 212.6924 -68.708563 
L 212.268264 -68.89636 
L 210.833173 -70.283495 
L 210.792502 -71.305707 
L 209.676966 -71.606609 
L 206.940416 -71.26516 
L 205.86555 -70.253618 
L 204.889456 -68.26468 
L 204.447889 -66.241596 
L 204.988227 -65.125486 
L 205.737728 -64.598375 
L 205.84812 -63.770362 
L 205.702868 -62.728943 
L 205.708678 -61.548811 
L 206.463989 -58.618755 
L 206.53952 -57.555996 
L 206.190915 -55.737782 
L 204.546661 -52.237933 
L 203.710008 -49.280134 
L 203.198721 -48.443585 
L 202.547991 -47.824709 
L 201.874021 -47.500333 
L 201.263962 -47.039377 
L 200.950218 -46.2199 
L 200.688764 -45.268112 
L 200.277789 -44.473628 
L 200.247198 -44.41449 
L 196.162708 -41.597539 
L 195.122702 -40.005534 
L 194.901919 -38.938507 
L 195.023931 -37.077612 
L 194.843818 -36.061802 
L 194.396442 -35.289275 
L 193.861914 -34.969166 
L 192.630176 -34.572232 
L 191.189275 -33.432648 
L 190.945251 -32.493664 
L 191.944586 -29.616959 
L 190.096979 -27.871302 
L 189.974967 -27.666433 
L 189.934296 -27.453028 
L 189.974967 -27.24389 
L 190.096979 -27.034753 
L 190.701228 -26.407341 
L 191.166034 -24.904967 
L 191.677322 -24.128171 
L 192.22347 -23.808063 
L 193.449398 -23.556245 
L 193.978116 -23.210528 
L 194.617225 -21.840465 
L 194.402252 -20.436258 
L 193.002021 -17.640647 
L 191.206705 -15.378549 
L 189.51597 -15.702925 
L 187.674173 -16.543743 
L 185.448911 -15.848041 
L 185.658074 -17.119937 
L 185.995059 -18.101602 
L 186.221652 -19.125948 
L 186.128691 -20.555765 
L 185.814946 -21.635596 
L 185.344329 -22.715427 
L 184.368235 -24.495229 
L 183.816277 -25.814074 
L 183.450241 -26.339051 
L 183.072586 -26.642087 
L 179.847988 -28.413352 
L 178.988096 -28.724924 
L 178.023622 -28.788946 
L 178.116583 -29.010887 
L 178.331556 -29.407821 
L 179.319271 -31.729672 
L 180.928664 -33.731415 
L 181.759507 -35.669136 
L 180.330226 -37.598321 
L 179.481953 -37.901357 
L 177.756358 -37.858676 
L 176.855795 -37.986719 
L 176.425848 -38.285487 
L 176.013332 -39.058014 
L 175.834808 -39.125226 
L 175.548525 -39.233007 
L 175.19992 -39.06655 
L 174.328408 -38.27695 
L 173.927512 -38.046473 
L 172.939797 -38.09769 
L 170.319449 -39.659818 
L 169.232963 -40.043947 
L 168.686815 -40.329911 
L 165.136853 -45.682118 
L 163.539079 -47.355217 
L 161.987787 -48.153353 
L 160.517835 -48.755156 
L 159.48364 -49.625851 
L 158.867771 -50.953232 
L 158.646988 -52.967779 
L 158.83872 -55.093297 
L 159.750904 -59.372076 
L 159.942637 -61.751546 
L 159.913586 -64.244122 
L 159.681183 -66.109285 
L 158.908441 -67.244602 
L 157.293238 -67.532699 
L 156.548421 -67.369774 
L 154.161602 -66.847668 
L 152.633549 -66.002582 
L 151.436672 -64.713613 
L 150.966055 -63.665793 
L 151.181028 -63.315808 
L 151.552874 -63.027711 
L 151.576114 -62.191162 
L 151.239129 -61.435706 
L 150.681361 -60.754943 
L 150.036441 -60.25344 
L 148.444478 -59.433964 
L 145.678878 -55.720709 
L 144.51686 -54.896964 
L 142.076625 -54.34211 
L 140.862317 -53.770184 
L 139.764211 -52.634867 
L 139.200633 -51.828194 
L 138.962419 -51.132493 
L 139.159962 -50.812385 
L 140.473041 -49.647191 
L 142.134726 -46.37782 
L 142.291598 -43.347463 
L 141.07148 -40.671359 
L 138.613814 -38.494624 
L 138.003755 -38.285487 
L 136.841738 -38.157443 
L 136.27816 -37.71356 
L 135.877264 -36.864207 
L 135.755252 -35.916687 
L 135.749442 -34.990507 
L 135.453128 -32.638779 
L 135.348546 -32.472323 
L 134.802398 -31.243108 
L 134.761727 -31.063847 
L 134.058707 -30.129132 
L 133.657811 -29.787683 
L 133.117473 -29.616959 
L 129.131755 -28.695047 
L 128.320962 -28.027673 
L 127.7102 -26.831226 
L 127.55751 -25.260889 
L 126.400518 -25.206578 
L 126.331294 -25.071423 
L 126.156991 -24.22207 
L 126.203472 -23.790991 
L 126.06984 -23.513564 
L 125.36682 -23.120898 
L 125.041455 -23.13797 
L 124.03631 -23.45381 
L 122.490828 -23.423933 
L 119.789138 -24.435475 
L 119.23718 -24.371453 
L 118.813044 -24.166584 
L 118.342427 -24.051345 
L 117.651027 -24.294628 
L 117.569685 -24.503765 
L 116.51225 -26.082965 
L 115.669788 -26.885369 
L 114.786655 -27.406079 
L 109.057911 -28.874308 
L 108.116677 -28.374939 
L 107.570529 -27.435955 
L 106.95466 -26.61221 
L 105.775213 -26.458558 
L 104.101908 -25.715908 
L 100.778539 -23.223332 
L 98.977413 -22.57458 
L 94.753481 -23.035536 
L 94.0156 -22.775181 
L 92.435257 -21.772176 
L 88.966636 -20.312482 
L 87.270091 -19.988106 
L 85.434104 -19.953961 
L 83.708509 -20.316751 
L 82.40124 -21.119155 
L 79.879663 -24.012932 
L 79.490387 -24.678757 
L 79.188263 -25.511038 
L 78.793177 -27.021949 
L 78.148257 -28.737728 
L 77.944904 -29.616959 
L 77.67183 -29.804755 
L 73.866225 -34.200907 
L 72.588006 -34.777102 
L 72.117389 -34.580769 
L 71.716493 -34.158226 
L 71.286547 -33.825313 
L 70.752019 -33.902139 
L 70.258162 -34.286269 
L 70.223301 -34.542356 
L 70.339503 -34.888072 
L 70.316263 -35.528289 
L 70.397604 -35.609383 
L 70.380174 -36.471541 
L 70.281402 -37.291017 
L 70.12453 -37.209923 
L 70.380174 -37.636734 
L 70.83336 -38.200124 
L 71.228446 -38.831805 
L 71.286547 -39.463485 
L 70.426654 -40.312838 
L 65.952889 -41.320112 
L 65.464841 -42.707247 
L 65.981939 -45.537003 
L 66.958033 -48.494802 
L 68.950893 -52.442802 
L 67.672674 -54.683559 
L 65.679815 -56.83682 
L 64.604949 -58.723323 
L 64.907073 -59.677246 
L 66.388645 -61.444243 
L 66.789541 -62.82711 
L 66.726476 -63.636735 
L 66.667529 -64.393505 
L 66.142326 -65.214137 
L 65.296349 -65.639793 
L 56.921111 -67.840003 
L 53.173606 -67.961644 
L 49.571353 -67.236066 
L 44.778033 -63.898405 
L 42.953666 -63.424645 
L 41.106059 -63.337149 
L 39.374654 -62.767356 
L 37.550287 -61.160413 
L 35.946704 -59.007153 
L 34.761446 -57.368199 
L 34.459322 -56.241419 
L 34.691725 -55.417674 
L 35.208823 -54.013466 
L 35.237873 -53.680553 
L 35.778211 -52.314759 
L 36.016425 -51.964774 
L 36.603243 -51.653202 
L 37.544477 -52.092817 
L 37.939563 -51.917825 
L 38.230067 -50.014248 
L 36.777546 -48.447853 
L 33.181103 -46.019299 
L 30.310921 -42.592008 
L 28.486554 -41.635952 
L 26.575036 -42.506646 
L 24.012789 -42.404211 
L 21.462161 -41.785335 
L 20.108412 -40.961591 
L 20.857912 -42.754196 
L 21.287859 -43.586477 
L 21.462161 -44.294983 
L 20.468637 -45.566879 
L 19.881818 -46.697928 
L 20.090981 -47.692397 
L 21.462161 -48.580164 
L 24.832011 -50.261799 
L 24.924972 -50.291675 
L 25.017933 -50.300212 
L 25.122515 -50.291675 
L 25.564081 -50.14656 
L 25.901066 -50.103879 
L 26.226431 -50.142292 
L 27.463979 -50.534958 
L 27.708003 -51.085544 
L 27.655712 -51.849535 
L 27.684763 -52.74157 
L 28.085658 -55.080493 
L 28.271581 -55.724977 
L 29.089878 -57.587885 
L 30.090138 -59.865042 
L 30.014607 -60.778418 
L 29.329017 -62.028973 
L 28.503985 -62.933812 
L 25.740097 -64.658842 
L 25.47112 -64.826718 
L 26.11604 -65.45413 
L 26.220621 -65.998314 
L 26.104419 -66.557436 
L 26.104419 -67.186982 
L 26.063749 -67.440935 
L 25.930117 -67.782383 
L 25.808105 -68.170781 
L 25.808105 -68.593324 
L 26.028888 -69.096961 
L 26.667998 -69.796931 
L 28.625996 -73.202881 
L 30.613046 -75.746674 
L 29.253486 -77.287461 
L 29.079183 -78.375828 
L 29.834494 -79.378834 
L 37.393415 -86.378531 
L 41.419804 -88.612886 
L 41.977572 -89.08878 
L 43.459144 -90.776817 
L 45.324181 -91.775555 
L 45.91681 -92.221572 
L 46.550109 -93.023976 
L 46.765082 -93.709008 
L 46.741842 -95.102545 
L 46.323516 -95.567769 
L 46.027202 -95.973239 
L 45.870329 -96.438463 
L 45.95167 -96.839665 
L 46.834803 -99.526439 
L 47.224079 -100.237079 
L 47.332569 -100.510116 
L 47.537824 -101.026679 
L 47.630785 -102.170532 
L 47.450672 -103.083908 
L 46.701171 -104.52226 
L 46.468768 -105.269179 
L 47.30542 -108.167225 
L 50.03035 -109.754961 
L 56.078649 -111.667073 
L 59.829059 -114.537376 
L 61.113088 -116.400406 
L 60.439118 -117.932656 
L 61.194429 -119.2451 
L 61.723147 -119.767943 
L 63.134997 -120.275848 
L 63.34416 -120.800825 
L 63.553323 -120.945941 
L 64.360925 -121.364216 
L 64.291204 -122.776959 
L 65.976129 -123.365958 
L 69.535563 -126.665356 
L 69.659723 -126.780445 
L 70.728779 -128.547442 
L 72.361413 -130.231211 
L 76.178639 -133.033224 
L 75.952045 -135.081916 
L 76.312271 -136.776355 
L 77.369706 -137.864722 
L 77.880993 -137.928744 
L 78.183118 -138.048251 
L 79.00234 -139.155825 
L 79.589159 -139.499408 
L 80.164357 -139.657328 
L 80.693075 -139.994508 
L 81.128831 -140.901482 
L 80.542013 -141.740165 
L 79.69955 -142.504156 
L 78.862898 -143.18492 
L 77.828703 -142.687685 
L 71.141295 -142.030396 
L 71.420179 -143.086753 
L 72.117389 -144.377856 
L 72.948231 -145.461955 
L 74.394942 -146.311309 
L 74.482094 -147.869168 
L 75.957855 -148.197813 
L 76.870039 -148.72279 
L 77.706691 -149.43343 
L 78.130827 -150.129132 
L 77.857753 -151.112931 
L 77.276745 -152.25465 
L 77.137303 -153.174427 
L 78.183118 -153.492401 
L 78.682785 -153.882933 
L 79.188263 -154.01311 
L 79.69955 -153.882933 
L 80.210838 -153.492401 
L 81.669169 -153.28113 
L 84.46963 -153.767694 
L 85.79433 -153.492401 
L 86.5264 -153.071992 
L 86.630465 -153.0554 
L 87.275901 -152.952485 
L 88.803954 -153.106137 
L 87.781379 -150.762946 
L 88.100933 -149.414224 
L 89.321051 -148.684377 
L 90.971115 -148.167936 
L 91.203519 -147.982273 
L 91.360391 -147.68564 
L 91.586985 -147.386872 
L 92.022741 -147.203343 
L 92.400396 -147.280169 
L 94.526888 -148.202081 
L 96.014269 -148.513653 
L 97.579131 -148.446938 
L 99.918647 -148.347197 
L 100.462385 -148.565473 
L 101.48156 -148.974608 
L 102.280648 -150.01648 
L 102.591286 -150.421497 
L 102.771398 -151.194025 
L 102.678437 -151.659249 
L 102.405363 -152.045512 
L 102.21944 -152.246113 
L 101.934746 -152.756152 
L 101.928936 -153.264057 
L 102.585476 -153.456122 
L 103.456989 -153.153087 
L 103.710372 -152.992064 
L 104.189059 -152.687863 
L 104.91532 -152.58116 
L 105.775213 -153.353688 
L 105.873984 -153.492401 
L 105.949515 -153.727147 
L 105.955325 -153.942687 
L 105.946663 -153.973548 
L 105.897224 -154.14969 
L 105.496328 -154.710946 
L 105.374317 -155.043858 
L 105.449848 -155.304213 
L 105.775213 -155.479206 
L 106.356221 -155.35543 
L 106.809408 -155.504814 
L 107.053431 -155.97644 
L 107.036001 -156.802319 
L 106.844268 -156.798051 
L 105.908844 -157.510825 
L 105.775213 -157.566311 
L 107.919309 -159.31306 
L 108.227068 -159.563785 
L 109.575008 -160.310704 
L 111.551776 -161.052722 
L 111.58245 -161.064237 
L 114.44967 -161.919781 
L 115.722078 -162.052092 
L 114.984198 -159.984194 
L 114.385759 -159.410133 
L 113.061425 -159.421669 
L 112.915807 -159.422938 
L 115.004462 -158.324356 
L 115.82085 -157.894955 
L 117.058398 -157.730633 
L 119.52532 -158.239895 
L 121.741327 -158.697359 
L 122.798762 -159.294894 
L 123.693515 -160.359787 
L 124.71609 -161.949658 
L 125.506262 -161.548456 
L 129.131755 -161.330782 
L 129.47455 -160.976529 
L 129.654663 -160.201867 
L 129.765054 -159.427206 
L 129.916116 -159.077221 
L 137.231014 -159.077221 
L 139.758401 -159.640611 
L 140.304549 -160.009803 
L 140.554382 -160.368324 
L 140.780976 -160.786598 
L 141.257403 -161.330782 
L 141.716399 -161.685035 
L 142.936517 -162.34019 
L 143.964902 -162.645359 
L 144.348368 -163.048696 
L 144.627252 -163.452032 
L 144.917756 -163.639829 
L 147.950621 -164.147734 
L 148.967386 -164.152002 
L 150.425717 -163.708118 
L 151.076447 -163.639829 
L 151.378571 -163.281308 
L 151.680695 -162.485305 
L 152.075781 -161.689303 
L 152.627739 -161.330782 
L 154.760041 -160.767392 
L 158.356483 -160.746051 
L 158.526853 -160.77461 
L 160.087889 -161.036283 
L 160.15761 -161.428949 
L 160.814149 -162.841692 
L 162.533935 -163.972741 
L 164.218859 -164.143466 
L 165.084562 -163.336793 
L 165.752722 -162.218549 
L 165.869721 -162.075569 
L 166.374401 -161.458825 
L 167.129712 -161.710644 
L 167.25186 -161.923576 
L 167.495747 -162.348726 
L 167.559658 -162.967602 
L 167.530608 -163.554467 
L 167.600329 -164.117857 
L 167.577089 -164.401686 
L 167.443457 -164.723928 
L 167.350495 -165.099522 
L 167.478317 -165.556209 
L 167.68167 -165.731202 
L 167.977984 -165.842173 
L 168.222008 -165.850709 
L 168.274299 -165.718398 
L 168.309159 -165.210493 
L 168.675195 -165.026964 
L 168.994749 -166.983892 
L 168.483462 -167.032975 
L 168.223459 -167.138948 
L 167.582899 -167.400032 
L 166.798537 -167.532344 
L 164.067797 -167.071388 
L 163.225335 -166.650979 
L 162.446783 -166.098259 
L 161.615941 -165.671448 
L 160.616607 -165.628767 
L 159.45459 -166.286056 
L 158.013688 -167.376558 
L 157.734804 -167.419239 
L 156.851671 -167.741481 
L 157.211897 -168.63565 
L 157.072455 -169.339887 
L 156.834241 -169.943825 
L 156.898152 -170.554164 
L 157.45011 -171.179442 
L 158.873581 -171.954104 
L 159.47202 -172.508958 
L 159.896156 -174.160716 
L 160.15761 -174.762519 
L 160.918731 -175.872227 
L 161.360297 -176.132582 
L 161.987787 -176.115509 
L 165.014841 -176.713045 
L 165.863113 -177.139855 
L 165.340206 -178.441628 
L 166.234959 -178.949533 
L 167.635189 -178.872707 
L 168.675195 -178.407484 
L 168.762346 -177.80568 
L 168.814637 -176.738653 
L 169.01218 -175.735648 
L 169.564138 -175.328043 
L 170.261348 -175.780463 
L 170.551852 -177.581605 
L 171.06314 -178.11085 
L 171.7894 -177.871836 
L 172.329738 -177.058761 
L 172.771305 -176.102705 
L 173.189631 -175.445416 
L 173.770639 -175.315239 
L 174.392318 -175.443282 
L 174.944277 -175.33658 
L 175.316122 -174.502164 
L 175.16506 -174.190593 
L 174.415559 -173.074482 
L 174.229636 -172.534567 
L 174.46785 -171.860205 
L 174.915226 -171.311753 
L 175.054668 -170.682207 
L 175.16506 -170.144426 
L 178.134013 -170.187107 
L 177.675017 -170.697146 
L 178.180494 -172.316893 
L 179.691116 -172.248603 
L 181.527103 -171.187978 
L 182.979624 -169.824318 
L 181.945429 -169.585304 
L 181.951239 -169.011243 
L 182.746664 -168.222003 
L 182.787892 -168.181096 
L 184.420525 -166.971087 
L 185.797516 -166.612566 
L 187.999538 -166.819569 
L 190.044688 -167.468322 
L 190.939441 -168.432914 
L 192.002687 -168.851189 
L 198.271769 -168.151219 
L 201.380164 -168.151219 
L 202.141285 -166.971087 
L 204.244536 -166.973221 
L 206.429128 -166.471719 
L 221.847513 -156.928689 
L 222.161025 -155.470448 
L 222.26742 -154.975569 
L 223.929105 -152.482994 
L 226.020735 -151.531205 
L 227.630129 -150.118462 
L 227.583648 -146.618613 
L 227.0375 -145.363789 
L 224.858718 -142.617261 
L 224.597265 -141.876744 
L 224.30676 -140.421319 
L 224.091787 -139.853661 
L 222.174459 -137.544614 
L 220.367523 -134.484381 
L 219.437909 -132.909449 
L 218.467625 -130.124508 
L 218.333993 -127.343835 
L 218.763939 -125.978041 
L 219.373998 -124.787238 
L 219.844615 -123.464125 
L 219.873665 -121.701396 
L 219.339137 -120.600224 
L 218.479245 -119.712458 
L 217.822705 -118.826825 
L 217.886616 -118.056432 
L 219.153215 -117.680838 
L 222.586975 -117.106778 
L 223.743182 -117.475969 
L 224.794807 -117.196408 
L 227.740521 -117.563465 
L 228.681754 -117.420483 
L 239.30259 -114.057214 
L 239.209629 -113.116096 
L 239.447842 -112.911227 
L 239.796447 -112.93897 
L 240.011421 -112.682883 
L 240.011421 -112.196319 
L 239.779017 -111.406719 
L 239.639575 -109.468998 
L 239.459462 -108.579097 
L 239.552424 -107.804435 
L 240.267064 -106.784358 
L 241.661485 -105.708794 
L 247.674923 -103.756135 
L 249.847895 -101.675432 
L 251.114493 -100.937049 
L 253.543109 -100.151717 
L 254.323827 -100.121607 
L 254.705126 -100.106902 
L 256.157647 -100.523043 
L 258.609503 -101.78 
L 259.184702 -102.622952 
L 259.335764 -103.254632 
L 259.382245 -103.950334 
L 259.649508 -104.99602 
L 260.503591 -106.445043 
L 261.415774 -106.615767 
L 262.50807 -106.32767 
L 263.908301 -106.393826 
L 263.937351 -107.936747 
L 264.919256 -109.831787 
L 266.336917 -111.466472 
L 267.969551 -112.40759 
L 268.277485 -112.469478 
L 268.59123 -112.40759 
L 268.887544 -112.213391 
L 268.893354 -112.213391 
L 268.893354 -112.200587 
L 269.474363 -111.573175 
L 270.648 -109.673867 
L 272.559518 -108.145884 
L 273.059185 -107.544081 
L 273.361309 -106.150543 
L 272.664099 -103.344262 
L 272.797731 -101.581533 
" style="stroke: #aaaaaa"/>
    </defs>
    <g clip-path="url(#p7e8bce370a)">
     <use xlink:href="#m8883c151fe" x="0" y="209.446208" style="fill: #aaaaaa; stroke: #aaaaaa"/>
    </g>
   </g>
   <g id="PathCollection_1">
    <defs>
     <path id="mbe778cf4da" d="M 0 1.581139 
C 0.419323 1.581139 0.821528 1.41454 1.118034 1.118034 
C 1.41454 0.821528 1.581139 0.419323 1.581139 0 
C 1.581139 -0.419323 1.41454 -0.821528 1.118034 -1.118034 
C 0.821528 -1.41454 0.419323 -1.581139 0 -1.581139 
C -0.419323 -1.581139 -0.821528 -1.41454 -1.118034 -1.118034 
C -1.41454 -0.821528 -1.581139 -0.419323 -1.581139 0 
C -1.581139 0.419323 -1.41454 0.821528 -1.118034 1.118034 
C -0.821528 1.41454 -0.419323 1.581139 0 1.581139 
z
" style="stroke: #1f77b4; stroke-opacity: 0.5"/>
    </defs>
    <g clip-path="url(#p7e8bce370a)">
     <use xlink:href="#mbe778cf4da" x="182.878249" y="74.875299" style="fill: #1f77b4; fill-opacity: 0.5; stroke: #1f77b4; stroke-opacity: 0.5"/>
     <use xlink:href="#mbe778cf4da" x="185.875454" y="62.072249" style="fill: #1f77b4; fill-opacity: 0.5; stroke: #1f77b4; stroke-opacity: 0.5"/>
     <use xlink:href="#mbe778cf4da" x="101.850702" y="84.115043" style="fill: #1f77b4; fill-opacity: 0.5; stroke: #1f77b4; stroke-opacity: 0.5"/>
     <use xlink:href="#mbe778cf4da" x="111.507626" y="92.08708" style="fill: #1f77b4; fill-opacity: 0.5; stroke: #1f77b4; stroke-opacity: 0.5"/>
     <use xlink:href="#mbe778cf4da" x="103.383048" y="118.887783" style="fill: #1f77b4; fill-opacity: 0.5; stroke: #1f77b4; stroke-opacity: 0.5"/>
     <use xlink:href="#mbe778cf4da" x="192.190939" y="102.248036" style="fill: #1f77b4; fill-opacity: 0.5; stroke: #1f77b4; stroke-opacity: 0.5"/>
     <use xlink:href="#mbe778cf4da" x="190.13434" y="65.462829" style="fill: #1f77b4; fill-opacity: 0.5; stroke: #1f77b4; stroke-opacity: 0.5"/>
     <use xlink:href="#mbe778cf4da" x="195.127015" y="56.875438" style="fill: #1f77b4; fill-opacity: 0.5; stroke: #1f77b4; stroke-opacity: 0.5"/>
     <use xlink:href="#mbe778cf4da" x="230.49881" y="113.287115" style="fill: #1f77b4; fill-opacity: 0.5; stroke: #1f77b4; stroke-opacity: 0.5"/>
     <use xlink:href="#mbe778cf4da" x="149.798704" y="60.468635" style="fill: #1f77b4; fill-opacity: 0.5; stroke: #1f77b4; stroke-opacity: 0.5"/>
     <use xlink:href="#mbe778cf4da" x="157.159089" y="82.576691" style="fill: #1f77b4; fill-opacity: 0.5; stroke: #1f77b4; stroke-opacity: 0.5"/>
    </g>
   </g>
   <g id="text_1">
    <text style="font: 12px 'DejaVu Sans', 'Bitstream Vera Sans', 'Computer Modern Sans Serif', 'Lucida Grande', 'Verdana', 'Geneva', 'Lucid', 'Arial', 'Helvetica', 'Avant Garde', sans-serif; text-anchor: middle" x="146.7" y="16.318125" transform="rotate(-0 146.7 16.318125)">-rüti 11x</text>
   </g>
  </g>
 </g>
 <defs>
  <clipPath id="p7e8bce370a">
   <rect x="7.2" y="22.318125" width="279" height="179.928083"/>
  </clipPath>
 </defs>
</svg>
