<?xml version="1.0" encoding="utf-8" standalone="no"?>
<!DOCTYPE svg PUBLIC "-//W3C//DTD SVG 1.1//EN"
  "http://www.w3.org/Graphics/SVG/1.1/DTD/svg11.dtd">
<svg xmlns:xlink="http://www.w3.org/1999/xlink" width="293.4pt" height="208.993525pt" viewBox="0 0 293.4 208.993525" xmlns="http://www.w3.org/2000/svg" version="1.1">
 <metadata>
  <rdf:RDF xmlns:dc="http://purl.org/dc/elements/1.1/" xmlns:cc="http://creativecommons.org/ns#" xmlns:rdf="http://www.w3.org/1999/02/22-rdf-syntax-ns#">
   <cc:Work>
    <dc:type rdf:resource="http://purl.org/dc/dcmitype/StillImage"/>
    <dc:date>2024-08-06T14:07:36.032632</dc:date>
    <dc:format>image/svg+xml</dc:format>
    <dc:creator>
     <cc:Agent>
      <dc:title>Matplotlib v3.9.1, https://matplotlib.org/</dc:title>
     </cc:Agent>
    </dc:creator>
   </cc:Work>
  </rdf:RDF>
 </metadata>
 <defs>
  <style type="text/css">*{stroke-linejoin: round; stroke-linecap: butt}</style>
 </defs>
 <g id="figure_1">
  <g id="patch_1">
   <path d="M 0 208.993525 
L 293.4 208.993525 
L 293.4 0 
L 0 0 
z
" style="fill: #ffffff"/>
  </g>
  <g id="axes_1">
   <g id="PatchCollection_1">
    <defs>
     <path id="m5b95a0e0c0" d="M 272.797731 -101.344078 
L 272.501417 -98.691737 
L 272.298064 -97.950954 
L 271.966889 -97.427298 
L 270.740961 -95.941476 
L 270.845543 -94.715353 
L 271.246439 -93.516903 
L 271.385881 -92.382314 
L 270.706101 -91.341387 
L 269.753247 -90.726197 
L 269.526653 -89.972643 
L 269.578944 -89.033892 
L 269.456932 -87.865244 
L 268.916594 -86.892435 
L 268.306535 -86.307047 
L 268.039272 -85.523691 
L 268.509888 -83.948464 
L 269.526653 -82.7564 
L 271.920408 -82.4967 
L 273.094046 -81.500476 
L 273.518182 -79.912477 
L 273.477511 -77.78592 
L 273.030135 -75.744511 
L 272.686514 -75.168192 
L 272.245773 -74.428984 
L 271.229008 -74.231016 
L 267.202619 -75.301745 
L 265.24462 -75.114421 
L 264.52417 -75.233627 
L 263.890871 -75.529514 
L 263.536455 -75.90842 
L 263.240141 -76.323514 
L 262.798575 -76.719449 
L 260.480351 -77.524092 
L 260.230517 -78.41814 
L 260.538451 -80.110445 
L 260.42806 -81.04068 
L 259.533307 -81.781462 
L 258.086596 -81.76869 
L 252.764558 -80.221136 
L 252.22422 -79.920992 
L 251.980196 -79.312188 
L 251.288796 -76.625787 
L 250.823989 -75.995696 
L 249.609681 -74.769574 
L 249.127444 -74.037306 
L 249.051913 -73.445531 
L 249.040293 -71.636149 
L 248.796269 -70.759131 
L 248.86599 -69.997062 
L 248.999622 -69.398901 
L 249.272696 -68.936976 
L 249.760744 -68.600644 
L 248.767219 -66.893439 
L 249.650352 -65.778008 
L 251.300416 -65.12663 
L 253.816183 -64.632775 
L 254.786467 -64.23684 
L 255.198983 -63.321505 
L 254.774847 -61.524895 
L 254.368141 -60.971437 
L 253.188694 -59.89858 
L 252.764558 -59.098194 
L 252.479863 -57.982763 
L 252.445003 -57.229209 
L 252.671596 -56.535257 
L 253.182884 -55.615665 
L 255.501108 -53.218766 
L 256.221558 -51.749973 
L 255.483677 -50.174746 
L 253.914954 -49.170007 
L 251.54444 -48.254672 
L 249.685212 -48.292988 
L 249.638732 -50.153459 
L 249.069343 -51.554134 
L 246.849891 -53.555098 
L 246.024859 -54.687558 
L 245.658823 -56.492683 
L 245.635583 -58.123256 
L 245.263738 -59.464328 
L 243.857697 -60.400949 
L 242.70149 -60.705351 
L 241.609194 -60.78837 
L 239.157338 -60.360504 
L 235.415643 -58.410629 
L 234.247816 -58.025337 
L 233.527365 -58.182859 
L 232.156185 -59.021561 
L 231.551937 -59.036462 
L 230.941878 -58.336125 
L 230.831486 -57.395246 
L 230.918637 -56.460753 
L 230.895397 -55.811504 
L 230.035504 -54.602411 
L 228.978069 -54.168159 
L 222.534684 -54.244792 
L 221.227415 -54.730132 
L 220.036348 -55.551805 
L 219.321707 -56.552287 
L 218.200361 -59.523931 
L 217.700693 -59.941153 
L 216.457335 -60.641491 
L 216.050629 -61.045941 
L 215.940238 -61.507866 
L 216.021579 -62.76379 
L 215.684594 -70.665469 
L 215.504481 -71.182739 
L 215.062915 -71.082691 
L 214.156542 -70.405769 
L 213.773076 -69.879984 
L 213.575533 -69.294596 
L 213.302459 -68.800741 
L 212.6924 -68.553813 
L 212.268264 -68.741137 
L 210.833173 -70.124783 
L 210.792502 -71.144423 
L 209.676966 -71.444568 
L 206.940416 -71.103978 
L 205.86555 -70.094981 
L 204.889456 -68.111047 
L 204.447889 -66.093053 
L 204.988227 -64.979751 
L 205.737728 -64.453966 
L 205.84812 -63.628036 
L 205.702868 -62.589238 
L 205.708678 -61.412075 
L 206.463989 -58.48939 
L 206.53952 -57.429305 
L 206.190915 -55.615665 
L 204.546661 -52.124622 
L 203.710008 -49.174264 
L 203.198721 -48.33982 
L 202.547991 -47.722501 
L 201.874021 -47.398941 
L 201.263962 -46.939145 
L 200.950218 -46.12173 
L 200.688764 -45.172336 
L 200.277789 -44.379851 
L 200.247198 -44.320862 
L 196.162708 -41.510998 
L 195.122702 -39.922999 
L 194.901919 -38.858656 
L 195.023931 -37.002443 
L 194.843818 -35.989189 
L 194.396442 -35.218605 
L 193.861914 -34.899302 
L 192.630176 -34.503366 
L 191.189275 -33.366649 
L 190.945251 -32.430027 
L 191.944586 -29.56056 
L 190.096979 -27.819295 
L 189.974967 -27.614941 
L 189.934296 -27.402073 
L 189.974967 -27.193462 
L 190.096979 -26.984851 
L 190.701228 -26.359017 
L 191.166034 -24.860423 
L 191.677322 -24.085582 
L 192.22347 -23.766279 
L 193.449398 -23.515094 
L 193.978116 -23.170247 
L 194.617225 -21.803631 
L 194.402252 -20.402956 
L 193.002021 -17.614379 
L 191.206705 -15.357973 
L 189.51597 -15.681533 
L 187.674173 -16.520235 
L 185.448911 -15.826283 
L 185.658074 -17.09498 
L 185.995059 -18.074175 
L 186.221652 -19.095944 
L 186.128691 -20.522163 
L 185.814946 -21.599277 
L 185.344329 -22.676392 
L 184.368235 -24.451715 
L 183.816277 -25.767243 
L 183.450241 -26.290899 
L 183.072586 -26.593173 
L 179.847988 -28.359981 
L 178.988096 -28.670769 
L 178.023622 -28.73463 
L 178.116583 -28.956013 
L 178.331556 -29.351949 
L 179.319271 -31.667958 
L 180.928664 -33.664665 
L 181.759507 -35.597511 
L 180.330226 -37.521842 
L 179.481953 -37.824115 
L 177.756358 -37.781541 
L 176.855795 -37.909263 
L 176.425848 -38.207278 
L 176.013332 -38.977862 
L 175.834808 -39.044905 
L 175.548525 -39.152415 
L 175.19992 -38.986377 
L 174.328408 -38.198764 
L 173.927512 -37.968866 
L 172.939797 -38.019954 
L 170.319449 -39.578152 
L 169.232963 -39.961315 
L 168.686815 -40.246559 
L 165.136853 -45.585301 
L 163.539079 -47.25419 
L 161.987787 -48.050318 
L 160.517835 -48.650608 
L 159.48364 -49.519111 
L 158.867771 -50.843153 
L 158.646988 -52.852632 
L 158.83872 -54.972802 
L 159.750904 -59.240816 
L 159.942637 -61.6143 
L 159.913586 -64.100604 
L 159.681183 -65.961075 
L 158.908441 -67.093535 
L 157.293238 -67.380908 
L 156.548421 -67.218392 
L 154.161602 -66.6976 
L 152.633549 -65.85464 
L 151.436672 -64.568915 
L 150.966055 -63.52373 
L 151.181028 -63.174626 
L 151.552874 -62.887253 
L 151.576114 -62.052809 
L 151.239129 -61.299254 
L 150.681361 -60.620204 
L 150.036441 -60.119963 
L 148.444478 -59.302548 
L 145.678878 -55.598636 
L 144.51686 -54.776963 
L 142.076625 -54.223505 
L 140.862317 -53.653018 
L 139.764211 -52.520557 
L 139.200633 -51.715914 
L 138.962419 -51.021963 
L 139.159962 -50.70266 
L 140.473041 -49.540398 
L 142.134726 -46.279252 
L 142.291598 -43.25652 
L 141.07148 -40.587148 
L 138.613814 -38.41589 
L 138.003755 -38.207278 
L 136.841738 -38.079557 
L 136.27816 -37.636791 
L 135.877264 -36.789574 
L 135.755252 -35.844438 
L 135.749442 -34.920589 
L 135.453128 -32.574778 
L 135.348546 -32.40874 
L 134.802398 -31.182618 
L 134.761727 -31.003808 
L 134.058707 -30.071444 
L 133.657811 -29.730854 
L 133.117473 -29.56056 
L 129.131755 -28.640968 
L 128.320962 -27.975273 
L 127.7102 -26.781836 
L 127.55751 -25.215449 
L 126.400518 -25.161275 
L 126.331294 -25.02646 
L 126.156991 -24.179244 
L 126.203472 -23.749249 
L 126.06984 -23.47252 
L 125.36682 -23.080842 
L 125.041455 -23.097872 
L 124.03631 -23.412917 
L 122.490828 -23.383116 
L 119.789138 -24.392112 
L 119.23718 -24.328252 
L 118.813044 -24.123898 
L 118.342427 -24.008949 
L 117.651027 -24.251619 
L 117.569685 -24.46023 
L 116.51225 -26.035457 
L 115.669788 -26.835843 
L 114.786655 -27.355242 
L 109.057911 -28.819777 
L 108.116677 -28.321665 
L 107.570529 -27.385043 
L 106.95466 -26.563371 
L 105.775213 -26.410106 
L 104.101908 -25.669323 
L 100.778539 -23.183019 
L 98.977413 -22.535899 
L 94.753481 -22.995695 
L 94.0156 -22.735995 
L 92.435257 -21.735513 
L 88.966636 -20.279493 
L 87.270091 -19.955933 
L 85.434104 -19.921874 
L 83.708509 -20.28375 
L 82.40124 -21.084136 
L 79.879663 -23.970633 
L 79.490387 -24.634782 
L 79.188263 -25.46497 
L 78.793177 -26.972079 
L 78.148257 -28.683541 
L 77.944904 -29.56056 
L 77.67183 -29.747884 
L 73.866225 -34.132975 
L 72.588006 -34.70772 
L 72.117389 -34.511881 
L 71.716493 -34.090402 
L 71.286547 -33.758327 
L 70.752019 -33.834959 
L 70.258162 -34.218123 
L 70.223301 -34.473565 
L 70.339503 -34.818412 
L 70.316263 -35.457017 
L 70.397604 -35.537907 
L 70.380174 -36.397896 
L 70.281402 -37.215311 
L 70.12453 -37.134421 
L 70.380174 -37.560158 
L 70.83336 -38.122131 
L 71.228446 -38.752222 
L 71.286547 -39.382313 
L 70.426654 -40.229529 
L 65.952889 -41.234269 
L 65.464841 -42.617914 
L 65.981939 -45.44055 
L 66.958033 -48.390908 
L 68.950893 -52.328975 
L 67.672674 -54.564095 
L 65.679815 -56.711938 
L 64.604949 -58.593696 
L 64.907073 -59.545218 
L 66.388645 -61.307769 
L 66.789541 -62.687157 
L 66.726476 -63.494745 
L 66.667529 -64.249612 
L 66.142326 -65.068179 
L 65.296349 -65.492764 
L 56.921111 -67.687438 
L 53.173606 -67.808773 
L 49.571353 -67.08502 
L 44.778033 -63.755757 
L 42.953666 -63.283189 
L 41.106059 -63.195913 
L 39.374654 -62.627554 
L 37.550287 -61.024654 
L 35.946704 -58.876811 
L 34.761446 -57.241981 
L 34.459322 -56.118035 
L 34.691725 -55.296362 
L 35.208823 -53.895688 
L 35.237873 -53.563613 
L 35.778211 -52.201254 
L 36.016425 -51.85215 
L 36.603243 -51.541362 
L 37.544477 -51.979871 
L 37.939563 -51.805319 
L 38.230067 -49.906532 
L 36.777546 -48.344077 
L 33.181103 -45.921633 
L 30.310921 -42.502965 
L 28.486554 -41.549314 
L 26.575036 -42.417818 
L 24.012789 -42.315641 
L 21.462161 -41.698322 
L 20.108412 -40.87665 
L 20.857912 -42.664745 
L 21.287859 -43.494932 
L 21.462161 -44.201656 
L 20.468637 -45.470352 
L 19.881818 -46.598555 
L 20.090981 -47.590522 
L 21.462161 -48.476055 
L 24.832011 -50.153459 
L 24.924972 -50.183261 
L 25.017933 -50.191776 
L 25.122515 -50.183261 
L 25.564081 -50.03851 
L 25.901066 -49.995937 
L 26.226431 -50.034253 
L 27.463979 -50.425931 
L 27.708003 -50.975132 
L 27.655712 -51.737201 
L 27.684763 -52.626991 
L 28.085658 -54.96003 
L 28.271581 -55.602893 
L 29.089878 -57.461113 
L 30.090138 -59.732542 
L 30.014607 -60.643619 
L 29.329017 -61.891029 
L 28.503985 -62.793591 
L 25.740097 -64.51428 
L 25.47112 -64.681735 
L 26.11604 -65.307568 
L 26.220621 -65.850383 
L 26.104419 -66.408099 
L 26.104419 -67.036061 
L 26.063749 -67.289374 
L 25.930117 -67.629964 
L 25.808105 -68.017385 
L 25.808105 -68.438864 
L 26.028888 -68.941234 
L 26.667998 -69.639443 
L 28.625996 -73.036824 
L 30.613046 -75.574217 
L 29.253486 -77.111127 
L 29.079183 -78.196757 
L 29.834494 -79.197239 
L 37.393415 -86.179326 
L 41.419804 -88.408059 
L 41.977572 -88.882756 
L 43.459144 -90.566546 
L 45.324181 -91.56277 
L 45.91681 -92.007665 
L 46.550109 -92.808051 
L 46.765082 -93.491359 
L 46.741842 -94.88139 
L 46.323516 -95.345444 
L 46.027202 -95.749894 
L 45.870329 -96.213947 
L 45.95167 -96.61414 
L 46.834803 -99.294155 
L 47.224079 -100.003007 
L 47.332569 -100.275356 
L 47.537824 -100.79062 
L 47.630785 -101.931595 
L 47.450672 -102.842673 
L 46.701171 -104.277406 
L 46.468768 -105.022446 
L 47.30542 -107.9132 
L 50.03035 -109.496942 
L 56.078649 -111.404244 
L 59.829059 -114.267325 
L 61.113088 -116.125668 
L 60.439118 -117.654063 
L 61.194429 -118.963205 
L 61.723147 -119.484733 
L 63.134997 -119.99136 
L 63.34416 -120.515016 
L 63.553323 -120.659767 
L 64.360925 -121.076989 
L 64.291204 -122.486179 
L 65.976129 -123.073696 
L 69.535563 -126.364792 
L 69.659723 -126.479592 
L 70.728779 -128.242143 
L 72.361413 -129.921676 
L 76.178639 -132.716639 
L 75.952045 -134.760177 
L 76.312271 -136.450353 
L 77.369706 -137.535982 
L 77.880993 -137.599843 
L 78.183118 -137.719049 
L 79.00234 -138.823837 
L 79.589159 -139.166555 
L 80.164357 -139.324078 
L 80.693075 -139.66041 
L 81.128831 -140.565101 
L 80.542013 -141.401674 
L 79.69955 -142.163744 
L 78.862898 -142.842794 
L 77.828703 -142.34681 
L 71.141295 -141.691175 
L 71.420179 -142.744875 
L 72.117389 -144.032729 
L 72.948231 -145.114101 
L 74.394942 -145.961318 
L 74.482094 -147.515258 
L 75.957855 -147.843075 
L 76.870039 -148.366732 
L 77.706691 -149.075584 
L 78.130827 -149.769535 
L 77.857753 -150.750859 
L 77.276745 -151.889706 
L 77.137303 -152.807169 
L 78.183118 -153.124343 
L 78.682785 -153.513892 
L 79.188263 -153.643742 
L 79.69955 -153.513892 
L 80.210838 -153.124343 
L 81.669169 -152.913603 
L 84.46963 -153.398943 
L 85.79433 -153.124343 
L 86.5264 -152.704992 
L 86.630465 -152.688441 
L 87.275901 -152.585786 
L 88.803954 -152.739051 
L 87.781379 -150.401755 
L 88.100933 -149.056426 
L 89.321051 -148.328416 
L 90.971115 -147.813274 
L 91.203519 -147.628078 
L 91.360391 -147.332191 
L 91.586985 -147.034175 
L 92.022741 -146.851108 
L 92.400396 -146.927741 
L 94.526888 -147.847333 
L 96.014269 -148.158121 
L 97.579131 -148.091574 
L 99.918647 -147.992083 
L 100.462385 -148.209811 
L 101.48156 -148.617917 
L 102.280648 -149.657167 
L 102.591286 -150.061165 
L 102.771398 -150.831749 
L 102.678437 -151.295803 
L 102.405363 -151.681095 
L 102.21944 -151.881191 
L 101.934746 -152.389947 
L 101.928936 -152.896574 
L 102.585476 -153.088155 
L 103.456989 -152.785882 
L 103.710372 -152.625265 
L 104.189059 -152.321829 
L 104.91532 -152.215395 
L 105.775213 -152.985979 
L 105.873984 -153.124343 
L 105.949515 -153.358498 
L 105.955325 -153.573496 
L 105.946663 -153.604279 
L 105.897224 -153.779978 
L 105.496328 -154.339822 
L 105.374317 -154.671897 
L 105.449848 -154.931597 
L 105.775213 -155.106149 
L 106.356221 -154.982685 
L 106.809408 -155.131693 
L 107.053431 -155.602133 
L 107.036001 -156.425934 
L 106.844268 -156.421676 
L 105.908844 -157.132657 
L 105.775213 -157.188003 
L 107.919309 -158.930358 
L 108.227068 -159.180452 
L 109.575008 -159.925492 
L 111.551776 -160.665643 
L 111.58245 -160.677128 
L 114.44967 -161.530521 
L 115.722078 -161.662499 
L 114.984198 -159.599803 
L 114.385759 -159.027187 
L 113.061425 -159.038694 
L 112.915807 -159.039959 
L 115.004462 -157.944141 
L 115.82085 -157.51582 
L 117.058398 -157.351912 
L 119.52532 -157.859893 
L 121.741327 -158.316206 
L 122.798762 -158.912238 
L 123.693515 -159.974452 
L 124.71609 -161.560322 
L 125.506262 -161.160129 
L 129.131755 -160.943003 
L 129.47455 -160.589642 
L 129.654663 -159.816929 
L 129.765054 -159.044216 
L 129.916116 -158.695112 
L 137.231014 -158.695112 
L 139.758401 -159.257085 
L 140.304549 -159.625347 
L 140.554382 -159.982966 
L 140.780976 -160.400189 
L 141.257403 -160.943003 
L 141.716399 -161.296365 
L 142.936517 -161.949872 
L 143.964902 -162.254273 
L 144.348368 -162.656595 
L 144.627252 -163.058916 
L 144.917756 -163.246241 
L 147.950621 -163.752868 
L 148.967386 -163.757125 
L 150.425717 -163.314359 
L 151.076447 -163.246241 
L 151.378571 -162.888622 
L 151.680695 -162.094622 
L 152.075781 -161.300623 
L 152.627739 -160.943003 
L 154.760041 -160.381031 
L 158.356483 -160.359744 
L 158.526853 -160.388231 
L 160.087889 -160.649245 
L 160.15761 -161.040923 
L 160.814149 -162.450112 
L 162.533935 -163.578316 
L 164.218859 -163.74861 
L 165.084562 -162.943967 
L 165.752722 -161.828536 
L 165.869721 -161.685917 
L 166.374401 -161.070725 
L 167.129712 -161.321909 
L 167.25186 -161.534306 
L 167.495747 -161.958386 
L 167.559658 -162.575705 
L 167.530608 -163.161093 
L 167.600329 -163.723066 
L 167.577089 -164.006181 
L 167.443457 -164.327613 
L 167.350495 -164.702261 
L 167.478317 -165.1578 
L 167.68167 -165.332352 
L 167.977984 -165.443044 
L 168.222008 -165.451558 
L 168.274299 -165.31958 
L 168.309159 -164.812953 
L 168.675195 -164.629886 
L 168.994749 -166.58189 
L 168.483462 -166.63085 
L 168.223459 -166.736557 
L 167.582899 -166.996984 
L 166.798537 -167.128962 
L 164.067797 -166.669166 
L 163.225335 -166.249815 
L 162.446783 -165.698486 
L 161.615941 -165.272749 
L 160.616607 -165.230175 
L 159.45459 -165.88581 
L 158.013688 -166.973568 
L 157.734804 -167.016142 
L 156.851671 -167.337573 
L 157.211897 -168.229493 
L 157.072455 -168.931959 
L 156.834241 -169.534377 
L 156.898152 -170.14318 
L 157.45011 -170.766885 
L 158.873581 -171.539598 
L 159.47202 -172.093056 
L 159.896156 -173.740658 
L 160.15761 -174.340947 
L 160.918731 -175.447864 
L 161.360297 -175.707563 
L 161.987787 -175.690534 
L 165.014841 -176.286566 
L 165.863113 -176.712303 
L 165.340206 -178.0108 
L 166.234959 -178.517428 
L 167.635189 -178.440795 
L 168.675195 -177.976742 
L 168.762346 -177.376452 
L 168.814637 -176.31211 
L 169.01218 -175.311628 
L 169.564138 -174.905049 
L 170.261348 -175.35633 
L 170.551852 -177.15294 
L 171.06314 -177.680854 
L 171.7894 -177.442442 
L 172.329738 -176.631413 
L 172.771305 -175.677762 
L 173.189631 -175.022127 
L 173.770639 -174.892277 
L 174.392318 -175.019998 
L 174.944277 -174.913564 
L 175.316122 -174.081248 
L 175.16506 -173.77046 
L 174.415559 -172.657158 
L 174.229636 -172.1186 
L 174.46785 -171.445936 
L 174.915226 -170.898864 
L 175.054668 -170.270901 
L 175.16506 -169.734473 
L 178.134013 -169.777047 
L 177.675017 -170.285802 
L 178.180494 -171.901474 
L 179.691116 -171.833356 
L 181.527103 -170.7754 
L 182.979624 -169.41517 
L 181.945429 -169.176757 
L 181.951239 -168.604141 
L 182.746664 -167.816887 
L 182.787892 -167.776083 
L 184.420525 -166.569118 
L 185.797516 -166.211499 
L 187.999538 -166.417981 
L 190.044688 -167.065102 
L 190.939441 -168.027267 
L 192.002687 -168.44449 
L 198.271769 -167.746281 
L 201.380164 -167.746281 
L 202.141285 -166.569118 
L 204.244536 -166.571247 
L 206.429128 -166.071006 
L 221.847513 -156.551986 
L 222.161025 -155.097413 
L 222.26742 -154.603779 
L 223.929105 -152.117475 
L 226.020735 -151.168082 
L 227.630129 -149.758892 
L 227.583648 -146.267849 
L 227.0375 -145.016182 
L 224.858718 -142.276564 
L 224.597265 -141.53791 
L 224.30676 -140.086147 
L 224.091787 -139.519917 
L 222.174459 -137.21668 
L 220.367523 -134.164145 
L 219.437909 -132.593175 
L 218.467625 -129.815241 
L 218.333993 -127.041565 
L 218.763939 -125.679206 
L 219.373998 -124.4914 
L 219.844615 -123.171615 
L 219.873665 -121.413321 
L 219.339137 -120.31492 
L 218.479245 -119.429387 
L 217.822705 -118.545983 
L 217.886616 -117.777527 
L 219.153215 -117.402879 
L 222.586975 -116.830262 
L 223.743182 -117.198525 
L 224.794807 -116.919667 
L 227.740521 -117.285801 
L 228.681754 -117.143179 
L 239.30259 -113.788371 
L 239.209629 -112.849621 
L 239.447842 -112.645267 
L 239.796447 -112.67294 
L 240.011421 -112.417498 
L 240.011421 -111.932158 
L 239.779017 -111.144544 
L 239.639575 -109.211698 
L 239.459462 -108.324037 
L 239.552424 -107.551324 
L 240.267064 -106.533813 
L 241.661485 -105.460955 
L 247.674923 -103.513208 
L 249.847895 -101.43774 
L 251.114493 -100.701215 
L 253.543109 -99.917859 
L 254.323827 -99.887825 
L 254.705126 -99.873157 
L 256.157647 -100.288251 
L 258.609503 -101.542046 
L 259.184702 -102.382877 
L 259.335764 -103.012967 
L 259.382245 -103.706919 
L 259.649508 -104.749974 
L 260.503591 -106.195352 
L 261.415774 -106.365646 
L 262.50807 -106.078274 
L 263.908301 -106.144263 
L 263.937351 -107.683303 
L 264.919256 -109.573575 
L 266.336917 -111.204148 
L 267.969551 -112.142898 
L 268.277485 -112.20463 
L 268.59123 -112.142898 
L 268.887544 -111.949187 
L 268.893354 -111.949187 
L 268.893354 -111.936415 
L 269.474363 -111.310582 
L 270.648 -109.416052 
L 272.559518 -107.891914 
L 273.059185 -107.291624 
L 273.361309 -105.901593 
L 272.664099 -103.102372 
L 272.797731 -101.344078 
" style="stroke: #aaaaaa"/>
    </defs>
    <g clip-path="url(#pd970adaff3)">
     <use xlink:href="#m5b95a0e0c0" x="0" y="208.993525" style="fill: #aaaaaa; stroke: #aaaaaa"/>
    </g>
   </g>
   <g id="PathCollection_1">
    <defs>
     <path id="m2cb9d78962" d="M 0 1.581139 
C 0.419323 1.581139 0.821528 1.41454 1.118034 1.118034 
C 1.41454 0.821528 1.581139 0.419323 1.581139 0 
C 1.581139 -0.419323 1.41454 -0.821528 1.118034 -1.118034 
C 0.821528 -1.41454 0.419323 -1.581139 0 -1.581139 
C -0.419323 -1.581139 -0.821528 -1.41454 -1.118034 -1.118034 
C -1.41454 -0.821528 -1.581139 -0.419323 -1.581139 0 
C -1.581139 0.419323 -1.41454 0.821528 -1.118034 1.118034 
C -0.821528 1.41454 -0.419323 1.581139 0 1.581139 
z
" style="stroke: #1f77b4; stroke-opacity: 0.5"/>
    </defs>
    <g clip-path="url(#pd970adaff3)">
     <use xlink:href="#m2cb9d78962" x="159.075829" y="77.064918" style="fill: #1f77b4; fill-opacity: 0.5; stroke: #1f77b4; stroke-opacity: 0.5"/>
     <use xlink:href="#m2cb9d78962" x="102.813891" y="98.78894" style="fill: #1f77b4; fill-opacity: 0.5; stroke: #1f77b4; stroke-opacity: 0.5"/>
     <use xlink:href="#m2cb9d78962" x="117.085671" y="97.65495" style="fill: #1f77b4; fill-opacity: 0.5; stroke: #1f77b4; stroke-opacity: 0.5"/>
     <use xlink:href="#m2cb9d78962" x="130.714226" y="124.998183" style="fill: #1f77b4; fill-opacity: 0.5; stroke: #1f77b4; stroke-opacity: 0.5"/>
     <use xlink:href="#m2cb9d78962" x="137.907492" y="115.3184" style="fill: #1f77b4; fill-opacity: 0.5; stroke: #1f77b4; stroke-opacity: 0.5"/>
     <use xlink:href="#m2cb9d78962" x="116.588808" y="110.497357" style="fill: #1f77b4; fill-opacity: 0.5; stroke: #1f77b4; stroke-opacity: 0.5"/>
     <use xlink:href="#m2cb9d78962" x="121.198759" y="117.539352" style="fill: #1f77b4; fill-opacity: 0.5; stroke: #1f77b4; stroke-opacity: 0.5"/>
     <use xlink:href="#m2cb9d78962" x="119.224219" y="85.20027" style="fill: #1f77b4; fill-opacity: 0.5; stroke: #1f77b4; stroke-opacity: 0.5"/>
     <use xlink:href="#m2cb9d78962" x="137.637033" y="95.656041" style="fill: #1f77b4; fill-opacity: 0.5; stroke: #1f77b4; stroke-opacity: 0.5"/>
     <use xlink:href="#m2cb9d78962" x="196.67193" y="99.182078" style="fill: #1f77b4; fill-opacity: 0.5; stroke: #1f77b4; stroke-opacity: 0.5"/>
     <use xlink:href="#m2cb9d78962" x="194.298418" y="95.435267" style="fill: #1f77b4; fill-opacity: 0.5; stroke: #1f77b4; stroke-opacity: 0.5"/>
     <use xlink:href="#m2cb9d78962" x="194.087347" y="102.226546" style="fill: #1f77b4; fill-opacity: 0.5; stroke: #1f77b4; stroke-opacity: 0.5"/>
     <use xlink:href="#m2cb9d78962" x="147.689911" y="72.581532" style="fill: #1f77b4; fill-opacity: 0.5; stroke: #1f77b4; stroke-opacity: 0.5"/>
     <use xlink:href="#m2cb9d78962" x="156.462258" y="74.73016" style="fill: #1f77b4; fill-opacity: 0.5; stroke: #1f77b4; stroke-opacity: 0.5"/>
    </g>
   </g>
   <g id="text_1">
    <text style="font: 12px 'DejaVu Sans', 'Bitstream Vera Sans', 'Computer Modern Sans Serif', 'Lucida Grande', 'Verdana', 'Geneva', 'Lucid', 'Arial', 'Helvetica', 'Avant Garde', sans-serif; text-anchor: middle" x="146.7" y="16.318125" transform="rotate(-0 146.7 16.318125)">-schwand 14x</text>
   </g>
  </g>
 </g>
 <defs>
  <clipPath id="pd970adaff3">
   <rect x="7.2" y="22.318125" width="279" height="179.4754"/>
  </clipPath>
 </defs>
</svg>
