<?xml version="1.0" encoding="utf-8" standalone="no"?>
<!DOCTYPE svg PUBLIC "-//W3C//DTD SVG 1.1//EN"
  "http://www.w3.org/Graphics/SVG/1.1/DTD/svg11.dtd">
<svg xmlns:xlink="http://www.w3.org/1999/xlink" width="293.4pt" height="210.093803pt" viewBox="0 0 293.4 210.093803" xmlns="http://www.w3.org/2000/svg" version="1.1">
 <metadata>
  <rdf:RDF xmlns:dc="http://purl.org/dc/elements/1.1/" xmlns:cc="http://creativecommons.org/ns#" xmlns:rdf="http://www.w3.org/1999/02/22-rdf-syntax-ns#">
   <cc:Work>
    <dc:type rdf:resource="http://purl.org/dc/dcmitype/StillImage"/>
    <dc:date>2024-08-06T14:07:36.315883</dc:date>
    <dc:format>image/svg+xml</dc:format>
    <dc:creator>
     <cc:Agent>
      <dc:title>Matplotlib v3.9.1, https://matplotlib.org/</dc:title>
     </cc:Agent>
    </dc:creator>
   </cc:Work>
  </rdf:RDF>
 </metadata>
 <defs>
  <style type="text/css">*{stroke-linejoin: round; stroke-linecap: butt}</style>
 </defs>
 <g id="figure_1">
  <g id="patch_1">
   <path d="M 0 210.093803 
L 293.4 210.093803 
L 293.4 0 
L 0 0 
z
" style="fill: #ffffff"/>
  </g>
  <g id="axes_1">
   <g id="PatchCollection_1">
    <defs>
     <path id="m5bd250713a" d="M 272.797731 -101.921231 
L 272.501417 -99.252629 
L 272.298064 -98.507305 
L 271.966889 -97.980438 
L 270.740961 -96.485507 
L 270.845543 -95.251868 
L 271.246439 -94.046071 
L 271.385881 -92.904526 
L 270.706101 -91.857218 
L 269.753247 -91.238256 
L 269.526653 -90.480082 
L 269.578944 -89.535577 
L 269.456932 -88.359764 
L 268.916594 -87.380991 
L 268.306535 -86.792014 
L 268.039272 -86.003856 
L 268.509888 -84.418972 
L 269.526653 -83.2196 
L 271.920408 -82.958309 
L 273.094046 -81.955977 
L 273.518182 -80.358242 
L 273.477511 -78.218649 
L 273.030135 -76.164725 
L 272.686514 -75.584872 
L 272.245773 -74.841133 
L 271.229008 -74.641951 
L 267.202619 -75.719244 
L 265.24462 -75.530771 
L 264.52417 -75.650709 
L 263.890871 -75.94841 
L 263.536455 -76.329639 
L 263.240141 -76.747277 
L 262.798575 -77.14564 
L 260.480351 -77.955216 
L 260.230517 -78.854744 
L 260.538451 -80.557424 
L 260.42806 -81.493362 
L 259.533307 -82.238686 
L 258.086596 -82.225835 
L 252.764558 -80.668794 
L 252.22422 -80.366809 
L 251.980196 -79.754273 
L 251.288796 -77.051403 
L 250.823989 -76.41745 
L 249.609681 -75.18381 
L 249.127444 -74.447054 
L 249.051913 -73.851651 
L 249.040293 -72.031177 
L 248.796269 -71.148782 
L 248.86599 -70.38204 
L 248.999622 -69.780213 
L 249.272696 -69.315456 
L 249.760744 -68.977062 
L 248.767219 -67.259391 
L 249.650352 -66.137122 
L 251.300416 -65.481751 
L 253.816183 -64.984868 
L 254.786467 -64.586505 
L 255.198983 -63.665559 
L 254.774847 -61.857935 
L 254.368141 -61.301084 
L 253.188694 -60.221649 
L 252.764558 -59.416357 
L 252.479863 -58.294088 
L 252.445003 -57.535914 
L 252.671596 -56.837708 
L 253.182884 -55.912479 
L 255.501108 -53.500885 
L 256.221558 -52.023088 
L 255.483677 -50.438204 
L 253.914954 -49.427305 
L 251.54444 -48.506359 
L 249.685212 -48.54491 
L 249.638732 -50.416786 
L 249.069343 -51.826048 
L 246.849891 -53.839279 
L 246.024859 -54.978682 
L 245.658823 -56.794873 
L 245.635583 -58.435442 
L 245.263738 -59.784736 
L 243.857697 -60.727099 
L 242.70149 -61.033367 
L 241.609194 -61.116895 
L 239.157338 -60.686406 
L 235.415643 -58.724577 
L 234.247816 -58.336923 
L 233.527365 -58.495411 
L 232.156185 -59.339255 
L 231.551937 -59.354247 
L 230.941878 -58.649616 
L 230.831486 -57.702969 
L 230.918637 -56.762747 
L 230.895397 -56.109518 
L 230.035504 -54.893013 
L 228.978069 -54.456099 
L 222.534684 -54.533201 
L 221.227415 -55.021517 
L 220.036348 -55.848226 
L 219.321707 -56.854842 
L 218.200361 -59.844704 
L 217.700693 -60.264484 
L 216.457335 -60.969115 
L 216.050629 -61.376045 
L 215.940238 -61.840801 
L 216.021579 -63.104425 
L 215.684594 -71.054545 
L 215.504481 -71.574987 
L 215.062915 -71.474325 
L 214.156542 -70.793254 
L 213.773076 -70.264245 
L 213.575533 -69.675268 
L 213.302459 -69.178385 
L 212.6924 -68.929944 
L 212.268264 -69.118417 
L 210.833173 -70.510545 
L 210.792502 -71.536436 
L 209.676966 -71.83842 
L 206.940416 -71.495743 
L 205.86555 -70.48056 
L 204.889456 -68.484463 
L 204.447889 -66.454098 
L 204.988227 -65.333971 
L 205.737728 -64.804962 
L 205.84812 -63.973969 
L 205.702868 -62.928803 
L 205.708678 -61.744423 
L 206.463989 -58.803821 
L 206.53952 -57.737237 
L 206.190915 -55.912479 
L 204.546661 -52.400033 
L 203.710008 -49.431588 
L 203.198721 -48.592028 
L 202.547991 -47.970925 
L 201.874021 -47.645381 
L 201.263962 -47.182766 
L 200.950218 -46.36034 
L 200.688764 -45.405126 
L 200.277789 -44.607783 
L 200.247198 -44.548432 
L 196.162708 -41.721342 
L 195.122702 -40.123608 
L 194.901919 -39.05274 
L 195.023931 -37.185147 
L 194.843818 -36.165681 
L 194.396442 -35.390373 
L 193.861914 -35.069113 
L 192.630176 -34.67075 
L 191.189275 -33.527064 
L 190.945251 -32.5847 
L 191.944586 -29.697642 
L 190.096979 -27.945702 
L 189.974967 -27.740096 
L 189.934296 -27.525922 
L 189.974967 -27.316032 
L 190.096979 -27.106142 
L 190.701228 -26.476472 
L 191.166034 -24.968691 
L 191.677322 -24.189099 
L 192.22347 -23.867839 
L 193.449398 -23.615114 
L 193.978116 -23.268153 
L 194.617225 -21.893159 
L 194.402252 -20.483897 
L 193.002021 -17.678225 
L 191.206705 -15.407985 
L 189.51597 -15.733529 
L 187.674173 -16.577373 
L 185.448911 -15.879167 
L 185.658074 -17.155641 
L 185.995059 -18.140839 
L 186.221652 -19.168872 
L 186.128691 -20.603835 
L 185.814946 -21.687552 
L 185.344329 -22.77127 
L 184.368235 -24.557477 
L 183.816277 -25.88107 
L 183.450241 -26.407937 
L 183.072586 -26.712063 
L 179.847988 -28.489703 
L 178.988096 -28.802396 
L 178.023622 -28.866648 
L 178.116583 -29.089389 
L 178.331556 -29.487752 
L 179.319271 -31.817959 
L 180.928664 -33.826907 
L 181.759507 -35.771602 
L 180.330226 -37.707731 
L 179.481953 -38.011857 
L 177.756358 -37.969022 
L 176.855795 -38.097526 
L 176.425848 -38.397369 
L 176.013332 -39.172677 
L 175.834808 -39.240131 
L 175.548525 -39.3483 
L 175.19992 -39.181244 
L 174.328408 -38.388802 
L 173.927512 -38.157495 
L 172.939797 -38.208897 
L 170.319449 -39.776647 
L 169.232963 -40.162159 
L 168.686815 -40.449151 
L 165.136853 -45.820623 
L 163.539079 -47.499743 
L 161.987787 -48.300752 
L 160.517835 -48.904722 
L 159.48364 -49.778549 
L 158.867771 -51.110709 
L 158.646988 -53.132506 
L 158.83872 -55.265675 
L 159.750904 -59.559853 
L 159.942637 -61.947888 
L 159.913586 -64.449434 
L 159.681183 -66.321311 
L 158.908441 -67.460714 
L 157.293238 -67.749848 
L 156.548421 -67.586336 
L 154.161602 -67.062351 
L 152.633549 -66.214224 
L 151.436672 -64.920616 
L 150.966055 -63.869024 
L 151.181028 -63.51778 
L 151.552874 -63.228645 
L 151.576114 -62.389085 
L 151.239129 -61.630911 
L 150.681361 -60.947698 
L 150.036441 -60.44439 
L 148.444478 -59.621964 
L 145.678878 -55.895345 
L 144.51686 -55.068635 
L 142.076625 -54.511784 
L 140.862317 -53.937799 
L 139.764211 -52.798396 
L 139.200633 -51.98882 
L 138.962419 -51.290614 
L 139.159962 -50.969354 
L 140.473041 -49.799967 
L 142.134726 -46.518829 
L 142.291598 -43.477565 
L 141.07148 -40.791829 
L 138.613814 -38.607259 
L 138.003755 -38.397369 
L 136.841738 -38.268865 
L 136.27816 -37.823384 
L 135.877264 -36.970974 
L 135.755252 -36.020043 
L 135.749442 -35.09053 
L 135.453128 -32.730338 
L 135.348546 -32.563283 
L 134.802398 -31.329644 
L 134.761727 -31.149738 
L 134.058707 -30.211658 
L 133.657811 -29.86898 
L 133.117473 -29.697642 
L 129.131755 -28.772412 
L 128.320962 -28.102636 
L 127.7102 -26.901882 
L 127.55751 -25.325893 
L 126.400518 -25.271387 
L 126.331294 -25.135746 
L 126.156991 -24.283335 
L 126.203472 -23.850705 
L 126.06984 -23.572279 
L 125.36682 -23.1782 
L 125.041455 -23.195334 
L 124.03631 -23.512311 
L 122.490828 -23.482327 
L 119.789138 -24.497509 
L 119.23718 -24.433257 
L 118.813044 -24.22765 
L 118.342427 -24.111997 
L 117.651027 -24.356154 
L 117.569685 -24.566044 
L 116.51225 -26.150928 
L 115.669788 -26.956221 
L 114.786655 -27.478804 
L 109.057911 -28.952318 
L 108.116677 -28.451152 
L 107.570529 -27.508788 
L 106.95466 -26.682079 
L 105.775213 -26.527874 
L 104.101908 -25.78255 
L 100.778539 -23.281003 
L 98.977413 -22.629916 
L 94.753481 -23.092531 
L 94.0156 -22.831239 
L 92.435257 -21.824624 
L 88.966636 -20.359677 
L 87.270091 -20.034133 
L 85.434104 -19.999865 
L 83.708509 -20.36396 
L 82.40124 -21.169253 
L 79.879663 -24.073445 
L 79.490387 -24.741667 
L 79.188263 -25.576943 
L 78.793177 -27.093292 
L 78.148257 -28.815247 
L 77.944904 -29.697642 
L 77.67183 -29.886114 
L 73.866225 -34.298089 
L 72.588006 -34.876357 
L 72.117389 -34.679317 
L 71.716493 -34.255254 
L 71.286547 -33.921143 
L 70.752019 -33.998246 
L 70.258162 -34.383758 
L 70.223301 -34.640766 
L 70.339503 -34.987727 
L 70.316263 -35.630248 
L 70.397604 -35.711634 
L 70.380174 -36.576895 
L 70.281402 -37.399321 
L 70.12453 -37.317935 
L 70.380174 -37.746282 
L 70.83336 -38.3117 
L 71.228446 -38.945654 
L 71.286547 -39.579607 
L 70.426654 -40.432018 
L 65.952889 -41.442917 
L 65.464841 -42.835044 
L 65.981939 -45.674985 
L 66.958033 -48.64343 
L 68.950893 -52.60564 
L 67.672674 -54.854461 
L 65.679815 -57.015472 
L 64.604949 -58.908766 
L 64.907073 -59.866121 
L 66.388645 -61.639478 
L 66.789541 -63.027322 
L 66.726476 -63.839861 
L 66.667529 -64.599356 
L 66.142326 -65.422941 
L 65.296349 -65.850129 
L 56.921111 -68.058258 
L 53.173606 -68.180337 
L 49.571353 -67.452147 
L 44.778033 -64.102473 
L 42.953666 -63.627008 
L 41.106059 -63.539197 
L 39.374654 -62.967354 
L 37.550287 -61.354627 
L 35.946704 -59.193617 
L 34.761446 -57.548764 
L 34.459322 -56.417928 
L 34.691725 -55.591218 
L 35.208823 -54.181957 
L 35.237873 -53.847846 
L 35.778211 -52.477136 
L 36.016425 -52.125891 
L 36.603243 -51.813198 
L 37.544477 -52.254395 
L 37.939563 -52.078773 
L 38.230067 -50.168345 
L 36.777546 -48.596312 
L 33.181103 -46.159017 
L 30.310921 -42.719391 
L 28.486554 -41.759893 
L 26.575036 -42.633721 
L 24.012789 -42.530918 
L 21.462161 -41.909815 
L 20.108412 -41.083105 
L 20.857912 -42.882162 
L 21.287859 -43.717439 
L 21.462161 -44.428495 
L 20.468637 -45.704969 
L 19.881818 -46.840089 
L 20.090981 -47.838137 
L 21.462161 -48.729099 
L 24.832011 -50.416786 
L 24.924972 -50.446771 
L 25.017933 -50.455338 
L 25.122515 -50.446771 
L 25.564081 -50.301133 
L 25.901066 -50.258298 
L 26.226431 -50.296849 
L 27.463979 -50.690929 
L 27.708003 -51.243496 
L 27.655712 -52.010237 
L 27.684763 -52.905483 
L 28.085658 -55.252824 
L 28.271581 -55.899628 
L 29.089878 -57.76924 
L 30.090138 -60.054594 
L 30.014607 -60.971257 
L 29.329017 -62.226313 
L 28.503985 -63.134409 
L 25.740097 -64.865647 
L 25.47112 -65.034128 
L 26.11604 -65.663798 
L 26.220621 -66.209941 
L 26.104419 -66.771075 
L 26.104419 -67.402887 
L 26.063749 -67.657753 
L 25.930117 -68.000431 
L 25.808105 -68.390227 
L 25.808105 -68.81429 
L 26.028888 -69.31974 
L 26.667998 -70.022229 
L 28.625996 -73.440438 
L 30.613046 -75.993386 
L 29.253486 -77.539719 
L 29.079183 -78.632004 
L 29.834494 -79.638619 
L 37.393415 -86.66351 
L 41.419804 -88.905907 
L 41.977572 -89.383514 
L 43.459144 -91.077626 
L 45.324181 -92.079958 
L 45.91681 -92.527581 
L 46.550109 -93.332873 
L 46.765082 -94.02037 
L 46.741842 -95.418923 
L 46.323516 -95.885821 
L 46.027202 -96.292751 
L 45.870329 -96.759649 
L 45.95167 -97.162295 
L 46.834803 -99.85874 
L 47.224079 -100.571938 
L 47.332569 -100.845957 
L 47.537824 -101.36438 
L 47.630785 -102.51235 
L 47.450672 -103.429012 
L 46.701171 -104.872542 
L 46.468768 -105.622149 
L 47.30542 -108.530625 
L 50.03035 -110.124076 
L 56.078649 -112.043071 
L 59.829059 -114.923704 
L 61.113088 -116.793439 
L 60.439118 -118.331205 
L 61.194429 -119.648372 
L 61.723147 -120.173097 
L 63.134997 -120.68283 
L 63.34416 -121.209696 
L 63.553323 -121.355335 
L 64.360925 -121.775115 
L 64.291204 -123.192943 
L 65.976129 -123.784062 
L 69.535563 -127.095335 
L 69.659723 -127.210838 
L 70.728779 -128.984195 
L 72.361413 -130.674024 
L 76.178639 -133.486122 
L 75.952045 -135.542187 
L 76.312271 -137.242725 
L 77.369706 -138.33501 
L 77.880993 -138.399262 
L 78.183118 -138.519199 
L 79.00234 -139.63076 
L 79.589159 -139.975579 
L 80.164357 -140.134067 
L 80.693075 -140.472461 
L 81.128831 -141.382699 
L 80.542013 -142.224401 
L 79.69955 -142.991142 
L 78.862898 -143.674355 
L 77.828703 -143.175331 
L 71.141295 -142.515677 
L 71.420179 -143.575836 
L 72.117389 -144.871585 
L 72.948231 -145.959587 
L 74.394942 -146.811997 
L 74.482094 -148.375464 
L 75.957855 -148.705291 
L 76.870039 -149.232158 
L 77.706691 -149.945356 
L 78.130827 -150.643561 
L 77.857753 -151.630901 
L 77.276745 -152.776729 
L 77.137303 -153.699817 
L 78.183118 -154.018936 
L 78.682785 -154.410873 
L 79.188263 -154.541519 
L 79.69955 -154.410873 
L 80.210838 -154.018936 
L 81.669169 -153.806904 
L 84.46963 -154.295219 
L 85.79433 -154.018936 
L 86.5264 -153.597014 
L 86.630465 -153.580361 
L 87.275901 -153.477077 
L 88.803954 -153.631282 
L 87.781379 -151.279657 
L 88.100933 -149.92608 
L 89.321051 -149.193607 
L 90.971115 -148.675307 
L 91.203519 -148.488976 
L 91.360391 -148.191275 
L 91.586985 -147.891432 
L 92.022741 -147.707242 
L 92.400396 -147.784345 
L 94.526888 -148.709575 
L 96.014269 -149.022268 
L 97.579131 -148.955313 
L 99.918647 -148.855213 
L 100.462385 -149.074275 
L 101.48156 -149.484883 
L 102.280648 -150.530504 
L 102.591286 -150.936979 
L 102.771398 -151.712287 
L 102.678437 -152.179185 
L 102.405363 -152.566839 
L 102.21944 -152.768162 
L 101.934746 -153.280037 
L 101.928936 -153.78977 
L 102.585476 -153.982526 
L 103.456989 -153.6784 
L 103.710372 -153.516798 
L 104.189059 -153.211502 
L 104.91532 -153.104415 
L 105.775213 -153.879723 
L 105.873984 -154.018936 
L 105.949515 -154.254526 
L 105.955325 -154.470842 
L 105.946663 -154.501814 
L 105.897224 -154.67859 
L 105.496328 -155.241866 
L 105.374317 -155.575977 
L 105.449848 -155.837269 
L 105.775213 -156.012891 
L 106.356221 -155.88867 
L 106.809408 -156.038592 
L 107.053431 -156.511915 
L 107.036001 -157.340767 
L 106.844268 -157.336483 
L 105.908844 -158.051823 
L 105.775213 -158.107508 
L 107.919309 -159.860544 
L 108.227068 -160.112172 
L 109.575008 -160.861779 
L 111.551776 -161.606468 
L 111.58245 -161.618023 
L 114.44967 -162.476647 
L 115.722078 -162.609435 
L 114.984198 -160.534094 
L 114.385759 -159.957967 
L 113.061425 -159.969544 
L 112.915807 -159.970817 
L 115.004462 -158.868281 
L 115.82085 -158.437335 
L 117.058398 -158.272421 
L 119.52532 -158.783517 
L 121.741327 -159.242627 
L 122.798762 -159.842313 
L 123.693515 -160.911039 
L 124.71609 -162.506632 
L 125.506262 -162.103985 
L 129.131755 -161.885528 
L 129.47455 -161.53 
L 129.654663 -160.752551 
L 129.765054 -159.975101 
L 129.916116 -159.623856 
L 137.231014 -159.623856 
L 139.758401 -160.189274 
L 140.304549 -160.559795 
L 140.554382 -160.919606 
L 140.780976 -161.339386 
L 141.257403 -161.885528 
L 141.716399 -162.241056 
L 142.936517 -162.898569 
L 143.964902 -163.204837 
L 144.348368 -163.609625 
L 144.627252 -164.014413 
L 144.917756 -164.202886 
L 147.950621 -164.712619 
L 148.967386 -164.716902 
L 150.425717 -164.271421 
L 151.076447 -164.202886 
L 151.378571 -163.843074 
L 151.680695 -163.044207 
L 152.075781 -162.24534 
L 152.627739 -161.885528 
L 154.760041 -161.32011 
L 158.356483 -161.298693 
L 158.526853 -161.327355 
L 160.087889 -161.589969 
L 160.15761 -161.984048 
L 160.814149 -163.401877 
L 162.533935 -164.536996 
L 164.218859 -164.708335 
L 165.084562 -163.898759 
L 165.752722 -162.77649 
L 165.869721 -162.632996 
L 166.374401 -162.014033 
L 167.129712 -162.266757 
L 167.25186 -162.480456 
L 167.495747 -162.907136 
L 167.559658 -163.528239 
L 167.530608 -164.117216 
L 167.600329 -164.682634 
L 167.577089 -164.967485 
L 167.443457 -165.290887 
L 167.350495 -165.667833 
L 167.478317 -166.126164 
L 167.68167 -166.301786 
L 167.977984 -166.413156 
L 168.222008 -166.421723 
L 168.274299 -166.288936 
L 168.309159 -165.779203 
L 168.675195 -165.595014 
L 168.994749 -167.558985 
L 168.483462 -167.608245 
L 168.223459 -167.714599 
L 167.582899 -167.976623 
L 166.798537 -168.109411 
L 164.067797 -167.646796 
L 163.225335 -167.224874 
L 162.446783 -166.670165 
L 161.615941 -166.241818 
L 160.616607 -166.198983 
L 159.45459 -166.858637 
L 158.013688 -167.953064 
L 157.734804 -167.995899 
L 156.851671 -168.3193 
L 157.211897 -169.216688 
L 157.072455 -169.92346 
L 156.834241 -170.529571 
L 156.898152 -171.142107 
L 157.45011 -171.769636 
L 158.873581 -172.547085 
L 159.47202 -173.103937 
L 159.896156 -174.76164 
L 160.15761 -175.365609 
L 160.918731 -176.479311 
L 161.360297 -176.740603 
L 161.987787 -176.723469 
L 165.014841 -177.323155 
L 165.863113 -177.751502 
L 165.340206 -179.05796 
L 166.234959 -179.567693 
L 167.635189 -179.490591 
L 168.675195 -179.023692 
L 168.762346 -178.419723 
L 168.814637 -177.348855 
L 169.01218 -176.34224 
L 169.564138 -175.933169 
L 170.261348 -176.387216 
L 170.551852 -178.194841 
L 171.06314 -178.725991 
L 171.7894 -178.486117 
L 172.329738 -177.670116 
L 172.771305 -176.710618 
L 173.189631 -176.050964 
L 173.770639 -175.920318 
L 174.392318 -176.048822 
L 174.944277 -175.941736 
L 175.316122 -175.104317 
L 175.16506 -174.791624 
L 174.415559 -173.671496 
L 174.229636 -173.129637 
L 174.46785 -172.452849 
L 174.915226 -171.902423 
L 175.054668 -171.270611 
L 175.16506 -170.730894 
L 178.134013 -170.773729 
L 177.675017 -171.285604 
L 178.180494 -172.91118 
L 179.691116 -172.842645 
L 181.527103 -171.778203 
L 182.979624 -170.409634 
L 181.945429 -170.16976 
L 181.951239 -169.593633 
L 182.746664 -168.801552 
L 182.787892 -168.760498 
L 184.420525 -167.546134 
L 185.797516 -167.186323 
L 187.999538 -167.394071 
L 190.044688 -168.045158 
L 190.939441 -169.013223 
L 192.002687 -169.433003 
L 198.271769 -168.730514 
L 201.380164 -168.730514 
L 202.141285 -167.546134 
L 204.244536 -167.548276 
L 206.429128 -167.044968 
L 221.847513 -157.467591 
L 222.161025 -156.004101 
L 222.26742 -155.507442 
L 223.929105 -153.005895 
L 226.020735 -152.050681 
L 227.630129 -150.632853 
L 227.583648 -147.120407 
L 227.0375 -145.861067 
L 224.858718 -143.104654 
L 224.597265 -142.361472 
L 224.30676 -140.900809 
L 224.091787 -140.331107 
L 222.174459 -138.01375 
L 220.367523 -134.942502 
L 219.437909 -133.361901 
L 218.467625 -130.566937 
L 218.333993 -127.776256 
L 218.763939 -126.405546 
L 219.373998 -125.210458 
L 219.844615 -123.882582 
L 219.873665 -122.113509 
L 219.339137 -121.008373 
L 218.479245 -120.117412 
L 217.822705 -119.228592 
L 217.886616 -118.455425 
L 219.153215 -118.07848 
L 222.586975 -117.502353 
L 223.743182 -117.872873 
L 224.794807 -117.592306 
L 227.740521 -117.960684 
L 228.681754 -117.817188 
L 239.30259 -114.441814 
L 239.209629 -113.497309 
L 239.447842 -113.291702 
L 239.796447 -113.319545 
L 240.011421 -113.062536 
L 240.011421 -112.574221 
L 239.779017 -111.781779 
L 239.639575 -109.837083 
L 239.459462 -108.94398 
L 239.552424 -108.16653 
L 240.267064 -107.142781 
L 241.661485 -106.063346 
L 247.674923 -104.103659 
L 249.847895 -102.015467 
L 251.114493 -101.274427 
L 253.543109 -100.486268 
L 254.323827 -100.45605 
L 254.705126 -100.441292 
L 256.157647 -100.85893 
L 258.609503 -102.120412 
L 259.184702 -102.966397 
L 259.335764 -103.600351 
L 259.382245 -104.298557 
L 259.649508 -105.348007 
L 260.503591 -106.802245 
L 261.415774 -106.973584 
L 262.50807 -106.684449 
L 263.908301 -106.750843 
L 263.937351 -108.299318 
L 264.919256 -110.201178 
L 266.336917 -111.841747 
L 267.969551 -112.786253 
L 268.277485 -112.848363 
L 268.59123 -112.786253 
L 268.887544 -112.591355 
L 268.893354 -112.591355 
L 268.893354 -112.578504 
L 269.474363 -111.948834 
L 270.648 -110.04269 
L 272.559518 -108.509208 
L 273.059185 -107.905238 
L 273.361309 -106.506685 
L 272.664099 -103.690304 
L 272.797731 -101.921231 
" style="stroke: #aaaaaa"/>
    </defs>
    <g clip-path="url(#paec5c22fef)">
     <use xlink:href="#m5bd250713a" x="0" y="210.093803" style="fill: #aaaaaa; stroke: #aaaaaa"/>
    </g>
   </g>
   <g id="PathCollection_1">
    <defs>
     <path id="m47012fc7d8" d="M 0 1.581139 
C 0.419323 1.581139 0.821528 1.41454 1.118034 1.118034 
C 1.41454 0.821528 1.581139 0.419323 1.581139 0 
C 1.581139 -0.419323 1.41454 -0.821528 1.118034 -1.118034 
C 0.821528 -1.41454 0.419323 -1.581139 0 -1.581139 
C -0.419323 -1.581139 -0.821528 -1.41454 -1.118034 -1.118034 
C -1.41454 -0.821528 -1.581139 -0.419323 -1.581139 0 
C -1.581139 0.419323 -1.41454 0.821528 -1.118034 1.118034 
C -0.821528 1.41454 -0.419323 1.581139 0 1.581139 
z
" style="stroke: #1f77b4; stroke-opacity: 0.5"/>
    </defs>
    <g clip-path="url(#paec5c22fef)">
     <use xlink:href="#m47012fc7d8" x="167.084782" y="76.763161" style="fill: #1f77b4; fill-opacity: 0.5; stroke: #1f77b4; stroke-opacity: 0.5"/>
     <use xlink:href="#m47012fc7d8" x="146.712266" y="87.089984" style="fill: #1f77b4; fill-opacity: 0.5; stroke: #1f77b4; stroke-opacity: 0.5"/>
     <use xlink:href="#m47012fc7d8" x="129.257952" y="90.372456" style="fill: #1f77b4; fill-opacity: 0.5; stroke: #1f77b4; stroke-opacity: 0.5"/>
     <use xlink:href="#m47012fc7d8" x="206.1786" y="68.484315" style="fill: #1f77b4; fill-opacity: 0.5; stroke: #1f77b4; stroke-opacity: 0.5"/>
     <use xlink:href="#m47012fc7d8" x="194.453417" y="64.613383" style="fill: #1f77b4; fill-opacity: 0.5; stroke: #1f77b4; stroke-opacity: 0.5"/>
     <use xlink:href="#m47012fc7d8" x="148.397491" y="54.263965" style="fill: #1f77b4; fill-opacity: 0.5; stroke: #1f77b4; stroke-opacity: 0.5"/>
    </g>
   </g>
   <g id="text_1">
    <text style="font: 12px 'DejaVu Sans', 'Bitstream Vera Sans', 'Computer Modern Sans Serif', 'Lucida Grande', 'Verdana', 'Geneva', 'Lucid', 'Arial', 'Helvetica', 'Avant Garde', sans-serif; text-anchor: middle" x="146.7" y="16.318125" transform="rotate(-0 146.7 16.318125)">-stat 6x</text>
   </g>
  </g>
 </g>
 <defs>
  <clipPath id="paec5c22fef">
   <rect x="7.2" y="22.318125" width="279" height="180.575678"/>
  </clipPath>
 </defs>
</svg>
