<?xml version="1.0" encoding="utf-8" standalone="no"?>
<!DOCTYPE svg PUBLIC "-//W3C//DTD SVG 1.1//EN"
  "http://www.w3.org/Graphics/SVG/1.1/DTD/svg11.dtd">
<svg xmlns:xlink="http://www.w3.org/1999/xlink" width="293.4pt" height="209.768887pt" viewBox="0 0 293.4 209.768887" xmlns="http://www.w3.org/2000/svg" version="1.1">
 <metadata>
  <rdf:RDF xmlns:dc="http://purl.org/dc/elements/1.1/" xmlns:cc="http://creativecommons.org/ns#" xmlns:rdf="http://www.w3.org/1999/02/22-rdf-syntax-ns#">
   <cc:Work>
    <dc:type rdf:resource="http://purl.org/dc/dcmitype/StillImage"/>
    <dc:date>2024-08-06T14:07:36.619160</dc:date>
    <dc:format>image/svg+xml</dc:format>
    <dc:creator>
     <cc:Agent>
      <dc:title>Matplotlib v3.9.1, https://matplotlib.org/</dc:title>
     </cc:Agent>
    </dc:creator>
   </cc:Work>
  </rdf:RDF>
 </metadata>
 <defs>
  <style type="text/css">*{stroke-linejoin: round; stroke-linecap: butt}</style>
 </defs>
 <g id="figure_1">
  <g id="patch_1">
   <path d="M 0 209.768887 
L 293.4 209.768887 
L 293.4 0 
L 0 0 
z
" style="fill: #ffffff"/>
  </g>
  <g id="axes_1">
   <g id="PatchCollection_1">
    <defs>
     <path id="mbdce97aefe" d="M 272.797731 -101.750795 
L 272.501417 -99.086995 
L 272.298064 -98.343012 
L 271.966889 -97.817094 
L 270.740961 -96.324852 
L 270.845543 -95.093433 
L 271.246439 -93.889806 
L 271.385881 -92.750315 
L 270.706101 -91.704891 
L 269.753247 -91.087043 
L 269.526653 -90.330233 
L 269.578944 -89.387427 
L 269.456932 -88.213731 
L 268.916594 -87.236719 
L 268.306535 -86.648801 
L 268.039272 -85.862061 
L 268.509888 -84.280029 
L 269.526653 -83.082815 
L 271.920408 -82.821994 
L 273.094046 -81.821465 
L 273.518182 -80.226606 
L 273.477511 -78.090862 
L 273.030135 -76.040634 
L 272.686514 -75.461825 
L 272.245773 -74.719424 
L 271.229008 -74.520601 
L 267.202619 -75.595955 
L 265.24462 -75.407821 
L 264.52417 -75.527543 
L 263.890871 -75.824708 
L 263.536455 -76.205251 
L 263.240141 -76.622138 
L 262.798575 -77.019784 
L 260.480351 -77.827903 
L 260.230517 -78.725813 
L 260.538451 -80.425429 
L 260.42806 -81.359683 
L 259.533307 -82.103666 
L 258.086596 -82.090839 
L 252.764558 -80.536599 
L 252.22422 -80.235157 
L 251.980196 -79.623723 
L 251.288796 -76.925717 
L 250.823989 -76.292904 
L 249.609681 -75.061485 
L 249.127444 -74.326053 
L 249.051913 -73.731722 
L 249.040293 -71.914523 
L 248.796269 -71.033716 
L 248.86599 -70.268355 
L 248.999622 -69.66761 
L 249.272696 -69.20369 
L 249.760744 -68.865904 
L 248.767219 -67.151324 
L 249.650352 -66.031074 
L 251.300416 -65.376882 
L 253.816183 -64.880894 
L 254.786467 -64.483248 
L 255.198983 -63.563959 
L 254.774847 -61.759587 
L 254.368141 -61.203738 
L 253.188694 -60.126246 
L 252.764558 -59.322402 
L 252.479863 -58.202152 
L 252.445003 -57.445342 
L 252.671596 -56.748393 
L 253.182884 -55.824828 
L 255.501108 -53.417574 
L 256.221558 -51.942436 
L 255.483677 -50.360404 
L 253.914954 -49.351324 
L 251.54444 -48.432035 
L 249.685212 -48.470517 
L 249.638732 -50.339025 
L 249.069343 -51.745751 
L 246.849891 -53.755359 
L 246.024859 -54.892712 
L 245.658823 -56.705635 
L 245.635583 -58.343253 
L 245.263738 -59.690118 
L 243.857697 -60.630786 
L 242.70149 -60.936503 
L 241.609194 -61.01988 
L 239.157338 -60.590166 
L 235.415643 -58.631867 
L 234.247816 -58.24491 
L 233.527365 -58.403113 
L 232.156185 -59.245438 
L 231.551937 -59.260404 
L 230.941878 -58.557041 
L 230.831486 -57.612097 
L 230.918637 -56.673567 
L 230.895397 -56.021513 
L 230.035504 -54.807197 
L 228.978069 -54.371069 
L 222.534684 -54.448033 
L 221.227415 -54.93547 
L 220.036348 -55.760692 
L 219.321707 -56.765496 
L 218.200361 -59.749978 
L 217.700693 -60.169003 
L 216.457335 -60.872366 
L 216.050629 -61.278564 
L 215.940238 -61.742484 
L 216.021579 -63.003834 
L 215.684594 -70.939649 
L 215.504481 -71.459155 
L 215.062915 -71.358674 
L 214.156542 -70.678828 
L 213.773076 -70.150771 
L 213.575533 -69.562854 
L 213.302459 -69.066865 
L 212.6924 -68.818871 
L 212.268264 -69.007005 
L 210.833173 -70.396628 
L 210.792502 -71.420673 
L 209.676966 -71.722114 
L 206.940416 -71.380053 
L 205.86555 -70.366697 
L 204.889456 -68.374192 
L 204.447889 -66.34748 
L 204.988227 -65.229368 
L 205.737728 -64.701312 
L 205.84812 -63.871814 
L 205.702868 -62.828528 
L 205.708678 -61.646279 
L 206.463989 -58.710968 
L 206.53952 -57.646303 
L 206.190915 -55.824828 
L 204.546661 -52.318703 
L 203.710008 -49.355599 
L 203.198721 -48.51755 
L 202.547991 -47.897564 
L 201.874021 -47.572606 
L 201.263962 -47.110824 
L 200.950218 -46.289877 
L 200.688764 -45.336382 
L 200.277789 -44.540474 
L 200.247198 -44.48123 
L 196.162708 -41.659227 
L 195.122702 -40.064367 
L 194.901919 -38.995426 
L 195.023931 -37.131194 
L 194.843818 -36.113562 
L 194.396442 -35.339649 
L 193.861914 -35.018967 
L 192.630176 -34.621321 
L 191.189275 -33.479693 
L 190.945251 -32.539025 
L 191.944586 -29.657161 
L 190.096979 -27.908374 
L 189.974967 -27.703137 
L 189.934296 -27.489349 
L 189.974967 -27.279837 
L 190.096979 -27.070324 
L 190.701228 -26.441787 
L 191.166034 -24.936719 
L 191.677322 -24.15853 
L 192.22347 -23.837848 
L 193.449398 -23.585578 
L 193.978116 -23.239241 
L 194.617225 -21.866721 
L 194.402252 -20.459995 
L 193.002021 -17.659371 
L 191.206705 -15.393216 
L 189.51597 -15.718174 
L 187.674173 -16.5605 
L 185.448911 -15.86355 
L 185.658074 -17.137728 
L 185.995059 -18.121153 
L 186.221652 -19.147336 
L 186.128691 -20.579717 
L 185.814946 -21.661484 
L 185.344329 -22.743252 
L 184.368235 -24.526245 
L 183.816277 -25.847456 
L 183.450241 -26.373375 
L 183.072586 -26.676954 
L 179.847988 -28.451396 
L 178.988096 -28.763526 
L 178.023622 -28.827663 
L 178.116583 -29.050002 
L 178.331556 -29.447648 
L 179.319271 -31.773663 
L 180.928664 -33.778996 
L 181.759507 -35.720192 
L 180.330226 -37.652837 
L 179.481953 -37.956416 
L 177.756358 -37.913658 
L 176.855795 -38.041931 
L 176.425848 -38.341235 
L 176.013332 -39.115148 
L 175.834808 -39.18248 
L 175.548525 -39.290454 
L 175.19992 -39.123699 
L 174.328408 -38.332683 
L 173.927512 -38.101792 
L 172.939797 -38.153101 
L 170.319449 -39.71803 
L 169.232963 -40.102849 
L 168.686815 -40.389325 
L 165.136853 -45.751131 
L 163.539079 -47.42723 
L 161.987787 -48.226798 
L 160.517835 -48.829681 
L 159.48364 -49.701936 
L 158.867771 -51.031698 
L 158.646988 -53.049858 
L 158.83872 -55.179188 
L 159.750904 -59.46564 
L 159.942637 -61.849378 
L 159.913586 -64.346423 
L 159.681183 -66.214932 
L 158.908441 -67.352284 
L 157.293238 -67.640898 
L 156.548421 -67.477681 
L 154.161602 -66.954639 
L 152.633549 -66.108038 
L 151.436672 -64.816757 
L 150.966055 -63.767058 
L 151.181028 -63.416445 
L 151.552874 -63.127831 
L 151.576114 -62.289782 
L 151.239129 -61.532971 
L 150.681361 -60.850987 
L 150.036441 -60.348585 
L 148.444478 -59.527639 
L 145.678878 -55.807725 
L 144.51686 -54.982503 
L 142.076625 -54.426654 
L 140.862317 -53.853702 
L 139.764211 -52.716349 
L 139.200633 -51.90823 
L 138.962419 -51.21128 
L 139.159962 -50.890598 
L 140.473041 -49.723315 
L 142.134726 -46.448081 
L 142.291598 -43.412289 
L 141.07148 -40.731386 
L 138.613814 -38.550747 
L 138.003755 -38.341235 
L 136.841738 -38.212962 
L 136.27816 -37.768283 
L 135.877264 -36.917406 
L 135.755252 -35.968186 
L 135.749442 -35.040346 
L 135.453128 -32.684401 
L 135.348546 -32.517646 
L 134.802398 -31.286226 
L 134.761727 -31.106644 
L 134.058707 -30.170252 
L 133.657811 -29.828191 
L 133.117473 -29.657161 
L 129.131755 -28.733596 
L 128.320962 -28.065025 
L 127.7102 -26.866432 
L 127.55751 -25.293279 
L 126.400518 -25.238871 
L 126.331294 -25.103473 
L 126.156991 -24.252597 
L 126.203472 -23.820745 
L 126.06984 -23.54282 
L 125.36682 -23.14945 
L 125.041455 -23.166553 
L 124.03631 -23.482959 
L 122.490828 -23.453029 
L 119.789138 -24.466385 
L 119.23718 -24.402248 
L 118.813044 -24.197012 
L 118.342427 -24.081566 
L 117.651027 -24.325285 
L 117.569685 -24.534797 
L 116.51225 -26.116829 
L 115.669788 -26.920673 
L 114.786655 -27.442316 
L 109.057911 -28.913178 
L 108.116677 -28.412914 
L 107.570529 -27.472246 
L 106.95466 -26.647024 
L 105.775213 -26.493096 
L 104.101908 -25.749114 
L 100.778539 -23.252068 
L 98.977413 -22.602152 
L 94.753481 -23.063935 
L 94.0156 -22.803113 
L 92.435257 -21.798309 
L 88.966636 -20.335998 
L 87.270091 -20.01104 
L 85.434104 -19.976834 
L 83.708509 -20.340274 
L 82.40124 -21.144117 
L 79.879663 -24.043084 
L 79.490387 -24.710103 
L 79.188263 -25.543877 
L 78.793177 -27.057497 
L 78.148257 -28.776354 
L 77.944904 -29.657161 
L 77.67183 -29.845294 
L 73.866225 -34.24933 
L 72.588006 -34.826558 
L 72.117389 -34.629873 
L 71.716493 -34.206572 
L 71.286547 -33.873063 
L 70.752019 -33.950026 
L 70.258162 -34.334845 
L 70.223301 -34.591391 
L 70.339503 -34.937728 
L 70.316263 -35.579092 
L 70.397604 -35.660332 
L 70.380174 -36.524036 
L 70.281402 -37.344982 
L 70.12453 -37.263743 
L 70.380174 -37.691319 
L 70.83336 -38.255719 
L 71.228446 -38.888532 
L 71.286547 -39.521345 
L 70.426654 -40.372222 
L 65.952889 -41.381302 
L 65.464841 -42.770925 
L 65.981939 -45.605755 
L 66.958033 -48.568859 
L 68.950893 -52.52394 
L 67.672674 -54.768715 
L 65.679815 -56.925837 
L 64.604949 -58.815724 
L 64.907073 -59.771357 
L 66.388645 -61.541523 
L 66.789541 -62.92687 
L 66.726476 -63.737947 
L 66.667529 -64.496075 
L 66.142326 -65.318178 
L 65.296349 -65.744598 
L 56.921111 -67.948753 
L 53.173606 -68.070613 
L 49.571353 -67.343733 
L 44.778033 -64.000087 
L 42.953666 -63.525477 
L 41.106059 -63.437824 
L 39.374654 -62.867009 
L 37.550287 -61.257185 
L 35.946704 -59.100063 
L 34.761446 -57.45817 
L 34.459322 -56.329368 
L 34.691725 -55.504146 
L 35.208823 -54.09742 
L 35.237873 -53.763911 
L 35.778211 -52.395667 
L 36.016425 -52.045054 
L 36.603243 -51.732923 
L 37.544477 -52.173327 
L 37.939563 -51.998021 
L 38.230067 -50.091031 
L 36.777546 -48.521826 
L 33.181103 -46.088917 
L 30.310921 -42.655479 
L 28.486554 -41.697708 
L 26.575036 -42.569964 
L 24.012789 -42.467346 
L 21.462161 -41.84736 
L 20.108412 -41.022138 
L 20.857912 -42.817958 
L 21.287859 -43.651732 
L 21.462161 -44.361509 
L 20.468637 -45.635686 
L 19.881818 -46.768763 
L 20.090981 -47.765016 
L 21.462161 -48.654374 
L 24.832011 -50.339025 
L 24.924972 -50.368955 
L 25.017933 -50.377507 
L 25.122515 -50.368955 
L 25.564081 -50.223579 
L 25.901066 -50.180822 
L 26.226431 -50.219303 
L 27.463979 -50.612674 
L 27.708003 -51.164247 
L 27.655712 -51.929609 
L 27.684763 -52.823243 
L 28.085658 -55.166361 
L 28.271581 -55.812001 
L 29.089878 -57.678249 
L 30.090138 -59.959491 
L 30.014607 -60.874504 
L 29.329017 -62.127303 
L 28.503985 -63.033764 
L 25.740097 -64.761887 
L 25.47112 -64.930065 
L 26.11604 -65.558602 
L 26.220621 -66.103762 
L 26.104419 -66.663887 
L 26.104419 -67.294562 
L 26.063749 -67.54897 
L 25.930117 -67.891031 
L 25.808105 -68.280125 
L 25.808105 -68.703426 
L 26.028888 -69.207966 
L 26.667998 -69.909191 
L 28.625996 -73.321249 
L 30.613046 -75.869604 
L 29.253486 -77.413154 
L 29.079183 -78.503474 
L 29.834494 -79.508278 
L 37.393415 -86.520529 
L 41.419804 -88.75889 
L 41.977572 -89.235638 
L 43.459144 -90.926702 
L 45.324181 -91.927231 
L 45.91681 -92.374048 
L 46.550109 -93.177891 
L 46.765082 -93.864151 
L 46.741842 -95.260188 
L 46.323516 -95.726246 
L 46.027202 -96.132443 
L 45.870329 -96.598501 
L 45.95167 -97.000423 
L 46.834803 -99.692016 
L 47.224079 -100.40393 
L 47.332569 -100.677456 
L 47.537824 -101.194946 
L 47.630785 -102.340851 
L 47.450672 -103.255864 
L 46.701171 -104.696796 
L 46.468768 -105.445054 
L 47.30542 -108.348297 
L 50.03035 -109.938881 
L 56.078649 -111.854422 
L 59.829059 -114.729873 
L 61.113088 -116.596243 
L 60.439118 -118.131242 
L 61.194429 -119.446039 
L 61.723147 -119.96982 
L 63.134997 -120.478636 
L 63.34416 -121.004555 
L 63.553323 -121.149931 
L 64.360925 -121.568955 
L 64.291204 -122.984233 
L 65.976129 -123.574288 
L 69.535563 -126.879603 
L 69.659723 -126.994898 
L 70.728779 -128.765064 
L 72.361413 -130.451852 
L 76.178639 -133.25889 
L 75.952045 -135.311256 
L 76.312271 -137.008734 
L 77.369706 -138.099054 
L 77.880993 -138.16319 
L 78.183118 -138.282912 
L 79.00234 -139.392472 
L 79.589159 -139.736671 
L 80.164357 -139.894874 
L 80.693075 -140.232659 
L 81.128831 -141.141259 
L 80.542013 -141.981446 
L 79.69955 -142.746808 
L 78.862898 -143.428792 
L 77.828703 -142.930666 
L 71.141295 -142.272198 
L 71.420179 -143.330449 
L 72.117389 -144.623868 
L 72.948231 -145.709911 
L 74.394942 -146.560788 
L 74.482094 -148.121441 
L 75.957855 -148.450675 
L 76.870039 -148.976594 
L 77.706691 -149.688508 
L 78.130827 -150.385458 
L 77.857753 -151.371021 
L 77.276745 -152.514788 
L 77.137303 -153.436215 
L 78.183118 -153.754759 
L 78.682785 -154.145991 
L 79.188263 -154.276402 
L 79.69955 -154.145991 
L 80.210838 -153.754759 
L 81.669169 -153.543109 
L 84.46963 -154.030545 
L 85.79433 -153.754759 
L 86.5264 -153.333596 
L 86.630465 -153.316974 
L 87.275901 -153.213875 
L 88.803954 -153.367802 
L 87.781379 -151.020409 
L 88.100933 -149.669268 
L 89.321051 -148.938112 
L 90.971115 -148.420745 
L 91.203519 -148.234749 
L 91.360391 -147.937584 
L 91.586985 -147.63828 
L 92.022741 -147.454422 
L 92.400396 -147.531386 
L 94.526888 -148.454951 
L 96.014269 -148.767082 
L 97.579131 -148.700247 
L 99.918647 -148.600327 
L 100.462385 -148.818995 
L 101.48156 -149.228864 
L 102.280648 -150.272604 
L 102.591286 -150.678348 
L 102.771398 -151.452261 
L 102.678437 -151.918319 
L 102.405363 -152.305275 
L 102.21944 -152.506236 
L 101.934746 -153.01719 
L 101.928936 -153.526005 
L 102.585476 -153.718415 
L 103.456989 -153.414836 
L 103.710372 -153.253524 
L 104.189059 -152.948778 
L 104.91532 -152.841883 
L 105.775213 -153.615796 
L 105.873984 -153.754759 
L 105.949515 -153.989926 
L 105.955325 -154.205852 
L 105.946663 -154.236768 
L 105.897224 -154.413226 
L 105.496328 -154.975489 
L 105.374317 -155.308998 
L 105.449848 -155.56982 
L 105.775213 -155.745126 
L 106.356221 -155.621129 
L 106.809408 -155.770781 
L 107.053431 -156.243253 
L 107.036001 -157.070613 
L 106.844268 -157.066337 
L 105.908844 -157.780389 
L 105.775213 -157.835974 
L 107.919309 -159.585856 
L 108.227068 -159.837031 
L 109.575008 -160.58529 
L 111.551776 -161.328638 
L 111.58245 -161.340173 
L 114.44967 -162.197252 
L 115.722078 -162.329801 
L 114.984198 -160.258194 
L 114.385759 -159.683104 
L 113.061425 -159.69466 
L 112.915807 -159.695931 
L 115.004462 -158.595379 
L 115.82085 -158.165208 
L 117.058398 -158.000591 
L 119.52532 -158.510767 
L 121.741327 -158.969051 
L 122.798762 -159.567658 
L 123.693515 -160.634461 
L 124.71609 -162.227183 
L 125.506262 -161.825261 
L 129.131755 -161.607197 
L 129.47455 -161.252309 
L 129.654663 -160.476258 
L 129.765054 -159.700207 
L 129.916116 -159.349594 
L 137.231014 -159.349594 
L 139.758401 -159.913995 
L 140.304549 -160.283848 
L 140.554382 -160.643012 
L 140.780976 -161.062037 
L 141.257403 -161.607197 
L 141.716399 -161.962085 
L 142.936517 -162.618415 
L 143.964902 -162.924132 
L 144.348368 -163.328191 
L 144.627252 -163.732251 
L 144.917756 -163.920385 
L 147.950621 -164.4292 
L 148.967386 -164.433476 
L 150.425717 -163.988797 
L 151.076447 -163.920385 
L 151.378571 -163.561221 
L 151.680695 -162.763791 
L 152.075781 -161.966361 
L 152.627739 -161.607197 
L 154.760041 -161.042796 
L 158.356483 -161.021418 
L 158.526853 -161.050027 
L 160.087889 -161.312169 
L 160.15761 -161.70554 
L 160.814149 -163.120817 
L 162.533935 -164.253894 
L 164.218859 -164.424925 
L 165.084562 -163.616805 
L 165.752722 -162.496556 
L 165.869721 -162.35332 
L 166.374401 -161.73547 
L 167.129712 -161.98774 
L 167.25186 -162.201054 
L 167.495747 -162.626966 
L 167.559658 -163.246952 
L 167.530608 -163.834869 
L 167.600329 -164.39927 
L 167.577089 -164.683608 
L 167.443457 -165.006428 
L 167.350495 -165.382695 
L 167.478317 -165.840202 
L 167.68167 -166.015508 
L 167.977984 -166.126678 
L 168.222008 -166.13523 
L 168.274299 -166.002681 
L 168.309159 -165.493865 
L 168.675195 -165.310007 
L 168.994749 -167.270445 
L 168.483462 -167.319616 
L 168.223459 -167.425779 
L 167.582899 -167.687331 
L 166.798537 -167.81988 
L 164.067797 -167.358098 
L 163.225335 -166.936935 
L 162.446783 -166.383224 
L 161.615941 -165.955648 
L 160.616607 -165.91289 
L 159.45459 -166.571357 
L 158.013688 -167.663815 
L 157.734804 -167.706572 
L 156.851671 -168.029392 
L 157.211897 -168.925165 
L 157.072455 -169.630666 
L 156.834241 -170.235686 
L 156.898152 -170.84712 
L 157.45011 -171.473519 
L 158.873581 -172.24957 
L 159.47202 -172.805419 
L 159.896156 -174.46014 
L 160.15761 -175.063022 
L 160.918731 -176.17472 
L 161.360297 -176.435542 
L 161.987787 -176.418439 
L 165.014841 -177.017046 
L 165.863113 -177.444622 
L 165.340206 -178.74873 
L 166.234959 -179.257545 
L 167.635189 -179.180582 
L 168.675195 -178.714523 
L 168.762346 -178.111641 
L 168.814637 -177.0427 
L 169.01218 -176.037896 
L 169.564138 -175.629561 
L 170.261348 -176.082792 
L 170.551852 -177.887163 
L 171.06314 -178.417358 
L 171.7894 -178.177915 
L 172.329738 -177.363382 
L 172.771305 -176.405612 
L 173.189631 -175.747144 
L 173.770639 -175.616733 
L 174.392318 -175.745006 
L 174.944277 -175.638112 
L 175.316122 -174.802201 
L 175.16506 -174.49007 
L 174.415559 -173.371958 
L 174.229636 -172.831074 
L 174.46785 -172.155504 
L 174.915226 -171.606068 
L 175.054668 -170.975393 
L 175.16506 -170.436647 
L 178.134013 -170.479404 
L 177.675017 -170.990358 
L 178.180494 -172.61301 
L 179.691116 -172.544598 
L 181.527103 -171.482071 
L 182.979624 -170.115965 
L 181.945429 -169.876522 
L 181.951239 -169.301432 
L 182.746664 -168.510776 
L 182.787892 -168.469796 
L 184.420525 -167.257617 
L 185.797516 -166.898453 
L 187.999538 -167.105828 
L 190.044688 -167.755744 
L 190.939441 -168.722066 
L 192.002687 -169.141091 
L 198.271769 -168.439866 
L 201.380164 -168.439866 
L 202.141285 -167.257617 
L 204.244536 -167.259755 
L 206.429128 -166.757353 
L 221.847513 -157.197209 
L 222.161025 -155.736353 
L 222.26742 -155.240586 
L 223.929105 -152.743541 
L 226.020735 -151.790046 
L 227.630129 -150.374768 
L 227.583648 -146.868643 
L 227.0375 -145.611569 
L 224.858718 -142.860116 
L 224.597265 -142.118271 
L 224.30676 -140.660236 
L 224.091787 -140.091559 
L 222.174459 -137.778372 
L 220.367523 -134.71265 
L 219.437909 -133.134893 
L 218.467625 -130.344958 
L 218.333993 -127.559299 
L 218.763939 -126.191055 
L 219.373998 -124.998117 
L 219.844615 -123.67263 
L 219.873665 -121.906741 
L 219.339137 -120.803594 
L 218.479245 -119.914235 
L 217.822705 -119.027014 
L 217.886616 -118.255239 
L 219.153215 -117.878972 
L 222.586975 -117.303882 
L 223.743182 -117.673735 
L 224.794807 -117.393673 
L 227.740521 -117.761389 
L 228.681754 -117.618151 
L 239.30259 -114.24885 
L 239.209629 -113.306044 
L 239.447842 -113.100807 
L 239.796447 -113.1286 
L 240.011421 -112.872054 
L 240.011421 -112.384617 
L 239.779017 -111.593601 
L 239.639575 -109.652405 
L 239.459462 -108.760908 
L 239.552424 -107.984857 
L 240.267064 -106.96295 
L 241.661485 -105.885458 
L 247.674923 -103.929296 
L 249.847895 -101.844862 
L 251.114493 -101.105155 
L 253.543109 -100.318415 
L 254.323827 -100.288251 
L 254.705126 -100.273519 
L 256.157647 -100.690406 
L 258.609503 -101.949618 
L 259.184702 -102.794081 
L 259.335764 -103.426894 
L 259.382245 -104.123844 
L 259.649508 -105.171405 
L 260.503591 -106.623027 
L 261.415774 -106.794057 
L 262.50807 -106.505443 
L 263.908301 -106.571718 
L 263.937351 -108.117406 
L 264.919256 -110.015845 
L 266.336917 -111.653462 
L 267.969551 -112.596267 
L 268.277485 -112.658266 
L 268.59123 -112.596267 
L 268.887544 -112.40172 
L 268.893354 -112.40172 
L 268.893354 -112.388893 
L 269.474363 -111.760356 
L 270.648 -109.857641 
L 272.559518 -108.326918 
L 273.059185 -107.724036 
L 273.361309 -106.327999 
L 272.664099 -103.516685 
L 272.797731 -101.750795 
" style="stroke: #aaaaaa"/>
    </defs>
    <g clip-path="url(#pfb11a21198)">
     <use xlink:href="#mbdce97aefe" x="0" y="209.768887" style="fill: #aaaaaa; stroke: #aaaaaa"/>
    </g>
   </g>
   <g id="PathCollection_1">
    <defs>
     <path id="me7d8a1315e" d="M 0 1.581139 
C 0.419323 1.581139 0.821528 1.41454 1.118034 1.118034 
C 1.41454 0.821528 1.581139 0.419323 1.581139 0 
C 1.581139 -0.419323 1.41454 -0.821528 1.118034 -1.118034 
C 0.821528 -1.41454 0.419323 -1.581139 0 -1.581139 
C -0.419323 -1.581139 -0.821528 -1.41454 -1.118034 -1.118034 
C -1.41454 -0.821528 -1.581139 -0.419323 -1.581139 0 
C -1.581139 0.419323 -1.41454 0.821528 -1.118034 1.118034 
C -0.821528 1.41454 -0.419323 1.581139 0 1.581139 
z
" style="stroke: #1f77b4; stroke-opacity: 0.5"/>
    </defs>
    <g clip-path="url(#pfb11a21198)">
     <use xlink:href="#me7d8a1315e" x="160.854758" y="70.65148" style="fill: #1f77b4; fill-opacity: 0.5; stroke: #1f77b4; stroke-opacity: 0.5"/>
     <use xlink:href="#me7d8a1315e" x="161.062868" y="76.219957" style="fill: #1f77b4; fill-opacity: 0.5; stroke: #1f77b4; stroke-opacity: 0.5"/>
     <use xlink:href="#me7d8a1315e" x="182.054746" y="57.679822" style="fill: #1f77b4; fill-opacity: 0.5; stroke: #1f77b4; stroke-opacity: 0.5"/>
     <use xlink:href="#me7d8a1315e" x="120.679727" y="80.425529" style="fill: #1f77b4; fill-opacity: 0.5; stroke: #1f77b4; stroke-opacity: 0.5"/>
     <use xlink:href="#me7d8a1315e" x="114.247928" y="84.856605" style="fill: #1f77b4; fill-opacity: 0.5; stroke: #1f77b4; stroke-opacity: 0.5"/>
     <use xlink:href="#me7d8a1315e" x="107.916694" y="94.287789" style="fill: #1f77b4; fill-opacity: 0.5; stroke: #1f77b4; stroke-opacity: 0.5"/>
     <use xlink:href="#me7d8a1315e" x="139.578758" y="116.191132" style="fill: #1f77b4; fill-opacity: 0.5; stroke: #1f77b4; stroke-opacity: 0.5"/>
     <use xlink:href="#me7d8a1315e" x="114.365993" y="104.452764" style="fill: #1f77b4; fill-opacity: 0.5; stroke: #1f77b4; stroke-opacity: 0.5"/>
     <use xlink:href="#me7d8a1315e" x="107.249612" y="124.433322" style="fill: #1f77b4; fill-opacity: 0.5; stroke: #1f77b4; stroke-opacity: 0.5"/>
     <use xlink:href="#me7d8a1315e" x="107.243539" y="57.762908" style="fill: #1f77b4; fill-opacity: 0.5; stroke: #1f77b4; stroke-opacity: 0.5"/>
     <use xlink:href="#me7d8a1315e" x="112.068045" y="82.285543" style="fill: #1f77b4; fill-opacity: 0.5; stroke: #1f77b4; stroke-opacity: 0.5"/>
     <use xlink:href="#me7d8a1315e" x="171.743474" y="35.808125" style="fill: #1f77b4; fill-opacity: 0.5; stroke: #1f77b4; stroke-opacity: 0.5"/>
     <use xlink:href="#me7d8a1315e" x="195.715468" y="59.318321" style="fill: #1f77b4; fill-opacity: 0.5; stroke: #1f77b4; stroke-opacity: 0.5"/>
     <use xlink:href="#me7d8a1315e" x="196.222373" y="59.916506" style="fill: #1f77b4; fill-opacity: 0.5; stroke: #1f77b4; stroke-opacity: 0.5"/>
     <use xlink:href="#me7d8a1315e" x="151.912159" y="63.409006" style="fill: #1f77b4; fill-opacity: 0.5; stroke: #1f77b4; stroke-opacity: 0.5"/>
     <use xlink:href="#me7d8a1315e" x="156.641034" y="67.129644" style="fill: #1f77b4; fill-opacity: 0.5; stroke: #1f77b4; stroke-opacity: 0.5"/>
     <use xlink:href="#me7d8a1315e" x="131.146167" y="55.72493" style="fill: #1f77b4; fill-opacity: 0.5; stroke: #1f77b4; stroke-opacity: 0.5"/>
     <use xlink:href="#me7d8a1315e" x="195.264718" y="47.703036" style="fill: #1f77b4; fill-opacity: 0.5; stroke: #1f77b4; stroke-opacity: 0.5"/>
    </g>
   </g>
   <g id="text_1">
    <text style="font: 12px 'DejaVu Sans', 'Bitstream Vera Sans', 'Computer Modern Sans Serif', 'Lucida Grande', 'Verdana', 'Geneva', 'Lucid', 'Arial', 'Helvetica', 'Avant Garde', sans-serif; text-anchor: middle" x="146.7" y="16.318125" transform="rotate(-0 146.7 16.318125)">-stetten 18x</text>
   </g>
  </g>
 </g>
 <defs>
  <clipPath id="pfb11a21198">
   <rect x="7.2" y="22.318125" width="279" height="180.250762"/>
  </clipPath>
 </defs>
</svg>
