<?xml version="1.0" encoding="utf-8" standalone="no"?>
<!DOCTYPE svg PUBLIC "-//W3C//DTD SVG 1.1//EN"
  "http://www.w3.org/Graphics/SVG/1.1/DTD/svg11.dtd">
<svg xmlns:xlink="http://www.w3.org/1999/xlink" width="293.4pt" height="208.503281pt" viewBox="0 0 293.4 208.503281" xmlns="http://www.w3.org/2000/svg" version="1.1">
 <metadata>
  <rdf:RDF xmlns:dc="http://purl.org/dc/elements/1.1/" xmlns:cc="http://creativecommons.org/ns#" xmlns:rdf="http://www.w3.org/1999/02/22-rdf-syntax-ns#">
   <cc:Work>
    <dc:type rdf:resource="http://purl.org/dc/dcmitype/StillImage"/>
    <dc:date>2024-08-06T14:07:36.912659</dc:date>
    <dc:format>image/svg+xml</dc:format>
    <dc:creator>
     <cc:Agent>
      <dc:title>Matplotlib v3.9.1, https://matplotlib.org/</dc:title>
     </cc:Agent>
    </dc:creator>
   </cc:Work>
  </rdf:RDF>
 </metadata>
 <defs>
  <style type="text/css">*{stroke-linejoin: round; stroke-linecap: butt}</style>
 </defs>
 <g id="figure_1">
  <g id="patch_1">
   <path d="M 0 208.503281 
L 293.4 208.503281 
L 293.4 0 
L 0 0 
z
" style="fill: #ffffff"/>
  </g>
  <g id="axes_1">
   <g id="PatchCollection_1">
    <defs>
     <path id="mc39c229022" d="M 272.797731 -101.08692 
L 272.501417 -98.441823 
L 272.298064 -97.703064 
L 271.966889 -97.180838 
L 270.740961 -95.699075 
L 270.845543 -94.476301 
L 271.246439 -93.281125 
L 271.385881 -92.149635 
L 270.706101 -91.111551 
L 269.753247 -90.498042 
L 269.526653 -89.746546 
L 269.578944 -88.81036 
L 269.456932 -87.644904 
L 268.916594 -86.674752 
L 268.306535 -86.090963 
L 268.039272 -85.309746 
L 268.509888 -83.738822 
L 269.526653 -82.550015 
L 271.920408 -82.291025 
L 273.094046 -81.297521 
L 273.518182 -79.71386 
L 273.477511 -77.593112 
L 273.030135 -75.557279 
L 272.686514 -74.982534 
L 272.245773 -74.245345 
L 271.229008 -74.047918 
L 267.202619 -75.115722 
L 265.24462 -74.92891 
L 264.52417 -75.04779 
L 263.890871 -75.342869 
L 263.536455 -75.72074 
L 263.240141 -76.1347 
L 262.798575 -76.529554 
L 260.480351 -77.331999 
L 260.230517 -78.223605 
L 260.538451 -79.911287 
L 260.42806 -80.838981 
L 259.533307 -81.57774 
L 258.086596 -81.565003 
L 252.764558 -80.021676 
L 252.22422 -79.722351 
L 251.980196 -79.11521 
L 251.288796 -76.436148 
L 250.823989 -75.807778 
L 249.609681 -74.585005 
L 249.127444 -73.854737 
L 249.051913 -73.264579 
L 249.040293 -71.460139 
L 248.796269 -70.585517 
L 248.86599 -69.825529 
L 248.999622 -69.229002 
L 249.272696 -68.768339 
L 249.760744 -68.432926 
L 248.767219 -66.730384 
L 249.650352 -65.618 
L 251.300416 -64.968401 
L 253.816183 -64.475895 
L 254.786467 -64.081041 
L 255.198983 -63.168207 
L 254.774847 -61.376504 
L 254.368141 -60.824558 
L 253.188694 -59.754631 
L 252.764558 -58.956432 
L 252.479863 -57.844048 
L 252.445003 -57.092552 
L 252.671596 -56.400496 
L 253.182884 -55.483416 
L 255.501108 -53.093064 
L 256.221558 -51.628283 
L 255.483677 -50.057359 
L 253.914954 -49.055364 
L 251.54444 -48.14253 
L 249.685212 -48.180741 
L 249.638732 -50.03613 
L 249.069343 -51.432979 
L 246.849891 -53.428477 
L 246.024859 -54.557844 
L 245.658823 -56.358039 
L 245.635583 -57.984157 
L 245.263738 -59.321566 
L 243.857697 -60.255629 
L 242.70149 -60.559199 
L 241.609194 -60.641991 
L 239.157338 -60.215294 
L 235.415643 -58.270745 
L 234.247816 -57.886505 
L 233.527365 -58.043598 
L 232.156185 -58.880009 
L 231.551937 -58.894869 
L 230.941878 -58.196444 
L 230.831486 -57.258136 
L 230.918637 -56.326195 
L 230.895397 -55.67872 
L 230.035504 -54.47293 
L 228.978069 -54.039864 
L 222.534684 -54.116287 
L 221.227415 -54.600302 
L 220.036348 -55.41973 
L 219.321707 -56.417479 
L 218.200361 -59.381006 
L 217.700693 -59.797089 
L 216.457335 -60.495513 
L 216.050629 -60.898858 
L 215.940238 -61.359521 
L 216.021579 -62.612015 
L 215.684594 -70.49211 
L 215.504481 -71.007968 
L 215.062915 -70.908193 
L 214.156542 -70.23312 
L 213.773076 -69.708771 
L 213.575533 -69.124982 
L 213.302459 -68.632476 
L 212.6924 -68.386223 
L 212.268264 -68.573035 
L 210.833173 -69.952901 
L 210.792502 -70.969756 
L 209.676966 -71.269081 
L 206.940416 -70.929422 
L 205.86555 -69.923181 
L 204.889456 -67.944666 
L 204.447889 -65.932185 
L 204.988227 -64.821923 
L 205.737728 -64.297574 
L 205.84812 -63.4739 
L 205.702868 -62.43794 
L 205.708678 -61.263992 
L 206.463989 -58.349291 
L 206.53952 -57.292102 
L 206.190915 -55.483416 
L 204.546661 -52.001908 
L 203.710008 -49.05961 
L 203.198721 -48.227444 
L 202.547991 -47.611812 
L 201.874021 -47.289136 
L 201.263962 -46.830596 
L 200.950218 -46.015413 
L 200.688764 -45.068613 
L 200.277789 -44.278293 
L 200.247198 -44.219465 
L 196.162708 -41.417276 
L 195.122702 -39.833614 
L 194.901919 -38.772179 
L 195.023931 -36.921036 
L 194.843818 -35.91055 
L 194.396442 -35.142071 
L 193.861914 -34.82364 
L 192.630176 -34.428786 
L 191.189275 -33.295173 
L 190.945251 -32.36111 
L 191.944586 -29.499481 
L 190.096979 -27.762973 
L 189.974967 -27.559177 
L 189.934296 -27.34689 
L 189.974967 -27.138849 
L 190.096979 -26.930808 
L 190.701228 -26.306684 
L 191.166034 -24.812183 
L 191.677322 -24.039458 
L 192.22347 -23.721027 
L 193.449398 -23.470529 
L 193.978116 -23.126624 
L 194.617225 -21.763741 
L 194.402252 -20.366892 
L 193.002021 -17.585932 
L 191.206705 -15.335689 
L 189.51597 -15.658365 
L 187.674173 -16.494776 
L 185.448911 -15.80272 
L 185.658074 -17.067951 
L 185.995059 -18.044472 
L 186.221652 -19.063449 
L 186.128691 -20.485773 
L 185.814946 -21.559945 
L 185.344329 -22.634118 
L 184.368235 -24.404592 
L 183.816277 -25.716526 
L 183.450241 -26.238752 
L 183.072586 -26.540199 
L 179.847988 -28.302182 
L 178.988096 -28.612121 
L 178.023622 -28.675807 
L 178.116583 -28.896586 
L 178.331556 -29.29144 
L 179.319271 -31.601123 
L 180.928664 -33.592375 
L 181.759507 -35.519942 
L 180.330226 -37.439017 
L 179.481953 -37.740464 
L 177.756358 -37.698007 
L 176.855795 -37.825379 
L 176.425848 -38.122581 
L 176.013332 -38.89106 
L 175.834808 -38.957919 
L 175.548525 -39.065135 
L 175.19992 -38.899551 
L 174.328408 -38.114089 
L 173.927512 -37.884819 
L 172.939797 -37.935768 
L 170.319449 -39.489709 
L 169.232963 -39.871826 
L 168.686815 -40.156291 
L 165.136853 -45.48045 
L 163.539079 -47.144781 
L 161.987787 -47.938734 
L 160.517835 -48.537384 
L 159.48364 -49.403515 
L 158.867771 -50.72394 
L 158.646988 -52.72793 
L 158.83872 -54.842309 
L 159.750904 -59.098664 
L 159.942637 -61.465665 
L 159.913586 -63.945178 
L 159.681183 -65.800566 
L 158.908441 -66.929934 
L 157.293238 -67.216521 
L 156.548421 -67.054449 
L 154.161602 -66.53508 
L 152.633549 -65.694423 
L 151.436672 -64.412209 
L 150.966055 -63.36988 
L 151.181028 -63.021729 
L 151.552874 -62.735141 
L 151.576114 -61.902976 
L 151.239129 -61.15148 
L 150.681361 -60.474284 
L 150.036441 -59.97541 
L 148.444478 -59.160228 
L 145.678878 -55.466433 
L 144.51686 -54.647005 
L 142.076625 -54.095059 
L 140.862317 -53.526129 
L 139.764211 -52.396762 
L 139.200633 -51.594317 
L 138.962419 -50.902261 
L 139.159962 -50.583831 
L 140.473041 -49.424743 
L 142.134726 -46.172506 
L 142.291598 -43.15803 
L 141.07148 -40.49595 
L 138.613814 -38.330622 
L 138.003755 -38.122581 
L 136.841738 -37.995209 
L 136.27816 -37.553652 
L 135.877264 -36.708749 
L 135.755252 -35.766195 
L 135.749442 -34.844869 
L 135.453128 -32.505466 
L 135.348546 -32.339882 
L 134.802398 -31.117108 
L 134.761727 -30.938787 
L 134.058707 -30.00897 
L 133.657811 -29.669311 
L 133.117473 -29.499481 
L 129.131755 -28.582401 
L 128.320962 -27.918524 
L 127.7102 -26.728347 
L 127.55751 -25.166239 
L 126.400518 -25.112213 
L 126.331294 -24.977767 
L 126.156991 -24.132864 
L 126.203472 -23.704044 
L 126.06984 -23.428071 
L 125.36682 -23.037463 
L 125.041455 -23.054446 
L 124.03631 -23.368631 
L 122.490828 -23.338911 
L 119.789138 -24.345151 
L 119.23718 -24.281465 
L 118.813044 -24.07767 
L 118.342427 -23.963035 
L 117.651027 -24.205042 
L 117.569685 -24.413083 
L 116.51225 -25.984007 
L 115.669788 -26.782207 
L 114.786655 -27.300187 
L 109.057911 -28.760722 
L 108.116677 -28.26397 
L 107.570529 -27.329907 
L 106.95466 -26.510479 
L 105.775213 -26.357633 
L 104.101908 -25.618874 
L 100.778539 -23.139361 
L 98.977413 -22.494008 
L 94.753481 -22.952548 
L 94.0156 -22.693558 
L 92.435257 -21.695809 
L 88.966636 -20.243766 
L 87.270091 -19.921089 
L 85.434104 -19.887123 
L 83.708509 -20.248011 
L 82.40124 -21.046211 
L 79.879663 -23.924823 
L 79.490387 -24.587158 
L 79.188263 -25.415078 
L 78.793177 -26.91807 
L 78.148257 -28.624858 
L 77.944904 -29.499481 
L 77.67183 -29.686293 
L 73.866225 -34.059407 
L 72.588006 -34.632582 
L 72.117389 -34.437278 
L 71.716493 -34.016949 
L 71.286547 -33.685782 
L 70.752019 -33.762205 
L 70.258162 -34.144322 
L 70.223301 -34.399066 
L 70.339503 -34.742971 
L 70.316263 -35.379832 
L 70.397604 -35.460501 
L 70.380174 -36.318141 
L 70.281402 -37.133323 
L 70.12453 -37.052654 
L 70.380174 -37.477228 
L 70.83336 -38.037666 
L 71.228446 -38.666036 
L 71.286547 -39.294405 
L 70.426654 -40.139308 
L 65.952889 -41.141303 
L 65.464841 -42.521168 
L 65.981939 -45.336095 
L 66.958033 -48.278393 
L 68.950893 -52.205704 
L 67.672674 -54.434718 
L 65.679815 -56.576694 
L 64.604949 -58.453312 
L 64.907073 -59.402235 
L 66.388645 -61.159972 
L 66.789541 -62.535592 
L 66.726476 -63.340974 
L 66.667529 -64.093779 
L 66.142326 -64.91011 
L 65.296349 -65.333535 
L 56.921111 -67.522215 
L 53.173606 -67.643218 
L 49.571353 -66.921442 
L 44.778033 -63.601273 
L 42.953666 -63.129995 
L 41.106059 -63.042958 
L 39.374654 -62.476151 
L 37.550287 -60.87763 
L 35.946704 -58.735653 
L 34.761446 -57.105289 
L 34.459322 -55.984413 
L 34.691725 -55.164985 
L 35.208823 -53.768136 
L 35.237873 -53.436969 
L 35.778211 -52.078332 
L 36.016425 -51.730181 
L 36.603243 -51.420242 
L 37.544477 -51.857553 
L 37.939563 -51.683478 
L 38.230067 -49.789877 
L 36.777546 -48.23169 
L 33.181103 -45.815864 
L 30.310921 -42.406534 
L 28.486554 -41.455488 
L 26.575036 -42.321619 
L 24.012789 -42.219721 
L 21.462161 -41.604088 
L 20.108412 -40.78466 
L 20.857912 -42.567872 
L 21.287859 -43.395791 
L 21.462161 -44.100584 
L 20.468637 -45.365815 
L 19.881818 -46.490936 
L 20.090981 -47.480194 
L 21.462161 -48.363308 
L 24.832011 -50.03613 
L 24.924972 -50.06585 
L 25.017933 -50.074342 
L 25.122515 -50.06585 
L 25.564081 -49.921495 
L 25.901066 -49.879038 
L 26.226431 -49.917249 
L 27.463979 -50.307858 
L 27.708003 -50.855558 
L 27.655712 -51.615546 
L 27.684763 -52.502906 
L 28.085658 -54.829572 
L 28.271581 -55.470679 
L 29.089878 -57.323823 
L 30.090138 -59.589047 
L 30.014607 -60.497636 
L 29.329017 -61.741638 
L 28.503985 -62.641735 
L 25.740097 -64.357724 
L 25.47112 -64.524721 
L 26.11604 -65.148845 
L 26.220621 -65.690177 
L 26.104419 -66.246369 
L 26.104419 -66.872616 
L 26.063749 -67.125238 
L 25.930117 -67.464897 
L 25.808105 -67.851259 
L 25.808105 -68.271588 
L 26.028888 -68.772585 
L 26.667998 -69.468887 
L 28.625996 -72.856988 
L 30.613046 -75.38745 
L 29.253486 -76.920162 
L 29.079183 -78.002826 
L 29.834494 -79.000575 
L 37.393415 -85.963591 
L 41.419804 -88.186236 
L 41.977572 -88.659636 
L 43.459144 -90.338827 
L 45.324181 -91.33233 
L 45.91681 -91.77601 
L 46.550109 -92.574209 
L 46.765082 -93.255651 
L 46.741842 -94.641885 
L 46.323516 -95.104671 
L 46.027202 -95.508016 
L 45.870329 -95.970802 
L 45.95167 -96.369902 
L 46.834803 -99.042596 
L 47.224079 -99.749512 
L 47.332569 -100.021117 
L 47.537824 -100.534974 
L 47.630785 -101.672832 
L 47.450672 -102.581421 
L 46.701171 -104.012236 
L 46.468768 -104.75524 
L 47.30542 -107.638098 
L 50.03035 -109.217514 
L 56.078649 -111.119606 
L 59.829059 -113.974867 
L 61.113088 -115.828133 
L 60.439118 -117.352354 
L 61.194429 -118.657919 
L 61.723147 -119.178022 
L 63.134997 -119.683266 
L 63.34416 -120.205492 
L 63.553323 -120.349847 
L 64.360925 -120.76593 
L 64.291204 -122.17127 
L 65.976129 -122.757182 
L 69.535563 -126.039289 
L 69.659723 -126.153775 
L 70.728779 -127.911512 
L 72.361413 -129.586457 
L 76.178639 -132.373785 
L 75.952045 -134.411741 
L 76.312271 -136.0973 
L 77.369706 -137.179964 
L 77.880993 -137.24365 
L 78.183118 -137.362531 
L 79.00234 -138.464301 
L 79.589159 -138.806083 
L 80.164357 -138.963175 
L 80.693075 -139.298589 
L 81.128831 -140.200809 
L 80.542013 -141.035097 
L 79.69955 -141.795085 
L 78.862898 -142.47228 
L 77.828703 -141.977652 
L 71.141295 -141.323807 
L 71.420179 -142.374628 
L 72.117389 -143.658965 
L 72.948231 -144.737383 
L 74.394942 -145.582286 
L 74.482094 -147.131981 
L 75.957855 -147.458903 
L 76.870039 -147.981129 
L 77.706691 -148.688045 
L 78.130827 -149.380101 
L 77.857753 -150.358744 
L 77.276745 -151.49448 
L 77.137303 -152.409437 
L 78.183118 -152.725745 
L 78.682785 -153.11423 
L 79.188263 -153.243725 
L 79.69955 -153.11423 
L 80.210838 -152.725745 
L 81.669169 -152.515581 
L 84.46963 -152.999595 
L 85.79433 -152.725745 
L 86.5264 -152.307539 
L 86.630465 -152.291034 
L 87.275901 -152.188659 
L 88.803954 -152.341505 
L 87.781379 -150.010594 
L 88.100933 -148.668939 
L 89.321051 -147.942918 
L 90.971115 -147.429183 
L 91.203519 -147.244493 
L 91.360391 -146.949414 
L 91.586985 -146.652213 
L 92.022741 -146.469646 
L 92.400396 -146.546069 
L 94.526888 -147.463149 
L 96.014269 -147.773088 
L 97.579131 -147.706723 
L 99.918647 -147.607504 
L 100.462385 -147.824637 
L 101.48156 -148.231628 
L 102.280648 -149.26804 
L 102.591286 -149.670934 
L 102.771398 -150.439413 
L 102.678437 -150.902199 
L 102.405363 -151.286439 
L 102.21944 -151.485989 
L 101.934746 -151.993355 
L 101.928936 -152.498598 
L 102.585476 -152.689656 
L 103.456989 -152.388209 
L 103.710372 -152.22803 
L 104.189059 -151.925423 
L 104.91532 -151.819279 
L 105.775213 -152.587758 
L 105.873984 -152.725745 
L 105.949515 -152.959261 
L 105.955325 -153.173671 
L 105.946663 -153.20437 
L 105.897224 -153.379589 
L 105.496328 -153.937904 
L 105.374317 -154.269072 
L 105.449848 -154.528062 
L 105.775213 -154.702137 
L 106.356221 -154.579011 
L 106.809408 -154.727612 
L 107.053431 -155.196766 
L 107.036001 -156.018317 
L 106.844268 -156.014071 
L 105.908844 -156.72311 
L 105.775213 -156.778305 
L 107.919309 -158.5159 
L 108.227068 -158.765311 
L 109.575008 -159.508316 
L 111.551776 -160.246446 
L 111.58245 -160.2579 
L 114.44967 -161.108961 
L 115.722078 -161.240579 
L 114.984198 -159.183517 
L 114.385759 -158.612465 
L 113.061425 -158.62394 
L 112.915807 -158.625202 
L 115.004462 -157.532377 
L 115.82085 -157.105227 
L 117.058398 -156.941766 
L 119.52532 -157.448359 
L 121.741327 -157.903426 
L 122.798762 -158.49783 
L 123.693515 -159.557142 
L 124.71609 -161.138681 
L 125.506262 -160.739581 
L 129.131755 -160.523048 
L 129.47455 -160.170652 
L 129.654663 -159.40005 
L 129.765054 -158.629448 
L 129.916116 -158.281297 
L 137.231014 -158.281297 
L 139.758401 -158.841735 
L 140.304549 -159.208991 
L 140.554382 -159.565634 
L 140.780976 -159.981716 
L 141.257403 -160.523048 
L 141.716399 -160.875445 
L 142.936517 -161.527166 
L 143.964902 -161.830736 
L 144.348368 -162.231959 
L 144.627252 -162.633182 
L 144.917756 -162.819994 
L 147.950621 -163.325237 
L 148.967386 -163.329483 
L 150.425717 -162.887926 
L 151.076447 -162.819994 
L 151.378571 -162.463352 
L 151.680695 -161.671521 
L 152.075781 -160.879691 
L 152.627739 -160.523048 
L 154.760041 -159.96261 
L 158.356483 -159.941382 
L 158.526853 -159.969791 
L 160.087889 -160.230092 
L 160.15761 -160.6207 
L 160.814149 -162.026041 
L 162.533935 -163.151162 
L 164.218859 -163.320992 
L 165.084562 -162.518547 
L 165.752722 -161.406162 
L 165.869721 -161.263932 
L 166.374401 -160.650421 
L 167.129712 -160.900919 
L 167.25186 -161.112735 
L 167.495747 -161.535658 
L 167.559658 -162.15129 
L 167.530608 -162.735079 
L 167.600329 -163.295517 
L 167.577089 -163.577859 
L 167.443457 -163.898412 
L 167.350495 -164.272038 
L 167.478317 -164.726332 
L 167.68167 -164.900407 
L 167.977984 -165.010797 
L 168.222008 -165.019288 
L 168.274299 -164.88767 
L 168.309159 -164.382427 
L 168.675195 -164.19986 
L 168.994749 -166.146532 
L 168.483462 -166.195358 
L 168.223459 -166.300776 
L 167.582899 -166.560492 
L 166.798537 -166.69211 
L 164.067797 -166.23357 
L 163.225335 -165.815364 
L 162.446783 -165.265541 
L 161.615941 -164.840967 
L 160.616607 -164.79851 
L 159.45459 -165.452354 
L 158.013688 -166.53714 
L 157.734804 -166.579598 
L 156.851671 -166.900151 
L 157.211897 -167.789634 
L 157.072455 -168.490181 
L 156.834241 -169.090954 
L 156.898152 -169.698095 
L 157.45011 -170.320096 
L 158.873581 -171.090698 
L 159.47202 -171.642644 
L 159.896156 -173.285746 
L 160.15761 -173.884395 
L 160.918731 -174.988288 
L 161.360297 -175.247278 
L 161.987787 -175.230295 
L 165.014841 -175.824699 
L 165.863113 -176.249273 
L 165.340206 -177.544224 
L 166.234959 -178.049467 
L 167.635189 -177.973044 
L 168.675195 -177.510258 
L 168.762346 -176.911609 
L 168.814637 -175.850173 
L 169.01218 -174.852424 
L 169.564138 -174.446956 
L 170.261348 -174.897004 
L 170.551852 -176.688707 
L 171.06314 -177.215179 
L 171.7894 -176.977418 
L 172.329738 -176.168604 
L 172.771305 -175.217558 
L 173.189631 -174.563714 
L 173.770639 -174.434219 
L 174.392318 -174.561591 
L 174.944277 -174.455447 
L 175.316122 -173.625405 
L 175.16506 -173.315466 
L 174.415559 -172.205205 
L 174.229636 -171.668118 
L 174.46785 -170.997291 
L 174.915226 -170.451714 
L 175.054668 -169.825467 
L 175.16506 -169.290503 
L 178.134013 -169.332961 
L 177.675017 -169.840327 
L 178.180494 -171.451586 
L 179.691116 -171.383654 
L 181.527103 -170.328587 
L 182.979624 -168.972073 
L 181.945429 -168.734311 
L 181.951239 -168.163259 
L 182.746664 -167.378155 
L 182.787892 -167.337463 
L 184.420525 -166.133795 
L 185.797516 -165.777153 
L 187.999538 -165.983071 
L 190.044688 -166.628424 
L 190.939441 -167.587961 
L 192.002687 -168.004044 
L 198.271769 -167.307742 
L 201.380164 -167.307742 
L 202.141285 -166.133795 
L 204.244536 -166.135918 
L 206.429128 -165.637043 
L 221.847513 -156.144025 
L 222.161025 -154.693425 
L 222.26742 -154.20114 
L 223.929105 -151.721627 
L 226.020735 -150.774827 
L 227.630129 -149.369487 
L 227.583648 -145.887979 
L 227.0375 -144.639731 
L 224.858718 -141.907597 
L 224.597265 -141.170961 
L 224.30676 -139.723163 
L 224.091787 -139.15848 
L 222.174459 -136.861534 
L 220.367523 -133.817337 
L 219.437909 -132.250659 
L 218.467625 -129.480313 
L 218.333993 -126.714213 
L 218.763939 -125.355576 
L 219.373998 -124.171014 
L 219.844615 -122.854834 
L 219.873665 -121.101343 
L 219.339137 -120.005942 
L 218.479245 -119.122828 
L 217.822705 -118.241837 
L 217.886616 -117.47548 
L 219.153215 -117.101855 
L 222.586975 -116.530803 
L 223.743182 -116.89806 
L 224.794807 -116.619963 
L 227.740521 -116.985097 
L 228.681754 -116.842865 
L 239.30259 -113.497221 
L 239.209629 -112.561035 
L 239.447842 -112.357239 
L 239.796447 -112.384837 
L 240.011421 -112.130092 
L 240.011421 -111.646078 
L 239.779017 -110.860616 
L 239.639575 -108.933049 
L 239.459462 -108.047812 
L 239.552424 -107.27721 
L 240.267064 -106.262478 
L 241.661485 -105.192552 
L 247.674923 -103.250125 
L 249.847895 -101.180326 
L 251.114493 -100.445813 
L 253.543109 -99.664597 
L 254.323827 -99.634645 
L 254.705126 -99.620017 
L 256.157647 -100.033976 
L 258.609503 -101.284347 
L 259.184702 -102.122881 
L 259.335764 -102.75125 
L 259.382245 -103.443306 
L 259.649508 -104.483513 
L 260.503591 -105.924942 
L 261.415774 -106.094771 
L 262.50807 -105.808184 
L 263.908301 -105.873993 
L 263.937351 -107.408828 
L 264.919256 -109.293937 
L 266.336917 -110.920056 
L 267.969551 -111.856242 
L 268.277485 -111.917805 
L 268.59123 -111.856242 
L 268.887544 -111.663061 
L 268.893354 -111.663061 
L 268.893354 -111.650324 
L 269.474363 -111.0262 
L 270.648 -109.136845 
L 272.559518 -107.61687 
L 273.059185 -107.01822 
L 273.361309 -105.631986 
L 272.664099 -102.840411 
L 272.797731 -101.08692 
" style="stroke: #aaaaaa"/>
    </defs>
    <g clip-path="url(#p303dc09759)">
     <use xlink:href="#mc39c229022" x="0" y="208.503281" style="fill: #aaaaaa; stroke: #aaaaaa"/>
    </g>
   </g>
   <g id="PathCollection_1">
    <defs>
     <path id="m5ada473a6c" d="M 0 1.581139 
C 0.419323 1.581139 0.821528 1.41454 1.118034 1.118034 
C 1.41454 0.821528 1.581139 0.419323 1.581139 0 
C 1.581139 -0.419323 1.41454 -0.821528 1.118034 -1.118034 
C 0.821528 -1.41454 0.419323 -1.581139 0 -1.581139 
C -0.419323 -1.581139 -0.821528 -1.41454 -1.118034 -1.118034 
C -1.41454 -0.821528 -1.581139 -0.419323 -1.581139 0 
C -1.581139 0.419323 -1.41454 0.821528 -1.118034 1.118034 
C -0.821528 1.41454 -0.419323 1.581139 0 1.581139 
z
" style="stroke: #1f77b4; stroke-opacity: 0.5"/>
    </defs>
    <g clip-path="url(#p303dc09759)">
     <use xlink:href="#m5ada473a6c" x="162.604704" y="73.050407" style="fill: #1f77b4; fill-opacity: 0.5; stroke: #1f77b4; stroke-opacity: 0.5"/>
     <use xlink:href="#m5ada473a6c" x="162.378794" y="69.188434" style="fill: #1f77b4; fill-opacity: 0.5; stroke: #1f77b4; stroke-opacity: 0.5"/>
     <use xlink:href="#m5ada473a6c" x="188.048188" y="68.006834" style="fill: #1f77b4; fill-opacity: 0.5; stroke: #1f77b4; stroke-opacity: 0.5"/>
     <use xlink:href="#m5ada473a6c" x="174.061075" y="59.775093" style="fill: #1f77b4; fill-opacity: 0.5; stroke: #1f77b4; stroke-opacity: 0.5"/>
     <use xlink:href="#m5ada473a6c" x="179.084755" y="59.468615" style="fill: #1f77b4; fill-opacity: 0.5; stroke: #1f77b4; stroke-opacity: 0.5"/>
     <use xlink:href="#m5ada473a6c" x="177.970921" y="45.270293" style="fill: #1f77b4; fill-opacity: 0.5; stroke: #1f77b4; stroke-opacity: 0.5"/>
     <use xlink:href="#m5ada473a6c" x="177.559198" y="44.073346" style="fill: #1f77b4; fill-opacity: 0.5; stroke: #1f77b4; stroke-opacity: 0.5"/>
     <use xlink:href="#m5ada473a6c" x="114.896512" y="97.014484" style="fill: #1f77b4; fill-opacity: 0.5; stroke: #1f77b4; stroke-opacity: 0.5"/>
     <use xlink:href="#m5ada473a6c" x="113.064537" y="96.828599" style="fill: #1f77b4; fill-opacity: 0.5; stroke: #1f77b4; stroke-opacity: 0.5"/>
     <use xlink:href="#m5ada473a6c" x="117.085671" y="97.449164" style="fill: #1f77b4; fill-opacity: 0.5; stroke: #1f77b4; stroke-opacity: 0.5"/>
     <use xlink:href="#m5ada473a6c" x="118.962015" y="89.565096" style="fill: #1f77b4; fill-opacity: 0.5; stroke: #1f77b4; stroke-opacity: 0.5"/>
     <use xlink:href="#m5ada473a6c" x="115.986865" y="129.44076" style="fill: #1f77b4; fill-opacity: 0.5; stroke: #1f77b4; stroke-opacity: 0.5"/>
     <use xlink:href="#m5ada473a6c" x="118.595628" y="128.05201" style="fill: #1f77b4; fill-opacity: 0.5; stroke: #1f77b4; stroke-opacity: 0.5"/>
     <use xlink:href="#m5ada473a6c" x="121.112897" y="133.111489" style="fill: #1f77b4; fill-opacity: 0.5; stroke: #1f77b4; stroke-opacity: 0.5"/>
     <use xlink:href="#m5ada473a6c" x="133.388056" y="125.707649" style="fill: #1f77b4; fill-opacity: 0.5; stroke: #1f77b4; stroke-opacity: 0.5"/>
     <use xlink:href="#m5ada473a6c" x="118.707766" y="107.192828" style="fill: #1f77b4; fill-opacity: 0.5; stroke: #1f77b4; stroke-opacity: 0.5"/>
     <use xlink:href="#m5ada473a6c" x="107.129732" y="132.660571" style="fill: #1f77b4; fill-opacity: 0.5; stroke: #1f77b4; stroke-opacity: 0.5"/>
     <use xlink:href="#m5ada473a6c" x="108.070603" y="124.464311" style="fill: #1f77b4; fill-opacity: 0.5; stroke: #1f77b4; stroke-opacity: 0.5"/>
     <use xlink:href="#m5ada473a6c" x="102.317744" y="123.583451" style="fill: #1f77b4; fill-opacity: 0.5; stroke: #1f77b4; stroke-opacity: 0.5"/>
     <use xlink:href="#m5ada473a6c" x="104.776719" y="142.79942" style="fill: #1f77b4; fill-opacity: 0.5; stroke: #1f77b4; stroke-opacity: 0.5"/>
     <use xlink:href="#m5ada473a6c" x="123.282548" y="103.575042" style="fill: #1f77b4; fill-opacity: 0.5; stroke: #1f77b4; stroke-opacity: 0.5"/>
     <use xlink:href="#m5ada473a6c" x="120.852727" y="91.111233" style="fill: #1f77b4; fill-opacity: 0.5; stroke: #1f77b4; stroke-opacity: 0.5"/>
     <use xlink:href="#m5ada473a6c" x="120.413904" y="89.859144" style="fill: #1f77b4; fill-opacity: 0.5; stroke: #1f77b4; stroke-opacity: 0.5"/>
     <use xlink:href="#m5ada473a6c" x="125.863505" y="93.861198" style="fill: #1f77b4; fill-opacity: 0.5; stroke: #1f77b4; stroke-opacity: 0.5"/>
     <use xlink:href="#m5ada473a6c" x="132.274882" y="83.143583" style="fill: #1f77b4; fill-opacity: 0.5; stroke: #1f77b4; stroke-opacity: 0.5"/>
     <use xlink:href="#m5ada473a6c" x="166.255582" y="128.38549" style="fill: #1f77b4; fill-opacity: 0.5; stroke: #1f77b4; stroke-opacity: 0.5"/>
     <use xlink:href="#m5ada473a6c" x="173.418051" y="101.342854" style="fill: #1f77b4; fill-opacity: 0.5; stroke: #1f77b4; stroke-opacity: 0.5"/>
     <use xlink:href="#m5ada473a6c" x="185.332719" y="94.907124" style="fill: #1f77b4; fill-opacity: 0.5; stroke: #1f77b4; stroke-opacity: 0.5"/>
     <use xlink:href="#m5ada473a6c" x="151.619523" y="110.654926" style="fill: #1f77b4; fill-opacity: 0.5; stroke: #1f77b4; stroke-opacity: 0.5"/>
     <use xlink:href="#m5ada473a6c" x="144.021027" y="104.535274" style="fill: #1f77b4; fill-opacity: 0.5; stroke: #1f77b4; stroke-opacity: 0.5"/>
     <use xlink:href="#m5ada473a6c" x="194.815327" y="90.549208" style="fill: #1f77b4; fill-opacity: 0.5; stroke: #1f77b4; stroke-opacity: 0.5"/>
     <use xlink:href="#m5ada473a6c" x="199.800036" y="90.352562" style="fill: #1f77b4; fill-opacity: 0.5; stroke: #1f77b4; stroke-opacity: 0.5"/>
     <use xlink:href="#m5ada473a6c" x="76.02168" y="103.65062" style="fill: #1f77b4; fill-opacity: 0.5; stroke: #1f77b4; stroke-opacity: 0.5"/>
     <use xlink:href="#m5ada473a6c" x="70.349927" y="136.740677" style="fill: #1f77b4; fill-opacity: 0.5; stroke: #1f77b4; stroke-opacity: 0.5"/>
     <use xlink:href="#m5ada473a6c" x="117.33573" y="58.542336" style="fill: #1f77b4; fill-opacity: 0.5; stroke: #1f77b4; stroke-opacity: 0.5"/>
     <use xlink:href="#m5ada473a6c" x="103.340017" y="59.089313" style="fill: #1f77b4; fill-opacity: 0.5; stroke: #1f77b4; stroke-opacity: 0.5"/>
     <use xlink:href="#m5ada473a6c" x="120.151496" y="58.012426" style="fill: #1f77b4; fill-opacity: 0.5; stroke: #1f77b4; stroke-opacity: 0.5"/>
     <use xlink:href="#m5ada473a6c" x="167.118218" y="35.550922" style="fill: #1f77b4; fill-opacity: 0.5; stroke: #1f77b4; stroke-opacity: 0.5"/>
     <use xlink:href="#m5ada473a6c" x="211.607573" y="95.82728" style="fill: #1f77b4; fill-opacity: 0.5; stroke: #1f77b4; stroke-opacity: 0.5"/>
     <use xlink:href="#m5ada473a6c" x="198.066534" y="58.262918" style="fill: #1f77b4; fill-opacity: 0.5; stroke: #1f77b4; stroke-opacity: 0.5"/>
     <use xlink:href="#m5ada473a6c" x="203.751713" y="153.510348" style="fill: #1f77b4; fill-opacity: 0.5; stroke: #1f77b4; stroke-opacity: 0.5"/>
     <use xlink:href="#m5ada473a6c" x="188.960631" y="185.710662" style="fill: #1f77b4; fill-opacity: 0.5; stroke: #1f77b4; stroke-opacity: 0.5"/>
     <use xlink:href="#m5ada473a6c" x="169.730264" y="148.976131" style="fill: #1f77b4; fill-opacity: 0.5; stroke: #1f77b4; stroke-opacity: 0.5"/>
     <use xlink:href="#m5ada473a6c" x="137.666382" y="138.294084" style="fill: #1f77b4; fill-opacity: 0.5; stroke: #1f77b4; stroke-opacity: 0.5"/>
     <use xlink:href="#m5ada473a6c" x="128.260645" y="158.331742" style="fill: #1f77b4; fill-opacity: 0.5; stroke: #1f77b4; stroke-opacity: 0.5"/>
     <use xlink:href="#m5ada473a6c" x="129.741034" y="160.638014" style="fill: #1f77b4; fill-opacity: 0.5; stroke: #1f77b4; stroke-opacity: 0.5"/>
     <use xlink:href="#m5ada473a6c" x="63.891633" y="103.884304" style="fill: #1f77b4; fill-opacity: 0.5; stroke: #1f77b4; stroke-opacity: 0.5"/>
    </g>
   </g>
   <g id="text_1">
    <text style="font: 12px 'DejaVu Sans', 'Bitstream Vera Sans', 'Computer Modern Sans Serif', 'Lucida Grande', 'Verdana', 'Geneva', 'Lucid', 'Arial', 'Helvetica', 'Avant Garde', sans-serif; text-anchor: middle" x="146.7" y="16.318125" transform="rotate(-0 146.7 16.318125)">-tal 47x</text>
   </g>
  </g>
 </g>
 <defs>
  <clipPath id="p303dc09759">
   <rect x="7.2" y="22.318125" width="279" height="178.985156"/>
  </clipPath>
 </defs>
</svg>
