<?xml version="1.0" encoding="utf-8" standalone="no"?>
<!DOCTYPE svg PUBLIC "-//W3C//DTD SVG 1.1//EN"
  "http://www.w3.org/Graphics/SVG/1.1/DTD/svg11.dtd">
<svg xmlns:xlink="http://www.w3.org/1999/xlink" width="293.4pt" height="209.954698pt" viewBox="0 0 293.4 209.954698" xmlns="http://www.w3.org/2000/svg" version="1.1">
 <metadata>
  <rdf:RDF xmlns:dc="http://purl.org/dc/elements/1.1/" xmlns:cc="http://creativecommons.org/ns#" xmlns:rdf="http://www.w3.org/1999/02/22-rdf-syntax-ns#">
   <cc:Work>
    <dc:type rdf:resource="http://purl.org/dc/dcmitype/StillImage"/>
    <dc:date>2024-08-06T14:07:37.204271</dc:date>
    <dc:format>image/svg+xml</dc:format>
    <dc:creator>
     <cc:Agent>
      <dc:title>Matplotlib v3.9.1, https://matplotlib.org/</dc:title>
     </cc:Agent>
    </dc:creator>
   </cc:Work>
  </rdf:RDF>
 </metadata>
 <defs>
  <style type="text/css">*{stroke-linejoin: round; stroke-linecap: butt}</style>
 </defs>
 <g id="figure_1">
  <g id="patch_1">
   <path d="M 0 209.954698 
L 293.4 209.954698 
L 293.4 0 
L 0 0 
z
" style="fill: #ffffff"/>
  </g>
  <g id="axes_1">
   <g id="PatchCollection_1">
    <defs>
     <path id="m367000fc13" d="M 272.797731 -101.848263 
L 272.501417 -99.181717 
L 272.298064 -98.436967 
L 271.966889 -97.910506 
L 270.740961 -96.416727 
L 270.845543 -95.184038 
L 271.246439 -93.97917 
L 271.385881 -92.838504 
L 270.706101 -91.792003 
L 269.753247 -91.173518 
L 269.526653 -90.415928 
L 269.578944 -89.47215 
L 269.456932 -88.297243 
L 268.916594 -87.319225 
L 268.306535 -86.730701 
L 268.039272 -85.94315 
L 268.509888 -84.359487 
L 269.526653 -83.161039 
L 271.920408 -82.899949 
L 273.094046 -81.898389 
L 273.518182 -80.301885 
L 273.477511 -78.16394 
L 273.030135 -76.111599 
L 272.686514 -75.532193 
L 272.245773 -74.789026 
L 271.229008 -74.589998 
L 267.202619 -75.666461 
L 265.24462 -75.478133 
L 264.52417 -75.597978 
L 263.890871 -75.89545 
L 263.536455 -76.276385 
L 263.240141 -76.693702 
L 262.798575 -77.091758 
L 260.480351 -77.90071 
L 260.230517 -78.799546 
L 260.538451 -80.500913 
L 260.42806 -81.436131 
L 259.533307 -82.18088 
L 258.086596 -82.16804 
L 252.764558 -80.612198 
L 252.22422 -80.310446 
L 251.980196 -79.698381 
L 251.288796 -76.997594 
L 250.823989 -76.364129 
L 249.609681 -75.131439 
L 249.127444 -74.39525 
L 249.051913 -73.800307 
L 249.040293 -71.981234 
L 248.796269 -71.099519 
L 248.86599 -70.333369 
L 248.999622 -69.732005 
L 249.272696 -69.267606 
L 249.760744 -68.929473 
L 248.767219 -67.213124 
L 249.650352 -66.09172 
L 251.300416 -65.436854 
L 253.816183 -64.940354 
L 254.786467 -64.542298 
L 255.198983 -63.622061 
L 254.774847 -61.81583 
L 254.368141 -61.259407 
L 253.188694 -60.180805 
L 252.764558 -59.376132 
L 252.479863 -58.254728 
L 252.445003 -57.497138 
L 252.671596 -56.79947 
L 253.182884 -55.874953 
L 255.501108 -53.465217 
L 256.221558 -51.988558 
L 255.483677 -50.404895 
L 253.914954 -49.394775 
L 251.54444 -48.474539 
L 249.685212 -48.51306 
L 249.638732 -50.383495 
L 249.069343 -51.791671 
L 246.849891 -53.803351 
L 246.024859 -54.941876 
L 245.658823 -56.756668 
L 245.635583 -58.395974 
L 245.263738 -59.744227 
L 243.857697 -60.685865 
L 242.70149 -60.991897 
L 241.609194 -61.07536 
L 239.157338 -60.645203 
L 235.415643 -58.684885 
L 234.247816 -58.29753 
L 233.527365 -58.455896 
L 232.156185 -59.299089 
L 231.551937 -59.31407 
L 230.941878 -58.609982 
L 230.831486 -57.664064 
L 230.918637 -56.724567 
L 230.895397 -56.071841 
L 230.035504 -54.856273 
L 228.978069 -54.419695 
L 222.534684 -54.496738 
L 221.227415 -54.984678 
L 220.036348 -55.810751 
L 219.321707 -56.816591 
L 218.200361 -59.804149 
L 217.700693 -60.223606 
L 216.457335 -60.927694 
L 216.050629 -61.33431 
L 215.940238 -61.798709 
L 216.021579 -63.061359 
L 215.684594 -71.005355 
L 215.504481 -71.525396 
L 215.062915 -71.424812 
L 214.156542 -70.744265 
L 213.773076 -70.215664 
L 213.575533 -69.627141 
L 213.302459 -69.130641 
L 212.6924 -68.882391 
L 212.268264 -69.070718 
L 210.833173 -70.461774 
L 210.792502 -71.486874 
L 209.676966 -71.788627 
L 206.940416 -71.446213 
L 205.86555 -70.431813 
L 204.889456 -68.437253 
L 204.447889 -66.408452 
L 204.988227 -65.289188 
L 205.737728 -64.760587 
L 205.84812 -63.930234 
L 205.702868 -62.885872 
L 205.708678 -61.702405 
L 206.463989 -58.764068 
L 206.53952 -57.698306 
L 206.190915 -55.874953 
L 204.546661 -52.365213 
L 203.710008 -49.399055 
L 203.198721 -48.560142 
L 202.547991 -47.939517 
L 201.874021 -47.614224 
L 201.263962 -47.151966 
L 200.950218 -46.330173 
L 200.688764 -45.375695 
L 200.277789 -44.578966 
L 200.247198 -44.519661 
L 196.162708 -41.694749 
L 195.122702 -40.098245 
L 194.901919 -39.028203 
L 195.023931 -37.162048 
L 194.843818 -36.143368 
L 194.396442 -35.368657 
L 193.861914 -35.047644 
L 192.630176 -34.649588 
L 191.189275 -33.506783 
L 190.945251 -32.565145 
L 191.944586 -29.680311 
L 190.096979 -27.929721 
L 189.974967 -27.724273 
L 189.934296 -27.510264 
L 189.974967 -27.300536 
L 190.096979 -27.090808 
L 190.701228 -26.461623 
L 191.166034 -24.955003 
L 191.677322 -24.176012 
L 192.22347 -23.854999 
L 193.449398 -23.602469 
L 193.978116 -23.255775 
L 194.617225 -21.88184 
L 194.402252 -20.473664 
L 193.002021 -17.670153 
L 191.206705 -15.401662 
L 189.51597 -15.726955 
L 187.674173 -16.570149 
L 185.448911 -15.872481 
L 185.658074 -17.147972 
L 185.995059 -18.132411 
L 186.221652 -19.159652 
L 186.128691 -20.593509 
L 185.814946 -21.676392 
L 185.344329 -22.759275 
L 184.368235 -24.544106 
L 183.816277 -25.866679 
L 183.450241 -26.39314 
L 183.072586 -26.697032 
L 179.847988 -28.473303 
L 178.988096 -28.785755 
L 178.023622 -28.849958 
L 178.116583 -29.072526 
L 178.331556 -29.470582 
L 179.319271 -31.798995 
L 180.928664 -33.806395 
L 181.759507 -35.749592 
L 180.330226 -37.684229 
L 179.481953 -37.988121 
L 177.756358 -37.94532 
L 176.855795 -38.073725 
L 176.425848 -38.373337 
L 176.013332 -39.148047 
L 175.834808 -39.215449 
L 175.548525 -39.323534 
L 175.19992 -39.156608 
L 174.328408 -38.364776 
L 173.927512 -38.133647 
L 172.939797 -38.185009 
L 170.319449 -39.751551 
L 169.232963 -40.136767 
L 168.686815 -40.423538 
L 165.136853 -45.790872 
L 163.539079 -47.468699 
L 161.987787 -48.26909 
L 160.517835 -48.872595 
L 159.48364 -49.745749 
L 158.867771 -51.076882 
L 158.646988 -53.097123 
L 158.83872 -55.228647 
L 159.750904 -59.519518 
L 159.942637 -61.905713 
L 159.913586 -64.405333 
L 159.681183 -66.275767 
L 158.908441 -67.414292 
L 157.293238 -67.703204 
L 156.548421 -67.539818 
L 154.161602 -67.016237 
L 152.633549 -66.168763 
L 151.436672 -64.876151 
L 150.966055 -63.82537 
L 151.181028 -63.474396 
L 151.552874 -63.185484 
L 151.576114 -62.346571 
L 151.239129 -61.588981 
L 150.681361 -60.906293 
L 150.036441 -60.403373 
L 148.444478 -59.581581 
L 145.678878 -55.857832 
L 144.51686 -55.03176 
L 142.076625 -54.475337 
L 140.862317 -53.901795 
L 139.764211 -52.763269 
L 139.200633 -51.954317 
L 138.962419 -51.256649 
L 139.159962 -50.935637 
L 140.473041 -49.76715 
L 142.134726 -46.48854 
L 142.291598 -43.449619 
L 141.07148 -40.765952 
L 138.613814 -38.583065 
L 138.003755 -38.373337 
L 136.841738 -38.244932 
L 136.27816 -37.799794 
L 135.877264 -36.94804 
L 135.755252 -35.997842 
L 135.749442 -35.069045 
L 135.453128 -32.710671 
L 135.348546 -32.543745 
L 134.802398 -31.311056 
L 134.761727 -31.131288 
L 134.058707 -30.193931 
L 133.657811 -29.851517 
L 133.117473 -29.680311 
L 129.131755 -28.755794 
L 128.320962 -28.086534 
L 127.7102 -26.886705 
L 127.55751 -25.31193 
L 126.400518 -25.257466 
L 126.331294 -25.121929 
L 126.156991 -24.270175 
L 126.203472 -23.837878 
L 126.06984 -23.559667 
L 125.36682 -23.165891 
L 125.041455 -23.183012 
L 124.03631 -23.499745 
L 122.490828 -23.469784 
L 119.789138 -24.484184 
L 119.23718 -24.419981 
L 118.813044 -24.214533 
L 118.342427 -24.098969 
L 117.651027 -24.342938 
L 117.569685 -24.552667 
L 116.51225 -26.13633 
L 115.669788 -26.941002 
L 114.786655 -27.463182 
L 109.057911 -28.935561 
L 108.116677 -28.434781 
L 107.570529 -27.493144 
L 106.95466 -26.667071 
L 105.775213 -26.512985 
L 104.101908 -25.768235 
L 100.778539 -23.268615 
L 98.977413 -22.61803 
L 94.753481 -23.080288 
L 94.0156 -22.819198 
L 92.435257 -21.813358 
L 88.966636 -20.349539 
L 87.270091 -20.024246 
L 85.434104 -19.990005 
L 83.708509 -20.353819 
L 82.40124 -21.158492 
L 79.879663 -24.060447 
L 79.490387 -24.728154 
L 79.188263 -25.562787 
L 78.793177 -27.077967 
L 78.148257 -28.798596 
L 77.944904 -29.680311 
L 77.67183 -29.868638 
L 73.866225 -34.277214 
L 72.588006 -34.855037 
L 72.117389 -34.658149 
L 71.716493 -34.234412 
L 71.286547 -33.900559 
L 70.752019 -33.977602 
L 70.258162 -34.362817 
L 70.223301 -34.619627 
L 70.339503 -34.966321 
L 70.316263 -35.608347 
L 70.397604 -35.68967 
L 70.380174 -36.554264 
L 70.281402 -37.376057 
L 70.12453 -37.294734 
L 70.380174 -37.722751 
L 70.83336 -38.287733 
L 71.228446 -38.921198 
L 71.286547 -39.554664 
L 70.426654 -40.406418 
L 65.952889 -41.416538 
L 65.464841 -42.807593 
L 65.981939 -45.645346 
L 66.958033 -48.611504 
L 68.950893 -52.570662 
L 67.672674 -54.817751 
L 65.679815 -56.977097 
L 64.604949 -58.868932 
L 64.907073 -59.82555 
L 66.388645 -61.597541 
L 66.789541 -62.984316 
L 66.726476 -63.796229 
L 66.667529 -64.555139 
L 66.142326 -65.37809 
L 65.296349 -65.804948 
L 56.921111 -68.011376 
L 53.173606 -68.133361 
L 49.571353 -67.405732 
L 44.778033 -64.058639 
L 42.953666 -63.58354 
L 41.106059 -63.495796 
L 39.374654 -62.924394 
L 37.550287 -61.31291 
L 35.946704 -59.153564 
L 34.761446 -57.509978 
L 34.459322 -56.380013 
L 34.691725 -55.55394 
L 35.208823 -54.145764 
L 35.237873 -53.811911 
L 35.778211 -52.442257 
L 36.016425 -52.091283 
L 36.603243 -51.77883 
L 37.544477 -52.219688 
L 37.939563 -52.044201 
L 38.230067 -50.135245 
L 36.777546 -48.564422 
L 33.181103 -46.129005 
L 30.310921 -42.692028 
L 28.486554 -41.73327 
L 26.575036 -42.606425 
L 24.012789 -42.503701 
L 21.462161 -41.883076 
L 20.108412 -41.057003 
L 20.857912 -42.854675 
L 21.287859 -43.689308 
L 21.462161 -44.399816 
L 20.468637 -45.675307 
L 19.881818 -46.809552 
L 20.090981 -47.806832 
L 21.462161 -48.697107 
L 24.832011 -50.383495 
L 24.924972 -50.413456 
L 25.017933 -50.422016 
L 25.122515 -50.413456 
L 25.564081 -50.26793 
L 25.901066 -50.225128 
L 26.226431 -50.26365 
L 27.463979 -50.657426 
L 27.708003 -51.209567 
L 27.655712 -51.975718 
L 27.684763 -52.870274 
L 28.085658 -55.215807 
L 28.271581 -55.862113 
L 29.089878 -57.730285 
L 30.090138 -60.013878 
L 30.014607 -60.929834 
L 29.329017 -62.183924 
L 28.503985 -63.09132 
L 25.740097 -64.821225 
L 25.47112 -64.989576 
L 26.11604 -65.618761 
L 26.220621 -66.164483 
L 26.104419 -66.725185 
L 26.104419 -67.35651 
L 26.063749 -67.61118 
L 25.930117 -67.953594 
L 25.808105 -68.343089 
L 25.808105 -68.766826 
L 26.028888 -69.271886 
L 26.667998 -69.973834 
L 28.625996 -73.38941 
L 30.613046 -75.940392 
L 29.253486 -77.485533 
L 29.079183 -78.576977 
L 29.834494 -79.582817 
L 37.393415 -86.602296 
L 41.419804 -88.842965 
L 41.977572 -89.320204 
L 43.459144 -91.013012 
L 45.324181 -92.014571 
L 45.91681 -92.461849 
L 46.550109 -93.266521 
L 46.765082 -93.953489 
L 46.741842 -95.350964 
L 46.323516 -95.817503 
L 46.027202 -96.224119 
L 45.870329 -96.690658 
L 45.95167 -97.092994 
L 46.834803 -99.787361 
L 47.224079 -100.500009 
L 47.332569 -100.773817 
L 47.537824 -101.291841 
L 47.630785 -102.438926 
L 47.450672 -103.354883 
L 46.701171 -104.7973 
L 46.468768 -105.54633 
L 47.30542 -108.452566 
L 50.03035 -110.044789 
L 56.078649 -111.962305 
L 59.829059 -114.84072 
L 61.113088 -116.709014 
L 60.439118 -118.245595 
L 61.194429 -119.561748 
L 61.723147 -120.086069 
L 63.134997 -120.595409 
L 63.34416 -121.12187 
L 63.553323 -121.267396 
L 64.360925 -121.686852 
L 64.291204 -123.103589 
L 65.976129 -123.694252 
L 69.535563 -127.002974 
L 69.659723 -127.118389 
L 70.728779 -128.890379 
L 72.361413 -130.578906 
L 76.178639 -133.388838 
L 75.952045 -135.44332 
L 76.312271 -137.142548 
L 77.369706 -138.233991 
L 77.880993 -138.298194 
L 78.183118 -138.418038 
L 79.00234 -139.528742 
L 79.589159 -139.873296 
L 80.164357 -140.031662 
L 80.693075 -140.369796 
L 81.128831 -141.279332 
L 80.542013 -142.120386 
L 79.69955 -142.886536 
L 78.862898 -143.569223 
L 77.828703 -143.070583 
L 71.141295 -142.411437 
L 71.420179 -143.470779 
L 72.117389 -144.765531 
L 72.948231 -145.852694 
L 74.394942 -146.704448 
L 74.482094 -148.26671 
L 75.957855 -148.596283 
L 76.870039 -149.122744 
L 77.706691 -149.835393 
L 78.130827 -150.53306 
L 77.857753 -151.51964 
L 77.276745 -152.664585 
L 77.137303 -153.586962 
L 78.183118 -153.905835 
L 78.682785 -154.29747 
L 79.188263 -154.428015 
L 79.69955 -154.29747 
L 80.210838 -153.905835 
L 81.669169 -153.693966 
L 84.46963 -154.181906 
L 85.79433 -153.905835 
L 86.5264 -153.484238 
L 86.630465 -153.467598 
L 87.275901 -153.364393 
L 88.803954 -153.518479 
L 87.781379 -151.168666 
L 88.100933 -149.816132 
L 89.321051 -149.084223 
L 90.971115 -148.566322 
L 91.203519 -148.380135 
L 91.360391 -148.082663 
L 91.586985 -147.783051 
L 92.022741 -147.599004 
L 92.400396 -147.676047 
L 94.526888 -148.600563 
L 96.014269 -148.913016 
L 97.579131 -148.846112 
L 99.918647 -148.746089 
L 100.462385 -148.964983 
L 101.48156 -149.375274 
L 102.280648 -150.42009 
L 102.591286 -150.826252 
L 102.771398 -151.600963 
L 102.678437 -152.067501 
L 102.405363 -152.454857 
L 102.21944 -152.656025 
L 101.934746 -153.167505 
L 101.928936 -153.676845 
L 102.585476 -153.869453 
L 103.456989 -153.565561 
L 103.710372 -153.404084 
L 104.189059 -153.099022 
L 104.91532 -152.992018 
L 105.775213 -153.766729 
L 105.873984 -153.905835 
L 105.949515 -154.141244 
L 105.955325 -154.357393 
L 105.946663 -154.388341 
L 105.897224 -154.564981 
L 105.496328 -155.127823 
L 105.374317 -155.461676 
L 105.449848 -155.722767 
L 105.775213 -155.898254 
L 106.356221 -155.774129 
L 106.809408 -155.923935 
L 107.053431 -156.396894 
L 107.036001 -157.225107 
L 106.844268 -157.220827 
L 105.908844 -157.935615 
L 105.775213 -157.991257 
L 107.919309 -159.742943 
L 108.227068 -159.994377 
L 109.575008 -160.743407 
L 111.551776 -161.487522 
L 111.58245 -161.499069 
L 114.44967 -162.357031 
L 115.722078 -162.489716 
L 114.984198 -160.415974 
L 114.385759 -159.840291 
L 113.061425 -159.851859 
L 112.915807 -159.853131 
L 115.004462 -158.751444 
L 115.82085 -158.32083 
L 117.058398 -158.156044 
L 119.52532 -158.666745 
L 121.741327 -159.125502 
L 122.798762 -159.724726 
L 123.693515 -160.792629 
L 124.71609 -162.386992 
L 125.506262 -161.984656 
L 129.131755 -161.766367 
L 129.47455 -161.411113 
L 129.654663 -160.634262 
L 129.765054 -159.857411 
L 129.916116 -159.506437 
L 137.231014 -159.506437 
L 139.758401 -160.07142 
L 140.304549 -160.441655 
L 140.554382 -160.801189 
L 140.780976 -161.220646 
L 141.257403 -161.766367 
L 141.716399 -162.121622 
L 142.936517 -162.778628 
L 143.964902 -163.08466 
L 144.348368 -163.489136 
L 144.627252 -163.893612 
L 144.917756 -164.08194 
L 147.950621 -164.59128 
L 148.967386 -164.59556 
L 150.425717 -164.150422 
L 151.076447 -164.08194 
L 151.378571 -163.722405 
L 151.680695 -162.924153 
L 152.075781 -162.125902 
L 152.627739 -161.766367 
L 154.760041 -161.201385 
L 158.356483 -161.179984 
L 158.526853 -161.208624 
L 160.087889 -161.471036 
L 160.15761 -161.864811 
L 160.814149 -163.281548 
L 162.533935 -164.415793 
L 164.218859 -164.587 
L 165.084562 -163.778048 
L 165.752722 -162.656643 
L 165.869721 -162.513259 
L 166.374401 -161.894773 
L 167.129712 -162.147303 
L 167.25186 -162.360836 
L 167.495747 -162.787188 
L 167.559658 -163.407813 
L 167.530608 -163.996336 
L 167.600329 -164.561319 
L 167.577089 -164.84595 
L 167.443457 -165.169103 
L 167.350495 -165.545758 
L 167.478317 -166.003736 
L 167.68167 -166.179223 
L 167.977984 -166.290508 
L 168.222008 -166.299068 
L 168.274299 -166.166383 
L 168.309159 -165.657042 
L 168.675195 -165.472995 
L 168.994749 -167.435453 
L 168.483462 -167.484675 
L 168.223459 -167.590948 
L 167.582899 -167.85277 
L 166.798537 -167.985455 
L 164.067797 -167.523197 
L 163.225335 -167.1016 
L 162.446783 -166.547318 
L 161.615941 -166.119301 
L 160.616607 -166.076499 
L 159.45459 -166.735645 
L 158.013688 -167.829229 
L 157.734804 -167.87203 
L 156.851671 -168.195183 
L 157.211897 -169.091879 
L 157.072455 -169.798107 
L 156.834241 -170.403751 
L 156.898152 -171.015816 
L 157.45011 -171.642861 
L 158.873581 -172.419711 
L 159.47202 -172.976134 
L 159.896156 -174.632559 
L 160.15761 -175.236064 
L 160.918731 -176.348908 
L 161.360297 -176.609998 
L 161.987787 -176.592878 
L 165.014841 -177.192101 
L 165.863113 -177.620118 
L 165.340206 -178.92557 
L 166.234959 -179.434911 
L 167.635189 -179.357868 
L 168.675195 -178.891329 
L 168.762346 -178.287825 
L 168.814637 -177.217782 
L 169.01218 -176.211942 
L 169.564138 -175.803186 
L 170.261348 -176.256884 
L 170.551852 -178.063116 
L 171.06314 -178.593857 
L 171.7894 -178.354168 
L 172.329738 -177.538795 
L 172.771305 -176.580037 
L 173.189631 -175.920891 
L 173.770639 -175.790346 
L 174.392318 -175.918751 
L 174.944277 -175.811746 
L 175.316122 -174.974973 
L 175.16506 -174.662521 
L 174.415559 -173.543256 
L 174.229636 -173.001815 
L 174.46785 -172.325548 
L 174.915226 -171.775546 
L 175.054668 -171.144221 
L 175.16506 -170.604919 
L 178.134013 -170.647721 
L 177.675017 -171.159201 
L 178.180494 -172.783526 
L 179.691116 -172.715043 
L 181.527103 -171.651421 
L 182.979624 -170.283906 
L 181.945429 -170.044217 
L 181.951239 -169.468534 
L 182.746664 -168.677063 
L 182.787892 -168.636041 
L 184.420525 -167.422613 
L 185.797516 -167.063078 
L 187.999538 -167.270666 
L 190.044688 -167.921252 
L 190.939441 -168.888571 
L 192.002687 -169.308028 
L 198.271769 -168.60608 
L 201.380164 -168.60608 
L 202.141285 -167.422613 
L 204.244536 -167.424753 
L 206.429128 -166.921833 
L 221.847513 -157.351834 
L 222.161025 -155.889471 
L 222.26742 -155.393194 
L 223.929105 -152.893574 
L 226.020735 -151.939096 
L 227.630129 -150.52236 
L 227.583648 -147.01262 
L 227.0375 -145.75425 
L 224.858718 -142.999961 
L 224.597265 -142.257351 
L 224.30676 -140.797813 
L 224.091787 -140.22855 
L 222.174459 -137.912978 
L 220.367523 -134.844096 
L 219.437909 -133.264713 
L 218.467625 -130.471902 
L 218.333993 -127.683371 
L 218.763939 -126.313717 
L 219.373998 -125.119549 
L 219.844615 -123.792696 
L 219.873665 -122.024986 
L 219.339137 -120.920702 
L 218.479245 -120.030426 
L 217.822705 -119.142291 
L 217.886616 -118.36972 
L 219.153215 -117.993065 
L 222.586975 -117.417382 
L 223.743182 -117.787617 
L 224.794807 -117.507266 
L 227.740521 -117.875361 
L 228.681754 -117.731975 
L 239.30259 -114.359201 
L 239.209629 -113.415423 
L 239.447842 -113.209975 
L 239.796447 -113.237796 
L 240.011421 -112.980986 
L 240.011421 -112.493046 
L 239.779017 -111.701215 
L 239.639575 -109.758018 
L 239.459462 -108.865602 
L 239.552424 -108.088751 
L 240.267064 -107.06579 
L 241.661485 -105.987188 
L 247.674923 -104.02901 
L 249.847895 -101.942427 
L 251.114493 -101.201957 
L 253.543109 -100.414406 
L 254.323827 -100.384211 
L 254.705126 -100.369464 
L 256.157647 -100.786781 
L 258.609503 -102.047291 
L 259.184702 -102.892624 
L 259.335764 -103.52609 
L 259.382245 -104.223757 
L 259.649508 -105.272399 
L 260.503591 -106.725517 
L 261.415774 -106.896724 
L 262.50807 -106.607812 
L 263.908301 -106.674155 
L 263.937351 -108.221436 
L 264.919256 -110.121832 
L 266.336917 -111.761137 
L 267.969551 -112.704915 
L 268.277485 -112.766977 
L 268.59123 -112.704915 
L 268.887544 -112.510167 
L 268.893354 -112.510167 
L 268.893354 -112.497327 
L 269.474363 -111.868142 
L 270.648 -109.963466 
L 272.559518 -108.431165 
L 273.059185 -107.827661 
L 273.361309 -106.430185 
L 272.664099 -103.615973 
L 272.797731 -101.848263 
" style="stroke: #aaaaaa"/>
    </defs>
    <g clip-path="url(#pe61c19729e)">
     <use xlink:href="#m367000fc13" x="0" y="209.954698" style="fill: #aaaaaa; stroke: #aaaaaa"/>
    </g>
   </g>
   <g id="PathCollection_1">
    <defs>
     <path id="m7be4563822" d="M 0 1.581139 
C 0.419323 1.581139 0.821528 1.41454 1.118034 1.118034 
C 1.41454 0.821528 1.581139 0.419323 1.581139 0 
C 1.581139 -0.419323 1.41454 -0.821528 1.118034 -1.118034 
C 0.821528 -1.41454 0.419323 -1.581139 0 -1.581139 
C -0.419323 -1.581139 -0.821528 -1.41454 -1.118034 -1.118034 
C -1.41454 -0.821528 -1.581139 -0.419323 -1.581139 0 
C -1.581139 0.419323 -1.41454 0.821528 -1.118034 1.118034 
C -0.821528 1.41454 -0.419323 1.581139 0 1.581139 
z
" style="stroke: #1f77b4; stroke-opacity: 0.5"/>
    </defs>
    <g clip-path="url(#pe61c19729e)">
     <use xlink:href="#m7be4563822" x="162.86297" y="47.757916" style="fill: #1f77b4; fill-opacity: 0.5; stroke: #1f77b4; stroke-opacity: 0.5"/>
     <use xlink:href="#m7be4563822" x="172.463297" y="61.530422" style="fill: #1f77b4; fill-opacity: 0.5; stroke: #1f77b4; stroke-opacity: 0.5"/>
     <use xlink:href="#m7be4563822" x="171.423807" y="63.024496" style="fill: #1f77b4; fill-opacity: 0.5; stroke: #1f77b4; stroke-opacity: 0.5"/>
     <use xlink:href="#m7be4563822" x="121.765945" y="77.27252" style="fill: #1f77b4; fill-opacity: 0.5; stroke: #1f77b4; stroke-opacity: 0.5"/>
     <use xlink:href="#m7be4563822" x="100.058288" y="102.613227" style="fill: #1f77b4; fill-opacity: 0.5; stroke: #1f77b4; stroke-opacity: 0.5"/>
     <use xlink:href="#m7be4563822" x="98.652412" y="104.174723" style="fill: #1f77b4; fill-opacity: 0.5; stroke: #1f77b4; stroke-opacity: 0.5"/>
     <use xlink:href="#m7be4563822" x="117.209354" y="78.014853" style="fill: #1f77b4; fill-opacity: 0.5; stroke: #1f77b4; stroke-opacity: 0.5"/>
     <use xlink:href="#m7be4563822" x="115.823605" y="78.814601" style="fill: #1f77b4; fill-opacity: 0.5; stroke: #1f77b4; stroke-opacity: 0.5"/>
     <use xlink:href="#m7be4563822" x="115.037943" y="77.690972" style="fill: #1f77b4; fill-opacity: 0.5; stroke: #1f77b4; stroke-opacity: 0.5"/>
     <use xlink:href="#m7be4563822" x="151.45854" y="77.499424" style="fill: #1f77b4; fill-opacity: 0.5; stroke: #1f77b4; stroke-opacity: 0.5"/>
     <use xlink:href="#m7be4563822" x="151.714077" y="80.516235" style="fill: #1f77b4; fill-opacity: 0.5; stroke: #1f77b4; stroke-opacity: 0.5"/>
     <use xlink:href="#m7be4563822" x="139.546009" y="85.97706" style="fill: #1f77b4; fill-opacity: 0.5; stroke: #1f77b4; stroke-opacity: 0.5"/>
     <use xlink:href="#m7be4563822" x="186.066583" y="81.635278" style="fill: #1f77b4; fill-opacity: 0.5; stroke: #1f77b4; stroke-opacity: 0.5"/>
     <use xlink:href="#m7be4563822" x="128.280102" y="68.96809" style="fill: #1f77b4; fill-opacity: 0.5; stroke: #1f77b4; stroke-opacity: 0.5"/>
     <use xlink:href="#m7be4563822" x="214.2426" y="96.653497" style="fill: #1f77b4; fill-opacity: 0.5; stroke: #1f77b4; stroke-opacity: 0.5"/>
     <use xlink:href="#m7be4563822" x="196.278864" y="58.307344" style="fill: #1f77b4; fill-opacity: 0.5; stroke: #1f77b4; stroke-opacity: 0.5"/>
     <use xlink:href="#m7be4563822" x="154.017255" y="61.470476" style="fill: #1f77b4; fill-opacity: 0.5; stroke: #1f77b4; stroke-opacity: 0.5"/>
     <use xlink:href="#m7be4563822" x="148.540197" y="72.832515" style="fill: #1f77b4; fill-opacity: 0.5; stroke: #1f77b4; stroke-opacity: 0.5"/>
     <use xlink:href="#m7be4563822" x="185.718653" y="54.477328" style="fill: #1f77b4; fill-opacity: 0.5; stroke: #1f77b4; stroke-opacity: 0.5"/>
     <use xlink:href="#m7be4563822" x="190.075757" y="61.153686" style="fill: #1f77b4; fill-opacity: 0.5; stroke: #1f77b4; stroke-opacity: 0.5"/>
     <use xlink:href="#m7be4563822" x="194.166175" y="47.139645" style="fill: #1f77b4; fill-opacity: 0.5; stroke: #1f77b4; stroke-opacity: 0.5"/>
    </g>
   </g>
   <g id="text_1">
    <text style="font: 12px 'DejaVu Sans', 'Bitstream Vera Sans', 'Computer Modern Sans Serif', 'Lucida Grande', 'Verdana', 'Geneva', 'Lucid', 'Arial', 'Helvetica', 'Avant Garde', sans-serif; text-anchor: middle" x="146.7" y="16.318125" transform="rotate(-0 146.7 16.318125)">-wang 21x</text>
   </g>
  </g>
 </g>
 <defs>
  <clipPath id="pe61c19729e">
   <rect x="7.2" y="22.318125" width="279" height="180.436573"/>
  </clipPath>
 </defs>
</svg>
