<?xml version="1.0" encoding="utf-8" standalone="no"?>
<!DOCTYPE svg PUBLIC "-//W3C//DTD SVG 1.1//EN"
  "http://www.w3.org/Graphics/SVG/1.1/DTD/svg11.dtd">
<svg xmlns:xlink="http://www.w3.org/1999/xlink" width="293.4pt" height="209.238265pt" viewBox="0 0 293.4 209.238265" xmlns="http://www.w3.org/2000/svg" version="1.1">
 <metadata>
  <rdf:RDF xmlns:dc="http://purl.org/dc/elements/1.1/" xmlns:cc="http://creativecommons.org/ns#" xmlns:rdf="http://www.w3.org/1999/02/22-rdf-syntax-ns#">
   <cc:Work>
    <dc:type rdf:resource="http://purl.org/dc/dcmitype/StillImage"/>
    <dc:date>2024-08-06T14:07:37.492784</dc:date>
    <dc:format>image/svg+xml</dc:format>
    <dc:creator>
     <cc:Agent>
      <dc:title>Matplotlib v3.9.1, https://matplotlib.org/</dc:title>
     </cc:Agent>
    </dc:creator>
   </cc:Work>
  </rdf:RDF>
 </metadata>
 <defs>
  <style type="text/css">*{stroke-linejoin: round; stroke-linecap: butt}</style>
 </defs>
 <g id="figure_1">
  <g id="patch_1">
   <path d="M 0 209.238265 
L 293.4 209.238265 
L 293.4 0 
L 0 0 
z
" style="fill: #ffffff"/>
  </g>
  <g id="axes_1">
   <g id="PatchCollection_1">
    <defs>
     <path id="mdbe1ce59fd" d="M 272.797731 -101.472457 
L 272.501417 -98.816498 
L 272.298064 -98.074706 
L 271.966889 -97.550335 
L 270.740961 -96.062487 
L 270.845543 -94.834692 
L 271.246439 -93.634608 
L 271.385881 -92.498472 
L 270.706101 -91.456125 
L 269.753247 -90.840097 
L 269.526653 -90.085514 
L 269.578944 -89.145484 
L 269.456932 -87.975242 
L 268.916594 -87.001107 
L 268.306535 -86.41492 
L 268.039272 -85.630496 
L 268.509888 -84.053121 
L 269.526653 -82.859432 
L 271.920408 -82.599378 
L 273.094046 -81.601795 
L 273.518182 -80.01163 
L 273.477511 -77.882174 
L 273.030135 -75.837981 
L 272.686514 -75.260876 
L 272.245773 -74.52066 
L 271.229008 -74.322422 
L 267.202619 -75.394611 
L 265.24462 -75.207031 
L 264.52417 -75.3264 
L 263.890871 -75.622691 
L 263.536455 -76.002114 
L 263.240141 -76.417773 
L 262.798575 -76.814249 
L 260.480351 -77.619989 
L 260.230517 -78.515256 
L 260.538451 -80.209868 
L 260.42806 -81.141372 
L 259.533307 -81.883164 
L 258.086596 -81.870375 
L 252.764558 -80.32071 
L 252.22422 -80.020157 
L 251.980196 -79.410522 
L 251.288796 -76.720459 
L 250.823989 -76.089509 
L 249.609681 -74.861714 
L 249.127444 -74.128448 
L 249.051913 -73.535866 
L 249.040293 -71.724017 
L 248.796269 -70.845803 
L 248.86599 -70.082694 
L 248.999622 -69.483718 
L 249.272696 -69.021163 
L 249.760744 -68.684372 
L 248.767219 -66.974839 
L 249.650352 -65.857887 
L 251.300416 -65.205621 
L 253.816183 -64.711093 
L 254.786467 -64.314617 
L 255.198983 -63.398035 
L 254.774847 -61.598974 
L 254.368141 -61.044762 
L 253.188694 -59.970441 
L 252.764558 -59.168964 
L 252.479863 -58.052012 
L 252.445003 -57.29743 
L 252.671596 -56.602533 
L 253.182884 -55.681687 
L 255.501108 -53.281519 
L 256.221558 -51.810723 
L 255.483677 -50.233348 
L 253.914954 -49.227239 
L 251.54444 -48.310656 
L 249.685212 -48.349024 
L 249.638732 -50.212032 
L 249.069343 -51.614617 
L 246.849891 -53.61831 
L 246.024859 -54.752314 
L 245.658823 -56.559901 
L 245.635583 -58.192697 
L 245.263738 -59.535597 
L 243.857697 -60.473496 
L 242.70149 -60.778313 
L 241.609194 -60.861445 
L 239.157338 -60.432996 
L 235.415643 -58.480461 
L 234.247816 -58.094644 
L 233.527365 -58.252382 
L 232.156185 -59.092227 
L 231.551937 -59.107148 
L 230.941878 -58.405856 
L 230.831486 -57.463694 
L 230.918637 -56.527927 
L 230.895397 -55.877793 
L 230.035504 -54.667051 
L 228.978069 -54.232207 
L 222.534684 -54.308944 
L 221.227415 -54.794946 
L 220.036348 -55.617739 
L 219.321707 -56.619585 
L 218.200361 -59.595282 
L 217.700693 -60.013073 
L 216.457335 -60.714365 
L 216.050629 -61.119367 
L 215.940238 -61.581922 
L 216.021579 -62.839559 
L 215.684594 -70.752013 
L 215.504481 -71.269988 
L 215.062915 -71.169804 
L 214.156542 -70.491959 
L 213.773076 -69.965457 
L 213.575533 -69.37927 
L 213.302459 -68.884742 
L 212.6924 -68.637478 
L 212.268264 -68.825057 
L 210.833173 -70.210589 
L 210.792502 -71.23162 
L 209.676966 -71.532174 
L 206.940416 -71.19112 
L 205.86555 -70.180747 
L 204.889456 -68.194107 
L 204.447889 -66.173362 
L 204.988227 -65.058541 
L 205.737728 -64.532039 
L 205.84812 -63.704983 
L 205.702868 -62.664768 
L 205.708678 -61.486 
L 206.463989 -58.55933 
L 206.53952 -57.497799 
L 206.190915 -55.681687 
L 204.546661 -52.185883 
L 203.710008 -49.231502 
L 203.198721 -48.395919 
L 202.547991 -47.777759 
L 201.874021 -47.453757 
L 201.263962 -46.993334 
L 200.950218 -46.174805 
L 200.688764 -45.224117 
L 200.277789 -44.430551 
L 200.247198 -44.371481 
L 196.162708 -41.557785 
L 195.122702 -39.967621 
L 194.901919 -38.901827 
L 195.023931 -37.043082 
L 194.843818 -36.028447 
L 194.396442 -35.256812 
L 193.861914 -34.937074 
L 192.630176 -34.540598 
L 191.189275 -33.40233 
L 190.945251 -32.464432 
L 191.944586 -29.591051 
L 190.096979 -27.847412 
L 189.974967 -27.64278 
L 189.934296 -27.429621 
L 189.974967 -27.220726 
L 190.096979 -27.01183 
L 190.701228 -26.385143 
L 191.166034 -24.884505 
L 191.677322 -24.108607 
L 192.22347 -23.788869 
L 193.449398 -23.537342 
L 193.978116 -23.192025 
L 194.617225 -21.823545 
L 194.402252 -20.42096 
L 193.002021 -17.62858 
L 191.206705 -15.369097 
L 189.51597 -15.693099 
L 187.674173 -16.532944 
L 185.448911 -15.838047 
L 185.658074 -17.108473 
L 185.995059 -18.089003 
L 186.221652 -19.112165 
L 186.128691 -20.540329 
L 185.814946 -21.618913 
L 185.344329 -22.697496 
L 184.368235 -24.475241 
L 183.816277 -25.792562 
L 183.450241 -26.316932 
L 183.072586 -26.619618 
L 179.847988 -28.388836 
L 178.988096 -28.700048 
L 178.023622 -28.763995 
L 178.116583 -28.98568 
L 178.331556 -29.382156 
L 179.319271 -31.701323 
L 180.928664 -33.700753 
L 181.759507 -35.636234 
L 180.330226 -37.56319 
L 179.481953 -37.865875 
L 177.756358 -37.823244 
L 176.855795 -37.951139 
L 176.425848 -38.249561 
L 176.013332 -39.021196 
L 175.834808 -39.08833 
L 175.548525 -39.195986 
L 175.19992 -39.029722 
L 174.328408 -38.241035 
L 173.927512 -38.010823 
L 172.939797 -38.061981 
L 170.319449 -39.622304 
L 169.232963 -40.00599 
L 168.686815 -40.291622 
L 165.136853 -45.637645 
L 163.539079 -47.30881 
L 161.987787 -48.106023 
L 160.517835 -48.707131 
L 159.48364 -49.576819 
L 158.867771 -50.902667 
L 158.646988 -52.914886 
L 158.83872 -55.037947 
L 159.750904 -59.311781 
L 159.942637 -61.688501 
L 159.913586 -64.178196 
L 159.681183 -66.041204 
L 158.908441 -67.175208 
L 157.293238 -67.462973 
L 156.548421 -67.300235 
L 154.161602 -66.778733 
L 152.633549 -65.934624 
L 151.436672 -64.647145 
L 150.966055 -63.600535 
L 151.181028 -63.250955 
L 151.552874 -62.963191 
L 151.576114 -62.127608 
L 151.239129 -61.373026 
L 150.681361 -60.69305 
L 150.036441 -60.192126 
L 148.444478 -59.373597 
L 145.678878 -55.664634 
L 144.51686 -54.841841 
L 142.076625 -54.287628 
L 140.862317 -53.716363 
L 139.764211 -52.582358 
L 139.200633 -51.776618 
L 138.962419 -51.08172 
L 139.159962 -50.761982 
L 140.473041 -49.598135 
L 142.134726 -46.332542 
L 142.291598 -43.305688 
L 141.07148 -40.632676 
L 138.613814 -38.458457 
L 138.003755 -38.249561 
L 136.841738 -38.121666 
L 136.27816 -37.678296 
L 135.877264 -36.829924 
L 135.755252 -35.883499 
L 135.749442 -34.95839 
L 135.453128 -32.60938 
L 135.348546 -32.443116 
L 134.802398 -31.215321 
L 134.761727 -31.036268 
L 134.058707 -30.102632 
L 133.657811 -29.761578 
L 133.117473 -29.591051 
L 129.131755 -28.670205 
L 128.320962 -28.003603 
L 127.7102 -26.808538 
L 127.55751 -25.240016 
L 126.400518 -25.185768 
L 126.331294 -25.050769 
L 126.156991 -24.202397 
L 126.203472 -23.771816 
L 126.06984 -23.49471 
L 125.36682 -23.102498 
L 125.041455 -23.119551 
L 124.03631 -23.435026 
L 122.490828 -23.405183 
L 119.789138 -24.415556 
L 119.23718 -24.351608 
L 118.813044 -24.146976 
L 118.342427 -24.03187 
L 117.651027 -24.274871 
L 117.569685 -24.483767 
L 116.51225 -26.061142 
L 115.669788 -26.862619 
L 114.786655 -27.382726 
L 109.057911 -28.849259 
L 108.116677 -28.350467 
L 107.570529 -27.412569 
L 106.95466 -26.589776 
L 105.775213 -26.436301 
L 104.101908 -25.694509 
L 100.778539 -23.204814 
L 98.977413 -22.556811 
L 94.753481 -23.017234 
L 94.0156 -22.757181 
L 92.435257 -21.755334 
L 88.966636 -20.297328 
L 87.270091 -19.973327 
L 85.434104 -19.939222 
L 83.708509 -20.301592 
L 82.40124 -21.103069 
L 79.879663 -23.993502 
L 79.490387 -24.658557 
L 79.188263 -25.489876 
L 78.793177 -26.999041 
L 78.148257 -28.712837 
L 77.944904 -29.591051 
L 77.67183 -29.778631 
L 73.866225 -34.169702 
L 72.588006 -34.745231 
L 72.117389 -34.549125 
L 71.716493 -34.12707 
L 71.286547 -33.794543 
L 70.752019 -33.87128 
L 70.258162 -34.254966 
L 70.223301 -34.510756 
L 70.339503 -34.856073 
L 70.316263 -35.49555 
L 70.397604 -35.57655 
L 70.380174 -36.437711 
L 70.281402 -37.256241 
L 70.12453 -37.175241 
L 70.380174 -37.601559 
L 70.83336 -38.164298 
L 71.228446 -38.795248 
L 71.286547 -39.426198 
L 70.426654 -40.27457 
L 65.952889 -41.280679 
L 65.464841 -42.666211 
L 65.981939 -45.492697 
L 66.958033 -48.447077 
L 68.950893 -52.390515 
L 67.672674 -54.628682 
L 65.679815 -56.779454 
L 64.604949 -58.663778 
L 64.907073 -59.616598 
L 66.388645 -61.381553 
L 66.789541 -62.762821 
L 66.726476 -63.571511 
L 66.667529 -64.327407 
L 66.142326 -65.14709 
L 65.296349 -65.572254 
L 56.921111 -67.769921 
L 53.173606 -67.891422 
L 49.571353 -67.166682 
L 44.778033 -63.832878 
L 42.953666 -63.359666 
L 41.106059 -63.272271 
L 39.374654 -62.703137 
L 37.550287 -61.098051 
L 35.946704 -58.947279 
L 34.761446 -57.31022 
L 34.459322 -56.184741 
L 34.691725 -55.361948 
L 35.208823 -53.959364 
L 35.237873 -53.626836 
L 35.778211 -52.26262 
L 36.016425 -51.913039 
L 36.603243 -51.601827 
L 37.544477 -52.040935 
L 37.939563 -51.866144 
L 38.230067 -49.964768 
L 36.777546 -48.400183 
L 33.181103 -45.974436 
L 30.310921 -42.551105 
L 28.486554 -41.596154 
L 26.575036 -42.465842 
L 24.012789 -42.363526 
L 21.462161 -41.745365 
L 20.108412 -40.922572 
L 20.857912 -42.713106 
L 21.287859 -43.544425 
L 21.462161 -44.252113 
L 20.468637 -45.522539 
L 19.881818 -46.65228 
L 20.090981 -47.6456 
L 21.462161 -48.532341 
L 24.832011 -50.212032 
L 24.924972 -50.241874 
L 25.017933 -50.250401 
L 25.122515 -50.241874 
L 25.564081 -50.096926 
L 25.901066 -50.054295 
L 26.226431 -50.092663 
L 27.463979 -50.484875 
L 27.708003 -51.034825 
L 27.655712 -51.797934 
L 27.684763 -52.688937 
L 28.085658 -55.025158 
L 28.271581 -55.668897 
L 29.089878 -57.529651 
L 30.090138 -59.804178 
L 30.014607 -60.716497 
L 29.329017 -61.965608 
L 28.503985 -62.869401 
L 25.740097 -64.592436 
L 25.47112 -64.760119 
L 26.11604 -65.386806 
L 26.220621 -65.930361 
L 26.104419 -66.488837 
L 26.104419 -67.117655 
L 26.063749 -67.371314 
L 25.930117 -67.712368 
L 25.808105 -68.100317 
L 25.808105 -68.522372 
L 26.028888 -69.025427 
L 26.667998 -69.724587 
L 28.625996 -73.126601 
L 30.613046 -75.667454 
L 29.253486 -77.206461 
L 29.079183 -78.29357 
L 29.834494 -79.295417 
L 37.393415 -86.287025 
L 41.419804 -88.518797 
L 41.977572 -88.994141 
L 43.459144 -90.680227 
L 45.324181 -91.677811 
L 45.91681 -92.123312 
L 46.550109 -92.924789 
L 46.765082 -93.609029 
L 46.741842 -95.000956 
L 46.323516 -95.465642 
L 46.027202 -95.870644 
L 45.870329 -96.33533 
L 45.95167 -96.736068 
L 46.834803 -99.419738 
L 47.224079 -100.129556 
L 47.332569 -100.402277 
L 47.537824 -100.918244 
L 47.630785 -102.060775 
L 47.450672 -102.973095 
L 46.701171 -104.409785 
L 46.468768 -105.155841 
L 47.30542 -108.050537 
L 50.03035 -109.636438 
L 56.078649 -111.546341 
L 59.829059 -114.413326 
L 61.113088 -116.274203 
L 60.439118 -117.804683 
L 61.194429 -119.115609 
L 61.723147 -119.637848 
L 63.134997 -120.145166 
L 63.34416 -120.669537 
L 63.553323 -120.814485 
L 64.360925 -121.232276 
L 64.291204 -122.643387 
L 65.976129 -123.231705 
L 69.535563 -126.52729 
L 69.659723 -126.642246 
L 70.728779 -128.407201 
L 72.361413 -130.089024 
L 76.178639 -132.887798 
L 75.952045 -134.934123 
L 76.312271 -136.626603 
L 77.369706 -137.713713 
L 77.880993 -137.777661 
L 78.183118 -137.89703 
L 79.00234 -139.003324 
L 79.589159 -139.346509 
L 80.164357 -139.504247 
L 80.693075 -139.841038 
L 81.128831 -140.746963 
L 80.542013 -141.584677 
L 79.69955 -142.347785 
L 78.862898 -143.027762 
L 77.828703 -142.531102 
L 71.141295 -141.874573 
L 71.420179 -142.929709 
L 72.117389 -144.219319 
L 72.948231 -145.302166 
L 74.394942 -146.150538 
L 74.482094 -147.706597 
L 75.957855 -148.034862 
L 76.870039 -148.559232 
L 77.706691 -149.269051 
L 78.130827 -149.963949 
L 77.857753 -150.946611 
L 77.276745 -152.08701 
L 77.137303 -153.005724 
L 78.183118 -153.323331 
L 78.682785 -153.713412 
L 79.188263 -153.843439 
L 79.69955 -153.713412 
L 80.210838 -153.323331 
L 81.669169 -153.112304 
L 84.46963 -153.598306 
L 85.79433 -153.323331 
L 86.5264 -152.903408 
L 86.630465 -152.886834 
L 87.275901 -152.784039 
L 88.803954 -152.937514 
L 87.781379 -150.59703 
L 88.100933 -149.249867 
L 89.321051 -148.520864 
L 90.971115 -148.005019 
L 91.203519 -147.819571 
L 91.360391 -147.523281 
L 91.586985 -147.224858 
L 92.022741 -147.041542 
L 92.400396 -147.118279 
L 94.526888 -148.039125 
L 96.014269 -148.350337 
L 97.579131 -148.283699 
L 99.918647 -148.184073 
L 100.462385 -148.402097 
L 101.48156 -148.81076 
L 102.280648 -149.851427 
L 102.591286 -150.255976 
L 102.771398 -151.027611 
L 102.678437 -151.492297 
L 102.405363 -151.878114 
L 102.21944 -152.078484 
L 101.934746 -152.587933 
L 101.928936 -153.095251 
L 102.585476 -153.287094 
L 103.456989 -152.984409 
L 103.710372 -152.823572 
L 104.189059 -152.519722 
L 104.91532 -152.413143 
L 105.775213 -153.184778 
L 105.873984 -153.323331 
L 105.949515 -153.557806 
L 105.955325 -153.773096 
L 105.946663 -153.803921 
L 105.897224 -153.97986 
L 105.496328 -154.540468 
L 105.374317 -154.872995 
L 105.449848 -155.133049 
L 105.775213 -155.307839 
L 106.356221 -155.184207 
L 106.809408 -155.333418 
L 107.053431 -155.804499 
L 107.036001 -156.629424 
L 106.844268 -156.625161 
L 105.908844 -157.337111 
L 105.775213 -157.392532 
L 107.919309 -159.137263 
L 108.227068 -159.387698 
L 109.575008 -160.133754 
L 111.551776 -160.874915 
L 111.58245 -160.886416 
L 114.44967 -161.740971 
L 115.722078 -161.87313 
L 114.984198 -159.807621 
L 114.385759 -159.234224 
L 113.061425 -159.245747 
L 112.915807 -159.247014 
L 115.004462 -158.149701 
L 115.82085 -157.720797 
L 117.058398 -157.556664 
L 119.52532 -158.065338 
L 121.741327 -158.522274 
L 122.798762 -159.119118 
L 123.693515 -160.182781 
L 124.71609 -161.770814 
L 125.506262 -161.370075 
L 129.131755 -161.152653 
L 129.47455 -160.79881 
L 129.654663 -160.025043 
L 129.765054 -159.251277 
L 129.916116 -158.901696 
L 137.231014 -158.901696 
L 139.758401 -159.464436 
L 140.304549 -159.8332 
L 140.554382 -160.191307 
L 140.780976 -160.609098 
L 141.257403 -161.152653 
L 141.716399 -161.506497 
L 142.936517 -162.160894 
L 143.964902 -162.465711 
L 144.348368 -162.868581 
L 144.627252 -163.271451 
L 144.917756 -163.459031 
L 147.950621 -163.966349 
L 148.967386 -163.970612 
L 150.425717 -163.527242 
L 151.076447 -163.459031 
L 151.378571 -163.100924 
L 151.680695 -162.305842 
L 152.075781 -161.51076 
L 152.627739 -161.152653 
L 154.760041 -160.589914 
L 158.356483 -160.568598 
L 158.526853 -160.597124 
L 160.087889 -160.858494 
L 160.15761 -161.250706 
L 160.814149 -162.661817 
L 162.533935 -163.791559 
L 164.218859 -163.962086 
L 165.084562 -163.156346 
L 165.752722 -162.039394 
L 165.869721 -161.89658 
L 166.374401 -161.280548 
L 167.129712 -161.532076 
L 167.25186 -161.744762 
L 167.495747 -162.169421 
L 167.559658 -162.787581 
L 167.530608 -163.373768 
L 167.600329 -163.936507 
L 167.577089 -164.220008 
L 167.443457 -164.541878 
L 167.350495 -164.917037 
L 167.478317 -165.373197 
L 167.68167 -165.547987 
L 167.977984 -165.65883 
L 168.222008 -165.667356 
L 168.274299 -165.535198 
L 168.309159 -165.02788 
L 168.675195 -164.844563 
L 168.994749 -166.799229 
L 168.483462 -166.848256 
L 168.223459 -166.954107 
L 167.582899 -167.214889 
L 166.798537 -167.347047 
L 164.067797 -166.886624 
L 163.225335 -166.466702 
L 162.446783 -165.91462 
L 161.615941 -165.488303 
L 160.616607 -165.445671 
L 159.45459 -166.1022 
L 158.013688 -167.191441 
L 157.734804 -167.234073 
L 156.851671 -167.555943 
L 157.211897 -168.449078 
L 157.072455 -169.152502 
L 156.834241 -169.755742 
L 156.898152 -170.365376 
L 157.45011 -170.989931 
L 158.873581 -171.763697 
L 159.47202 -172.31791 
L 159.896156 -173.967759 
L 160.15761 -174.568867 
L 160.918731 -175.677293 
L 161.360297 -175.937347 
L 161.987787 -175.920294 
L 165.014841 -176.517138 
L 165.863113 -176.943456 
L 165.340206 -178.243724 
L 166.234959 -178.751042 
L 167.635189 -178.674305 
L 168.675195 -178.209619 
L 168.762346 -177.608511 
L 168.814637 -176.542717 
L 169.01218 -175.540871 
L 169.564138 -175.133738 
L 170.261348 -175.585634 
L 170.551852 -177.384695 
L 171.06314 -177.913328 
L 171.7894 -177.674591 
L 172.329738 -176.862456 
L 172.771305 -175.907504 
L 173.189631 -175.250975 
L 173.770639 -175.120948 
L 174.392318 -175.248844 
L 174.944277 -175.142264 
L 175.316122 -174.308813 
L 175.16506 -173.997602 
L 174.415559 -172.882781 
L 174.229636 -172.343489 
L 174.46785 -171.669908 
L 174.915226 -171.12209 
L 175.054668 -170.493271 
L 175.16506 -169.956111 
L 178.134013 -169.998743 
L 177.675017 -170.508192 
L 178.180494 -172.126067 
L 179.691116 -172.057857 
L 181.527103 -170.998457 
L 182.979624 -169.636373 
L 181.945429 -169.397635 
L 181.951239 -168.824238 
L 182.746664 -168.03591 
L 182.787892 -167.99505 
L 184.420525 -166.78644 
L 185.797516 -166.428333 
L 187.999538 -166.635097 
L 190.044688 -167.2831 
L 190.939441 -168.246578 
L 192.002687 -168.664369 
L 198.271769 -167.965208 
L 201.380164 -167.965208 
L 202.141285 -166.78644 
L 204.244536 -166.788571 
L 206.429128 -166.287648 
L 221.847513 -156.755648 
L 222.161025 -155.299091 
L 222.26742 -154.804785 
L 223.929105 -152.31509 
L 226.020735 -151.364402 
L 227.630129 -149.953291 
L 227.583648 -146.457487 
L 227.0375 -145.204113 
L 224.858718 -142.460759 
L 224.597265 -141.721098 
L 224.30676 -140.267355 
L 224.091787 -139.700353 
L 222.174459 -137.393975 
L 220.367523 -134.337278 
L 219.437909 -132.764166 
L 218.467625 -129.982444 
L 218.333993 -127.204985 
L 218.763939 -125.840769 
L 219.373998 -124.651343 
L 219.844615 -123.329758 
L 219.873665 -121.569067 
L 219.339137 -120.469168 
L 218.479245 -119.582427 
L 217.822705 -118.697818 
L 217.886616 -117.928315 
L 219.153215 -117.553155 
L 222.586975 -116.979758 
L 223.743182 -117.348523 
L 224.794807 -117.069285 
L 227.740521 -117.435918 
L 228.681754 -117.293102 
L 239.30259 -113.933719 
L 239.209629 -112.993689 
L 239.447842 -112.789057 
L 239.796447 -112.816767 
L 240.011421 -112.560977 
L 240.011421 -112.074975 
L 239.779017 -111.286287 
L 239.639575 -109.350805 
L 239.459462 -108.461933 
L 239.552424 -107.688167 
L 240.267064 -106.669268 
L 241.661485 -105.594948 
L 247.674923 -103.644545 
L 249.847895 -101.566247 
L 251.114493 -100.828717 
L 253.543109 -100.044293 
L 254.323827 -100.014218 
L 254.705126 -99.99953 
L 256.157647 -100.415189 
L 258.609503 -101.670694 
L 259.184702 -102.512672 
L 259.335764 -103.143622 
L 259.382245 -103.838519 
L 259.649508 -104.882997 
L 260.503591 -106.330345 
L 261.415774 -106.500872 
L 262.50807 -106.213108 
L 263.908301 -106.279187 
L 263.937351 -107.820325 
L 264.919256 -109.713175 
L 266.336917 -111.345972 
L 267.969551 -112.286002 
L 268.277485 -112.347818 
L 268.59123 -112.286002 
L 268.887544 -112.092027 
L 268.893354 -112.092027 
L 268.893354 -112.079238 
L 269.474363 -111.452551 
L 270.648 -109.555438 
L 272.559518 -108.029221 
L 273.059185 -107.428113 
L 273.361309 -106.036186 
L 272.664099 -103.233148 
L 272.797731 -101.472457 
" style="stroke: #aaaaaa"/>
    </defs>
    <g clip-path="url(#pd8a0deedc3)">
     <use xlink:href="#mdbe1ce59fd" x="0" y="209.238265" style="fill: #aaaaaa; stroke: #aaaaaa"/>
    </g>
   </g>
   <g id="PathCollection_1">
    <defs>
     <path id="m7b46de9cb9" d="M 0 1.581139 
C 0.419323 1.581139 0.821528 1.41454 1.118034 1.118034 
C 1.41454 0.821528 1.581139 0.419323 1.581139 0 
C 1.581139 -0.419323 1.41454 -0.821528 1.118034 -1.118034 
C 0.821528 -1.41454 0.419323 -1.581139 0 -1.581139 
C -0.419323 -1.581139 -0.821528 -1.41454 -1.118034 -1.118034 
C -1.41454 -0.821528 -1.581139 -0.419323 -1.581139 0 
C -1.581139 0.419323 -1.41454 0.821528 -1.118034 1.118034 
C -0.821528 1.41454 -0.419323 1.581139 0 1.581139 
z
" style="stroke: #1f77b4; stroke-opacity: 0.5"/>
    </defs>
    <g clip-path="url(#pd8a0deedc3)">
     <use xlink:href="#m7b46de9cb9" x="159.241699" y="72.692454" style="fill: #1f77b4; fill-opacity: 0.5; stroke: #1f77b4; stroke-opacity: 0.5"/>
     <use xlink:href="#m7b46de9cb9" x="165.963527" y="77.779453" style="fill: #1f77b4; fill-opacity: 0.5; stroke: #1f77b4; stroke-opacity: 0.5"/>
     <use xlink:href="#m7b46de9cb9" x="162.674855" y="76.328229" style="fill: #1f77b4; fill-opacity: 0.5; stroke: #1f77b4; stroke-opacity: 0.5"/>
     <use xlink:href="#m7b46de9cb9" x="163.292693" y="70.833507" style="fill: #1f77b4; fill-opacity: 0.5; stroke: #1f77b4; stroke-opacity: 0.5"/>
     <use xlink:href="#m7b46de9cb9" x="161.31023" y="68.746576" style="fill: #1f77b4; fill-opacity: 0.5; stroke: #1f77b4; stroke-opacity: 0.5"/>
     <use xlink:href="#m7b46de9cb9" x="173.069706" y="42.878824" style="fill: #1f77b4; fill-opacity: 0.5; stroke: #1f77b4; stroke-opacity: 0.5"/>
     <use xlink:href="#m7b46de9cb9" x="161.72041" y="46.231676" style="fill: #1f77b4; fill-opacity: 0.5; stroke: #1f77b4; stroke-opacity: 0.5"/>
     <use xlink:href="#m7b46de9cb9" x="161.332933" y="58.017708" style="fill: #1f77b4; fill-opacity: 0.5; stroke: #1f77b4; stroke-opacity: 0.5"/>
     <use xlink:href="#m7b46de9cb9" x="182.722427" y="69.919818" style="fill: #1f77b4; fill-opacity: 0.5; stroke: #1f77b4; stroke-opacity: 0.5"/>
     <use xlink:href="#m7b46de9cb9" x="183.983806" y="68.852493" style="fill: #1f77b4; fill-opacity: 0.5; stroke: #1f77b4; stroke-opacity: 0.5"/>
     <use xlink:href="#m7b46de9cb9" x="181.890308" y="68.320728" style="fill: #1f77b4; fill-opacity: 0.5; stroke: #1f77b4; stroke-opacity: 0.5"/>
     <use xlink:href="#m7b46de9cb9" x="185.94901" y="70.16148" style="fill: #1f77b4; fill-opacity: 0.5; stroke: #1f77b4; stroke-opacity: 0.5"/>
     <use xlink:href="#m7b46de9cb9" x="173.976198" y="79.411913" style="fill: #1f77b4; fill-opacity: 0.5; stroke: #1f77b4; stroke-opacity: 0.5"/>
     <use xlink:href="#m7b46de9cb9" x="166.546701" y="72.76171" style="fill: #1f77b4; fill-opacity: 0.5; stroke: #1f77b4; stroke-opacity: 0.5"/>
     <use xlink:href="#m7b46de9cb9" x="174.891094" y="74.66705" style="fill: #1f77b4; fill-opacity: 0.5; stroke: #1f77b4; stroke-opacity: 0.5"/>
     <use xlink:href="#m7b46de9cb9" x="179.475573" y="62.575473" style="fill: #1f77b4; fill-opacity: 0.5; stroke: #1f77b4; stroke-opacity: 0.5"/>
     <use xlink:href="#m7b46de9cb9" x="179.522195" y="61.339963" style="fill: #1f77b4; fill-opacity: 0.5; stroke: #1f77b4; stroke-opacity: 0.5"/>
     <use xlink:href="#m7b46de9cb9" x="183.61493" y="63.536416" style="fill: #1f77b4; fill-opacity: 0.5; stroke: #1f77b4; stroke-opacity: 0.5"/>
     <use xlink:href="#m7b46de9cb9" x="180.931709" y="61.315864" style="fill: #1f77b4; fill-opacity: 0.5; stroke: #1f77b4; stroke-opacity: 0.5"/>
     <use xlink:href="#m7b46de9cb9" x="175.030362" y="65.496804" style="fill: #1f77b4; fill-opacity: 0.5; stroke: #1f77b4; stroke-opacity: 0.5"/>
     <use xlink:href="#m7b46de9cb9" x="176.488855" y="66.394824" style="fill: #1f77b4; fill-opacity: 0.5; stroke: #1f77b4; stroke-opacity: 0.5"/>
     <use xlink:href="#m7b46de9cb9" x="176.036077" y="65.50558" style="fill: #1f77b4; fill-opacity: 0.5; stroke: #1f77b4; stroke-opacity: 0.5"/>
     <use xlink:href="#m7b46de9cb9" x="173.191275" y="64.006094" style="fill: #1f77b4; fill-opacity: 0.5; stroke: #1f77b4; stroke-opacity: 0.5"/>
     <use xlink:href="#m7b46de9cb9" x="176.048551" y="50.689731" style="fill: #1f77b4; fill-opacity: 0.5; stroke: #1f77b4; stroke-opacity: 0.5"/>
     <use xlink:href="#m7b46de9cb9" x="175.029045" y="49.449608" style="fill: #1f77b4; fill-opacity: 0.5; stroke: #1f77b4; stroke-opacity: 0.5"/>
     <use xlink:href="#m7b46de9cb9" x="179.686733" y="56.413638" style="fill: #1f77b4; fill-opacity: 0.5; stroke: #1f77b4; stroke-opacity: 0.5"/>
     <use xlink:href="#m7b46de9cb9" x="158.07662" y="61.692515" style="fill: #1f77b4; fill-opacity: 0.5; stroke: #1f77b4; stroke-opacity: 0.5"/>
     <use xlink:href="#m7b46de9cb9" x="156.940792" y="61.149119" style="fill: #1f77b4; fill-opacity: 0.5; stroke: #1f77b4; stroke-opacity: 0.5"/>
     <use xlink:href="#m7b46de9cb9" x="179.570886" y="46.77636" style="fill: #1f77b4; fill-opacity: 0.5; stroke: #1f77b4; stroke-opacity: 0.5"/>
     <use xlink:href="#m7b46de9cb9" x="171.674799" y="78.381023" style="fill: #1f77b4; fill-opacity: 0.5; stroke: #1f77b4; stroke-opacity: 0.5"/>
     <use xlink:href="#m7b46de9cb9" x="181.058155" y="52.103107" style="fill: #1f77b4; fill-opacity: 0.5; stroke: #1f77b4; stroke-opacity: 0.5"/>
     <use xlink:href="#m7b46de9cb9" x="97.898134" y="90.546936" style="fill: #1f77b4; fill-opacity: 0.5; stroke: #1f77b4; stroke-opacity: 0.5"/>
     <use xlink:href="#m7b46de9cb9" x="96.73654" y="88.28035" style="fill: #1f77b4; fill-opacity: 0.5; stroke: #1f77b4; stroke-opacity: 0.5"/>
     <use xlink:href="#m7b46de9cb9" x="101.875123" y="91.096251" style="fill: #1f77b4; fill-opacity: 0.5; stroke: #1f77b4; stroke-opacity: 0.5"/>
     <use xlink:href="#m7b46de9cb9" x="102.846842" y="92.376009" style="fill: #1f77b4; fill-opacity: 0.5; stroke: #1f77b4; stroke-opacity: 0.5"/>
     <use xlink:href="#m7b46de9cb9" x="103.827151" y="91.863079" style="fill: #1f77b4; fill-opacity: 0.5; stroke: #1f77b4; stroke-opacity: 0.5"/>
     <use xlink:href="#m7b46de9cb9" x="101.715595" y="92.771948" style="fill: #1f77b4; fill-opacity: 0.5; stroke: #1f77b4; stroke-opacity: 0.5"/>
     <use xlink:href="#m7b46de9cb9" x="94.689599" y="97.055591" style="fill: #1f77b4; fill-opacity: 0.5; stroke: #1f77b4; stroke-opacity: 0.5"/>
     <use xlink:href="#m7b46de9cb9" x="96.478462" y="92.531965" style="fill: #1f77b4; fill-opacity: 0.5; stroke: #1f77b4; stroke-opacity: 0.5"/>
     <use xlink:href="#m7b46de9cb9" x="125.77767" y="85.375845" style="fill: #1f77b4; fill-opacity: 0.5; stroke: #1f77b4; stroke-opacity: 0.5"/>
     <use xlink:href="#m7b46de9cb9" x="119.6096" y="76.967455" style="fill: #1f77b4; fill-opacity: 0.5; stroke: #1f77b4; stroke-opacity: 0.5"/>
     <use xlink:href="#m7b46de9cb9" x="125.345634" y="81.104011" style="fill: #1f77b4; fill-opacity: 0.5; stroke: #1f77b4; stroke-opacity: 0.5"/>
     <use xlink:href="#m7b46de9cb9" x="127.367205" y="84.4991" style="fill: #1f77b4; fill-opacity: 0.5; stroke: #1f77b4; stroke-opacity: 0.5"/>
     <use xlink:href="#m7b46de9cb9" x="123.147029" y="81.014726" style="fill: #1f77b4; fill-opacity: 0.5; stroke: #1f77b4; stroke-opacity: 0.5"/>
     <use xlink:href="#m7b46de9cb9" x="125.447429" y="83.418481" style="fill: #1f77b4; fill-opacity: 0.5; stroke: #1f77b4; stroke-opacity: 0.5"/>
     <use xlink:href="#m7b46de9cb9" x="123.707306" y="83.188866" style="fill: #1f77b4; fill-opacity: 0.5; stroke: #1f77b4; stroke-opacity: 0.5"/>
     <use xlink:href="#m7b46de9cb9" x="121.952515" y="83.874479" style="fill: #1f77b4; fill-opacity: 0.5; stroke: #1f77b4; stroke-opacity: 0.5"/>
     <use xlink:href="#m7b46de9cb9" x="123.083515" y="84.941397" style="fill: #1f77b4; fill-opacity: 0.5; stroke: #1f77b4; stroke-opacity: 0.5"/>
     <use xlink:href="#m7b46de9cb9" x="127.892164" y="82.859756" style="fill: #1f77b4; fill-opacity: 0.5; stroke: #1f77b4; stroke-opacity: 0.5"/>
     <use xlink:href="#m7b46de9cb9" x="124.514651" y="77.22507" style="fill: #1f77b4; fill-opacity: 0.5; stroke: #1f77b4; stroke-opacity: 0.5"/>
     <use xlink:href="#m7b46de9cb9" x="121.707076" y="87.162322" style="fill: #1f77b4; fill-opacity: 0.5; stroke: #1f77b4; stroke-opacity: 0.5"/>
     <use xlink:href="#m7b46de9cb9" x="97.459901" y="97.218417" style="fill: #1f77b4; fill-opacity: 0.5; stroke: #1f77b4; stroke-opacity: 0.5"/>
     <use xlink:href="#m7b46de9cb9" x="101.881423" y="85.675056" style="fill: #1f77b4; fill-opacity: 0.5; stroke: #1f77b4; stroke-opacity: 0.5"/>
     <use xlink:href="#m7b46de9cb9" x="108.483001" y="95.264114" style="fill: #1f77b4; fill-opacity: 0.5; stroke: #1f77b4; stroke-opacity: 0.5"/>
     <use xlink:href="#m7b46de9cb9" x="115.902995" y="92.149453" style="fill: #1f77b4; fill-opacity: 0.5; stroke: #1f77b4; stroke-opacity: 0.5"/>
     <use xlink:href="#m7b46de9cb9" x="110.577353" y="92.642263" style="fill: #1f77b4; fill-opacity: 0.5; stroke: #1f77b4; stroke-opacity: 0.5"/>
     <use xlink:href="#m7b46de9cb9" x="110.909162" y="93.310404" style="fill: #1f77b4; fill-opacity: 0.5; stroke: #1f77b4; stroke-opacity: 0.5"/>
     <use xlink:href="#m7b46de9cb9" x="113.203644" y="84.495207" style="fill: #1f77b4; fill-opacity: 0.5; stroke: #1f77b4; stroke-opacity: 0.5"/>
     <use xlink:href="#m7b46de9cb9" x="104.107574" y="93.391251" style="fill: #1f77b4; fill-opacity: 0.5; stroke: #1f77b4; stroke-opacity: 0.5"/>
     <use xlink:href="#m7b46de9cb9" x="105.576848" y="91.105055" style="fill: #1f77b4; fill-opacity: 0.5; stroke: #1f77b4; stroke-opacity: 0.5"/>
     <use xlink:href="#m7b46de9cb9" x="102.200254" y="94.981412" style="fill: #1f77b4; fill-opacity: 0.5; stroke: #1f77b4; stroke-opacity: 0.5"/>
     <use xlink:href="#m7b46de9cb9" x="105.01474" y="94.049698" style="fill: #1f77b4; fill-opacity: 0.5; stroke: #1f77b4; stroke-opacity: 0.5"/>
     <use xlink:href="#m7b46de9cb9" x="110.007466" y="84.022844" style="fill: #1f77b4; fill-opacity: 0.5; stroke: #1f77b4; stroke-opacity: 0.5"/>
     <use xlink:href="#m7b46de9cb9" x="105.050337" y="92.486581" style="fill: #1f77b4; fill-opacity: 0.5; stroke: #1f77b4; stroke-opacity: 0.5"/>
     <use xlink:href="#m7b46de9cb9" x="140.828212" y="116.412812" style="fill: #1f77b4; fill-opacity: 0.5; stroke: #1f77b4; stroke-opacity: 0.5"/>
     <use xlink:href="#m7b46de9cb9" x="129.746565" y="125.318503" style="fill: #1f77b4; fill-opacity: 0.5; stroke: #1f77b4; stroke-opacity: 0.5"/>
     <use xlink:href="#m7b46de9cb9" x="128.683647" y="125.435422" style="fill: #1f77b4; fill-opacity: 0.5; stroke: #1f77b4; stroke-opacity: 0.5"/>
     <use xlink:href="#m7b46de9cb9" x="127.772468" y="121.186544" style="fill: #1f77b4; fill-opacity: 0.5; stroke: #1f77b4; stroke-opacity: 0.5"/>
     <use xlink:href="#m7b46de9cb9" x="118.113785" y="105.967614" style="fill: #1f77b4; fill-opacity: 0.5; stroke: #1f77b4; stroke-opacity: 0.5"/>
     <use xlink:href="#m7b46de9cb9" x="113.170479" y="104.260807" style="fill: #1f77b4; fill-opacity: 0.5; stroke: #1f77b4; stroke-opacity: 0.5"/>
     <use xlink:href="#m7b46de9cb9" x="117.205397" y="100.142229" style="fill: #1f77b4; fill-opacity: 0.5; stroke: #1f77b4; stroke-opacity: 0.5"/>
     <use xlink:href="#m7b46de9cb9" x="116.147613" y="105.192802" style="fill: #1f77b4; fill-opacity: 0.5; stroke: #1f77b4; stroke-opacity: 0.5"/>
     <use xlink:href="#m7b46de9cb9" x="91.779153" y="100.009619" style="fill: #1f77b4; fill-opacity: 0.5; stroke: #1f77b4; stroke-opacity: 0.5"/>
     <use xlink:href="#m7b46de9cb9" x="90.503655" y="103.700824" style="fill: #1f77b4; fill-opacity: 0.5; stroke: #1f77b4; stroke-opacity: 0.5"/>
     <use xlink:href="#m7b46de9cb9" x="85.691003" y="104.023601" style="fill: #1f77b4; fill-opacity: 0.5; stroke: #1f77b4; stroke-opacity: 0.5"/>
     <use xlink:href="#m7b46de9cb9" x="91.344839" y="92.209703" style="fill: #1f77b4; fill-opacity: 0.5; stroke: #1f77b4; stroke-opacity: 0.5"/>
     <use xlink:href="#m7b46de9cb9" x="102.317744" y="123.999286" style="fill: #1f77b4; fill-opacity: 0.5; stroke: #1f77b4; stroke-opacity: 0.5"/>
     <use xlink:href="#m7b46de9cb9" x="106.502659" y="114.775865" style="fill: #1f77b4; fill-opacity: 0.5; stroke: #1f77b4; stroke-opacity: 0.5"/>
     <use xlink:href="#m7b46de9cb9" x="123.973931" y="108.486708" style="fill: #1f77b4; fill-opacity: 0.5; stroke: #1f77b4; stroke-opacity: 0.5"/>
     <use xlink:href="#m7b46de9cb9" x="119.553748" y="99.774539" style="fill: #1f77b4; fill-opacity: 0.5; stroke: #1f77b4; stroke-opacity: 0.5"/>
     <use xlink:href="#m7b46de9cb9" x="118.754794" y="97.706219" style="fill: #1f77b4; fill-opacity: 0.5; stroke: #1f77b4; stroke-opacity: 0.5"/>
     <use xlink:href="#m7b46de9cb9" x="119.947761" y="119.697747" style="fill: #1f77b4; fill-opacity: 0.5; stroke: #1f77b4; stroke-opacity: 0.5"/>
     <use xlink:href="#m7b46de9cb9" x="117.739921" y="118.197505" style="fill: #1f77b4; fill-opacity: 0.5; stroke: #1f77b4; stroke-opacity: 0.5"/>
     <use xlink:href="#m7b46de9cb9" x="116.160512" y="116.36411" style="fill: #1f77b4; fill-opacity: 0.5; stroke: #1f77b4; stroke-opacity: 0.5"/>
     <use xlink:href="#m7b46de9cb9" x="126.576781" y="89.081108" style="fill: #1f77b4; fill-opacity: 0.5; stroke: #1f77b4; stroke-opacity: 0.5"/>
     <use xlink:href="#m7b46de9cb9" x="126.936734" y="90.858392" style="fill: #1f77b4; fill-opacity: 0.5; stroke: #1f77b4; stroke-opacity: 0.5"/>
     <use xlink:href="#m7b46de9cb9" x="112.816246" y="75.923037" style="fill: #1f77b4; fill-opacity: 0.5; stroke: #1f77b4; stroke-opacity: 0.5"/>
     <use xlink:href="#m7b46de9cb9" x="117.474669" y="80.188984" style="fill: #1f77b4; fill-opacity: 0.5; stroke: #1f77b4; stroke-opacity: 0.5"/>
     <use xlink:href="#m7b46de9cb9" x="115.899382" y="79.925404" style="fill: #1f77b4; fill-opacity: 0.5; stroke: #1f77b4; stroke-opacity: 0.5"/>
     <use xlink:href="#m7b46de9cb9" x="116.254223" y="85.064453" style="fill: #1f77b4; fill-opacity: 0.5; stroke: #1f77b4; stroke-opacity: 0.5"/>
     <use xlink:href="#m7b46de9cb9" x="117.672212" y="85.041241" style="fill: #1f77b4; fill-opacity: 0.5; stroke: #1f77b4; stroke-opacity: 0.5"/>
     <use xlink:href="#m7b46de9cb9" x="117.941459" y="83.753799" style="fill: #1f77b4; fill-opacity: 0.5; stroke: #1f77b4; stroke-opacity: 0.5"/>
     <use xlink:href="#m7b46de9cb9" x="117.742435" y="77.205365" style="fill: #1f77b4; fill-opacity: 0.5; stroke: #1f77b4; stroke-opacity: 0.5"/>
     <use xlink:href="#m7b46de9cb9" x="117.209354" y="77.793706" style="fill: #1f77b4; fill-opacity: 0.5; stroke: #1f77b4; stroke-opacity: 0.5"/>
     <use xlink:href="#m7b46de9cb9" x="154.501427" y="85.080967" style="fill: #1f77b4; fill-opacity: 0.5; stroke: #1f77b4; stroke-opacity: 0.5"/>
     <use xlink:href="#m7b46de9cb9" x="153.547611" y="83.69447" style="fill: #1f77b4; fill-opacity: 0.5; stroke: #1f77b4; stroke-opacity: 0.5"/>
     <use xlink:href="#m7b46de9cb9" x="148.485183" y="80.15144" style="fill: #1f77b4; fill-opacity: 0.5; stroke: #1f77b4; stroke-opacity: 0.5"/>
     <use xlink:href="#m7b46de9cb9" x="150.966079" y="84.396731" style="fill: #1f77b4; fill-opacity: 0.5; stroke: #1f77b4; stroke-opacity: 0.5"/>
     <use xlink:href="#m7b46de9cb9" x="148.880462" y="82.295996" style="fill: #1f77b4; fill-opacity: 0.5; stroke: #1f77b4; stroke-opacity: 0.5"/>
     <use xlink:href="#m7b46de9cb9" x="155.563783" y="90.663729" style="fill: #1f77b4; fill-opacity: 0.5; stroke: #1f77b4; stroke-opacity: 0.5"/>
     <use xlink:href="#m7b46de9cb9" x="152.372167" y="96.700316" style="fill: #1f77b4; fill-opacity: 0.5; stroke: #1f77b4; stroke-opacity: 0.5"/>
     <use xlink:href="#m7b46de9cb9" x="157.345217" y="87.849598" style="fill: #1f77b4; fill-opacity: 0.5; stroke: #1f77b4; stroke-opacity: 0.5"/>
     <use xlink:href="#m7b46de9cb9" x="144.455935" y="80.678194" style="fill: #1f77b4; fill-opacity: 0.5; stroke: #1f77b4; stroke-opacity: 0.5"/>
     <use xlink:href="#m7b46de9cb9" x="138.83138" y="79.894522" style="fill: #1f77b4; fill-opacity: 0.5; stroke: #1f77b4; stroke-opacity: 0.5"/>
     <use xlink:href="#m7b46de9cb9" x="137.250088" y="81.41638" style="fill: #1f77b4; fill-opacity: 0.5; stroke: #1f77b4; stroke-opacity: 0.5"/>
     <use xlink:href="#m7b46de9cb9" x="143.883694" y="87.246013" style="fill: #1f77b4; fill-opacity: 0.5; stroke: #1f77b4; stroke-opacity: 0.5"/>
     <use xlink:href="#m7b46de9cb9" x="142.252022" y="89.781163" style="fill: #1f77b4; fill-opacity: 0.5; stroke: #1f77b4; stroke-opacity: 0.5"/>
     <use xlink:href="#m7b46de9cb9" x="138.285099" y="78.38139" style="fill: #1f77b4; fill-opacity: 0.5; stroke: #1f77b4; stroke-opacity: 0.5"/>
     <use xlink:href="#m7b46de9cb9" x="134.482517" y="84.384379" style="fill: #1f77b4; fill-opacity: 0.5; stroke: #1f77b4; stroke-opacity: 0.5"/>
     <use xlink:href="#m7b46de9cb9" x="134.864121" y="81.747871" style="fill: #1f77b4; fill-opacity: 0.5; stroke: #1f77b4; stroke-opacity: 0.5"/>
     <use xlink:href="#m7b46de9cb9" x="137.204002" y="83.147295" style="fill: #1f77b4; fill-opacity: 0.5; stroke: #1f77b4; stroke-opacity: 0.5"/>
     <use xlink:href="#m7b46de9cb9" x="135.818762" y="84.501702" style="fill: #1f77b4; fill-opacity: 0.5; stroke: #1f77b4; stroke-opacity: 0.5"/>
     <use xlink:href="#m7b46de9cb9" x="128.712615" y="85.754135" style="fill: #1f77b4; fill-opacity: 0.5; stroke: #1f77b4; stroke-opacity: 0.5"/>
     <use xlink:href="#m7b46de9cb9" x="133.571436" y="89.389959" style="fill: #1f77b4; fill-opacity: 0.5; stroke: #1f77b4; stroke-opacity: 0.5"/>
     <use xlink:href="#m7b46de9cb9" x="132.382418" y="91.501116" style="fill: #1f77b4; fill-opacity: 0.5; stroke: #1f77b4; stroke-opacity: 0.5"/>
     <use xlink:href="#m7b46de9cb9" x="129.456577" y="79.783419" style="fill: #1f77b4; fill-opacity: 0.5; stroke: #1f77b4; stroke-opacity: 0.5"/>
     <use xlink:href="#m7b46de9cb9" x="135.467819" y="88.475642" style="fill: #1f77b4; fill-opacity: 0.5; stroke: #1f77b4; stroke-opacity: 0.5"/>
     <use xlink:href="#m7b46de9cb9" x="180.784401" y="85.689012" style="fill: #1f77b4; fill-opacity: 0.5; stroke: #1f77b4; stroke-opacity: 0.5"/>
     <use xlink:href="#m7b46de9cb9" x="176.155998" y="80.496019" style="fill: #1f77b4; fill-opacity: 0.5; stroke: #1f77b4; stroke-opacity: 0.5"/>
     <use xlink:href="#m7b46de9cb9" x="164.277143" y="89.16698" style="fill: #1f77b4; fill-opacity: 0.5; stroke: #1f77b4; stroke-opacity: 0.5"/>
     <use xlink:href="#m7b46de9cb9" x="141.636509" y="110.078538" style="fill: #1f77b4; fill-opacity: 0.5; stroke: #1f77b4; stroke-opacity: 0.5"/>
     <use xlink:href="#m7b46de9cb9" x="148.781975" y="103.435125" style="fill: #1f77b4; fill-opacity: 0.5; stroke: #1f77b4; stroke-opacity: 0.5"/>
     <use xlink:href="#m7b46de9cb9" x="146.615174" y="107.021342" style="fill: #1f77b4; fill-opacity: 0.5; stroke: #1f77b4; stroke-opacity: 0.5"/>
     <use xlink:href="#m7b46de9cb9" x="156.405417" y="102.947831" style="fill: #1f77b4; fill-opacity: 0.5; stroke: #1f77b4; stroke-opacity: 0.5"/>
     <use xlink:href="#m7b46de9cb9" x="163.35711" y="85.389561" style="fill: #1f77b4; fill-opacity: 0.5; stroke: #1f77b4; stroke-opacity: 0.5"/>
     <use xlink:href="#m7b46de9cb9" x="89.989613" y="100.305268" style="fill: #1f77b4; fill-opacity: 0.5; stroke: #1f77b4; stroke-opacity: 0.5"/>
     <use xlink:href="#m7b46de9cb9" x="93.706911" y="105.677131" style="fill: #1f77b4; fill-opacity: 0.5; stroke: #1f77b4; stroke-opacity: 0.5"/>
     <use xlink:href="#m7b46de9cb9" x="93.837008" y="114.718994" style="fill: #1f77b4; fill-opacity: 0.5; stroke: #1f77b4; stroke-opacity: 0.5"/>
     <use xlink:href="#m7b46de9cb9" x="123.498795" y="74.36609" style="fill: #1f77b4; fill-opacity: 0.5; stroke: #1f77b4; stroke-opacity: 0.5"/>
     <use xlink:href="#m7b46de9cb9" x="111.515747" y="69.927639" style="fill: #1f77b4; fill-opacity: 0.5; stroke: #1f77b4; stroke-opacity: 0.5"/>
     <use xlink:href="#m7b46de9cb9" x="111.016027" y="69.689915" style="fill: #1f77b4; fill-opacity: 0.5; stroke: #1f77b4; stroke-opacity: 0.5"/>
     <use xlink:href="#m7b46de9cb9" x="110.972823" y="72.671544" style="fill: #1f77b4; fill-opacity: 0.5; stroke: #1f77b4; stroke-opacity: 0.5"/>
     <use xlink:href="#m7b46de9cb9" x="115.038817" y="66.467369" style="fill: #1f77b4; fill-opacity: 0.5; stroke: #1f77b4; stroke-opacity: 0.5"/>
     <use xlink:href="#m7b46de9cb9" x="117.935293" y="65.962664" style="fill: #1f77b4; fill-opacity: 0.5; stroke: #1f77b4; stroke-opacity: 0.5"/>
     <use xlink:href="#m7b46de9cb9" x="102.318821" y="87.465109" style="fill: #1f77b4; fill-opacity: 0.5; stroke: #1f77b4; stroke-opacity: 0.5"/>
     <use xlink:href="#m7b46de9cb9" x="106.240667" y="83.534931" style="fill: #1f77b4; fill-opacity: 0.5; stroke: #1f77b4; stroke-opacity: 0.5"/>
     <use xlink:href="#m7b46de9cb9" x="100.616596" y="87.812501" style="fill: #1f77b4; fill-opacity: 0.5; stroke: #1f77b4; stroke-opacity: 0.5"/>
     <use xlink:href="#m7b46de9cb9" x="103.015556" y="85.281911" style="fill: #1f77b4; fill-opacity: 0.5; stroke: #1f77b4; stroke-opacity: 0.5"/>
     <use xlink:href="#m7b46de9cb9" x="103.393808" y="86.951782" style="fill: #1f77b4; fill-opacity: 0.5; stroke: #1f77b4; stroke-opacity: 0.5"/>
     <use xlink:href="#m7b46de9cb9" x="103.556595" y="85.98257" style="fill: #1f77b4; fill-opacity: 0.5; stroke: #1f77b4; stroke-opacity: 0.5"/>
     <use xlink:href="#m7b46de9cb9" x="107.362035" y="56.094659" style="fill: #1f77b4; fill-opacity: 0.5; stroke: #1f77b4; stroke-opacity: 0.5"/>
     <use xlink:href="#m7b46de9cb9" x="108.18564" y="56.330641" style="fill: #1f77b4; fill-opacity: 0.5; stroke: #1f77b4; stroke-opacity: 0.5"/>
     <use xlink:href="#m7b46de9cb9" x="110.254706" y="80.362476" style="fill: #1f77b4; fill-opacity: 0.5; stroke: #1f77b4; stroke-opacity: 0.5"/>
     <use xlink:href="#m7b46de9cb9" x="113.611431" y="81.682241" style="fill: #1f77b4; fill-opacity: 0.5; stroke: #1f77b4; stroke-opacity: 0.5"/>
     <use xlink:href="#m7b46de9cb9" x="112.562843" y="83.309238" style="fill: #1f77b4; fill-opacity: 0.5; stroke: #1f77b4; stroke-opacity: 0.5"/>
     <use xlink:href="#m7b46de9cb9" x="114.310371" y="82.92606" style="fill: #1f77b4; fill-opacity: 0.5; stroke: #1f77b4; stroke-opacity: 0.5"/>
     <use xlink:href="#m7b46de9cb9" x="114.279834" y="83.495735" style="fill: #1f77b4; fill-opacity: 0.5; stroke: #1f77b4; stroke-opacity: 0.5"/>
     <use xlink:href="#m7b46de9cb9" x="105.049899" y="77.691498" style="fill: #1f77b4; fill-opacity: 0.5; stroke: #1f77b4; stroke-opacity: 0.5"/>
     <use xlink:href="#m7b46de9cb9" x="110.644081" y="76.092753" style="fill: #1f77b4; fill-opacity: 0.5; stroke: #1f77b4; stroke-opacity: 0.5"/>
     <use xlink:href="#m7b46de9cb9" x="132.042211" y="68.845842" style="fill: #1f77b4; fill-opacity: 0.5; stroke: #1f77b4; stroke-opacity: 0.5"/>
     <use xlink:href="#m7b46de9cb9" x="130.68013" y="68.305808" style="fill: #1f77b4; fill-opacity: 0.5; stroke: #1f77b4; stroke-opacity: 0.5"/>
     <use xlink:href="#m7b46de9cb9" x="104.873473" y="64.732568" style="fill: #1f77b4; fill-opacity: 0.5; stroke: #1f77b4; stroke-opacity: 0.5"/>
     <use xlink:href="#m7b46de9cb9" x="109.218624" y="66.020787" style="fill: #1f77b4; fill-opacity: 0.5; stroke: #1f77b4; stroke-opacity: 0.5"/>
     <use xlink:href="#m7b46de9cb9" x="112.52476" y="64.597807" style="fill: #1f77b4; fill-opacity: 0.5; stroke: #1f77b4; stroke-opacity: 0.5"/>
     <use xlink:href="#m7b46de9cb9" x="108.675818" y="51.89219" style="fill: #1f77b4; fill-opacity: 0.5; stroke: #1f77b4; stroke-opacity: 0.5"/>
     <use xlink:href="#m7b46de9cb9" x="109.294445" y="53.755772" style="fill: #1f77b4; fill-opacity: 0.5; stroke: #1f77b4; stroke-opacity: 0.5"/>
     <use xlink:href="#m7b46de9cb9" x="109.925029" y="55.625087" style="fill: #1f77b4; fill-opacity: 0.5; stroke: #1f77b4; stroke-opacity: 0.5"/>
     <use xlink:href="#m7b46de9cb9" x="131.559389" y="59.248845" style="fill: #1f77b4; fill-opacity: 0.5; stroke: #1f77b4; stroke-opacity: 0.5"/>
     <use xlink:href="#m7b46de9cb9" x="119.067977" y="62.22606" style="fill: #1f77b4; fill-opacity: 0.5; stroke: #1f77b4; stroke-opacity: 0.5"/>
     <use xlink:href="#m7b46de9cb9" x="122.610379" y="64.039734" style="fill: #1f77b4; fill-opacity: 0.5; stroke: #1f77b4; stroke-opacity: 0.5"/>
     <use xlink:href="#m7b46de9cb9" x="115.275842" y="63.969223" style="fill: #1f77b4; fill-opacity: 0.5; stroke: #1f77b4; stroke-opacity: 0.5"/>
     <use xlink:href="#m7b46de9cb9" x="115.99523" y="65.177124" style="fill: #1f77b4; fill-opacity: 0.5; stroke: #1f77b4; stroke-opacity: 0.5"/>
     <use xlink:href="#m7b46de9cb9" x="119.133135" y="64.531981" style="fill: #1f77b4; fill-opacity: 0.5; stroke: #1f77b4; stroke-opacity: 0.5"/>
     <use xlink:href="#m7b46de9cb9" x="161.065175" y="40.263106" style="fill: #1f77b4; fill-opacity: 0.5; stroke: #1f77b4; stroke-opacity: 0.5"/>
     <use xlink:href="#m7b46de9cb9" x="209.127481" y="67.261937" style="fill: #1f77b4; fill-opacity: 0.5; stroke: #1f77b4; stroke-opacity: 0.5"/>
     <use xlink:href="#m7b46de9cb9" x="224.779849" y="60.908608" style="fill: #1f77b4; fill-opacity: 0.5; stroke: #1f77b4; stroke-opacity: 0.5"/>
     <use xlink:href="#m7b46de9cb9" x="210.252677" y="55.21518" style="fill: #1f77b4; fill-opacity: 0.5; stroke: #1f77b4; stroke-opacity: 0.5"/>
     <use xlink:href="#m7b46de9cb9" x="209.93906" y="56.160037" style="fill: #1f77b4; fill-opacity: 0.5; stroke: #1f77b4; stroke-opacity: 0.5"/>
     <use xlink:href="#m7b46de9cb9" x="208.90519" y="52.897269" style="fill: #1f77b4; fill-opacity: 0.5; stroke: #1f77b4; stroke-opacity: 0.5"/>
     <use xlink:href="#m7b46de9cb9" x="209.691977" y="61.957484" style="fill: #1f77b4; fill-opacity: 0.5; stroke: #1f77b4; stroke-opacity: 0.5"/>
     <use xlink:href="#m7b46de9cb9" x="215.100055" y="58.039083" style="fill: #1f77b4; fill-opacity: 0.5; stroke: #1f77b4; stroke-opacity: 0.5"/>
     <use xlink:href="#m7b46de9cb9" x="213.096944" y="79.982162" style="fill: #1f77b4; fill-opacity: 0.5; stroke: #1f77b4; stroke-opacity: 0.5"/>
     <use xlink:href="#m7b46de9cb9" x="181.195396" y="77.784265" style="fill: #1f77b4; fill-opacity: 0.5; stroke: #1f77b4; stroke-opacity: 0.5"/>
     <use xlink:href="#m7b46de9cb9" x="184.561363" y="76.750981" style="fill: #1f77b4; fill-opacity: 0.5; stroke: #1f77b4; stroke-opacity: 0.5"/>
     <use xlink:href="#m7b46de9cb9" x="190.928821" y="76.622524" style="fill: #1f77b4; fill-opacity: 0.5; stroke: #1f77b4; stroke-opacity: 0.5"/>
     <use xlink:href="#m7b46de9cb9" x="191.031612" y="73.508735" style="fill: #1f77b4; fill-opacity: 0.5; stroke: #1f77b4; stroke-opacity: 0.5"/>
     <use xlink:href="#m7b46de9cb9" x="194.925986" y="72.525844" style="fill: #1f77b4; fill-opacity: 0.5; stroke: #1f77b4; stroke-opacity: 0.5"/>
     <use xlink:href="#m7b46de9cb9" x="194.097639" y="60.22568" style="fill: #1f77b4; fill-opacity: 0.5; stroke: #1f77b4; stroke-opacity: 0.5"/>
     <use xlink:href="#m7b46de9cb9" x="194.052686" y="60.020177" style="fill: #1f77b4; fill-opacity: 0.5; stroke: #1f77b4; stroke-opacity: 0.5"/>
     <use xlink:href="#m7b46de9cb9" x="191.726791" y="61.452444" style="fill: #1f77b4; fill-opacity: 0.5; stroke: #1f77b4; stroke-opacity: 0.5"/>
     <use xlink:href="#m7b46de9cb9" x="191.087385" y="63.879777" style="fill: #1f77b4; fill-opacity: 0.5; stroke: #1f77b4; stroke-opacity: 0.5"/>
     <use xlink:href="#m7b46de9cb9" x="195.807149" y="62.473847" style="fill: #1f77b4; fill-opacity: 0.5; stroke: #1f77b4; stroke-opacity: 0.5"/>
     <use xlink:href="#m7b46de9cb9" x="197.751498" y="65.144188" style="fill: #1f77b4; fill-opacity: 0.5; stroke: #1f77b4; stroke-opacity: 0.5"/>
     <use xlink:href="#m7b46de9cb9" x="194.826782" y="67.15612" style="fill: #1f77b4; fill-opacity: 0.5; stroke: #1f77b4; stroke-opacity: 0.5"/>
     <use xlink:href="#m7b46de9cb9" x="196.293718" y="68.765112" style="fill: #1f77b4; fill-opacity: 0.5; stroke: #1f77b4; stroke-opacity: 0.5"/>
     <use xlink:href="#m7b46de9cb9" x="200.263551" y="64.911842" style="fill: #1f77b4; fill-opacity: 0.5; stroke: #1f77b4; stroke-opacity: 0.5"/>
     <use xlink:href="#m7b46de9cb9" x="199.813313" y="63.004517" style="fill: #1f77b4; fill-opacity: 0.5; stroke: #1f77b4; stroke-opacity: 0.5"/>
     <use xlink:href="#m7b46de9cb9" x="196.89547" y="60.751641" style="fill: #1f77b4; fill-opacity: 0.5; stroke: #1f77b4; stroke-opacity: 0.5"/>
     <use xlink:href="#m7b46de9cb9" x="199.447604" y="60.61601" style="fill: #1f77b4; fill-opacity: 0.5; stroke: #1f77b4; stroke-opacity: 0.5"/>
     <use xlink:href="#m7b46de9cb9" x="198.727913" y="62.331729" style="fill: #1f77b4; fill-opacity: 0.5; stroke: #1f77b4; stroke-opacity: 0.5"/>
     <use xlink:href="#m7b46de9cb9" x="198.723504" y="60.582151" style="fill: #1f77b4; fill-opacity: 0.5; stroke: #1f77b4; stroke-opacity: 0.5"/>
     <use xlink:href="#m7b46de9cb9" x="203.192426" y="59.716652" style="fill: #1f77b4; fill-opacity: 0.5; stroke: #1f77b4; stroke-opacity: 0.5"/>
     <use xlink:href="#m7b46de9cb9" x="197.887302" y="58.178953" style="fill: #1f77b4; fill-opacity: 0.5; stroke: #1f77b4; stroke-opacity: 0.5"/>
     <use xlink:href="#m7b46de9cb9" x="199.149539" y="57.67609" style="fill: #1f77b4; fill-opacity: 0.5; stroke: #1f77b4; stroke-opacity: 0.5"/>
     <use xlink:href="#m7b46de9cb9" x="201.530967" y="57.190567" style="fill: #1f77b4; fill-opacity: 0.5; stroke: #1f77b4; stroke-opacity: 0.5"/>
     <use xlink:href="#m7b46de9cb9" x="206.793745" y="60.40004" style="fill: #1f77b4; fill-opacity: 0.5; stroke: #1f77b4; stroke-opacity: 0.5"/>
     <use xlink:href="#m7b46de9cb9" x="204.650771" y="57.240223" style="fill: #1f77b4; fill-opacity: 0.5; stroke: #1f77b4; stroke-opacity: 0.5"/>
     <use xlink:href="#m7b46de9cb9" x="151.295245" y="59.15163" style="fill: #1f77b4; fill-opacity: 0.5; stroke: #1f77b4; stroke-opacity: 0.5"/>
     <use xlink:href="#m7b46de9cb9" x="152.872739" y="55.464759" style="fill: #1f77b4; fill-opacity: 0.5; stroke: #1f77b4; stroke-opacity: 0.5"/>
     <use xlink:href="#m7b46de9cb9" x="147.981147" y="62.44577" style="fill: #1f77b4; fill-opacity: 0.5; stroke: #1f77b4; stroke-opacity: 0.5"/>
     <use xlink:href="#m7b46de9cb9" x="153.663129" y="62.929448" style="fill: #1f77b4; fill-opacity: 0.5; stroke: #1f77b4; stroke-opacity: 0.5"/>
     <use xlink:href="#m7b46de9cb9" x="149.072703" y="62.077694" style="fill: #1f77b4; fill-opacity: 0.5; stroke: #1f77b4; stroke-opacity: 0.5"/>
     <use xlink:href="#m7b46de9cb9" x="154.348544" y="69.367339" style="fill: #1f77b4; fill-opacity: 0.5; stroke: #1f77b4; stroke-opacity: 0.5"/>
     <use xlink:href="#m7b46de9cb9" x="153.857543" y="65.964191" style="fill: #1f77b4; fill-opacity: 0.5; stroke: #1f77b4; stroke-opacity: 0.5"/>
     <use xlink:href="#m7b46de9cb9" x="151.278223" y="65.683693" style="fill: #1f77b4; fill-opacity: 0.5; stroke: #1f77b4; stroke-opacity: 0.5"/>
     <use xlink:href="#m7b46de9cb9" x="156.863601" y="68.550754" style="fill: #1f77b4; fill-opacity: 0.5; stroke: #1f77b4; stroke-opacity: 0.5"/>
     <use xlink:href="#m7b46de9cb9" x="149.612317" y="71.687154" style="fill: #1f77b4; fill-opacity: 0.5; stroke: #1f77b4; stroke-opacity: 0.5"/>
     <use xlink:href="#m7b46de9cb9" x="150.437723" y="70.613454" style="fill: #1f77b4; fill-opacity: 0.5; stroke: #1f77b4; stroke-opacity: 0.5"/>
     <use xlink:href="#m7b46de9cb9" x="146.429334" y="74.701089" style="fill: #1f77b4; fill-opacity: 0.5; stroke: #1f77b4; stroke-opacity: 0.5"/>
     <use xlink:href="#m7b46de9cb9" x="145.644781" y="72.479793" style="fill: #1f77b4; fill-opacity: 0.5; stroke: #1f77b4; stroke-opacity: 0.5"/>
     <use xlink:href="#m7b46de9cb9" x="142.89666" y="74.49789" style="fill: #1f77b4; fill-opacity: 0.5; stroke: #1f77b4; stroke-opacity: 0.5"/>
     <use xlink:href="#m7b46de9cb9" x="144.913036" y="70.643009" style="fill: #1f77b4; fill-opacity: 0.5; stroke: #1f77b4; stroke-opacity: 0.5"/>
     <use xlink:href="#m7b46de9cb9" x="144.633857" y="71.194651" style="fill: #1f77b4; fill-opacity: 0.5; stroke: #1f77b4; stroke-opacity: 0.5"/>
     <use xlink:href="#m7b46de9cb9" x="143.817755" y="72.757114" style="fill: #1f77b4; fill-opacity: 0.5; stroke: #1f77b4; stroke-opacity: 0.5"/>
     <use xlink:href="#m7b46de9cb9" x="134.896407" y="56.939416" style="fill: #1f77b4; fill-opacity: 0.5; stroke: #1f77b4; stroke-opacity: 0.5"/>
     <use xlink:href="#m7b46de9cb9" x="132.737459" y="52.410664" style="fill: #1f77b4; fill-opacity: 0.5; stroke: #1f77b4; stroke-opacity: 0.5"/>
     <use xlink:href="#m7b46de9cb9" x="143.7008" y="49.678355" style="fill: #1f77b4; fill-opacity: 0.5; stroke: #1f77b4; stroke-opacity: 0.5"/>
     <use xlink:href="#m7b46de9cb9" x="144.136535" y="51.70027" style="fill: #1f77b4; fill-opacity: 0.5; stroke: #1f77b4; stroke-opacity: 0.5"/>
     <use xlink:href="#m7b46de9cb9" x="146.448647" y="66.215327" style="fill: #1f77b4; fill-opacity: 0.5; stroke: #1f77b4; stroke-opacity: 0.5"/>
     <use xlink:href="#m7b46de9cb9" x="145.652066" y="67.569065" style="fill: #1f77b4; fill-opacity: 0.5; stroke: #1f77b4; stroke-opacity: 0.5"/>
     <use xlink:href="#m7b46de9cb9" x="144.784511" y="69.519972" style="fill: #1f77b4; fill-opacity: 0.5; stroke: #1f77b4; stroke-opacity: 0.5"/>
     <use xlink:href="#m7b46de9cb9" x="141.693601" y="65.005105" style="fill: #1f77b4; fill-opacity: 0.5; stroke: #1f77b4; stroke-opacity: 0.5"/>
     <use xlink:href="#m7b46de9cb9" x="147.557018" y="71.231668" style="fill: #1f77b4; fill-opacity: 0.5; stroke: #1f77b4; stroke-opacity: 0.5"/>
     <use xlink:href="#m7b46de9cb9" x="144.019238" y="62.207379" style="fill: #1f77b4; fill-opacity: 0.5; stroke: #1f77b4; stroke-opacity: 0.5"/>
     <use xlink:href="#m7b46de9cb9" x="142.373113" y="63.327836" style="fill: #1f77b4; fill-opacity: 0.5; stroke: #1f77b4; stroke-opacity: 0.5"/>
     <use xlink:href="#m7b46de9cb9" x="154.683927" y="82.296951" style="fill: #1f77b4; fill-opacity: 0.5; stroke: #1f77b4; stroke-opacity: 0.5"/>
     <use xlink:href="#m7b46de9cb9" x="154.397537" y="78.917379" style="fill: #1f77b4; fill-opacity: 0.5; stroke: #1f77b4; stroke-opacity: 0.5"/>
     <use xlink:href="#m7b46de9cb9" x="151.267237" y="73.690179" style="fill: #1f77b4; fill-opacity: 0.5; stroke: #1f77b4; stroke-opacity: 0.5"/>
     <use xlink:href="#m7b46de9cb9" x="152.411224" y="71.95221" style="fill: #1f77b4; fill-opacity: 0.5; stroke: #1f77b4; stroke-opacity: 0.5"/>
     <use xlink:href="#m7b46de9cb9" x="157.153005" y="84.240347" style="fill: #1f77b4; fill-opacity: 0.5; stroke: #1f77b4; stroke-opacity: 0.5"/>
     <use xlink:href="#m7b46de9cb9" x="153.178045" y="76.008831" style="fill: #1f77b4; fill-opacity: 0.5; stroke: #1f77b4; stroke-opacity: 0.5"/>
     <use xlink:href="#m7b46de9cb9" x="155.350953" y="76.241586" style="fill: #1f77b4; fill-opacity: 0.5; stroke: #1f77b4; stroke-opacity: 0.5"/>
     <use xlink:href="#m7b46de9cb9" x="155.421716" y="70.618519" style="fill: #1f77b4; fill-opacity: 0.5; stroke: #1f77b4; stroke-opacity: 0.5"/>
     <use xlink:href="#m7b46de9cb9" x="155.845872" y="81.341915" style="fill: #1f77b4; fill-opacity: 0.5; stroke: #1f77b4; stroke-opacity: 0.5"/>
     <use xlink:href="#m7b46de9cb9" x="151.546641" y="69.022947" style="fill: #1f77b4; fill-opacity: 0.5; stroke: #1f77b4; stroke-opacity: 0.5"/>
     <use xlink:href="#m7b46de9cb9" x="134.80307" y="73.210304" style="fill: #1f77b4; fill-opacity: 0.5; stroke: #1f77b4; stroke-opacity: 0.5"/>
     <use xlink:href="#m7b46de9cb9" x="136.998391" y="74.891517" style="fill: #1f77b4; fill-opacity: 0.5; stroke: #1f77b4; stroke-opacity: 0.5"/>
     <use xlink:href="#m7b46de9cb9" x="134.082878" y="70.075904" style="fill: #1f77b4; fill-opacity: 0.5; stroke: #1f77b4; stroke-opacity: 0.5"/>
     <use xlink:href="#m7b46de9cb9" x="136.81843" y="72.5173" style="fill: #1f77b4; fill-opacity: 0.5; stroke: #1f77b4; stroke-opacity: 0.5"/>
     <use xlink:href="#m7b46de9cb9" x="135.778194" y="74.612436" style="fill: #1f77b4; fill-opacity: 0.5; stroke: #1f77b4; stroke-opacity: 0.5"/>
     <use xlink:href="#m7b46de9cb9" x="145.684137" y="49.355998" style="fill: #1f77b4; fill-opacity: 0.5; stroke: #1f77b4; stroke-opacity: 0.5"/>
     <use xlink:href="#m7b46de9cb9" x="209.145059" y="49.097049" style="fill: #1f77b4; fill-opacity: 0.5; stroke: #1f77b4; stroke-opacity: 0.5"/>
     <use xlink:href="#m7b46de9cb9" x="208.764385" y="47.952881" style="fill: #1f77b4; fill-opacity: 0.5; stroke: #1f77b4; stroke-opacity: 0.5"/>
     <use xlink:href="#m7b46de9cb9" x="213.131656" y="54.508933" style="fill: #1f77b4; fill-opacity: 0.5; stroke: #1f77b4; stroke-opacity: 0.5"/>
     <use xlink:href="#m7b46de9cb9" x="209.48544" y="51.597344" style="fill: #1f77b4; fill-opacity: 0.5; stroke: #1f77b4; stroke-opacity: 0.5"/>
     <use xlink:href="#m7b46de9cb9" x="210.214156" y="48.922926" style="fill: #1f77b4; fill-opacity: 0.5; stroke: #1f77b4; stroke-opacity: 0.5"/>
     <use xlink:href="#m7b46de9cb9" x="205.934143" y="52.306269" style="fill: #1f77b4; fill-opacity: 0.5; stroke: #1f77b4; stroke-opacity: 0.5"/>
     <use xlink:href="#m7b46de9cb9" x="203.971525" y="52.476409" style="fill: #1f77b4; fill-opacity: 0.5; stroke: #1f77b4; stroke-opacity: 0.5"/>
     <use xlink:href="#m7b46de9cb9" x="206.530796" y="56.297372" style="fill: #1f77b4; fill-opacity: 0.5; stroke: #1f77b4; stroke-opacity: 0.5"/>
     <use xlink:href="#m7b46de9cb9" x="200.528631" y="53.063098" style="fill: #1f77b4; fill-opacity: 0.5; stroke: #1f77b4; stroke-opacity: 0.5"/>
     <use xlink:href="#m7b46de9cb9" x="176.32919" y="40.505621" style="fill: #1f77b4; fill-opacity: 0.5; stroke: #1f77b4; stroke-opacity: 0.5"/>
     <use xlink:href="#m7b46de9cb9" x="186.954266" y="55.183022" style="fill: #1f77b4; fill-opacity: 0.5; stroke: #1f77b4; stroke-opacity: 0.5"/>
     <use xlink:href="#m7b46de9cb9" x="190.999028" y="49.703838" style="fill: #1f77b4; fill-opacity: 0.5; stroke: #1f77b4; stroke-opacity: 0.5"/>
     <use xlink:href="#m7b46de9cb9" x="183.906306" y="47.364755" style="fill: #1f77b4; fill-opacity: 0.5; stroke: #1f77b4; stroke-opacity: 0.5"/>
     <use xlink:href="#m7b46de9cb9" x="198.424532" y="45.129888" style="fill: #1f77b4; fill-opacity: 0.5; stroke: #1f77b4; stroke-opacity: 0.5"/>
     <use xlink:href="#m7b46de9cb9" x="197.594796" y="46.141606" style="fill: #1f77b4; fill-opacity: 0.5; stroke: #1f77b4; stroke-opacity: 0.5"/>
     <use xlink:href="#m7b46de9cb9" x="199.703018" y="46.321915" style="fill: #1f77b4; fill-opacity: 0.5; stroke: #1f77b4; stroke-opacity: 0.5"/>
     <use xlink:href="#m7b46de9cb9" x="202.782432" y="45.787457" style="fill: #1f77b4; fill-opacity: 0.5; stroke: #1f77b4; stroke-opacity: 0.5"/>
     <use xlink:href="#m7b46de9cb9" x="198.645964" y="43.140606" style="fill: #1f77b4; fill-opacity: 0.5; stroke: #1f77b4; stroke-opacity: 0.5"/>
     <use xlink:href="#m7b46de9cb9" x="194.382831" y="44.40533" style="fill: #1f77b4; fill-opacity: 0.5; stroke: #1f77b4; stroke-opacity: 0.5"/>
     <use xlink:href="#m7b46de9cb9" x="196.533052" y="45.776924" style="fill: #1f77b4; fill-opacity: 0.5; stroke: #1f77b4; stroke-opacity: 0.5"/>
     <use xlink:href="#m7b46de9cb9" x="195.633343" y="45.203802" style="fill: #1f77b4; fill-opacity: 0.5; stroke: #1f77b4; stroke-opacity: 0.5"/>
     <use xlink:href="#m7b46de9cb9" x="194.107983" y="45.65223" style="fill: #1f77b4; fill-opacity: 0.5; stroke: #1f77b4; stroke-opacity: 0.5"/>
     <use xlink:href="#m7b46de9cb9" x="195.351246" y="44.068524" style="fill: #1f77b4; fill-opacity: 0.5; stroke: #1f77b4; stroke-opacity: 0.5"/>
     <use xlink:href="#m7b46de9cb9" x="194.801851" y="52.930339" style="fill: #1f77b4; fill-opacity: 0.5; stroke: #1f77b4; stroke-opacity: 0.5"/>
     <use xlink:href="#m7b46de9cb9" x="194.187338" y="52.280583" style="fill: #1f77b4; fill-opacity: 0.5; stroke: #1f77b4; stroke-opacity: 0.5"/>
     <use xlink:href="#m7b46de9cb9" x="187.597734" y="59.281867" style="fill: #1f77b4; fill-opacity: 0.5; stroke: #1f77b4; stroke-opacity: 0.5"/>
     <use xlink:href="#m7b46de9cb9" x="188.495875" y="59.209156" style="fill: #1f77b4; fill-opacity: 0.5; stroke: #1f77b4; stroke-opacity: 0.5"/>
     <use xlink:href="#m7b46de9cb9" x="190.594629" y="56.937672" style="fill: #1f77b4; fill-opacity: 0.5; stroke: #1f77b4; stroke-opacity: 0.5"/>
     <use xlink:href="#m7b46de9cb9" x="193.300434" y="59.622156" style="fill: #1f77b4; fill-opacity: 0.5; stroke: #1f77b4; stroke-opacity: 0.5"/>
     <use xlink:href="#m7b46de9cb9" x="198.523769" y="54.188698" style="fill: #1f77b4; fill-opacity: 0.5; stroke: #1f77b4; stroke-opacity: 0.5"/>
     <use xlink:href="#m7b46de9cb9" x="191.999121" y="59.121149" style="fill: #1f77b4; fill-opacity: 0.5; stroke: #1f77b4; stroke-opacity: 0.5"/>
     <use xlink:href="#m7b46de9cb9" x="188.154429" y="56.954618" style="fill: #1f77b4; fill-opacity: 0.5; stroke: #1f77b4; stroke-opacity: 0.5"/>
     <use xlink:href="#m7b46de9cb9" x="194.687403" y="42.423253" style="fill: #1f77b4; fill-opacity: 0.5; stroke: #1f77b4; stroke-opacity: 0.5"/>
     <use xlink:href="#m7b46de9cb9" x="180.791237" y="42.380135" style="fill: #1f77b4; fill-opacity: 0.5; stroke: #1f77b4; stroke-opacity: 0.5"/>
     <use xlink:href="#m7b46de9cb9" x="202.82375" y="48.908599" style="fill: #1f77b4; fill-opacity: 0.5; stroke: #1f77b4; stroke-opacity: 0.5"/>
     <use xlink:href="#m7b46de9cb9" x="203.777408" y="48.803917" style="fill: #1f77b4; fill-opacity: 0.5; stroke: #1f77b4; stroke-opacity: 0.5"/>
     <use xlink:href="#m7b46de9cb9" x="203.159514" y="49.870572" style="fill: #1f77b4; fill-opacity: 0.5; stroke: #1f77b4; stroke-opacity: 0.5"/>
     <use xlink:href="#m7b46de9cb9" x="196.528549" y="53.999009" style="fill: #1f77b4; fill-opacity: 0.5; stroke: #1f77b4; stroke-opacity: 0.5"/>
     <use xlink:href="#m7b46de9cb9" x="193.139877" y="46.242098" style="fill: #1f77b4; fill-opacity: 0.5; stroke: #1f77b4; stroke-opacity: 0.5"/>
     <use xlink:href="#m7b46de9cb9" x="194.546367" y="46.368966" style="fill: #1f77b4; fill-opacity: 0.5; stroke: #1f77b4; stroke-opacity: 0.5"/>
     <use xlink:href="#m7b46de9cb9" x="122.877825" y="145.515667" style="fill: #1f77b4; fill-opacity: 0.5; stroke: #1f77b4; stroke-opacity: 0.5"/>
     <use xlink:href="#m7b46de9cb9" x="96.753633" y="61.40454" style="fill: #1f77b4; fill-opacity: 0.5; stroke: #1f77b4; stroke-opacity: 0.5"/>
    </g>
   </g>
   <g id="text_1">
    <text style="font: 12px 'DejaVu Sans', 'Bitstream Vera Sans', 'Computer Modern Sans Serif', 'Lucida Grande', 'Verdana', 'Geneva', 'Lucid', 'Arial', 'Helvetica', 'Avant Garde', sans-serif; text-anchor: middle" x="146.7" y="16.318125" transform="rotate(-0 146.7 16.318125)">-wil 283x</text>
   </g>
  </g>
 </g>
 <defs>
  <clipPath id="pd8a0deedc3">
   <rect x="7.2" y="22.318125" width="279" height="179.72014"/>
  </clipPath>
 </defs>
</svg>
